<?xml version="1.0" encoding="utf-8" standalone="no"?>
<!DOCTYPE svg PUBLIC "-//W3C//DTD SVG 1.1//EN"
  "http://www.w3.org/Graphics/SVG/1.1/DTD/svg11.dtd">
<svg xmlns:xlink="http://www.w3.org/1999/xlink" width="720pt" height="720pt" viewBox="0 0 720 720" xmlns="http://www.w3.org/2000/svg" version="1.1">
 <metadata>
  <rdf:RDF xmlns:dc="http://purl.org/dc/elements/1.1/" xmlns:cc="http://creativecommons.org/ns#" xmlns:rdf="http://www.w3.org/1999/02/22-rdf-syntax-ns#">
   <cc:Work>
    <dc:type rdf:resource="http://purl.org/dc/dcmitype/StillImage"/>
    <dc:date>2023-11-23T21:09:14.114697</dc:date>
    <dc:format>image/svg+xml</dc:format>
    <dc:creator>
     <cc:Agent>
      <dc:title>Matplotlib v3.7.2, https://matplotlib.org/</dc:title>
     </cc:Agent>
    </dc:creator>
   </cc:Work>
  </rdf:RDF>
 </metadata>
 <defs>
  <style type="text/css">*{stroke-linejoin: round; stroke-linecap: butt}</style>
 </defs>
 <g id="figure_1">
  <g id="patch_1">
   <path d="M 0 720 
L 720 720 
L 720 0 
L 0 0 
z
" style="fill: #ffffff"/>
  </g>
  <g id="axes_1">
   <g id="patch_2">
    <path d="M 104.87 603.52 
L 680.062185 603.52 
L 680.062185 67.44 
L 104.87 67.44 
z
" style="fill: #ffffff"/>
   </g>
   <g id="PolyCollection_1">
    <path d="M -415.657405 853.638399 
L -415.657405 856.317664 
L -413.619782 855.319881 
L -411.617137 854.356259 
L -409.631284 853.446087 
L -407.621441 852.461548 
L -405.553397 851.455206 
L -403.54536 850.49475 
L -401.521783 849.503388 
L -399.438684 848.511798 
L -397.464869 847.545207 
L -395.458696 846.536989 
L -393.393841 845.580127 
L -391.383033 844.615169 
L -389.339171 843.557328 
L -387.258244 842.596701 
L -385.177754 841.605728 
L -383.263612 840.728018 
L -381.21354 839.753092 
L -379.154409 838.651207 
L -377.130704 837.680284 
L -375.090256 836.667118 
L -373.064952 835.696412 
L -370.994948 834.733612 
L -368.96876 833.668139 
L -366.995234 832.708097 
L -364.954216 831.718027 
L -362.899017 830.742612 
L -360.876079 829.766466 
L -358.760304 828.792743 
L -356.684669 827.80481 
L -354.609213 826.814553 
L -352.528082 825.873739 
L -350.39927 824.803048 
L -348.331248 823.852201 
L -346.233548 822.800819 
L -344.139477 821.794379 
L -342.088138 820.737731 
L -340.05161 819.83492 
L -337.996076 818.812464 
L -335.897213 817.896964 
L -333.799604 816.806476 
L -331.759779 815.886915 
L -329.715093 814.944188 
L -327.582385 813.870003 
L -325.46758 812.843165 
L -323.376257 811.872286 
L -321.300787 810.800739 
L -319.202354 809.822479 
L -317.158077 808.837005 
L -315.117049 807.825969 
L -313.069758 806.845946 
L -311.01724 805.830122 
L -308.951084 804.874937 
L -306.867986 803.805579 
L -304.727749 802.795619 
L -302.637753 801.802598 
L -300.577516 800.792513 
L -298.52013 799.796792 
L -296.415149 798.816103 
L -294.357598 797.816541 
L -292.302023 796.855498 
L -290.238831 795.805571 
L -288.167661 794.748501 
L -286.096136 793.757828 
L -284.02539 792.817736 
L -281.888866 791.691693 
L -279.86994 790.670791 
L -277.780133 789.673373 
L -275.663297 788.736635 
L -273.58395 787.691639 
L -271.522259 786.674034 
L -269.37589 785.667859 
L -267.338559 784.696678 
L -265.246441 783.726271 
L -263.122982 782.810062 
L -261.112467 781.785967 
L -259.023351 780.785901 
L -256.932996 779.801303 
L -254.866479 778.836631 
L -252.801664 777.912256 
L -250.737948 776.820012 
L -248.706225 775.873389 
L -246.669013 774.881271 
L -244.587691 773.839831 
L -242.45794 772.841478 
L -240.344233 771.785008 
L -238.302868 770.802277 
L -236.220219 769.85236 
L -234.118243 768.815788 
L -231.991969 767.824277 
L -229.983849 766.813356 
L -227.92745 765.781947 
L -225.853009 764.755975 
L -223.724087 763.692252 
L -221.629742 762.693319 
L -219.581772 761.858028 
L -217.522612 760.741103 
L -215.451188 759.765033 
L -213.363192 758.726471 
L -211.276285 757.768506 
L -209.222504 756.719453 
L -207.136756 755.727948 
L -205.066864 754.678138 
L -203.025774 753.683736 
L -200.945529 752.623905 
L -198.89429 751.633109 
L -196.816333 750.7226 
L -194.74863 749.659253 
L -192.64101 748.671027 
L -190.580223 747.691207 
L -188.470534 746.686449 
L -186.365491 745.805028 
L -184.310334 744.83765 
L -182.241346 743.810266 
L -180.175293 742.784091 
L -178.066256 741.81195 
L -176.005723 740.785947 
L -173.848451 739.738047 
L -171.740859 738.694446 
L -169.669333 737.701018 
L -167.599603 736.557777 
L -165.555242 735.588761 
L -163.483103 734.550729 
L -161.39921 733.534534 
L -159.348334 732.504312 
L -157.281506 731.462796 
L -155.233579 730.524935 
L -153.144917 729.512733 
L -151.089312 728.488994 
L -148.992979 727.52782 
L -146.874407 726.394383 
L -144.82617 725.400902 
L -142.793776 724.407905 
L -140.745117 723.44237 
L -138.649793 722.313223 
L -136.592409 721.326872 
L -134.489727 720.355385 
L -132.396625 719.36956 
L -130.295774 718.376179 
L -128.240634 717.304087 
L -126.171686 716.286411 
L -124.075607 715.255817 
L -121.914488 714.220582 
L -119.825908 713.223491 
L -117.74051 712.2338 
L -115.669718 711.329736 
L -113.57675 710.251441 
L -111.497419 709.256848 
L -109.441999 708.259176 
L -107.399 707.195173 
L -105.283717 706.184164 
L -103.234343 705.247896 
L -101.090032 704.142526 
L -99.036027 703.167871 
L -96.952961 702.206284 
L -94.845954 701.304028 
L -92.740877 700.185355 
L -90.610509 699.164328 
L -88.503625 698.140879 
L -86.3728 697.093698 
L -84.29316 696.055818 
L -82.182981 695.067393 
L -80.121945 694.066923 
L -78.041021 693.055597 
L -75.971888 692.083653 
L -73.888436 691.072527 
L -71.762173 690.053469 
L -69.637277 689.062513 
L -67.539012 688.078551 
L -65.426962 687.012846 
L -63.346146 686.034743 
L -61.212537 684.978336 
L -59.116937 683.946716 
L -56.993573 682.931896 
L -54.883787 681.898649 
L -52.774592 680.921981 
L -50.739047 679.930863 
L -48.677995 678.907977 
L -46.582061 678.029468 
L -44.494251 676.91298 
L -42.377791 675.90382 
L -40.235776 674.898128 
L -38.109068 673.886427 
L -36.042271 672.911144 
L -34.033035 671.934174 
L -32.010216 670.968142 
L -29.907535 669.983913 
L -27.802296 668.871719 
L -25.699019 667.847036 
L -23.558979 666.844729 
L -21.508212 665.873803 
L -19.354281 664.8243 
L -17.187219 663.792878 
L -15.114114 662.836755 
L -12.970823 661.825613 
L -10.880992 660.872998 
L -8.770386 659.842167 
L -6.649105 658.783433 
L -4.524183 657.810056 
L -2.400906 656.713277 
L -0.251756 655.642199 
L 1.812257 654.608521 
L 3.916426 653.581171 
L 6.022419 652.597684 
L 8.097091 651.625968 
L 10.191493 650.686164 
L 12.299851 649.608983 
L 14.364194 648.613764 
L 16.444784 647.598076 
L 18.509367 646.614887 
L 20.533025 645.580721 
L 22.641608 644.597796 
L 24.794653 643.551967 
L 26.891476 642.632086 
L 28.982924 641.560016 
L 31.068074 640.602966 
L 33.175355 639.487123 
L 35.277104 638.510773 
L 37.380309 637.43851 
L 39.507123 636.477827 
L 41.625848 635.376894 
L 43.692557 634.437044 
L 45.816948 633.31995 
L 47.89736 632.318846 
L 50.040242 631.298788 
L 52.167709 630.328202 
L 54.321711 629.256537 
L 56.426492 628.25926 
L 58.588855 627.231116 
L 60.711212 626.22501 
L 62.791455 625.24578 
L 64.917628 624.229394 
L 67.027406 623.301298 
L 69.059726 622.200716 
L 71.127145 621.165422 
L 73.246937 620.120901 
L 75.376804 619.179356 
L 77.475559 618.2026 
L 79.612378 617.119461 
L 81.675274 616.125815 
L 83.767294 615.128797 
L 85.837075 614.17083 
L 87.968181 613.116313 
L 90.141689 612.139265 
L 92.266751 611.190722 
L 94.313374 610.103716 
L 96.424871 609.052836 
L 98.57079 607.998938 
L 100.684984 606.972334 
L 102.783981 606.00707 
L 104.87 604.909833 
L 106.91653 603.870609 
L 109.07559 602.824693 
L 111.240062 601.864872 
L 113.339215 600.895768 
L 115.443285 599.858978 
L 117.516428 598.844536 
L 119.634232 597.839641 
L 121.756255 596.759749 
L 123.829217 595.823983 
L 125.982981 594.713828 
L 128.106975 593.682688 
L 130.19209 592.700976 
L 132.263173 591.667925 
L 134.381406 590.73973 
L 136.460127 589.722985 
L 138.55695 588.655524 
L 140.629351 587.646166 
L 142.694581 586.707072 
L 144.803842 585.62443 
L 146.88298 584.61957 
L 149.02349 583.617246 
L 151.109352 582.616169 
L 153.172099 581.588336 
L 155.194583 580.652734 
L 157.268565 579.62565 
L 159.361567 578.713949 
L 161.497952 577.609594 
L 163.539 576.647805 
L 165.644821 575.688886 
L 167.74616 574.667845 
L 169.887823 573.531483 
L 171.97207 572.560174 
L 174.07751 571.523945 
L 176.181278 570.478658 
L 178.299955 569.485604 
L 180.407958 568.550656 
L 182.564153 567.467497 
L 184.688804 566.445337 
L 186.829662 565.417723 
L 189.011752 564.380693 
L 191.177265 563.350777 
L 193.274874 562.314555 
L 195.400493 561.252527 
L 197.434378 560.219822 
L 199.546023 559.234019 
L 201.65717 558.125194 
L 203.734532 557.144286 
L 205.819249 556.069183 
L 207.956181 555.08785 
L 210.018982 554.220938 
L 212.174337 553.077791 
L 214.236715 552.146207 
L 216.358016 551.031739 
L 218.426908 550.119967 
L 220.554046 549.003322 
L 222.626336 548.030431 
L 224.699769 546.998128 
L 226.81474 546.054527 
L 228.910884 544.942112 
L 230.987911 543.986544 
L 233.061262 542.900784 
L 235.174483 541.90321 
L 237.266074 540.872724 
L 239.407236 539.959875 
L 241.499352 538.926382 
L 243.619436 537.988209 
L 245.706947 536.924796 
L 247.804946 535.885785 
L 249.937545 534.888876 
L 252.043598 533.922912 
L 254.168218 533.059761 
L 256.290778 531.91476 
L 258.430964 530.97348 
L 260.572325 529.818484 
L 262.642676 528.847018 
L 264.760206 527.856734 
L 266.820124 526.933451 
L 268.903654 525.819274 
L 271.030918 524.823633 
L 273.125244 523.771543 
L 275.294924 522.822324 
L 277.449317 521.714901 
L 279.690478 520.635548 
L 281.861792 519.554838 
L 284.016343 518.516466 
L 286.162996 517.488594 
L 288.310152 516.414458 
L 290.441889 515.411657 
L 292.632868 514.466878 
L 294.811153 513.406321 
L 296.911627 512.474197 
L 299.061042 511.401717 
L 301.219163 510.384485 
L 303.319848 509.367254 
L 305.468394 508.434383 
L 307.549709 507.37797 
L 309.67564 506.353331 
L 311.751955 505.377196 
L 313.858399 504.345205 
L 315.944491 503.485695 
L 318.008877 502.427158 
L 320.135872 501.384432 
L 322.229453 500.24198 
L 324.331439 499.310566 
L 326.395291 498.328457 
L 328.460799 497.357644 
L 330.560566 496.405862 
L 332.611001 495.480779 
L 334.647622 494.469829 
L 336.634411 493.442117 
L 338.611746 492.510288 
L 340.577214 491.568424 
L 342.569065 490.614383 
L 344.450552 489.708695 
L 346.362467 488.834465 
L 348.239361 487.933419 
L 350.04726 487.127281 
L 351.877791 486.242784 
L 353.667786 485.451096 
L 355.435427 484.679179 
L 357.135582 484.010368 
L 358.917825 483.177937 
L 360.586803 482.465746 
L 362.260532 481.710478 
L 363.935072 481.023216 
L 365.574436 480.325213 
L 367.215926 479.589881 
L 368.821711 478.932697 
L 370.318906 478.360383 
L 371.887739 477.648018 
L 373.375908 477.05466 
L 374.931898 476.377525 
L 376.442957 475.812691 
L 377.952579 475.166323 
L 379.438511 474.685045 
L 380.888398 474.015576 
L 382.396599 473.432258 
L 383.948848 472.843835 
L 385.490809 472.208623 
L 387.02251 471.612867 
L 388.508605 470.938948 
L 389.975777 470.340759 
L 391.446366 469.767751 
L 392.946359 469.213396 
L 394.464175 468.577163 
L 396.029522 467.912307 
L 397.594837 467.192351 
L 399.168192 466.525325 
L 400.793054 465.853593 
L 402.394856 465.241791 
L 404.048463 464.490571 
L 405.727807 463.798718 
L 407.406143 463.046254 
L 409.132964 462.29682 
L 410.878115 461.488117 
L 412.659041 460.711607 
L 414.423418 459.889522 
L 416.242589 458.999388 
L 418.072317 458.079811 
L 419.873195 457.302094 
L 421.679798 456.42832 
L 423.581982 455.559617 
L 425.392969 454.641557 
L 427.248453 453.736091 
L 429.085473 452.892 
L 430.955729 452.041807 
L 432.835307 451.042532 
L 434.713395 450.163777 
L 436.580348 449.314372 
L 438.528321 448.3424 
L 440.414228 447.407512 
L 442.362937 446.434787 
L 444.360791 445.516258 
L 446.306885 444.691476 
L 448.243792 443.603348 
L 450.180259 442.682067 
L 452.133542 441.806499 
L 454.033589 440.863876 
L 455.977642 439.912895 
L 457.959377 438.990271 
L 459.966066 438.045274 
L 461.900539 437.121635 
L 463.875001 436.192581 
L 465.847317 435.266907 
L 467.80058 434.341715 
L 469.781026 433.311269 
L 471.800957 432.360491 
L 473.81804 431.358864 
L 475.840166 430.439008 
L 477.816078 429.499287 
L 479.761938 428.495725 
L 481.734146 427.552568 
L 483.649182 426.607367 
L 485.59243 425.634627 
L 487.494706 424.624604 
L 489.361816 423.709776 
L 491.313753 422.796351 
L 493.274995 421.89063 
L 495.206584 420.944135 
L 497.201442 419.984558 
L 499.158285 419.015757 
L 501.088331 418.099945 
L 503.016121 417.137803 
L 504.940143 416.234024 
L 506.896875 415.246322 
L 508.840534 414.33871 
L 510.838749 413.314472 
L 512.717124 412.413941 
L 514.647968 411.58601 
L 516.53908 410.621757 
L 518.419653 409.71872 
L 520.353668 408.859847 
L 522.220883 407.942903 
L 524.058465 406.979893 
L 526.016267 406.066859 
L 527.961811 405.121471 
L 529.910058 404.166657 
L 531.862457 403.198225 
L 533.715354 402.322727 
L 535.586722 401.454724 
L 537.515695 400.443283 
L 539.415501 399.476149 
L 541.29263 398.592752 
L 543.187057 397.639947 
L 545.099944 396.769931 
L 546.914184 395.905791 
L 548.789341 394.95846 
L 550.660187 394.122909 
L 552.511835 393.193407 
L 554.446415 392.313877 
L 556.306992 391.359342 
L 558.144666 390.579401 
L 560.067531 389.539514 
L 561.957785 388.635912 
L 563.756205 387.773679 
L 565.6174 386.762918 
L 567.478317 385.851902 
L 569.292862 384.994268 
L 571.187916 384.090452 
L 573.050563 383.160448 
L 574.893028 382.193411 
L 576.787731 381.327346 
L 578.691122 380.603561 
L 580.549479 379.596518 
L 582.369168 378.743589 
L 584.230488 377.833541 
L 586.04253 376.987235 
L 587.834871 376.14518 
L 589.712423 375.235735 
L 591.55248 374.393032 
L 593.442567 373.469549 
L 595.313802 372.634134 
L 597.219688 371.613541 
L 599.041116 370.722387 
L 600.842262 369.87835 
L 602.691467 368.973619 
L 604.468732 368.123462 
L 606.273413 367.28404 
L 608.125665 366.371285 
L 609.957857 365.469371 
L 611.737806 364.608746 
L 613.624897 363.746935 
L 615.426732 362.872452 
L 617.226116 361.9875 
L 618.999937 361.073602 
L 620.808495 360.290799 
L 622.644176 359.323781 
L 624.461616 358.388711 
L 626.261952 357.573722 
L 628.081539 356.622009 
L 629.884616 355.744881 
L 631.71281 354.922287 
L 633.4813 353.992886 
L 635.28514 353.167772 
L 637.116336 352.315829 
L 638.936032 351.416658 
L 640.733769 350.543735 
L 642.556801 349.70303 
L 644.387638 348.782093 
L 646.235993 347.955942 
L 647.981508 346.956628 
L 649.782336 346.06961 
L 651.546371 345.252217 
L 653.331638 344.406588 
L 655.112585 343.587555 
L 656.868707 342.684489 
L 658.693617 341.797182 
L 660.442307 340.92302 
L 662.264004 340.054157 
L 664.094555 339.219704 
L 665.875837 338.42395 
L 667.599201 337.522344 
L 669.364178 336.57522 
L 671.136941 335.809772 
L 672.909692 334.93026 
L 674.668255 334.072655 
L 676.440583 333.205894 
L 678.249312 332.336601 
L 680.062185 331.492084 
L 681.878257 330.65875 
L 683.617306 329.839643 
L 685.337356 328.994941 
L 687.119932 328.090063 
L 688.877323 327.232145 
L 690.692263 326.344889 
L 692.44521 325.462569 
L 694.263951 324.585126 
L 696.02437 323.754655 
L 697.729044 322.929357 
L 699.48446 322.053466 
L 701.256453 321.203176 
L 702.992628 320.361795 
L 704.657052 319.545798 
L 706.393278 318.687874 
L 708.203788 317.816212 
L 709.963213 316.978216 
L 711.732451 316.172133 
L 713.463689 315.274181 
L 715.17951 314.399698 
L 716.927321 313.527796 
L 718.631473 312.682165 
L 720.338662 311.915846 
L 722.093177 311.042612 
L 723.797463 310.281076 
L 725.50788 309.381736 
L 727.180843 308.586852 
L 728.921716 307.748133 
L 730.647429 306.898651 
L 732.34198 306.145984 
L 734.068893 305.283581 
L 735.748851 304.50492 
L 737.445382 303.64762 
L 739.171548 302.84039 
L 740.860111 301.961543 
L 742.60502 301.235857 
L 744.356343 300.285046 
L 745.998082 299.535465 
L 747.756841 298.685324 
L 749.377998 297.98438 
L 751.124075 297.083573 
L 752.784761 296.318006 
L 754.496571 295.557347 
L 756.214308 294.736027 
L 757.844464 293.990809 
L 759.517274 293.091343 
L 761.184716 292.3001 
L 762.826654 291.487882 
L 764.483273 290.702983 
L 766.157673 289.896051 
L 766.157673 287.501337 
L 766.157673 287.501337 
L 764.483273 288.292574 
L 762.826654 289.093651 
L 761.184716 289.895138 
L 759.517274 290.712886 
L 757.844464 291.396034 
L 756.214308 292.187502 
L 754.496571 292.973655 
L 752.784761 293.893458 
L 751.124075 294.688348 
L 749.377998 295.381233 
L 747.756841 296.237933 
L 745.998082 297.070729 
L 744.356343 297.832495 
L 742.60502 298.589131 
L 740.860111 299.550647 
L 739.171548 300.309696 
L 737.445382 301.22289 
L 735.748851 302.002139 
L 734.068893 302.883841 
L 732.34198 303.643956 
L 730.647429 304.509892 
L 728.921716 305.265952 
L 727.180843 306.151882 
L 725.50788 306.931669 
L 723.797463 307.748138 
L 722.093177 308.553136 
L 720.338662 309.291592 
L 718.631473 310.146519 
L 716.927321 311.017309 
L 715.17951 311.806695 
L 713.463689 312.740021 
L 711.732451 313.62995 
L 709.963213 314.514184 
L 708.203788 315.350142 
L 706.393278 316.183742 
L 704.657052 316.987431 
L 702.992628 317.921193 
L 701.256453 318.756932 
L 699.48446 319.586241 
L 697.729044 320.429573 
L 696.02437 321.260579 
L 694.263951 322.152279 
L 692.44521 322.938891 
L 690.692263 323.836735 
L 688.877323 324.72793 
L 687.119932 325.622483 
L 685.337356 326.41369 
L 683.617306 327.291802 
L 681.878257 328.171075 
L 680.062185 329.038048 
L 678.249312 329.867375 
L 676.440583 330.703501 
L 674.668255 331.520695 
L 672.909692 332.345238 
L 671.136941 333.186402 
L 669.364178 334.113216 
L 667.599201 334.884989 
L 665.875837 335.650036 
L 664.094555 336.591808 
L 662.264004 337.565866 
L 660.442307 338.444103 
L 658.693617 339.285349 
L 656.868707 340.168035 
L 655.112585 340.933564 
L 653.331638 341.803171 
L 651.546371 342.666285 
L 649.782336 343.576604 
L 647.981508 344.453897 
L 646.235993 345.250512 
L 644.387638 346.205118 
L 642.556801 347.126226 
L 640.733769 348.032041 
L 638.936032 348.941303 
L 637.116336 349.756254 
L 635.28514 350.690009 
L 633.4813 351.488289 
L 631.71281 352.345212 
L 629.884616 353.265806 
L 628.081539 354.107147 
L 626.261952 354.948627 
L 624.461616 355.877943 
L 622.644176 356.713136 
L 620.808495 357.568705 
L 618.999937 358.601825 
L 617.226116 359.409995 
L 615.426732 360.283266 
L 613.624897 361.207903 
L 611.737806 362.185331 
L 609.957857 362.934455 
L 608.125665 363.835783 
L 606.273413 364.731776 
L 604.468732 365.608245 
L 602.691467 366.471605 
L 600.842262 367.306297 
L 599.041116 368.240307 
L 597.219688 369.049199 
L 595.313802 369.895136 
L 593.442567 370.911778 
L 591.55248 371.790972 
L 589.712423 372.705058 
L 587.834871 373.613092 
L 586.04253 374.459113 
L 584.230488 375.349205 
L 582.369168 376.148931 
L 580.549479 377.064989 
L 578.691122 377.846038 
L 576.787731 378.81315 
L 574.893028 379.707792 
L 573.050563 380.447688 
L 571.187916 381.439613 
L 569.292862 382.398838 
L 567.478317 383.252729 
L 565.6174 384.241275 
L 563.756205 385.02781 
L 561.957785 385.937971 
L 560.067531 386.954178 
L 558.144666 387.793359 
L 556.306992 388.836619 
L 554.446415 389.661419 
L 552.511835 390.635507 
L 550.660187 391.461842 
L 548.789341 392.436803 
L 546.914184 393.281687 
L 545.099944 394.175963 
L 543.187057 395.11091 
L 541.29263 395.952651 
L 539.415501 396.943715 
L 537.515695 397.769125 
L 535.586722 398.65269 
L 533.715354 399.633965 
L 531.862457 400.622393 
L 529.910058 401.532179 
L 527.961811 402.522536 
L 526.016267 403.504058 
L 524.058465 404.439252 
L 522.220883 405.270125 
L 520.353668 406.196138 
L 518.419653 407.172795 
L 516.53908 408.045193 
L 514.647968 408.909385 
L 512.717124 409.8765 
L 510.838749 410.700353 
L 508.840534 411.624801 
L 506.896875 412.628732 
L 504.940143 413.530975 
L 503.016121 414.523825 
L 501.088331 415.474514 
L 499.158285 416.406094 
L 497.201442 417.373494 
L 495.206584 418.325074 
L 493.274995 419.305742 
L 491.313753 420.267914 
L 489.361816 421.155913 
L 487.494706 422.063861 
L 485.59243 422.905719 
L 483.649182 423.880088 
L 481.734146 424.769092 
L 479.761938 425.809158 
L 477.816078 426.715429 
L 475.840166 427.708769 
L 473.81804 428.725243 
L 471.800957 429.63948 
L 469.781026 430.682471 
L 467.80058 431.606649 
L 465.847317 432.580998 
L 463.875001 433.613078 
L 461.900539 434.554313 
L 459.966066 435.462514 
L 457.959377 436.391105 
L 455.977642 437.344975 
L 454.033589 438.224274 
L 452.133542 439.049363 
L 450.180259 440.096834 
L 448.243792 441.061672 
L 446.306885 441.79115 
L 444.360791 442.933241 
L 442.362937 443.906214 
L 440.414228 444.727052 
L 438.528321 445.673155 
L 436.580348 446.52183 
L 434.713395 447.51093 
L 432.835307 448.482488 
L 430.955729 449.337979 
L 429.085473 450.329425 
L 427.248453 451.241462 
L 425.392969 452.102305 
L 423.581982 452.903847 
L 421.679798 453.861568 
L 419.873195 454.676144 
L 418.072317 455.642535 
L 416.242589 456.399158 
L 414.423418 457.221609 
L 412.659041 458.108556 
L 410.878115 458.914656 
L 409.132964 459.768662 
L 407.406143 460.51821 
L 405.727807 461.312481 
L 404.048463 462.131742 
L 402.394856 462.836064 
L 400.793054 463.637847 
L 399.168192 464.306667 
L 397.594837 464.990885 
L 396.029522 465.610965 
L 394.464175 466.283772 
L 392.946359 466.902528 
L 391.446366 467.64743 
L 389.975777 468.260559 
L 388.508605 468.825373 
L 387.02251 469.352509 
L 385.490809 470.015135 
L 383.948848 470.696538 
L 382.396599 471.351762 
L 380.888398 471.894637 
L 379.438511 472.407565 
L 377.952579 473.04403 
L 376.442957 473.607594 
L 374.931898 474.236437 
L 373.375908 474.791046 
L 371.887739 475.465325 
L 370.318906 476.011347 
L 368.821711 476.66595 
L 367.215926 477.304067 
L 365.574436 478.008007 
L 363.935072 478.764507 
L 362.260532 479.47195 
L 360.586803 480.088539 
L 358.917825 480.805023 
L 357.135582 481.49672 
L 355.435427 482.224957 
L 353.667786 482.996176 
L 351.877791 483.809538 
L 350.04726 484.567293 
L 348.239361 485.391636 
L 346.362467 486.25929 
L 344.450552 487.184682 
L 342.569065 488.070291 
L 340.577214 488.924293 
L 338.611746 489.841333 
L 336.634411 490.820232 
L 334.647622 491.695626 
L 332.611001 492.67603 
L 330.560566 493.644883 
L 328.460799 494.718982 
L 326.395291 495.677664 
L 324.331439 496.670255 
L 322.229453 497.587795 
L 320.135872 498.448633 
L 318.008877 499.578145 
L 315.944491 500.580007 
L 313.858399 501.678989 
L 311.751955 502.631499 
L 309.67564 503.624344 
L 307.549709 504.600288 
L 305.468394 505.568072 
L 303.319848 506.700912 
L 301.219163 507.705057 
L 299.061042 508.703485 
L 296.911627 509.665756 
L 294.811153 510.717946 
L 292.632868 511.664842 
L 290.441889 512.752321 
L 288.310152 513.696763 
L 286.162996 514.702992 
L 284.016343 515.712938 
L 281.861792 516.815056 
L 279.690478 517.843557 
L 277.449317 518.985951 
L 275.294924 519.97293 
L 273.125244 521.107691 
L 271.030918 522.02972 
L 268.903654 523.080535 
L 266.820124 524.004382 
L 264.760206 525.100232 
L 262.642676 526.165869 
L 260.572325 527.106337 
L 258.430964 528.014604 
L 256.290778 529.207368 
L 254.168218 530.097766 
L 252.043598 531.283477 
L 249.937545 532.248173 
L 247.804946 533.212043 
L 245.706947 534.215576 
L 243.619436 535.187301 
L 241.499352 536.244433 
L 239.407236 537.181897 
L 237.266074 538.225594 
L 235.174483 539.173681 
L 233.061262 540.183255 
L 230.987911 541.167631 
L 228.910884 542.180725 
L 226.81474 543.100868 
L 224.699769 544.182748 
L 222.626336 545.193452 
L 220.554046 546.223168 
L 218.426908 547.183567 
L 216.358016 548.348633 
L 214.236715 549.287799 
L 212.174337 550.39491 
L 210.018982 551.28936 
L 207.956181 552.408534 
L 205.819249 553.429758 
L 203.734532 554.314194 
L 201.65717 555.389625 
L 199.546023 556.425851 
L 197.434378 557.476732 
L 195.400493 558.429594 
L 193.274874 559.532253 
L 191.177265 560.577681 
L 189.011752 561.66599 
L 186.829662 562.714904 
L 184.688804 563.781781 
L 182.564153 564.733206 
L 180.407958 565.780322 
L 178.299955 566.84818 
L 176.181278 567.796632 
L 174.07751 568.791942 
L 171.97207 569.833501 
L 169.887823 570.814935 
L 167.74616 571.755846 
L 165.644821 572.902133 
L 163.539 573.931416 
L 161.497952 574.942306 
L 159.361567 575.835993 
L 157.268565 576.928341 
L 155.194583 577.950561 
L 153.172099 578.91567 
L 151.109352 579.835044 
L 149.02349 580.85551 
L 146.88298 581.958733 
L 144.803842 582.925317 
L 142.694581 583.935254 
L 140.629351 585.020348 
L 138.55695 585.939362 
L 136.460127 586.880367 
L 134.381406 587.860027 
L 132.263173 588.954931 
L 130.19209 589.954779 
L 128.106975 590.972236 
L 125.982981 591.997785 
L 123.829217 592.968939 
L 121.756255 594.122529 
L 119.634232 595.00224 
L 117.516428 596.061159 
L 115.443285 597.087318 
L 113.339215 598.093475 
L 111.240062 599.102864 
L 109.07559 600.120613 
L 106.91653 601.128768 
L 104.87 602.130167 
L 102.783981 603.178985 
L 100.684984 604.248673 
L 98.57079 605.32254 
L 96.424871 606.293209 
L 94.313374 607.319813 
L 92.266751 608.255456 
L 90.141689 609.371182 
L 87.968181 610.470773 
L 85.837075 611.375257 
L 83.767294 612.431705 
L 81.675274 613.485859 
L 79.612378 614.461068 
L 77.475559 615.379311 
L 75.376804 616.357978 
L 73.246937 617.46415 
L 71.127145 618.391075 
L 69.059726 619.413587 
L 67.027406 620.409197 
L 64.917628 621.544845 
L 62.791455 622.57501 
L 60.711212 623.602846 
L 58.588855 624.541071 
L 56.426492 625.532597 
L 54.321711 626.562312 
L 52.167709 627.541959 
L 50.040242 628.595032 
L 47.89736 629.596105 
L 45.816948 630.653062 
L 43.692557 631.531517 
L 41.625848 632.683353 
L 39.507123 633.644073 
L 37.380309 634.764089 
L 35.277104 635.685198 
L 33.175355 636.742994 
L 31.068074 637.799416 
L 28.982924 638.861895 
L 26.891476 639.893426 
L 24.794653 640.917179 
L 22.641608 641.821296 
L 20.533025 642.86734 
L 18.509367 643.780251 
L 16.444784 644.841332 
L 14.364194 645.977885 
L 12.299851 646.936674 
L 10.191493 647.850791 
L 8.097091 648.941734 
L 6.022419 649.883473 
L 3.916426 650.891055 
L 1.812257 651.933786 
L -0.251756 652.908863 
L -2.400906 653.992814 
L -4.524183 655.024464 
L -6.649105 656.116231 
L -8.770386 657.075627 
L -10.880992 658.100331 
L -12.970823 659.113287 
L -15.114114 660.090332 
L -17.187219 661.107498 
L -19.354281 662.12146 
L -21.508212 663.148027 
L -23.558979 664.19452 
L -25.699019 665.182281 
L -27.802296 666.178639 
L -29.907535 667.151708 
L -32.010216 668.167857 
L -34.033035 669.186546 
L -36.042271 670.227679 
L -38.109068 671.195346 
L -40.235776 672.211377 
L -42.377791 673.262015 
L -44.494251 674.197409 
L -46.582061 675.114359 
L -48.677995 676.245675 
L -50.739047 677.190765 
L -52.774592 678.201026 
L -54.883787 679.201565 
L -56.993573 680.240547 
L -59.116937 681.302868 
L -61.212537 682.238278 
L -63.346146 683.297307 
L -65.426962 684.338815 
L -67.539012 685.275075 
L -69.637277 686.39164 
L -71.762173 687.391938 
L -73.888436 688.354246 
L -75.971888 689.378396 
L -78.041021 690.396816 
L -80.121945 691.361318 
L -82.182981 692.402882 
L -84.29316 693.401666 
L -86.3728 694.376077 
L -88.503625 695.443666 
L -90.610509 696.496064 
L -92.740877 697.482408 
L -94.845954 698.455997 
L -96.952961 699.543618 
L -99.036027 700.552634 
L -101.090032 701.474911 
L -103.234343 702.394156 
L -105.283717 703.481206 
L -107.399 704.572163 
L -109.441999 705.450693 
L -111.497419 706.482533 
L -113.57675 707.49509 
L -115.669718 708.501921 
L -117.74051 709.584481 
L -119.825908 710.58613 
L -121.914488 711.556765 
L -124.075607 712.521583 
L -126.171686 713.557519 
L -128.240634 714.545337 
L -130.295774 715.538307 
L -132.396625 716.539203 
L -134.489727 717.611914 
L -136.592409 718.652107 
L -138.649793 719.658302 
L -140.745117 720.521416 
L -142.793776 721.526489 
L -144.82617 722.629513 
L -146.874407 723.712644 
L -148.992979 724.632739 
L -151.089312 725.758178 
L -153.144917 726.661294 
L -155.233579 727.7271 
L -157.281506 728.823165 
L -159.348334 729.758949 
L -161.39921 730.710563 
L -163.483103 731.806602 
L -165.555242 732.779404 
L -167.599603 733.8718 
L -169.669333 734.813675 
L -171.740859 735.86845 
L -173.848451 736.882367 
L -176.005723 738.012985 
L -178.066256 739.008764 
L -180.175293 740.068342 
L -182.241346 741.118266 
L -184.310334 742.016788 
L -186.365491 743.080899 
L -188.470534 744.073995 
L -190.580223 744.969008 
L -192.64101 745.976964 
L -194.74863 747.04763 
L -196.816333 747.916698 
L -198.89429 749.005389 
L -200.945529 749.978006 
L -203.025774 750.901621 
L -205.066864 751.97515 
L -207.136756 752.923916 
L -209.222504 753.98282 
L -211.276285 754.945554 
L -213.363192 756.057131 
L -215.451188 757.005797 
L -217.522612 758.000014 
L -219.581772 758.842655 
L -221.629742 760.076279 
L -223.724087 761.006958 
L -225.853009 761.992763 
L -227.92745 763.045994 
L -229.983849 764.146305 
L -231.991969 765.135459 
L -234.118243 766.133494 
L -236.220219 767.134315 
L -238.302868 768.102832 
L -240.344233 769.179231 
L -242.45794 770.019233 
L -244.587691 771.086872 
L -246.669013 771.996614 
L -248.706225 773.111021 
L -250.737948 774.157172 
L -252.801664 775.099367 
L -254.866479 776.23268 
L -256.932996 777.170511 
L -259.023351 778.151729 
L -261.112467 779.133723 
L -263.122982 779.981642 
L -265.246441 781.093039 
L -267.338559 782.091955 
L -269.37589 783.015965 
L -271.522259 783.982947 
L -273.58395 784.958288 
L -275.663297 785.879991 
L -277.780133 787.017307 
L -279.86994 788.015303 
L -281.888866 789.004331 
L -284.02539 789.925125 
L -286.096136 791.080975 
L -288.167661 791.952728 
L -290.238831 792.982467 
L -292.302023 794.050407 
L -294.357598 795.086761 
L -296.415149 796.103156 
L -298.52013 797.132092 
L -300.577516 798.166487 
L -302.637753 799.119037 
L -304.727749 800.12447 
L -306.867986 801.144745 
L -308.951084 802.085562 
L -311.01724 803.122212 
L -313.069758 804.079924 
L -315.117049 805.074492 
L -317.158077 806.082002 
L -319.202354 807.051961 
L -321.300787 808.111753 
L -323.376257 809.12023 
L -325.46758 810.142879 
L -327.582385 811.206549 
L -329.715093 812.14096 
L -331.759779 813.149478 
L -333.799604 814.158658 
L -335.897213 815.056827 
L -337.996076 816.20163 
L -340.05161 817.098323 
L -342.088138 818.109405 
L -344.139477 819.020872 
L -346.233548 819.986069 
L -348.331248 820.991148 
L -350.39927 822.041699 
L -352.528082 823.111706 
L -354.609213 824.156181 
L -356.684669 825.140157 
L -358.760304 825.982236 
L -360.876079 826.987622 
L -362.899017 828.091524 
L -364.954216 829.120277 
L -366.995234 830.030344 
L -368.96876 831.005058 
L -370.994948 831.890205 
L -373.064952 832.904372 
L -375.090256 833.914566 
L -377.130704 834.984384 
L -379.154409 835.96673 
L -381.21354 836.912473 
L -383.263612 837.975004 
L -385.177754 838.952955 
L -387.258244 839.962742 
L -389.339171 840.95143 
L -391.383033 841.809723 
L -393.393841 842.841997 
L -395.458696 843.904304 
L -397.464869 844.810782 
L -399.438684 845.830845 
L -401.521783 846.869796 
L -403.54536 847.856207 
L -405.553397 848.792927 
L -407.621441 849.792937 
L -409.631284 850.723545 
L -411.617137 851.731551 
L -413.619782 852.701664 
L -415.657405 853.638399 
z
" clip-path="url(#p20055bb183)" style="fill: #006400; fill-opacity: 0.25; stroke: #006400; stroke-opacity: 0.25"/>
   </g>
   <g id="PathCollection_1">
    <defs>
     <path id="m2bc3222c65" d="M 0 3 
C 0.795609 3 1.55874 2.683901 2.12132 2.12132 
C 2.683901 1.55874 3 0.795609 3 0 
C 3 -0.795609 2.683901 -1.55874 2.12132 -2.12132 
C 1.55874 -2.683901 0.795609 -3 0 -3 
C -0.795609 -3 -1.55874 -2.683901 -2.12132 -2.12132 
C -2.683901 -1.55874 -3 -0.795609 -3 0 
C -3 0.795609 -2.683901 1.55874 -2.12132 2.12132 
C -1.55874 2.683901 -0.795609 3 0 3 
z
" style="stroke: #000000"/>
    </defs>
    <g clip-path="url(#p20055bb183)">
     <use xlink:href="#m2bc3222c65" x="387.765558" y="467.43287" style="stroke: #000000"/>
    </g>
   </g>
   <g id="PathCollection_2">
    <g clip-path="url(#p20055bb183)">
     <use xlink:href="#m2bc3222c65" x="387.765558" y="471.228423" style="stroke: #000000"/>
    </g>
   </g>
   <g id="matplotlib.axis_1">
    <g id="xtick_1">
     <g id="line2d_1">
      <defs>
       <path id="md5b1710bff" d="M 0 0 
L 0 3.5 
" style="stroke: #000000; stroke-width: 3"/>
      </defs>
      <g>
       <use xlink:href="#md5b1710bff" x="117.979596" y="603.52" style="stroke: #000000; stroke-width: 3"/>
      </g>
     </g>
     <g id="text_1">
      <!-- 1.5 -->
      <g transform="translate(90.149127 637.114531) scale(0.35 -0.35)">
       <defs>
        <path id="DejaVuSans-31" d="M 794 531 
L 1825 531 
L 1825 4091 
L 703 3866 
L 703 4441 
L 1819 4666 
L 2450 4666 
L 2450 531 
L 3481 531 
L 3481 0 
L 794 0 
L 794 531 
z
" transform="scale(0.015625)"/>
        <path id="DejaVuSans-2e" d="M 684 794 
L 1344 794 
L 1344 0 
L 684 0 
L 684 794 
z
" transform="scale(0.015625)"/>
        <path id="DejaVuSans-35" d="M 691 4666 
L 3169 4666 
L 3169 4134 
L 1269 4134 
L 1269 2991 
Q 1406 3038 1543 3061 
Q 1681 3084 1819 3084 
Q 2600 3084 3056 2656 
Q 3513 2228 3513 1497 
Q 3513 744 3044 326 
Q 2575 -91 1722 -91 
Q 1428 -91 1123 -41 
Q 819 9 494 109 
L 494 744 
Q 775 591 1075 516 
Q 1375 441 1709 441 
Q 2250 441 2565 725 
Q 2881 1009 2881 1497 
Q 2881 1984 2565 2268 
Q 2250 2553 1709 2553 
Q 1456 2553 1204 2497 
Q 953 2441 691 2322 
L 691 4666 
z
" transform="scale(0.015625)"/>
       </defs>
       <use xlink:href="#DejaVuSans-31"/>
       <use xlink:href="#DejaVuSans-2e" x="63.623047"/>
       <use xlink:href="#DejaVuSans-35" x="95.410156"/>
      </g>
     </g>
    </g>
    <g id="xtick_2">
     <g id="line2d_2">
      <g>
       <use xlink:href="#md5b1710bff" x="296.519408" y="603.52" style="stroke: #000000; stroke-width: 3"/>
      </g>
     </g>
     <g id="text_2">
      <!-- 2.0 -->
      <g transform="translate(268.688939 637.114531) scale(0.35 -0.35)">
       <defs>
        <path id="DejaVuSans-32" d="M 1228 531 
L 3431 531 
L 3431 0 
L 469 0 
L 469 531 
Q 828 903 1448 1529 
Q 2069 2156 2228 2338 
Q 2531 2678 2651 2914 
Q 2772 3150 2772 3378 
Q 2772 3750 2511 3984 
Q 2250 4219 1831 4219 
Q 1534 4219 1204 4116 
Q 875 4013 500 3803 
L 500 4441 
Q 881 4594 1212 4672 
Q 1544 4750 1819 4750 
Q 2544 4750 2975 4387 
Q 3406 4025 3406 3419 
Q 3406 3131 3298 2873 
Q 3191 2616 2906 2266 
Q 2828 2175 2409 1742 
Q 1991 1309 1228 531 
z
" transform="scale(0.015625)"/>
        <path id="DejaVuSans-30" d="M 2034 4250 
Q 1547 4250 1301 3770 
Q 1056 3291 1056 2328 
Q 1056 1369 1301 889 
Q 1547 409 2034 409 
Q 2525 409 2770 889 
Q 3016 1369 3016 2328 
Q 3016 3291 2770 3770 
Q 2525 4250 2034 4250 
z
M 2034 4750 
Q 2819 4750 3233 4129 
Q 3647 3509 3647 2328 
Q 3647 1150 3233 529 
Q 2819 -91 2034 -91 
Q 1250 -91 836 529 
Q 422 1150 422 2328 
Q 422 3509 836 4129 
Q 1250 4750 2034 4750 
z
" transform="scale(0.015625)"/>
       </defs>
       <use xlink:href="#DejaVuSans-32"/>
       <use xlink:href="#DejaVuSans-2e" x="63.623047"/>
       <use xlink:href="#DejaVuSans-30" x="95.410156"/>
      </g>
     </g>
    </g>
    <g id="xtick_3">
     <g id="line2d_3">
      <g>
       <use xlink:href="#md5b1710bff" x="475.059219" y="603.52" style="stroke: #000000; stroke-width: 3"/>
      </g>
     </g>
     <g id="text_3">
      <!-- 2.5 -->
      <g transform="translate(447.22875 637.114531) scale(0.35 -0.35)">
       <use xlink:href="#DejaVuSans-32"/>
       <use xlink:href="#DejaVuSans-2e" x="63.623047"/>
       <use xlink:href="#DejaVuSans-35" x="95.410156"/>
      </g>
     </g>
    </g>
    <g id="xtick_4">
     <g id="line2d_4">
      <g>
       <use xlink:href="#md5b1710bff" x="653.599031" y="603.52" style="stroke: #000000; stroke-width: 3"/>
      </g>
     </g>
     <g id="text_4">
      <!-- 3.0 -->
      <g transform="translate(625.768562 637.114531) scale(0.35 -0.35)">
       <defs>
        <path id="DejaVuSans-33" d="M 2597 2516 
Q 3050 2419 3304 2112 
Q 3559 1806 3559 1356 
Q 3559 666 3084 287 
Q 2609 -91 1734 -91 
Q 1441 -91 1130 -33 
Q 819 25 488 141 
L 488 750 
Q 750 597 1062 519 
Q 1375 441 1716 441 
Q 2309 441 2620 675 
Q 2931 909 2931 1356 
Q 2931 1769 2642 2001 
Q 2353 2234 1838 2234 
L 1294 2234 
L 1294 2753 
L 1863 2753 
Q 2328 2753 2575 2939 
Q 2822 3125 2822 3475 
Q 2822 3834 2567 4026 
Q 2313 4219 1838 4219 
Q 1578 4219 1281 4162 
Q 984 4106 628 3988 
L 628 4550 
Q 988 4650 1302 4700 
Q 1616 4750 1894 4750 
Q 2613 4750 3031 4423 
Q 3450 4097 3450 3541 
Q 3450 3153 3228 2886 
Q 3006 2619 2597 2516 
z
" transform="scale(0.015625)"/>
       </defs>
       <use xlink:href="#DejaVuSans-33"/>
       <use xlink:href="#DejaVuSans-2e" x="63.623047"/>
       <use xlink:href="#DejaVuSans-30" x="95.410156"/>
      </g>
     </g>
    </g>
    <g id="text_5">
     <!-- Cumulative total (cts) -->
     <g transform="translate(202.191874 674.987969) scale(0.35 -0.35)">
      <defs>
       <path id="DejaVuSans-43" d="M 4122 4306 
L 4122 3641 
Q 3803 3938 3442 4084 
Q 3081 4231 2675 4231 
Q 1875 4231 1450 3742 
Q 1025 3253 1025 2328 
Q 1025 1406 1450 917 
Q 1875 428 2675 428 
Q 3081 428 3442 575 
Q 3803 722 4122 1019 
L 4122 359 
Q 3791 134 3420 21 
Q 3050 -91 2638 -91 
Q 1578 -91 968 557 
Q 359 1206 359 2328 
Q 359 3453 968 4101 
Q 1578 4750 2638 4750 
Q 3056 4750 3426 4639 
Q 3797 4528 4122 4306 
z
" transform="scale(0.015625)"/>
       <path id="DejaVuSans-75" d="M 544 1381 
L 544 3500 
L 1119 3500 
L 1119 1403 
Q 1119 906 1312 657 
Q 1506 409 1894 409 
Q 2359 409 2629 706 
Q 2900 1003 2900 1516 
L 2900 3500 
L 3475 3500 
L 3475 0 
L 2900 0 
L 2900 538 
Q 2691 219 2414 64 
Q 2138 -91 1772 -91 
Q 1169 -91 856 284 
Q 544 659 544 1381 
z
M 1991 3584 
L 1991 3584 
z
" transform="scale(0.015625)"/>
       <path id="DejaVuSans-6d" d="M 3328 2828 
Q 3544 3216 3844 3400 
Q 4144 3584 4550 3584 
Q 5097 3584 5394 3201 
Q 5691 2819 5691 2113 
L 5691 0 
L 5113 0 
L 5113 2094 
Q 5113 2597 4934 2840 
Q 4756 3084 4391 3084 
Q 3944 3084 3684 2787 
Q 3425 2491 3425 1978 
L 3425 0 
L 2847 0 
L 2847 2094 
Q 2847 2600 2669 2842 
Q 2491 3084 2119 3084 
Q 1678 3084 1418 2786 
Q 1159 2488 1159 1978 
L 1159 0 
L 581 0 
L 581 3500 
L 1159 3500 
L 1159 2956 
Q 1356 3278 1631 3431 
Q 1906 3584 2284 3584 
Q 2666 3584 2933 3390 
Q 3200 3197 3328 2828 
z
" transform="scale(0.015625)"/>
       <path id="DejaVuSans-6c" d="M 603 4863 
L 1178 4863 
L 1178 0 
L 603 0 
L 603 4863 
z
" transform="scale(0.015625)"/>
       <path id="DejaVuSans-61" d="M 2194 1759 
Q 1497 1759 1228 1600 
Q 959 1441 959 1056 
Q 959 750 1161 570 
Q 1363 391 1709 391 
Q 2188 391 2477 730 
Q 2766 1069 2766 1631 
L 2766 1759 
L 2194 1759 
z
M 3341 1997 
L 3341 0 
L 2766 0 
L 2766 531 
Q 2569 213 2275 61 
Q 1981 -91 1556 -91 
Q 1019 -91 701 211 
Q 384 513 384 1019 
Q 384 1609 779 1909 
Q 1175 2209 1959 2209 
L 2766 2209 
L 2766 2266 
Q 2766 2663 2505 2880 
Q 2244 3097 1772 3097 
Q 1472 3097 1187 3025 
Q 903 2953 641 2809 
L 641 3341 
Q 956 3463 1253 3523 
Q 1550 3584 1831 3584 
Q 2591 3584 2966 3190 
Q 3341 2797 3341 1997 
z
" transform="scale(0.015625)"/>
       <path id="DejaVuSans-74" d="M 1172 4494 
L 1172 3500 
L 2356 3500 
L 2356 3053 
L 1172 3053 
L 1172 1153 
Q 1172 725 1289 603 
Q 1406 481 1766 481 
L 2356 481 
L 2356 0 
L 1766 0 
Q 1100 0 847 248 
Q 594 497 594 1153 
L 594 3053 
L 172 3053 
L 172 3500 
L 594 3500 
L 594 4494 
L 1172 4494 
z
" transform="scale(0.015625)"/>
       <path id="DejaVuSans-69" d="M 603 3500 
L 1178 3500 
L 1178 0 
L 603 0 
L 603 3500 
z
M 603 4863 
L 1178 4863 
L 1178 4134 
L 603 4134 
L 603 4863 
z
" transform="scale(0.015625)"/>
       <path id="DejaVuSans-76" d="M 191 3500 
L 800 3500 
L 1894 563 
L 2988 3500 
L 3597 3500 
L 2284 0 
L 1503 0 
L 191 3500 
z
" transform="scale(0.015625)"/>
       <path id="DejaVuSans-65" d="M 3597 1894 
L 3597 1613 
L 953 1613 
Q 991 1019 1311 708 
Q 1631 397 2203 397 
Q 2534 397 2845 478 
Q 3156 559 3463 722 
L 3463 178 
Q 3153 47 2828 -22 
Q 2503 -91 2169 -91 
Q 1331 -91 842 396 
Q 353 884 353 1716 
Q 353 2575 817 3079 
Q 1281 3584 2069 3584 
Q 2775 3584 3186 3129 
Q 3597 2675 3597 1894 
z
M 3022 2063 
Q 3016 2534 2758 2815 
Q 2500 3097 2075 3097 
Q 1594 3097 1305 2825 
Q 1016 2553 972 2059 
L 3022 2063 
z
" transform="scale(0.015625)"/>
       <path id="DejaVuSans-20" transform="scale(0.015625)"/>
       <path id="DejaVuSans-6f" d="M 1959 3097 
Q 1497 3097 1228 2736 
Q 959 2375 959 1747 
Q 959 1119 1226 758 
Q 1494 397 1959 397 
Q 2419 397 2687 759 
Q 2956 1122 2956 1747 
Q 2956 2369 2687 2733 
Q 2419 3097 1959 3097 
z
M 1959 3584 
Q 2709 3584 3137 3096 
Q 3566 2609 3566 1747 
Q 3566 888 3137 398 
Q 2709 -91 1959 -91 
Q 1206 -91 779 398 
Q 353 888 353 1747 
Q 353 2609 779 3096 
Q 1206 3584 1959 3584 
z
" transform="scale(0.015625)"/>
       <path id="DejaVuSans-28" d="M 1984 4856 
Q 1566 4138 1362 3434 
Q 1159 2731 1159 2009 
Q 1159 1288 1364 580 
Q 1569 -128 1984 -844 
L 1484 -844 
Q 1016 -109 783 600 
Q 550 1309 550 2009 
Q 550 2706 781 3412 
Q 1013 4119 1484 4856 
L 1984 4856 
z
" transform="scale(0.015625)"/>
       <path id="DejaVuSans-63" d="M 3122 3366 
L 3122 2828 
Q 2878 2963 2633 3030 
Q 2388 3097 2138 3097 
Q 1578 3097 1268 2742 
Q 959 2388 959 1747 
Q 959 1106 1268 751 
Q 1578 397 2138 397 
Q 2388 397 2633 464 
Q 2878 531 3122 666 
L 3122 134 
Q 2881 22 2623 -34 
Q 2366 -91 2075 -91 
Q 1284 -91 818 406 
Q 353 903 353 1747 
Q 353 2603 823 3093 
Q 1294 3584 2113 3584 
Q 2378 3584 2631 3529 
Q 2884 3475 3122 3366 
z
" transform="scale(0.015625)"/>
       <path id="DejaVuSans-73" d="M 2834 3397 
L 2834 2853 
Q 2591 2978 2328 3040 
Q 2066 3103 1784 3103 
Q 1356 3103 1142 2972 
Q 928 2841 928 2578 
Q 928 2378 1081 2264 
Q 1234 2150 1697 2047 
L 1894 2003 
Q 2506 1872 2764 1633 
Q 3022 1394 3022 966 
Q 3022 478 2636 193 
Q 2250 -91 1575 -91 
Q 1294 -91 989 -36 
Q 684 19 347 128 
L 347 722 
Q 666 556 975 473 
Q 1284 391 1588 391 
Q 1994 391 2212 530 
Q 2431 669 2431 922 
Q 2431 1156 2273 1281 
Q 2116 1406 1581 1522 
L 1381 1569 
Q 847 1681 609 1914 
Q 372 2147 372 2553 
Q 372 3047 722 3315 
Q 1072 3584 1716 3584 
Q 2034 3584 2315 3537 
Q 2597 3491 2834 3397 
z
" transform="scale(0.015625)"/>
       <path id="DejaVuSans-29" d="M 513 4856 
L 1013 4856 
Q 1481 4119 1714 3412 
Q 1947 2706 1947 2009 
Q 1947 1309 1714 600 
Q 1481 -109 1013 -844 
L 513 -844 
Q 928 -128 1133 580 
Q 1338 1288 1338 2009 
Q 1338 2731 1133 3434 
Q 928 4138 513 4856 
z
" transform="scale(0.015625)"/>
      </defs>
      <use xlink:href="#DejaVuSans-43"/>
      <use xlink:href="#DejaVuSans-75" x="69.824219"/>
      <use xlink:href="#DejaVuSans-6d" x="133.203125"/>
      <use xlink:href="#DejaVuSans-75" x="230.615234"/>
      <use xlink:href="#DejaVuSans-6c" x="293.994141"/>
      <use xlink:href="#DejaVuSans-61" x="321.777344"/>
      <use xlink:href="#DejaVuSans-74" x="383.056641"/>
      <use xlink:href="#DejaVuSans-69" x="422.265625"/>
      <use xlink:href="#DejaVuSans-76" x="450.048828"/>
      <use xlink:href="#DejaVuSans-65" x="509.228516"/>
      <use xlink:href="#DejaVuSans-20" x="570.751953"/>
      <use xlink:href="#DejaVuSans-74" x="602.539062"/>
      <use xlink:href="#DejaVuSans-6f" x="641.748047"/>
      <use xlink:href="#DejaVuSans-74" x="702.929688"/>
      <use xlink:href="#DejaVuSans-61" x="742.138672"/>
      <use xlink:href="#DejaVuSans-6c" x="803.417969"/>
      <use xlink:href="#DejaVuSans-20" x="831.201172"/>
      <use xlink:href="#DejaVuSans-28" x="862.988281"/>
      <use xlink:href="#DejaVuSans-63" x="902.001953"/>
      <use xlink:href="#DejaVuSans-74" x="956.982422"/>
      <use xlink:href="#DejaVuSans-73" x="996.191406"/>
      <use xlink:href="#DejaVuSans-29" x="1048.291016"/>
     </g>
    </g>
    <g id="text_6">
     <!-- 1e6 -->
     <g transform="translate(613.988747 673.987969) scale(0.35 -0.35)">
      <defs>
       <path id="DejaVuSans-36" d="M 2113 2584 
Q 1688 2584 1439 2293 
Q 1191 2003 1191 1497 
Q 1191 994 1439 701 
Q 1688 409 2113 409 
Q 2538 409 2786 701 
Q 3034 994 3034 1497 
Q 3034 2003 2786 2293 
Q 2538 2584 2113 2584 
z
M 3366 4563 
L 3366 3988 
Q 3128 4100 2886 4159 
Q 2644 4219 2406 4219 
Q 1781 4219 1451 3797 
Q 1122 3375 1075 2522 
Q 1259 2794 1537 2939 
Q 1816 3084 2150 3084 
Q 2853 3084 3261 2657 
Q 3669 2231 3669 1497 
Q 3669 778 3244 343 
Q 2819 -91 2113 -91 
Q 1303 -91 875 529 
Q 447 1150 447 2328 
Q 447 3434 972 4092 
Q 1497 4750 2381 4750 
Q 2619 4750 2861 4703 
Q 3103 4656 3366 4563 
z
" transform="scale(0.015625)"/>
      </defs>
      <use xlink:href="#DejaVuSans-31"/>
      <use xlink:href="#DejaVuSans-65" x="63.623047"/>
      <use xlink:href="#DejaVuSans-36" x="125.146484"/>
     </g>
    </g>
   </g>
   <g id="matplotlib.axis_2">
    <g id="ytick_1">
     <g id="line2d_5">
      <defs>
       <path id="m850c777186" d="M 0 0 
L -3.5 0 
" style="stroke: #000000; stroke-width: 3"/>
      </defs>
      <g>
       <use xlink:href="#m850c777186" x="104.87" y="598.30472" style="stroke: #000000; stroke-width: 3"/>
      </g>
     </g>
     <g id="text_7">
      <!-- 3 -->
      <g transform="translate(75.60125 611.601986) scale(0.35 -0.35)">
       <use xlink:href="#DejaVuSans-33"/>
      </g>
     </g>
    </g>
    <g id="ytick_2">
     <g id="line2d_6">
      <g>
       <use xlink:href="#m850c777186" x="104.87" y="512.434561" style="stroke: #000000; stroke-width: 3"/>
      </g>
     </g>
     <g id="text_8">
      <!-- 4 -->
      <g transform="translate(75.60125 525.731827) scale(0.35 -0.35)">
       <defs>
        <path id="DejaVuSans-34" d="M 2419 4116 
L 825 1625 
L 2419 1625 
L 2419 4116 
z
M 2253 4666 
L 3047 4666 
L 3047 1625 
L 3713 1625 
L 3713 1100 
L 3047 1100 
L 3047 0 
L 2419 0 
L 2419 1100 
L 313 1100 
L 313 1709 
L 2253 4666 
z
" transform="scale(0.015625)"/>
       </defs>
       <use xlink:href="#DejaVuSans-34"/>
      </g>
     </g>
    </g>
    <g id="ytick_3">
     <g id="line2d_7">
      <g>
       <use xlink:href="#m850c777186" x="104.87" y="426.564402" style="stroke: #000000; stroke-width: 3"/>
      </g>
     </g>
     <g id="text_9">
      <!-- 5 -->
      <g transform="translate(75.60125 439.861668) scale(0.35 -0.35)">
       <use xlink:href="#DejaVuSans-35"/>
      </g>
     </g>
    </g>
    <g id="ytick_4">
     <g id="line2d_8">
      <g>
       <use xlink:href="#m850c777186" x="104.87" y="340.694243" style="stroke: #000000; stroke-width: 3"/>
      </g>
     </g>
     <g id="text_10">
      <!-- 6 -->
      <g transform="translate(75.60125 353.991508) scale(0.35 -0.35)">
       <use xlink:href="#DejaVuSans-36"/>
      </g>
     </g>
    </g>
    <g id="ytick_5">
     <g id="line2d_9">
      <g>
       <use xlink:href="#m850c777186" x="104.87" y="254.824084" style="stroke: #000000; stroke-width: 3"/>
      </g>
     </g>
     <g id="text_11">
      <!-- 7 -->
      <g transform="translate(75.60125 268.121349) scale(0.35 -0.35)">
       <defs>
        <path id="DejaVuSans-37" d="M 525 4666 
L 3525 4666 
L 3525 4397 
L 1831 0 
L 1172 0 
L 2766 4134 
L 525 4134 
L 525 4666 
z
" transform="scale(0.015625)"/>
       </defs>
       <use xlink:href="#DejaVuSans-37"/>
      </g>
     </g>
    </g>
    <g id="ytick_6">
     <g id="line2d_10">
      <g>
       <use xlink:href="#m850c777186" x="104.87" y="168.953924" style="stroke: #000000; stroke-width: 3"/>
      </g>
     </g>
     <g id="text_12">
      <!-- 8 -->
      <g transform="translate(75.60125 182.25119) scale(0.35 -0.35)">
       <defs>
        <path id="DejaVuSans-38" d="M 2034 2216 
Q 1584 2216 1326 1975 
Q 1069 1734 1069 1313 
Q 1069 891 1326 650 
Q 1584 409 2034 409 
Q 2484 409 2743 651 
Q 3003 894 3003 1313 
Q 3003 1734 2745 1975 
Q 2488 2216 2034 2216 
z
M 1403 2484 
Q 997 2584 770 2862 
Q 544 3141 544 3541 
Q 544 4100 942 4425 
Q 1341 4750 2034 4750 
Q 2731 4750 3128 4425 
Q 3525 4100 3525 3541 
Q 3525 3141 3298 2862 
Q 3072 2584 2669 2484 
Q 3125 2378 3379 2068 
Q 3634 1759 3634 1313 
Q 3634 634 3220 271 
Q 2806 -91 2034 -91 
Q 1263 -91 848 271 
Q 434 634 434 1313 
Q 434 1759 690 2068 
Q 947 2378 1403 2484 
z
M 1172 3481 
Q 1172 3119 1398 2916 
Q 1625 2713 2034 2713 
Q 2441 2713 2670 2916 
Q 2900 3119 2900 3481 
Q 2900 3844 2670 4047 
Q 2441 4250 2034 4250 
Q 1625 4250 1398 4047 
Q 1172 3844 1172 3481 
z
" transform="scale(0.015625)"/>
       </defs>
       <use xlink:href="#DejaVuSans-38"/>
      </g>
     </g>
    </g>
    <g id="ytick_7">
     <g id="line2d_11">
      <g>
       <use xlink:href="#m850c777186" x="104.87" y="83.083765" style="stroke: #000000; stroke-width: 3"/>
      </g>
     </g>
     <g id="text_13">
      <!-- 9 -->
      <g transform="translate(75.60125 96.381031) scale(0.35 -0.35)">
       <defs>
        <path id="DejaVuSans-39" d="M 703 97 
L 703 672 
Q 941 559 1184 500 
Q 1428 441 1663 441 
Q 2288 441 2617 861 
Q 2947 1281 2994 2138 
Q 2813 1869 2534 1725 
Q 2256 1581 1919 1581 
Q 1219 1581 811 2004 
Q 403 2428 403 3163 
Q 403 3881 828 4315 
Q 1253 4750 1959 4750 
Q 2769 4750 3195 4129 
Q 3622 3509 3622 2328 
Q 3622 1225 3098 567 
Q 2575 -91 1691 -91 
Q 1453 -91 1209 -44 
Q 966 3 703 97 
z
M 1959 2075 
Q 2384 2075 2632 2365 
Q 2881 2656 2881 3163 
Q 2881 3666 2632 3958 
Q 2384 4250 1959 4250 
Q 1534 4250 1286 3958 
Q 1038 3666 1038 3163 
Q 1038 2656 1286 2365 
Q 1534 2075 1959 2075 
z
" transform="scale(0.015625)"/>
       </defs>
       <use xlink:href="#DejaVuSans-39"/>
      </g>
     </g>
    </g>
    <g id="text_14">
     <!-- Cumulative solute (cts) -->
     <g transform="translate(64.322344 539.144453) rotate(-90) scale(0.35 -0.35)">
      <use xlink:href="#DejaVuSans-43"/>
      <use xlink:href="#DejaVuSans-75" x="69.824219"/>
      <use xlink:href="#DejaVuSans-6d" x="133.203125"/>
      <use xlink:href="#DejaVuSans-75" x="230.615234"/>
      <use xlink:href="#DejaVuSans-6c" x="293.994141"/>
      <use xlink:href="#DejaVuSans-61" x="321.777344"/>
      <use xlink:href="#DejaVuSans-74" x="383.056641"/>
      <use xlink:href="#DejaVuSans-69" x="422.265625"/>
      <use xlink:href="#DejaVuSans-76" x="450.048828"/>
      <use xlink:href="#DejaVuSans-65" x="509.228516"/>
      <use xlink:href="#DejaVuSans-20" x="570.751953"/>
      <use xlink:href="#DejaVuSans-73" x="602.539062"/>
      <use xlink:href="#DejaVuSans-6f" x="654.638672"/>
      <use xlink:href="#DejaVuSans-6c" x="715.820312"/>
      <use xlink:href="#DejaVuSans-75" x="743.603516"/>
      <use xlink:href="#DejaVuSans-74" x="806.982422"/>
      <use xlink:href="#DejaVuSans-65" x="846.191406"/>
      <use xlink:href="#DejaVuSans-20" x="907.714844"/>
      <use xlink:href="#DejaVuSans-28" x="939.501953"/>
      <use xlink:href="#DejaVuSans-63" x="978.515625"/>
      <use xlink:href="#DejaVuSans-74" x="1033.496094"/>
      <use xlink:href="#DejaVuSans-73" x="1072.705078"/>
      <use xlink:href="#DejaVuSans-29" x="1124.804688"/>
     </g>
    </g>
    <g id="text_15">
     <!-- 1e5 -->
     <g transform="translate(104.87 64.44) scale(0.35 -0.35)">
      <use xlink:href="#DejaVuSans-31"/>
      <use xlink:href="#DejaVuSans-65" x="63.623047"/>
      <use xlink:href="#DejaVuSans-35" x="125.146484"/>
     </g>
    </g>
   </g>
   <g id="line2d_12">
    <path d="M -1 654.650676 
L 6.022419 651.240578 
L 14.364194 647.295824 
L 20.533025 644.22403 
L 102.783981 604.593028 
L 109.07559 601.472653 
L 115.443285 598.473148 
L 132.263173 590.311428 
L 165.644821 574.295509 
L 169.887823 572.173209 
L 180.407958 567.165489 
L 203.734532 555.72924 
L 216.358016 549.690186 
L 224.699769 545.590438 
L 313.858399 503.012097 
L 318.008877 501.002652 
L 322.229453 498.914888 
L 326.395291 497.00306 
L 338.611746 491.175811 
L 350.04726 485.847287 
L 357.135582 482.753544 
L 373.375908 475.922853 
L 392.946359 468.057962 
L 402.394856 464.038928 
L 412.659041 459.410081 
L 423.581982 454.231732 
L 434.713395 448.837353 
L 442.362937 445.170501 
L 463.875001 434.90283 
L 477.816078 428.107358 
L 510.838749 412.007412 
L 520.353668 407.527993 
L 543.187057 396.375428 
L 556.306992 390.09798 
L 574.893028 380.950602 
L 591.55248 373.092002 
L 613.624897 362.477419 
L 628.081539 355.364578 
L 646.235993 346.603227 
L 651.546371 343.959251 
L 688.877323 325.980037 
L 721 310.299968 
L 721 310.299968 
" clip-path="url(#p20055bb183)" style="fill: none; stroke: #006400; stroke-width: 4; stroke-linecap: square"/>
   </g>
   <g id="line2d_13">
    <path d="M -1 654.602896 
L 387.02251 467.43287 
L 387.02251 467.43287 
" clip-path="url(#p20055bb183)" style="fill: none; stroke-dasharray: 7.4,3.2; stroke-dashoffset: 0; stroke: #000000; stroke-width: 2"/>
   </g>
   <g id="line2d_14">
    <path d="M 388.508605 471.228423 
L 721 310.430376 
L 721 310.430376 
" clip-path="url(#p20055bb183)" style="fill: none; stroke-dasharray: 7.4,3.2; stroke-dashoffset: 0; stroke: #000000; stroke-width: 2"/>
   </g>
   <g id="LineCollection_1">
    <path d="M 387.765558 467.43287 
L 387.765558 471.228423 
" clip-path="url(#p20055bb183)" style="fill: none; stroke: #000000; stroke-width: 2"/>
   </g>
   <g id="LineCollection_2">
    <path d="M 387.765558 467.608359 
L 387.765558 467.257382 
" clip-path="url(#p20055bb183)" style="fill: none; stroke: #000000; stroke-width: 1.5"/>
   </g>
   <g id="line2d_15">
    <defs>
     <path id="mf755916f71" d="M 25 0 
L -25 -0 
" style="stroke: #000000"/>
    </defs>
    <g clip-path="url(#p20055bb183)">
     <use xlink:href="#mf755916f71" x="387.765558" y="467.608359" style="stroke: #000000"/>
    </g>
   </g>
   <g id="line2d_16">
    <g clip-path="url(#p20055bb183)">
     <use xlink:href="#mf755916f71" x="387.765558" y="467.257382" style="stroke: #000000"/>
    </g>
   </g>
   <g id="LineCollection_3">
    <path d="M 387.765558 471.389809 
L 387.765558 471.067037 
" clip-path="url(#p20055bb183)" style="fill: none; stroke: #000000; stroke-width: 1.5"/>
   </g>
   <g id="line2d_17">
    <g clip-path="url(#p20055bb183)">
     <use xlink:href="#mf755916f71" x="387.765558" y="471.389809" style="stroke: #000000"/>
    </g>
   </g>
   <g id="line2d_18">
    <g clip-path="url(#p20055bb183)">
     <use xlink:href="#mf755916f71" x="387.765558" y="471.067037" style="stroke: #000000"/>
    </g>
   </g>
   <g id="line2d_19">
    <path d="M 387.765558 467.43287 
" clip-path="url(#p20055bb183)" style="fill: none; stroke: #000000; stroke-width: 1.5; stroke-linecap: square"/>
   </g>
   <g id="line2d_20">
    <path d="M 387.765558 471.228423 
" clip-path="url(#p20055bb183)" style="fill: none; stroke: #000000; stroke-width: 1.5; stroke-linecap: square"/>
   </g>
   <g id="patch_3">
    <path d="M 104.87 603.52 
L 104.87 67.44 
" style="fill: none; stroke: #000000; stroke-width: 3; stroke-linejoin: miter; stroke-linecap: square"/>
   </g>
   <g id="patch_4">
    <path d="M 680.062185 603.52 
L 680.062185 67.44 
" style="fill: none; stroke: #000000; stroke-width: 3; stroke-linejoin: miter; stroke-linecap: square"/>
   </g>
   <g id="patch_5">
    <path d="M 104.87 603.52 
L 680.062185 603.52 
" style="fill: none; stroke: #000000; stroke-width: 3; stroke-linejoin: miter; stroke-linecap: square"/>
   </g>
   <g id="patch_6">
    <path d="M 104.87 67.44 
L 680.062185 67.44 
" style="fill: none; stroke: #000000; stroke-width: 3; stroke-linejoin: miter; stroke-linecap: square"/>
   </g>
   <g id="legend_1">
    <g id="line2d_21">
     <path d="M 427.874685 132.932188 
L 477.874685 132.932188 
L 527.874685 132.932188 
" style="fill: none; stroke: #006400; stroke-width: 4; stroke-linecap: square"/>
    </g>
    <g id="text_16">
     <!-- Ni  -->
     <g transform="translate(567.874685 150.432188) scale(0.5 -0.5)">
      <defs>
       <path id="DejaVuSans-4e" d="M 628 4666 
L 1478 4666 
L 3547 763 
L 3547 4666 
L 4159 4666 
L 4159 0 
L 3309 0 
L 1241 3903 
L 1241 0 
L 628 0 
L 628 4666 
z
" transform="scale(0.015625)"/>
      </defs>
      <use xlink:href="#DejaVuSans-4e"/>
      <use xlink:href="#DejaVuSans-69" x="74.804688"/>
      <use xlink:href="#DejaVuSans-20" x="102.587891"/>
     </g>
    </g>
   </g>
  </g>
 </g>
 <defs>
  <clipPath id="p20055bb183">
   <rect x="104.87" y="67.44" width="575.192185" height="536.08"/>
  </clipPath>
 </defs>
</svg>
