<?xml version="1.0" encoding="utf-8" standalone="no"?>
<!DOCTYPE svg PUBLIC "-//W3C//DTD SVG 1.1//EN"
  "http://www.w3.org/Graphics/SVG/1.1/DTD/svg11.dtd">
<svg xmlns:xlink="http://www.w3.org/1999/xlink" width="720pt" height="720pt" viewBox="0 0 720 720" xmlns="http://www.w3.org/2000/svg" version="1.1">
 <metadata>
  <rdf:RDF xmlns:dc="http://purl.org/dc/elements/1.1/" xmlns:cc="http://creativecommons.org/ns#" xmlns:rdf="http://www.w3.org/1999/02/22-rdf-syntax-ns#">
   <cc:Work>
    <dc:type rdf:resource="http://purl.org/dc/dcmitype/StillImage"/>
    <dc:date>2023-11-23T21:09:14.218673</dc:date>
    <dc:format>image/svg+xml</dc:format>
    <dc:creator>
     <cc:Agent>
      <dc:title>Matplotlib v3.7.2, https://matplotlib.org/</dc:title>
     </cc:Agent>
    </dc:creator>
   </cc:Work>
  </rdf:RDF>
 </metadata>
 <defs>
  <style type="text/css">*{stroke-linejoin: round; stroke-linecap: butt}</style>
 </defs>
 <g id="figure_1">
  <g id="patch_1">
   <path d="M 0 720 
L 720 720 
L 720 0 
L 0 0 
z
" style="fill: #ffffff"/>
  </g>
  <g id="axes_1">
   <g id="patch_2">
    <path d="M 138.26 603.52 
L 680.062185 603.52 
L 680.062185 67.44 
L 138.26 67.44 
z
" style="fill: #ffffff"/>
   </g>
   <g id="PolyCollection_1">
    <path d="M -352.050705 848.565538 
L -352.050705 850.622048 
L -350.131366 849.622712 
L -348.244975 848.674889 
L -346.374401 847.754459 
L -344.481229 846.797108 
L -342.533236 845.816393 
L -340.641766 844.89726 
L -338.735658 843.953309 
L -336.773483 843.005314 
L -334.914248 842.065212 
L -333.024534 841.078618 
L -331.079544 840.120138 
L -329.185464 839.177697 
L -327.260248 838.150617 
L -325.300119 837.165 
L -323.340402 836.205886 
L -321.537376 835.336212 
L -319.606311 834.384631 
L -317.666714 833.328852 
L -315.760484 832.370639 
L -313.838485 831.364733 
L -311.930751 830.430511 
L -309.98091 829.504087 
L -308.072342 828.481228 
L -306.21338 827.558604 
L -304.290844 826.548509 
L -302.354949 825.595313 
L -300.449443 824.698277 
L -298.45649 823.730194 
L -296.501345 822.699585 
L -294.54637 821.709431 
L -292.586049 820.772753 
L -290.580815 819.728122 
L -288.632842 818.800067 
L -286.656913 817.793257 
L -284.684403 816.833849 
L -282.752145 815.831677 
L -280.833838 814.932486 
L -278.897628 813.905646 
L -276.920605 812.980971 
L -274.944762 811.926799 
L -273.023349 810.967828 
L -271.097358 809.98598 
L -269.088453 808.901491 
L -267.096413 807.911817 
L -265.126492 806.942451 
L -263.171503 805.934874 
L -261.194885 804.99674 
L -259.269278 804.018427 
L -257.346733 803.022283 
L -255.418287 802.06214 
L -253.484918 801.041664 
L -251.538703 800.092968 
L -249.576529 799.054134 
L -247.560533 798.0589 
L -245.591862 797.041675 
L -243.651221 796.047303 
L -241.713267 795.077894 
L -239.730481 794.118834 
L -237.79237 793.139841 
L -235.856122 792.185951 
L -233.912699 791.206147 
L -231.961761 790.222712 
L -230.010489 789.227742 
L -228.05995 788.292408 
L -226.047451 787.204622 
L -224.145724 786.224522 
L -222.177231 785.250116 
L -220.183277 784.312807 
L -218.224637 783.290941 
L -216.282627 782.266679 
L -214.260855 781.226285 
L -212.341791 780.24319 
L -210.371122 779.244671 
L -208.37093 778.300486 
L -206.477125 777.326069 
L -204.509282 776.309816 
L -202.540273 775.341728 
L -200.593718 774.360498 
L -198.648765 773.43375 
L -196.704848 772.415799 
L -194.791068 771.492261 
L -192.872116 770.540529 
L -190.911615 769.548721 
L -188.905497 768.554667 
L -186.91449 767.518368 
L -184.991627 766.567765 
L -183.029876 765.635466 
L -181.04992 764.606221 
L -179.047077 763.614594 
L -177.155528 762.64148 
L -175.218504 761.700229 
L -173.264485 760.737351 
L -171.259147 759.711313 
L -169.286379 758.69233 
L -167.357293 757.846024 
L -165.417668 756.763295 
L -163.466491 755.779142 
L -161.499703 754.740945 
L -159.533942 753.808691 
L -157.599383 752.842338 
L -155.634713 751.88486 
L -153.684978 750.872865 
L -151.762374 749.925191 
L -149.802888 748.883881 
L -147.870723 747.900651 
L -145.913392 746.984028 
L -143.965719 745.934348 
L -141.980448 744.989954 
L -140.03929 744.051681 
L -138.052068 743.011536 
L -136.069223 742.028979 
L -134.133369 741.083419 
L -132.184485 740.073536 
L -130.238367 739.06949 
L -128.25176 738.142509 
L -126.310842 737.135835 
L -124.278799 736.155848 
L -122.293554 735.159147 
L -120.34228 734.179509 
L -118.392699 733.074811 
L -116.467013 732.137255 
L -114.515162 731.166312 
L -112.552239 730.184403 
L -110.620417 729.212449 
L -108.673568 728.172379 
L -106.744524 727.2651 
L -104.777109 726.314319 
L -102.840832 725.314149 
L -100.866191 724.359898 
L -98.870603 723.3115 
L -96.941267 722.408683 
L -95.026853 721.488551 
L -93.097119 720.564552 
L -91.12343 719.478828 
L -89.185476 718.541993 
L -87.204856 717.605346 
L -85.233259 716.619492 
L -83.254363 715.665179 
L -81.318524 714.66187 
L -79.369679 713.682379 
L -77.395277 712.702544 
L -75.359612 711.650832 
L -73.392274 710.650351 
L -71.427934 709.659338 
L -69.477351 708.748487 
L -67.505881 707.718235 
L -65.547255 706.741288 
L -63.611152 705.74091 
L -61.68675 704.711977 
L -59.69426 703.724728 
L -57.763852 702.811897 
L -55.744018 701.771485 
L -53.809249 700.821974 
L -51.847105 699.870631 
L -49.862411 698.934389 
L -47.879534 697.865421 
L -45.872834 696.890219 
L -43.888254 695.86663 
L -41.881125 694.827406 
L -39.922208 693.812706 
L -37.934525 692.805746 
L -35.993133 691.827174 
L -34.033006 690.874939 
L -32.083987 689.922459 
L -30.12148 688.947175 
L -28.118646 687.919886 
L -26.117101 686.931465 
L -24.140641 685.983961 
L -22.151196 684.965644 
L -20.191172 683.9418 
L -18.181418 682.882343 
L -16.207469 681.862644 
L -14.207366 680.86242 
L -12.220053 679.864119 
L -10.233298 678.909282 
L -8.315917 677.929789 
L -6.374508 676.906028 
L -4.400245 676.050133 
L -2.433632 674.979041 
L -0.440033 673.973241 
L 1.577637 672.96989 
L 3.58089 671.96666 
L 5.52771 671.006372 
L 7.420309 670.068706 
L 9.325703 669.166063 
L 11.306323 668.182411 
L 13.289353 667.114637 
L 15.270534 666.149597 
L 17.286344 665.146597 
L 19.218063 664.187477 
L 21.246959 663.156777 
L 23.288223 662.152593 
L 25.240983 661.197344 
L 27.259856 660.196782 
L 29.228372 659.216903 
L 31.216457 658.222772 
L 33.214597 657.192123 
L 35.216167 656.213805 
L 37.216188 655.159855 
L 39.240579 654.173723 
L 41.184776 653.194155 
L 43.166798 652.213413 
L 45.150537 651.233822 
L 47.104774 650.251925 
L 49.077595 649.29497 
L 51.063563 648.260582 
L 53.008071 647.278726 
L 54.967882 646.309865 
L 56.912615 645.381895 
L 58.8188 644.360238 
L 60.80498 643.375164 
L 62.83304 642.316908 
L 64.808142 641.356474 
L 66.778181 640.309194 
L 68.742288 639.399905 
L 70.72724 638.362322 
L 72.706982 637.419775 
L 74.688096 636.353526 
L 76.691449 635.407204 
L 78.687181 634.380601 
L 80.633917 633.467345 
L 82.634987 632.380769 
L 84.594631 631.363076 
L 86.613118 630.349996 
L 88.617086 629.380805 
L 90.646047 628.342907 
L 92.628646 627.350113 
L 94.665483 626.313581 
L 96.664637 625.284785 
L 98.624122 624.316269 
L 100.62687 623.30728 
L 102.614175 622.417788 
L 104.528519 621.418282 
L 106.475923 620.427331 
L 108.472661 619.375582 
L 110.478889 618.443202 
L 112.455811 617.483769 
L 114.468587 616.406533 
L 116.411732 615.401249 
L 118.38231 614.422339 
L 120.331939 613.505326 
L 122.339335 612.496433 
L 124.38667 611.48725 
L 126.388372 610.557318 
L 128.316188 609.541034 
L 130.305113 608.515787 
L 132.32646 607.492404 
L 134.317925 606.498064 
L 136.295075 605.566038 
L 138.26 604.549956 
L 140.187728 603.59003 
L 142.221455 602.563665 
L 144.260279 601.587125 
L 146.237576 600.604568 
L 148.219504 599.573527 
L 150.172301 598.599958 
L 152.167166 597.649149 
L 154.166005 596.572589 
L 156.118631 595.656434 
L 158.147369 594.618667 
L 160.148065 593.601385 
L 162.112138 592.624654 
L 164.062995 591.618074 
L 166.058264 590.701974 
L 168.016315 589.731002 
L 169.991417 588.702664 
L 171.943515 587.677751 
L 173.888858 586.735585 
L 175.875676 585.726552 
L 177.83412 584.753912 
L 179.850373 583.753927 
L 181.81515 582.779074 
L 183.758154 581.783775 
L 185.663233 580.841143 
L 187.61682 579.832622 
L 189.588323 578.936512 
L 191.60069 577.861902 
L 193.523255 576.913307 
L 195.506832 575.949946 
L 197.486189 574.98836 
L 199.503527 573.937974 
L 201.466784 572.950706 
L 203.450003 571.940241 
L 205.431647 570.914072 
L 207.427334 569.905844 
L 209.412967 568.973675 
L 211.443995 567.927409 
L 213.445309 566.920601 
L 215.461891 565.899586 
L 217.51731 564.900903 
L 219.557114 563.905109 
L 221.532957 562.919456 
L 223.535183 561.943196 
L 225.451001 560.960416 
L 227.440064 559.993335 
L 229.428659 558.954313 
L 231.38543 558.032136 
L 233.349129 556.976359 
L 235.362011 555.977055 
L 237.305067 555.072399 
L 239.335303 553.946488 
L 241.27796 553.032191 
L 243.276119 551.987672 
L 245.224911 551.083702 
L 247.228568 550.007367 
L 249.180562 549.061487 
L 251.133631 548.05382 
L 253.125828 547.136669 
L 255.10029 546.106926 
L 257.056746 545.123905 
L 259.009738 544.06548 
L 261.000286 543.09391 
L 262.970461 542.071466 
L 264.987328 541.083706 
L 266.957995 540.003484 
L 268.955009 539.019913 
L 270.921339 537.95615 
L 272.897549 536.957547 
L 274.90635 535.968865 
L 276.890147 534.979115 
L 278.891432 534.065936 
L 280.890777 532.950243 
L 282.906725 532.046232 
L 284.923779 530.946104 
L 286.873946 529.973148 
L 288.868553 528.95581 
L 290.808893 528.024451 
L 292.771474 526.948574 
L 294.775249 525.988773 
L 296.748 524.95713 
L 298.791729 523.984652 
L 300.82106 522.91025 
L 302.932121 521.89992 
L 304.97739 520.892797 
L 307.006869 519.926158 
L 309.028908 518.929896 
L 311.051421 517.922206 
L 313.059411 516.921015 
L 315.123203 515.962863 
L 317.175038 514.91816 
L 319.153579 514.000406 
L 321.178221 512.914451 
L 323.211062 511.895442 
L 325.189802 510.873495 
L 327.213625 509.949486 
L 329.174119 508.927926 
L 331.176639 507.907471 
L 333.132424 506.920873 
L 335.116589 505.890813 
L 337.081583 505.003939 
L 339.026131 503.959622 
L 341.029653 502.989861 
L 343.001702 501.936153 
L 344.981667 500.937927 
L 346.925712 499.922698 
L 348.871316 498.867229 
L 350.849192 497.882572 
L 352.780599 496.913186 
L 354.698994 495.89237 
L 356.570449 494.865301 
L 358.433 493.928014 
L 360.284372 492.921401 
L 362.160596 491.930839 
L 363.932862 490.979562 
L 365.73379 490.050626 
L 367.50173 489.092737 
L 369.20468 488.211024 
L 370.928948 487.231111 
L 372.615034 486.328827 
L 374.280063 485.45989 
L 375.881524 484.650978 
L 377.560308 483.646522 
L 379.132401 482.771501 
L 380.70897 481.868261 
L 382.286303 481.003668 
L 383.830501 480.134501 
L 385.376703 479.244763 
L 386.889271 478.414869 
L 388.299554 477.629487 
L 389.777316 476.698097 
L 391.179096 475.894434 
L 392.644761 475.018508 
L 394.068103 474.220045 
L 395.49009 473.367795 
L 396.889764 472.701623 
L 398.255485 471.802225 
L 399.676135 470.979066 
L 401.138275 470.180095 
L 402.590726 469.344984 
L 404.033511 468.600967 
L 405.433338 467.757444 
L 406.81534 466.966845 
L 408.200561 466.20602 
L 409.613479 465.452812 
L 411.043186 464.654476 
L 412.517664 463.827781 
L 413.992113 462.961922 
L 415.474134 462.145778 
L 417.004672 461.309797 
L 418.51349 460.524805 
L 420.071105 459.626231 
L 421.652963 458.791828 
L 423.233871 457.961513 
L 424.860449 457.136531 
L 426.504294 456.241964 
L 428.181837 455.388964 
L 429.843792 454.495783 
L 431.557359 453.563325 
L 433.280871 452.594729 
L 434.977208 451.784661 
L 436.678937 450.895914 
L 438.4707 449.998805 
L 440.176559 449.090253 
L 441.924331 448.19047 
L 443.654712 447.336135 
L 445.416399 446.493063 
L 447.186867 445.543692 
L 448.955932 444.683901 
L 450.714508 443.819 
L 452.549401 442.85047 
L 454.325831 441.953974 
L 456.161417 440.981491 
L 458.043295 440.021319 
L 459.876418 439.186965 
L 461.700888 438.175942 
L 463.524942 437.27376 
L 465.364836 436.437195 
L 467.154586 435.495567 
L 468.985786 434.543066 
L 470.852481 433.634338 
L 472.742682 432.671559 
L 474.564858 431.733701 
L 476.424702 430.813459 
L 478.282525 429.890501 
L 480.122401 429.011523 
L 481.987882 428.020979 
L 483.890555 427.072824 
L 485.790546 426.101888 
L 487.695287 425.204598 
L 489.556498 424.310936 
L 491.3894 423.359878 
L 493.247121 422.463402 
L 495.050988 421.562089 
L 496.881431 420.609555 
L 498.67328 419.678023 
L 500.432004 418.759504 
L 502.27063 417.825581 
L 504.118022 416.888836 
L 505.937482 416.004678 
L 507.816538 415.08117 
L 509.659786 414.176159 
L 511.477793 413.295442 
L 513.293674 412.384362 
L 515.106006 411.537367 
L 516.949149 410.610003 
L 518.779978 409.746763 
L 520.662197 408.772863 
L 522.431532 407.877715 
L 524.25029 407.031372 
L 526.031623 406.113926 
L 527.803028 405.245164 
L 529.624774 404.384548 
L 531.383597 403.491371 
L 533.114506 402.556176 
L 534.958658 401.661109 
L 536.791262 400.757672 
L 538.626413 399.830006 
L 540.465475 398.877846 
L 542.210811 398.039581 
L 543.973546 397.180578 
L 545.790542 396.207853 
L 547.580064 395.266498 
L 549.348226 394.413653 
L 551.13268 393.490359 
L 552.934524 392.595349 
L 554.643447 391.73515 
L 556.409751 390.823731 
L 558.171994 389.99826 
L 559.916153 389.090716 
L 561.738431 388.241787 
L 563.491001 387.335958 
L 565.221998 386.564681 
L 567.03324 385.595325 
L 568.813764 384.732836 
L 570.507786 383.933351 
L 572.260938 382.98698 
L 574.013829 382.130466 
L 575.723039 381.279356 
L 577.508085 380.382618 
L 579.262605 379.527422 
L 580.998115 378.605666 
L 582.782829 377.725589 
L 584.575728 376.98363 
L 586.326208 376.008074 
L 588.040263 375.18472 
L 589.793534 374.329209 
L 591.500387 373.499349 
L 593.188682 372.647993 
L 594.957241 371.752669 
L 596.690483 370.929543 
L 598.47085 370.009634 
L 600.23346 369.187881 
L 602.028709 368.239933 
L 603.744402 367.362078 
L 605.440992 366.533525 
L 607.18285 365.643199 
L 608.856944 364.777892 
L 610.556863 363.960908 
L 612.301592 363.080083 
L 614.027424 362.21764 
L 615.704047 361.362917 
L 617.481592 360.477737 
L 619.178831 359.649766 
L 620.87376 358.803724 
L 622.544611 357.928418 
L 624.248181 357.181471 
L 625.977301 356.296378 
L 627.689238 355.421198 
L 629.385065 354.635165 
L 631.099024 353.755297 
L 632.797432 352.951457 
L 634.519499 352.135896 
L 636.185328 351.270467 
L 637.884454 350.4107 
L 639.60935 349.535214 
L 641.323412 348.669012 
L 643.01679 347.851053 
L 644.733995 347.046933 
L 646.458551 346.173974 
L 648.199609 345.378676 
L 649.843797 344.494796 
L 651.540086 343.664602 
L 653.201719 342.874206 
L 654.883351 342.052845 
L 656.560913 341.252328 
L 658.215092 340.373882 
L 659.934065 339.488741 
L 661.581244 338.676538 
L 663.297191 337.845916 
L 665.021478 337.014993 
L 666.699357 336.206801 
L 668.322679 335.323613 
L 669.985199 334.44651 
L 671.655053 333.709982 
L 673.324895 332.872183 
L 674.981373 332.016776 
L 676.650818 331.140567 
L 678.35455 330.283156 
L 680.062185 329.421265 
L 681.772834 328.580127 
L 683.410931 327.754754 
L 685.031131 326.970295 
L 686.710229 326.094632 
L 688.365603 325.273456 
L 690.075186 324.467642 
L 691.726374 323.660675 
L 693.439536 322.82692 
L 695.097763 322.026014 
L 696.70348 321.267257 
L 698.356994 320.413095 
L 700.026122 319.605042 
L 701.661512 318.777502 
L 703.229316 318.02572 
L 704.864754 317.234321 
L 706.570163 316.357616 
L 708.227453 315.505068 
L 709.893987 314.70081 
L 711.524726 313.863973 
L 713.140943 313.077478 
L 714.787294 312.261662 
L 716.39252 311.466131 
L 718.000606 310.714365 
L 719.653271 309.849224 
L 721.258623 309.05561 
L 722.86975 308.180872 
L 724.445598 307.392046 
L 726.085412 306.564725 
L 727.710947 305.75637 
L 729.307129 304.99725 
L 730.933794 304.166828 
L 732.516231 303.391507 
L 734.114278 302.590971 
L 735.740239 301.804738 
L 737.330781 300.987587 
L 738.974398 300.268457 
L 740.624057 299.371573 
L 742.170492 298.639076 
L 743.827155 297.808821 
L 745.354203 297.125648 
L 746.998921 296.225592 
L 748.563203 295.465046 
L 750.175642 294.68733 
L 751.793665 293.887652 
L 753.32919 293.137993 
L 754.904893 292.234811 
L 756.47554 291.448625 
L 758.022163 290.641857 
L 759.582615 289.881629 
L 761.159816 289.10654 
L 761.159816 287.307453 
L 761.159816 287.307453 
L 759.582615 288.075762 
L 758.022163 288.818183 
L 756.47554 289.6512 
L 754.904893 290.411842 
L 753.32919 291.170124 
L 751.793665 291.932184 
L 750.175642 292.750621 
L 748.563203 293.607689 
L 746.998921 294.399449 
L 745.354203 295.141101 
L 743.827155 295.968652 
L 742.170492 296.742789 
L 740.624057 297.534994 
L 738.974398 298.275082 
L 737.330781 299.171085 
L 735.740239 299.912459 
L 734.114278 300.762364 
L 732.516231 301.522631 
L 730.933794 302.337515 
L 729.307129 303.106398 
L 727.710947 303.950769 
L 726.085412 304.698903 
L 724.445598 305.526428 
L 722.86975 306.35912 
L 721.258623 307.092812 
L 719.653271 307.93921 
L 718.000606 308.728041 
L 716.39252 309.557931 
L 714.787294 310.362048 
L 713.140943 311.189438 
L 711.524726 312.005975 
L 709.893987 312.765158 
L 708.227453 313.636048 
L 706.570163 314.479592 
L 704.864754 315.32035 
L 703.229316 316.132325 
L 701.661512 316.938055 
L 700.026122 317.747485 
L 698.356994 318.597046 
L 696.70348 319.373376 
L 695.097763 320.179953 
L 693.439536 320.964278 
L 691.726374 321.78644 
L 690.075186 322.616847 
L 688.365603 323.415537 
L 686.710229 324.214648 
L 685.031131 325.056927 
L 683.410931 325.832531 
L 681.772834 326.670352 
L 680.062185 327.535722 
L 678.35455 328.403499 
L 676.650818 329.24407 
L 674.981373 330.05638 
L 673.324895 330.923976 
L 671.655053 331.719404 
L 669.985199 332.591493 
L 668.322679 333.330691 
L 666.699357 334.066948 
L 665.021478 335.037342 
L 663.297191 335.96575 
L 661.581244 336.826869 
L 659.934065 337.622081 
L 658.215092 338.442637 
L 656.560913 339.25281 
L 654.883351 340.07886 
L 653.201719 340.90413 
L 651.540086 341.801778 
L 649.843797 342.666159 
L 648.199609 343.336518 
L 646.458551 344.280307 
L 644.733995 345.079249 
L 643.01679 345.987259 
L 641.323412 346.805021 
L 639.60935 347.611794 
L 637.884454 348.462932 
L 636.185328 349.408146 
L 634.519499 350.200583 
L 632.797432 351.090486 
L 631.099024 351.908536 
L 629.385065 352.658773 
L 627.689238 353.550311 
L 625.977301 354.35466 
L 624.248181 355.167024 
L 622.544611 356.078049 
L 620.87376 356.836928 
L 619.178831 357.724343 
L 617.481592 358.558872 
L 615.704047 359.479842 
L 614.027424 360.323675 
L 612.301592 361.188954 
L 610.556863 362.005893 
L 608.856944 362.868377 
L 607.18285 363.734187 
L 605.440992 364.609495 
L 603.744402 365.451759 
L 602.028709 366.327673 
L 600.23346 367.141061 
L 598.47085 368.066261 
L 596.690483 368.921819 
L 594.957241 369.839057 
L 593.188682 370.700804 
L 591.500387 371.581087 
L 589.793534 372.444913 
L 588.040263 373.238432 
L 586.326208 374.110771 
L 584.575728 374.832189 
L 582.782829 375.8144 
L 580.998115 376.735663 
L 579.262605 377.522338 
L 577.508085 378.399474 
L 575.723039 379.294711 
L 574.013829 380.207864 
L 572.260938 381.116325 
L 570.507786 381.843665 
L 568.813764 382.751256 
L 567.03324 383.653752 
L 565.221998 384.473817 
L 563.491001 385.432276 
L 561.738431 386.282122 
L 559.916153 387.150534 
L 558.171994 387.985288 
L 556.409751 388.918961 
L 554.643447 389.725547 
L 552.934524 390.601452 
L 551.13268 391.565306 
L 549.348226 392.446822 
L 547.580064 393.317497 
L 545.790542 394.220079 
L 543.973546 395.043417 
L 542.210811 396.029325 
L 540.465475 396.9255 
L 538.626413 397.856234 
L 536.791262 398.805116 
L 534.958658 399.733194 
L 533.114506 400.636091 
L 531.383597 401.461617 
L 529.624774 402.353021 
L 527.803028 403.332149 
L 526.031623 404.192364 
L 524.25029 404.984781 
L 522.431532 405.914758 
L 520.662197 406.81043 
L 518.779978 407.727145 
L 516.949149 408.665497 
L 515.106006 409.525696 
L 513.293674 410.44004 
L 511.477793 411.316258 
L 509.659786 412.253293 
L 507.816538 413.125042 
L 505.937482 414.061847 
L 504.118022 414.939987 
L 502.27063 415.885985 
L 500.432004 416.821217 
L 498.67328 417.760255 
L 496.881431 418.581515 
L 495.050988 419.483879 
L 493.247121 420.396347 
L 491.3894 421.334023 
L 489.556498 422.242491 
L 487.695287 423.146567 
L 485.790546 424.129133 
L 483.890555 425.025918 
L 481.987882 426.043989 
L 480.122401 426.947351 
L 478.282525 427.891817 
L 476.424702 428.857208 
L 474.564858 429.774161 
L 472.742682 430.691338 
L 470.852481 431.654102 
L 468.985786 432.584463 
L 467.154586 433.457041 
L 465.364836 434.383626 
L 463.524942 435.338517 
L 461.700888 436.247802 
L 459.876418 437.008841 
L 458.043295 438.045826 
L 456.161417 439.025164 
L 454.325831 439.944687 
L 452.549401 440.8033 
L 450.714508 441.68605 
L 448.955932 442.67141 
L 447.186867 443.61662 
L 445.416399 444.44729 
L 443.654712 445.355196 
L 441.924331 446.302902 
L 440.176559 447.130828 
L 438.4707 447.980177 
L 436.678937 448.926529 
L 434.977208 449.793261 
L 433.280871 450.703043 
L 431.557359 451.54135 
L 429.843792 452.434659 
L 428.181837 453.311887 
L 426.504294 454.237795 
L 424.860449 455.105837 
L 423.233871 455.976359 
L 421.652963 456.814305 
L 420.071105 457.722344 
L 418.51349 458.559915 
L 417.004672 459.480701 
L 415.474134 460.352629 
L 413.992113 461.176679 
L 412.517664 461.94864 
L 411.043186 462.749046 
L 409.613479 463.544285 
L 408.200561 464.431708 
L 406.81534 465.222513 
L 405.433338 465.991623 
L 404.033511 466.722966 
L 402.590726 467.542824 
L 401.138275 468.404929 
L 399.676135 469.191451 
L 398.255485 470.025171 
L 396.889764 470.722395 
L 395.49009 471.627749 
L 394.068103 472.323316 
L 392.644761 473.213444 
L 391.179096 474.009047 
L 389.777316 474.861119 
L 388.299554 475.609773 
L 386.889271 476.499761 
L 385.376703 477.403094 
L 383.830501 478.279755 
L 382.286303 479.153039 
L 380.70897 480.023393 
L 379.132401 480.837217 
L 377.560308 481.755461 
L 375.881524 482.55761 
L 374.280063 483.491124 
L 372.615034 484.400021 
L 370.928948 485.318456 
L 369.20468 486.188359 
L 367.50173 487.122455 
L 365.73379 488.055274 
L 363.932862 489.034298 
L 362.160596 489.94625 
L 360.284372 490.875559 
L 358.433 491.890241 
L 356.570449 492.861392 
L 354.698994 493.782496 
L 352.780599 494.720743 
L 350.849192 495.794665 
L 348.871316 496.822061 
L 346.925712 497.883244 
L 344.981667 498.852972 
L 343.001702 499.92687 
L 341.029653 500.829039 
L 339.026131 501.80279 
L 337.081583 502.753731 
L 335.116589 503.865867 
L 333.132424 504.810476 
L 331.176639 505.843961 
L 329.174119 506.83399 
L 327.213625 507.803532 
L 325.189802 508.838868 
L 323.211062 509.859093 
L 321.178221 510.860058 
L 319.153579 511.842783 
L 317.175038 512.870064 
L 315.123203 513.843824 
L 313.059411 514.889811 
L 311.051421 515.884429 
L 309.028908 516.820146 
L 307.006869 517.839473 
L 304.97739 518.845366 
L 302.932121 519.856724 
L 300.82106 520.855107 
L 298.791729 521.813225 
L 296.748 522.939418 
L 294.775249 523.873145 
L 292.771474 524.884035 
L 290.808893 525.796167 
L 288.868553 526.855628 
L 286.873946 527.905119 
L 284.923779 528.894808 
L 282.906725 529.855567 
L 280.890777 530.911452 
L 278.891432 531.795241 
L 276.890147 532.940866 
L 274.90635 533.954343 
L 272.897549 534.939656 
L 270.921339 535.920671 
L 268.955009 536.877969 
L 266.957995 537.938614 
L 264.987328 538.94031 
L 262.970461 540.052696 
L 261.000286 541.017321 
L 259.009738 542.053073 
L 257.056746 542.952569 
L 255.10029 544.035881 
L 253.125828 544.921795 
L 251.133631 545.955752 
L 249.180562 546.916261 
L 247.228568 547.911457 
L 245.224911 548.874851 
L 243.276119 549.988245 
L 241.27796 550.901139 
L 239.335303 551.895722 
L 237.305067 552.825451 
L 235.362011 553.942726 
L 233.349129 554.974505 
L 231.38543 555.892921 
L 229.428659 556.951649 
L 227.440064 557.885264 
L 225.451001 558.880199 
L 223.535183 559.869914 
L 221.532957 560.831419 
L 219.557114 561.828281 
L 217.51731 562.8692 
L 215.461891 563.879707 
L 213.445309 564.88789 
L 211.443995 565.89089 
L 209.412967 566.886269 
L 207.427334 567.874766 
L 205.431647 568.88836 
L 203.450003 569.887585 
L 201.466784 570.84198 
L 199.503527 571.890891 
L 197.486189 572.853685 
L 195.506832 573.831358 
L 193.523255 574.833588 
L 191.60069 575.858549 
L 189.588323 576.750729 
L 187.61682 577.812875 
L 185.663233 578.793709 
L 183.758154 579.737485 
L 181.81515 580.676986 
L 179.850373 581.682116 
L 177.83412 582.737762 
L 175.875676 583.746343 
L 173.888858 584.649145 
L 171.943515 585.639026 
L 169.991417 586.669872 
L 168.016315 587.56837 
L 166.058264 588.519337 
L 164.062995 589.591807 
L 162.112138 590.530096 
L 160.148065 591.537285 
L 158.147369 592.590005 
L 156.118631 593.538281 
L 154.166005 594.538839 
L 152.167166 595.518266 
L 150.172301 596.50794 
L 148.219504 597.479187 
L 146.237576 598.463249 
L 144.260279 599.477777 
L 142.221455 600.51085 
L 140.187728 601.529743 
L 138.26 602.490044 
L 136.295075 603.45235 
L 134.317925 604.476768 
L 132.32646 605.468618 
L 130.305113 606.428964 
L 128.316188 607.445917 
L 126.388372 608.349066 
L 124.38667 609.405854 
L 122.339335 610.47282 
L 120.331939 611.401714 
L 118.38231 612.397424 
L 116.411732 613.40377 
L 114.468587 614.366776 
L 112.455811 615.324575 
L 110.478889 616.321194 
L 108.472661 617.354638 
L 106.475923 618.329269 
L 104.528519 619.357653 
L 102.614175 620.274139 
L 100.62687 621.28748 
L 98.624122 622.311408 
L 96.664637 623.264391 
L 94.665483 624.288215 
L 92.628646 625.293005 
L 90.646047 626.317159 
L 88.617086 627.26702 
L 86.613118 628.296358 
L 84.594631 629.336821 
L 82.634987 630.335778 
L 80.633917 631.309732 
L 78.687181 632.365993 
L 76.691449 633.272714 
L 74.688096 634.322957 
L 72.706982 635.270028 
L 70.72724 636.369845 
L 68.742288 637.272953 
L 66.778181 638.323484 
L 64.808142 639.253634 
L 62.83304 640.282248 
L 60.80498 641.269311 
L 58.8188 642.279761 
L 56.912615 643.246897 
L 54.967882 644.288318 
L 53.008071 645.260865 
L 51.063563 646.242567 
L 49.077595 647.158041 
L 47.104774 648.174393 
L 45.150537 649.172 
L 43.166798 650.192823 
L 41.184776 651.177143 
L 39.240579 652.165109 
L 37.216188 653.127603 
L 35.216167 654.114297 
L 33.214597 655.151291 
L 31.216457 656.155122 
L 29.228372 657.086374 
L 27.259856 658.126989 
L 25.240983 659.115523 
L 23.288223 660.113129 
L 21.246959 661.116123 
L 19.218063 662.118286 
L 17.286344 663.121695 
L 15.270534 664.163108 
L 13.289353 665.090957 
L 11.306323 666.020957 
L 9.325703 667.052952 
L 7.420309 668.017069 
L 5.52771 668.975124 
L 3.58089 669.951802 
L 1.577637 670.940876 
L -0.440033 671.953869 
L -2.433632 672.935775 
L -4.400245 673.849072 
L -6.374508 674.920719 
L -8.315917 675.827141 
L -10.233298 676.858637 
L -12.220053 677.855676 
L -14.207366 678.839462 
L -16.207469 679.843923 
L -18.181418 680.846423 
L -20.191172 681.84197 
L -22.151196 682.905581 
L -24.140641 683.913015 
L -26.117101 684.888164 
L -28.118646 685.89796 
L -30.12148 686.904376 
L -32.083987 687.872109 
L -34.033006 688.882111 
L -35.993133 689.817736 
L -37.934525 690.763263 
L -39.922208 691.798249 
L -41.881125 692.777892 
L -43.888254 693.837571 
L -45.872834 694.871746 
L -47.879534 695.856173 
L -49.862411 696.74982 
L -51.847105 697.847554 
L -53.809249 698.827416 
L -55.744018 699.766133 
L -57.763852 700.681307 
L -59.69426 701.713129 
L -61.68675 702.708666 
L -63.611152 703.621579 
L -65.547255 704.625 
L -67.505881 705.642868 
L -69.477351 706.587753 
L -71.427934 707.662237 
L -73.392274 708.626397 
L -75.359612 709.610795 
L -77.395277 710.670742 
L -79.369679 711.631395 
L -81.318524 712.599713 
L -83.254363 713.513432 
L -85.233259 714.496349 
L -87.204856 715.511231 
L -89.185476 716.541619 
L -91.12343 717.468141 
L -93.097119 718.336409 
L -95.026853 719.337892 
L -96.941267 720.349135 
L -98.870603 721.31351 
L -100.866191 722.194235 
L -102.840832 723.22576 
L -104.777109 724.194028 
L -106.744524 725.191021 
L -108.673568 726.161636 
L -110.620417 727.145774 
L -112.552239 728.100639 
L -114.515162 729.081471 
L -116.467013 730.05181 
L -118.392699 731.06429 
L -120.34228 731.98786 
L -122.293554 733.000699 
L -124.278799 734.052526 
L -126.310842 735.067084 
L -128.25176 735.993518 
L -130.238367 737.055276 
L -132.184485 737.991041 
L -134.133369 738.949447 
L -136.069223 739.909327 
L -138.052068 740.980373 
L -140.03929 741.978142 
L -141.980448 742.993177 
L -143.965719 743.95198 
L -145.913392 744.86015 
L -147.870723 745.912093 
L -149.802888 746.871844 
L -151.762374 747.863338 
L -153.684978 748.816283 
L -155.634713 749.78343 
L -157.599383 750.791499 
L -159.533942 751.711317 
L -161.499703 752.715343 
L -163.466491 753.671503 
L -165.417668 754.664102 
L -167.357293 755.590355 
L -169.286379 756.667244 
L -171.259147 757.698651 
L -173.264485 758.688136 
L -175.218504 759.695543 
L -177.155528 760.642613 
L -179.047077 761.573493 
L -181.04992 762.584167 
L -183.029876 763.546202 
L -184.991627 764.58251 
L -186.91449 765.512542 
L -188.905497 766.449082 
L -190.911615 767.432465 
L -192.872116 768.406683 
L -194.791068 769.387224 
L -196.704848 770.420528 
L -198.648765 771.31751 
L -200.593718 772.34846 
L -202.540273 773.34972 
L -204.509282 774.31481 
L -206.477125 775.276081 
L -208.37093 776.154498 
L -210.371122 777.228841 
L -212.341791 778.244166 
L -214.260855 779.190698 
L -216.282627 780.226802 
L -218.224637 781.189906 
L -220.183277 782.179117 
L -222.177231 783.24248 
L -224.145724 784.232742 
L -226.047451 785.166108 
L -228.05995 786.12973 
L -230.010489 787.112993 
L -231.961761 788.134628 
L -233.912699 789.15229 
L -235.856122 790.041524 
L -237.79237 791.086778 
L -239.730481 792.061875 
L -241.713267 793.097943 
L -243.651221 794.052186 
L -245.591862 794.998457 
L -247.560533 796.03577 
L -249.576529 797.040448 
L -251.538703 797.973841 
L -253.484918 798.987626 
L -255.418287 799.962765 
L -257.346733 800.940224 
L -259.269278 801.918693 
L -261.194885 802.909969 
L -263.171503 803.933995 
L -265.126492 804.849359 
L -267.096413 805.893488 
L -269.088453 806.874402 
L -271.097358 807.822451 
L -273.023349 808.862058 
L -274.944762 809.929129 
L -276.920605 810.842275 
L -278.897628 811.903019 
L -280.833838 812.848242 
L -282.752145 813.853183 
L -284.684403 814.739195 
L -286.656913 815.685447 
L -288.632842 816.633762 
L -290.580815 817.663152 
L -292.586049 818.664192 
L -294.54637 819.734957 
L -296.501345 820.634386 
L -298.45649 821.579477 
L -300.449443 822.638168 
L -302.354949 823.616529 
L -304.290844 824.533377 
L -306.21338 825.520927 
L -308.072342 826.486695 
L -309.98091 827.335827 
L -311.930751 828.340648 
L -313.838485 829.291727 
L -315.760484 830.328728 
L -317.666714 831.309713 
L -319.606311 832.266096 
L -321.537376 833.226369 
L -323.340402 834.216104 
L -325.300119 835.149858 
L -327.260248 836.158817 
L -329.185464 837.079362 
L -331.079544 838.041927 
L -333.024534 839.113827 
L -334.914248 840.002818 
L -336.773483 840.998611 
L -338.735658 841.987004 
L -340.641766 842.918025 
L -342.533236 843.833922 
L -344.481229 844.765465 
L -346.374401 845.684445 
L -348.244975 846.707941 
L -350.131366 847.625402 
L -352.050705 848.565538 
z
" clip-path="url(#p09e312fa33)" style="fill: #ff0000; fill-opacity: 0.25; stroke: #ff0000; stroke-opacity: 0.25"/>
   </g>
   <g id="PathCollection_1">
    <defs>
     <path id="m44911dffdd" d="M 0 3 
C 0.795609 3 1.55874 2.683901 2.12132 2.12132 
C 2.683901 1.55874 3 0.795609 3 0 
C 3 -0.795609 2.683901 -1.55874 2.12132 -2.12132 
C 1.55874 -2.683901 0.795609 -3 0 -3 
C -0.795609 -3 -1.55874 -2.683901 -2.12132 -2.12132 
C -2.683901 -1.55874 -3 -0.795609 -3 0 
C -3 0.795609 -2.683901 1.55874 -2.12132 2.12132 
C -1.55874 2.683901 -0.795609 3 0 3 
z
" style="stroke: #000000"/>
    </defs>
    <g clip-path="url(#p09e312fa33)">
     <use xlink:href="#m44911dffdd" x="390.478206" y="477.369535" style="stroke: #000000"/>
    </g>
   </g>
   <g id="PathCollection_2">
    <g clip-path="url(#p09e312fa33)">
     <use xlink:href="#m44911dffdd" x="390.478206" y="472.144802" style="stroke: #000000"/>
    </g>
   </g>
   <g id="matplotlib.axis_1">
    <g id="xtick_1">
     <g id="line2d_1">
      <defs>
       <path id="m1e83590b30" d="M 0 0 
L 0 3.5 
" style="stroke: #000000; stroke-width: 3"/>
      </defs>
      <g>
       <use xlink:href="#m1e83590b30" x="150.608582" y="603.52" style="stroke: #000000; stroke-width: 3"/>
      </g>
     </g>
     <g id="text_1">
      <!-- 1.5 -->
      <g transform="translate(122.778113 637.114531) scale(0.35 -0.35)">
       <defs>
        <path id="DejaVuSans-31" d="M 794 531 
L 1825 531 
L 1825 4091 
L 703 3866 
L 703 4441 
L 1819 4666 
L 2450 4666 
L 2450 531 
L 3481 531 
L 3481 0 
L 794 0 
L 794 531 
z
" transform="scale(0.015625)"/>
        <path id="DejaVuSans-2e" d="M 684 794 
L 1344 794 
L 1344 0 
L 684 0 
L 684 794 
z
" transform="scale(0.015625)"/>
        <path id="DejaVuSans-35" d="M 691 4666 
L 3169 4666 
L 3169 4134 
L 1269 4134 
L 1269 2991 
Q 1406 3038 1543 3061 
Q 1681 3084 1819 3084 
Q 2600 3084 3056 2656 
Q 3513 2228 3513 1497 
Q 3513 744 3044 326 
Q 2575 -91 1722 -91 
Q 1428 -91 1123 -41 
Q 819 9 494 109 
L 494 744 
Q 775 591 1075 516 
Q 1375 441 1709 441 
Q 2250 441 2565 725 
Q 2881 1009 2881 1497 
Q 2881 1984 2565 2268 
Q 2250 2553 1709 2553 
Q 1456 2553 1204 2497 
Q 953 2441 691 2322 
L 691 4666 
z
" transform="scale(0.015625)"/>
       </defs>
       <use xlink:href="#DejaVuSans-31"/>
       <use xlink:href="#DejaVuSans-2e" x="63.623047"/>
       <use xlink:href="#DejaVuSans-35" x="95.410156"/>
      </g>
     </g>
    </g>
    <g id="xtick_2">
     <g id="line2d_2">
      <g>
       <use xlink:href="#m1e83590b30" x="318.784128" y="603.52" style="stroke: #000000; stroke-width: 3"/>
      </g>
     </g>
     <g id="text_2">
      <!-- 2.0 -->
      <g transform="translate(290.95366 637.114531) scale(0.35 -0.35)">
       <defs>
        <path id="DejaVuSans-32" d="M 1228 531 
L 3431 531 
L 3431 0 
L 469 0 
L 469 531 
Q 828 903 1448 1529 
Q 2069 2156 2228 2338 
Q 2531 2678 2651 2914 
Q 2772 3150 2772 3378 
Q 2772 3750 2511 3984 
Q 2250 4219 1831 4219 
Q 1534 4219 1204 4116 
Q 875 4013 500 3803 
L 500 4441 
Q 881 4594 1212 4672 
Q 1544 4750 1819 4750 
Q 2544 4750 2975 4387 
Q 3406 4025 3406 3419 
Q 3406 3131 3298 2873 
Q 3191 2616 2906 2266 
Q 2828 2175 2409 1742 
Q 1991 1309 1228 531 
z
" transform="scale(0.015625)"/>
        <path id="DejaVuSans-30" d="M 2034 4250 
Q 1547 4250 1301 3770 
Q 1056 3291 1056 2328 
Q 1056 1369 1301 889 
Q 1547 409 2034 409 
Q 2525 409 2770 889 
Q 3016 1369 3016 2328 
Q 3016 3291 2770 3770 
Q 2525 4250 2034 4250 
z
M 2034 4750 
Q 2819 4750 3233 4129 
Q 3647 3509 3647 2328 
Q 3647 1150 3233 529 
Q 2819 -91 2034 -91 
Q 1250 -91 836 529 
Q 422 1150 422 2328 
Q 422 3509 836 4129 
Q 1250 4750 2034 4750 
z
" transform="scale(0.015625)"/>
       </defs>
       <use xlink:href="#DejaVuSans-32"/>
       <use xlink:href="#DejaVuSans-2e" x="63.623047"/>
       <use xlink:href="#DejaVuSans-30" x="95.410156"/>
      </g>
     </g>
    </g>
    <g id="xtick_3">
     <g id="line2d_3">
      <g>
       <use xlink:href="#m1e83590b30" x="486.959675" y="603.52" style="stroke: #000000; stroke-width: 3"/>
      </g>
     </g>
     <g id="text_3">
      <!-- 2.5 -->
      <g transform="translate(459.129206 637.114531) scale(0.35 -0.35)">
       <use xlink:href="#DejaVuSans-32"/>
       <use xlink:href="#DejaVuSans-2e" x="63.623047"/>
       <use xlink:href="#DejaVuSans-35" x="95.410156"/>
      </g>
     </g>
    </g>
    <g id="xtick_4">
     <g id="line2d_4">
      <g>
       <use xlink:href="#m1e83590b30" x="655.135221" y="603.52" style="stroke: #000000; stroke-width: 3"/>
      </g>
     </g>
     <g id="text_4">
      <!-- 3.0 -->
      <g transform="translate(627.304752 637.114531) scale(0.35 -0.35)">
       <defs>
        <path id="DejaVuSans-33" d="M 2597 2516 
Q 3050 2419 3304 2112 
Q 3559 1806 3559 1356 
Q 3559 666 3084 287 
Q 2609 -91 1734 -91 
Q 1441 -91 1130 -33 
Q 819 25 488 141 
L 488 750 
Q 750 597 1062 519 
Q 1375 441 1716 441 
Q 2309 441 2620 675 
Q 2931 909 2931 1356 
Q 2931 1769 2642 2001 
Q 2353 2234 1838 2234 
L 1294 2234 
L 1294 2753 
L 1863 2753 
Q 2328 2753 2575 2939 
Q 2822 3125 2822 3475 
Q 2822 3834 2567 4026 
Q 2313 4219 1838 4219 
Q 1578 4219 1281 4162 
Q 984 4106 628 3988 
L 628 4550 
Q 988 4650 1302 4700 
Q 1616 4750 1894 4750 
Q 2613 4750 3031 4423 
Q 3450 4097 3450 3541 
Q 3450 3153 3228 2886 
Q 3006 2619 2597 2516 
z
" transform="scale(0.015625)"/>
       </defs>
       <use xlink:href="#DejaVuSans-33"/>
       <use xlink:href="#DejaVuSans-2e" x="63.623047"/>
       <use xlink:href="#DejaVuSans-30" x="95.410156"/>
      </g>
     </g>
    </g>
    <g id="text_5">
     <!-- Cumulative total (cts) -->
     <g transform="translate(218.886874 674.987969) scale(0.35 -0.35)">
      <defs>
       <path id="DejaVuSans-43" d="M 4122 4306 
L 4122 3641 
Q 3803 3938 3442 4084 
Q 3081 4231 2675 4231 
Q 1875 4231 1450 3742 
Q 1025 3253 1025 2328 
Q 1025 1406 1450 917 
Q 1875 428 2675 428 
Q 3081 428 3442 575 
Q 3803 722 4122 1019 
L 4122 359 
Q 3791 134 3420 21 
Q 3050 -91 2638 -91 
Q 1578 -91 968 557 
Q 359 1206 359 2328 
Q 359 3453 968 4101 
Q 1578 4750 2638 4750 
Q 3056 4750 3426 4639 
Q 3797 4528 4122 4306 
z
" transform="scale(0.015625)"/>
       <path id="DejaVuSans-75" d="M 544 1381 
L 544 3500 
L 1119 3500 
L 1119 1403 
Q 1119 906 1312 657 
Q 1506 409 1894 409 
Q 2359 409 2629 706 
Q 2900 1003 2900 1516 
L 2900 3500 
L 3475 3500 
L 3475 0 
L 2900 0 
L 2900 538 
Q 2691 219 2414 64 
Q 2138 -91 1772 -91 
Q 1169 -91 856 284 
Q 544 659 544 1381 
z
M 1991 3584 
L 1991 3584 
z
" transform="scale(0.015625)"/>
       <path id="DejaVuSans-6d" d="M 3328 2828 
Q 3544 3216 3844 3400 
Q 4144 3584 4550 3584 
Q 5097 3584 5394 3201 
Q 5691 2819 5691 2113 
L 5691 0 
L 5113 0 
L 5113 2094 
Q 5113 2597 4934 2840 
Q 4756 3084 4391 3084 
Q 3944 3084 3684 2787 
Q 3425 2491 3425 1978 
L 3425 0 
L 2847 0 
L 2847 2094 
Q 2847 2600 2669 2842 
Q 2491 3084 2119 3084 
Q 1678 3084 1418 2786 
Q 1159 2488 1159 1978 
L 1159 0 
L 581 0 
L 581 3500 
L 1159 3500 
L 1159 2956 
Q 1356 3278 1631 3431 
Q 1906 3584 2284 3584 
Q 2666 3584 2933 3390 
Q 3200 3197 3328 2828 
z
" transform="scale(0.015625)"/>
       <path id="DejaVuSans-6c" d="M 603 4863 
L 1178 4863 
L 1178 0 
L 603 0 
L 603 4863 
z
" transform="scale(0.015625)"/>
       <path id="DejaVuSans-61" d="M 2194 1759 
Q 1497 1759 1228 1600 
Q 959 1441 959 1056 
Q 959 750 1161 570 
Q 1363 391 1709 391 
Q 2188 391 2477 730 
Q 2766 1069 2766 1631 
L 2766 1759 
L 2194 1759 
z
M 3341 1997 
L 3341 0 
L 2766 0 
L 2766 531 
Q 2569 213 2275 61 
Q 1981 -91 1556 -91 
Q 1019 -91 701 211 
Q 384 513 384 1019 
Q 384 1609 779 1909 
Q 1175 2209 1959 2209 
L 2766 2209 
L 2766 2266 
Q 2766 2663 2505 2880 
Q 2244 3097 1772 3097 
Q 1472 3097 1187 3025 
Q 903 2953 641 2809 
L 641 3341 
Q 956 3463 1253 3523 
Q 1550 3584 1831 3584 
Q 2591 3584 2966 3190 
Q 3341 2797 3341 1997 
z
" transform="scale(0.015625)"/>
       <path id="DejaVuSans-74" d="M 1172 4494 
L 1172 3500 
L 2356 3500 
L 2356 3053 
L 1172 3053 
L 1172 1153 
Q 1172 725 1289 603 
Q 1406 481 1766 481 
L 2356 481 
L 2356 0 
L 1766 0 
Q 1100 0 847 248 
Q 594 497 594 1153 
L 594 3053 
L 172 3053 
L 172 3500 
L 594 3500 
L 594 4494 
L 1172 4494 
z
" transform="scale(0.015625)"/>
       <path id="DejaVuSans-69" d="M 603 3500 
L 1178 3500 
L 1178 0 
L 603 0 
L 603 3500 
z
M 603 4863 
L 1178 4863 
L 1178 4134 
L 603 4134 
L 603 4863 
z
" transform="scale(0.015625)"/>
       <path id="DejaVuSans-76" d="M 191 3500 
L 800 3500 
L 1894 563 
L 2988 3500 
L 3597 3500 
L 2284 0 
L 1503 0 
L 191 3500 
z
" transform="scale(0.015625)"/>
       <path id="DejaVuSans-65" d="M 3597 1894 
L 3597 1613 
L 953 1613 
Q 991 1019 1311 708 
Q 1631 397 2203 397 
Q 2534 397 2845 478 
Q 3156 559 3463 722 
L 3463 178 
Q 3153 47 2828 -22 
Q 2503 -91 2169 -91 
Q 1331 -91 842 396 
Q 353 884 353 1716 
Q 353 2575 817 3079 
Q 1281 3584 2069 3584 
Q 2775 3584 3186 3129 
Q 3597 2675 3597 1894 
z
M 3022 2063 
Q 3016 2534 2758 2815 
Q 2500 3097 2075 3097 
Q 1594 3097 1305 2825 
Q 1016 2553 972 2059 
L 3022 2063 
z
" transform="scale(0.015625)"/>
       <path id="DejaVuSans-20" transform="scale(0.015625)"/>
       <path id="DejaVuSans-6f" d="M 1959 3097 
Q 1497 3097 1228 2736 
Q 959 2375 959 1747 
Q 959 1119 1226 758 
Q 1494 397 1959 397 
Q 2419 397 2687 759 
Q 2956 1122 2956 1747 
Q 2956 2369 2687 2733 
Q 2419 3097 1959 3097 
z
M 1959 3584 
Q 2709 3584 3137 3096 
Q 3566 2609 3566 1747 
Q 3566 888 3137 398 
Q 2709 -91 1959 -91 
Q 1206 -91 779 398 
Q 353 888 353 1747 
Q 353 2609 779 3096 
Q 1206 3584 1959 3584 
z
" transform="scale(0.015625)"/>
       <path id="DejaVuSans-28" d="M 1984 4856 
Q 1566 4138 1362 3434 
Q 1159 2731 1159 2009 
Q 1159 1288 1364 580 
Q 1569 -128 1984 -844 
L 1484 -844 
Q 1016 -109 783 600 
Q 550 1309 550 2009 
Q 550 2706 781 3412 
Q 1013 4119 1484 4856 
L 1984 4856 
z
" transform="scale(0.015625)"/>
       <path id="DejaVuSans-63" d="M 3122 3366 
L 3122 2828 
Q 2878 2963 2633 3030 
Q 2388 3097 2138 3097 
Q 1578 3097 1268 2742 
Q 959 2388 959 1747 
Q 959 1106 1268 751 
Q 1578 397 2138 397 
Q 2388 397 2633 464 
Q 2878 531 3122 666 
L 3122 134 
Q 2881 22 2623 -34 
Q 2366 -91 2075 -91 
Q 1284 -91 818 406 
Q 353 903 353 1747 
Q 353 2603 823 3093 
Q 1294 3584 2113 3584 
Q 2378 3584 2631 3529 
Q 2884 3475 3122 3366 
z
" transform="scale(0.015625)"/>
       <path id="DejaVuSans-73" d="M 2834 3397 
L 2834 2853 
Q 2591 2978 2328 3040 
Q 2066 3103 1784 3103 
Q 1356 3103 1142 2972 
Q 928 2841 928 2578 
Q 928 2378 1081 2264 
Q 1234 2150 1697 2047 
L 1894 2003 
Q 2506 1872 2764 1633 
Q 3022 1394 3022 966 
Q 3022 478 2636 193 
Q 2250 -91 1575 -91 
Q 1294 -91 989 -36 
Q 684 19 347 128 
L 347 722 
Q 666 556 975 473 
Q 1284 391 1588 391 
Q 1994 391 2212 530 
Q 2431 669 2431 922 
Q 2431 1156 2273 1281 
Q 2116 1406 1581 1522 
L 1381 1569 
Q 847 1681 609 1914 
Q 372 2147 372 2553 
Q 372 3047 722 3315 
Q 1072 3584 1716 3584 
Q 2034 3584 2315 3537 
Q 2597 3491 2834 3397 
z
" transform="scale(0.015625)"/>
       <path id="DejaVuSans-29" d="M 513 4856 
L 1013 4856 
Q 1481 4119 1714 3412 
Q 1947 2706 1947 2009 
Q 1947 1309 1714 600 
Q 1481 -109 1013 -844 
L 513 -844 
Q 928 -128 1133 580 
Q 1338 1288 1338 2009 
Q 1338 2731 1133 3434 
Q 928 4138 513 4856 
z
" transform="scale(0.015625)"/>
      </defs>
      <use xlink:href="#DejaVuSans-43"/>
      <use xlink:href="#DejaVuSans-75" x="69.824219"/>
      <use xlink:href="#DejaVuSans-6d" x="133.203125"/>
      <use xlink:href="#DejaVuSans-75" x="230.615234"/>
      <use xlink:href="#DejaVuSans-6c" x="293.994141"/>
      <use xlink:href="#DejaVuSans-61" x="321.777344"/>
      <use xlink:href="#DejaVuSans-74" x="383.056641"/>
      <use xlink:href="#DejaVuSans-69" x="422.265625"/>
      <use xlink:href="#DejaVuSans-76" x="450.048828"/>
      <use xlink:href="#DejaVuSans-65" x="509.228516"/>
      <use xlink:href="#DejaVuSans-20" x="570.751953"/>
      <use xlink:href="#DejaVuSans-74" x="602.539062"/>
      <use xlink:href="#DejaVuSans-6f" x="641.748047"/>
      <use xlink:href="#DejaVuSans-74" x="702.929688"/>
      <use xlink:href="#DejaVuSans-61" x="742.138672"/>
      <use xlink:href="#DejaVuSans-6c" x="803.417969"/>
      <use xlink:href="#DejaVuSans-20" x="831.201172"/>
      <use xlink:href="#DejaVuSans-28" x="862.988281"/>
      <use xlink:href="#DejaVuSans-63" x="902.001953"/>
      <use xlink:href="#DejaVuSans-74" x="956.982422"/>
      <use xlink:href="#DejaVuSans-73" x="996.191406"/>
      <use xlink:href="#DejaVuSans-29" x="1048.291016"/>
     </g>
    </g>
    <g id="text_6">
     <!-- 1e6 -->
     <g transform="translate(613.988747 673.987969) scale(0.35 -0.35)">
      <defs>
       <path id="DejaVuSans-36" d="M 2113 2584 
Q 1688 2584 1439 2293 
Q 1191 2003 1191 1497 
Q 1191 994 1439 701 
Q 1688 409 2113 409 
Q 2538 409 2786 701 
Q 3034 994 3034 1497 
Q 3034 2003 2786 2293 
Q 2538 2584 2113 2584 
z
M 3366 4563 
L 3366 3988 
Q 3128 4100 2886 4159 
Q 2644 4219 2406 4219 
Q 1781 4219 1451 3797 
Q 1122 3375 1075 2522 
Q 1259 2794 1537 2939 
Q 1816 3084 2150 3084 
Q 2853 3084 3261 2657 
Q 3669 2231 3669 1497 
Q 3669 778 3244 343 
Q 2819 -91 2113 -91 
Q 1303 -91 875 529 
Q 447 1150 447 2328 
Q 447 3434 972 4092 
Q 1497 4750 2381 4750 
Q 2619 4750 2861 4703 
Q 3103 4656 3366 4563 
z
" transform="scale(0.015625)"/>
      </defs>
      <use xlink:href="#DejaVuSans-31"/>
      <use xlink:href="#DejaVuSans-65" x="63.623047"/>
      <use xlink:href="#DejaVuSans-36" x="125.146484"/>
     </g>
    </g>
   </g>
   <g id="matplotlib.axis_2">
    <g id="ytick_1">
     <g id="line2d_5">
      <defs>
       <path id="m38ba301646" d="M 0 0 
L -3.5 0 
" style="stroke: #000000; stroke-width: 3"/>
      </defs>
      <g>
       <use xlink:href="#m38ba301646" x="138.26" y="522.808674" style="stroke: #000000; stroke-width: 3"/>
      </g>
     </g>
     <g id="text_7">
      <!-- 0.6 -->
      <g transform="translate(75.599063 536.10594) scale(0.35 -0.35)">
       <use xlink:href="#DejaVuSans-30"/>
       <use xlink:href="#DejaVuSans-2e" x="63.623047"/>
       <use xlink:href="#DejaVuSans-36" x="95.410156"/>
      </g>
     </g>
    </g>
    <g id="ytick_2">
     <g id="line2d_6">
      <g>
       <use xlink:href="#m38ba301646" x="138.26" y="413.559739" style="stroke: #000000; stroke-width: 3"/>
      </g>
     </g>
     <g id="text_8">
      <!-- 0.8 -->
      <g transform="translate(75.599063 426.857004) scale(0.35 -0.35)">
       <defs>
        <path id="DejaVuSans-38" d="M 2034 2216 
Q 1584 2216 1326 1975 
Q 1069 1734 1069 1313 
Q 1069 891 1326 650 
Q 1584 409 2034 409 
Q 2484 409 2743 651 
Q 3003 894 3003 1313 
Q 3003 1734 2745 1975 
Q 2488 2216 2034 2216 
z
M 1403 2484 
Q 997 2584 770 2862 
Q 544 3141 544 3541 
Q 544 4100 942 4425 
Q 1341 4750 2034 4750 
Q 2731 4750 3128 4425 
Q 3525 4100 3525 3541 
Q 3525 3141 3298 2862 
Q 3072 2584 2669 2484 
Q 3125 2378 3379 2068 
Q 3634 1759 3634 1313 
Q 3634 634 3220 271 
Q 2806 -91 2034 -91 
Q 1263 -91 848 271 
Q 434 634 434 1313 
Q 434 1759 690 2068 
Q 947 2378 1403 2484 
z
M 1172 3481 
Q 1172 3119 1398 2916 
Q 1625 2713 2034 2713 
Q 2441 2713 2670 2916 
Q 2900 3119 2900 3481 
Q 2900 3844 2670 4047 
Q 2441 4250 2034 4250 
Q 1625 4250 1398 4047 
Q 1172 3844 1172 3481 
z
" transform="scale(0.015625)"/>
       </defs>
       <use xlink:href="#DejaVuSans-30"/>
       <use xlink:href="#DejaVuSans-2e" x="63.623047"/>
       <use xlink:href="#DejaVuSans-38" x="95.410156"/>
      </g>
     </g>
    </g>
    <g id="ytick_3">
     <g id="line2d_7">
      <g>
       <use xlink:href="#m38ba301646" x="138.26" y="304.310803" style="stroke: #000000; stroke-width: 3"/>
      </g>
     </g>
     <g id="text_9">
      <!-- 1.0 -->
      <g transform="translate(75.599063 317.608069) scale(0.35 -0.35)">
       <use xlink:href="#DejaVuSans-31"/>
       <use xlink:href="#DejaVuSans-2e" x="63.623047"/>
       <use xlink:href="#DejaVuSans-30" x="95.410156"/>
      </g>
     </g>
    </g>
    <g id="ytick_4">
     <g id="line2d_8">
      <g>
       <use xlink:href="#m38ba301646" x="138.26" y="195.061867" style="stroke: #000000; stroke-width: 3"/>
      </g>
     </g>
     <g id="text_10">
      <!-- 1.2 -->
      <g transform="translate(75.599063 208.359133) scale(0.35 -0.35)">
       <use xlink:href="#DejaVuSans-31"/>
       <use xlink:href="#DejaVuSans-2e" x="63.623047"/>
       <use xlink:href="#DejaVuSans-32" x="95.410156"/>
      </g>
     </g>
    </g>
    <g id="ytick_5">
     <g id="line2d_9">
      <g>
       <use xlink:href="#m38ba301646" x="138.26" y="85.812932" style="stroke: #000000; stroke-width: 3"/>
      </g>
     </g>
     <g id="text_11">
      <!-- 1.4 -->
      <g transform="translate(75.599063 99.110197) scale(0.35 -0.35)">
       <defs>
        <path id="DejaVuSans-34" d="M 2419 4116 
L 825 1625 
L 2419 1625 
L 2419 4116 
z
M 2253 4666 
L 3047 4666 
L 3047 1625 
L 3713 1625 
L 3713 1100 
L 3047 1100 
L 3047 0 
L 2419 0 
L 2419 1100 
L 313 1100 
L 313 1709 
L 2253 4666 
z
" transform="scale(0.015625)"/>
       </defs>
       <use xlink:href="#DejaVuSans-31"/>
       <use xlink:href="#DejaVuSans-2e" x="63.623047"/>
       <use xlink:href="#DejaVuSans-34" x="95.410156"/>
      </g>
     </g>
    </g>
    <g id="text_12">
     <!-- Cumulative solute (cts) -->
     <g transform="translate(64.320156 539.144453) rotate(-90) scale(0.35 -0.35)">
      <use xlink:href="#DejaVuSans-43"/>
      <use xlink:href="#DejaVuSans-75" x="69.824219"/>
      <use xlink:href="#DejaVuSans-6d" x="133.203125"/>
      <use xlink:href="#DejaVuSans-75" x="230.615234"/>
      <use xlink:href="#DejaVuSans-6c" x="293.994141"/>
      <use xlink:href="#DejaVuSans-61" x="321.777344"/>
      <use xlink:href="#DejaVuSans-74" x="383.056641"/>
      <use xlink:href="#DejaVuSans-69" x="422.265625"/>
      <use xlink:href="#DejaVuSans-76" x="450.048828"/>
      <use xlink:href="#DejaVuSans-65" x="509.228516"/>
      <use xlink:href="#DejaVuSans-20" x="570.751953"/>
      <use xlink:href="#DejaVuSans-73" x="602.539062"/>
      <use xlink:href="#DejaVuSans-6f" x="654.638672"/>
      <use xlink:href="#DejaVuSans-6c" x="715.820312"/>
      <use xlink:href="#DejaVuSans-75" x="743.603516"/>
      <use xlink:href="#DejaVuSans-74" x="806.982422"/>
      <use xlink:href="#DejaVuSans-65" x="846.191406"/>
      <use xlink:href="#DejaVuSans-20" x="907.714844"/>
      <use xlink:href="#DejaVuSans-28" x="939.501953"/>
      <use xlink:href="#DejaVuSans-63" x="978.515625"/>
      <use xlink:href="#DejaVuSans-74" x="1033.496094"/>
      <use xlink:href="#DejaVuSans-73" x="1072.705078"/>
      <use xlink:href="#DejaVuSans-29" x="1124.804688"/>
     </g>
    </g>
    <g id="text_13">
     <!-- 1e6 -->
     <g transform="translate(138.26 64.44) scale(0.35 -0.35)">
      <use xlink:href="#DejaVuSans-31"/>
      <use xlink:href="#DejaVuSans-65" x="63.623047"/>
      <use xlink:href="#DejaVuSans-36" x="125.146484"/>
     </g>
    </g>
   </g>
   <g id="line2d_10">
    <path d="M -1 673.242711 
L 62.83304 641.299578 
L 120.331939 612.45352 
L 128.316188 608.493476 
L 136.295075 604.509194 
L 168.016315 588.649686 
L 177.83412 583.745837 
L 189.588323 577.843621 
L 199.503527 572.914432 
L 207.427334 568.890305 
L 215.461891 564.889646 
L 229.428659 557.952981 
L 300.82106 521.882679 
L 311.051421 516.903318 
L 343.001702 500.931512 
L 375.881524 483.604294 
L 383.830501 479.207128 
L 415.474134 461.249204 
L 424.860449 456.121184 
L 434.977208 450.788961 
L 452.549401 441.826885 
L 465.364836 435.41041 
L 472.742682 431.681449 
L 487.695287 424.175583 
L 495.050988 420.522984 
L 511.477793 412.30585 
L 538.626413 398.84312 
L 554.643447 390.730348 
L 568.813764 383.742046 
L 584.575728 375.90791 
L 596.690483 369.925681 
L 648.199609 344.357597 
L 653.201719 341.889168 
L 665.021478 336.026167 
L 669.985199 333.519001 
L 676.650818 330.192318 
L 696.70348 320.320317 
L 719.653271 308.894217 
L 721 308.206314 
L 721 308.206314 
" clip-path="url(#p09e312fa33)" style="fill: none; stroke: #ff0000; stroke-width: 4; stroke-linecap: square"/>
   </g>
   <g id="line2d_11">
    <path d="M -1 673.488951 
L 389.777316 477.369535 
L 389.777316 477.369535 
" clip-path="url(#p09e312fa33)" style="fill: none; stroke-dasharray: 7.4,3.2; stroke-dashoffset: 0; stroke: #000000; stroke-width: 2"/>
   </g>
   <g id="line2d_12">
    <path d="M 391.179096 472.144802 
L 721 308.113326 
L 721 308.113326 
" clip-path="url(#p09e312fa33)" style="fill: none; stroke-dasharray: 7.4,3.2; stroke-dashoffset: 0; stroke: #000000; stroke-width: 2"/>
   </g>
   <g id="LineCollection_1">
    <path d="M 390.478206 477.369535 
L 390.478206 472.144802 
" clip-path="url(#p09e312fa33)" style="fill: none; stroke: #000000; stroke-width: 2"/>
   </g>
   <g id="LineCollection_2">
    <path d="M 390.478206 477.575871 
L 390.478206 477.1632 
" clip-path="url(#p09e312fa33)" style="fill: none; stroke: #000000; stroke-width: 1.5"/>
   </g>
   <g id="line2d_13">
    <defs>
     <path id="m377cfb04b8" d="M 25 0 
L -25 -0 
" style="stroke: #000000"/>
    </defs>
    <g clip-path="url(#p09e312fa33)">
     <use xlink:href="#m377cfb04b8" x="390.478206" y="477.575871" style="stroke: #000000"/>
    </g>
   </g>
   <g id="line2d_14">
    <g clip-path="url(#p09e312fa33)">
     <use xlink:href="#m377cfb04b8" x="390.478206" y="477.1632" style="stroke: #000000"/>
    </g>
   </g>
   <g id="LineCollection_3">
    <path d="M 390.478206 472.28744 
L 390.478206 472.002164 
" clip-path="url(#p09e312fa33)" style="fill: none; stroke: #000000; stroke-width: 1.5"/>
   </g>
   <g id="line2d_15">
    <g clip-path="url(#p09e312fa33)">
     <use xlink:href="#m377cfb04b8" x="390.478206" y="472.28744" style="stroke: #000000"/>
    </g>
   </g>
   <g id="line2d_16">
    <g clip-path="url(#p09e312fa33)">
     <use xlink:href="#m377cfb04b8" x="390.478206" y="472.002164" style="stroke: #000000"/>
    </g>
   </g>
   <g id="line2d_17">
    <path d="M 390.478206 477.369535 
" clip-path="url(#p09e312fa33)" style="fill: none; stroke: #000000; stroke-width: 1.5; stroke-linecap: square"/>
   </g>
   <g id="line2d_18">
    <path d="M 390.478206 472.144802 
" clip-path="url(#p09e312fa33)" style="fill: none; stroke: #000000; stroke-width: 1.5; stroke-linecap: square"/>
   </g>
   <g id="patch_3">
    <path d="M 138.26 603.52 
L 138.26 67.44 
" style="fill: none; stroke: #000000; stroke-width: 3; stroke-linejoin: miter; stroke-linecap: square"/>
   </g>
   <g id="patch_4">
    <path d="M 680.062185 603.52 
L 680.062185 67.44 
" style="fill: none; stroke: #000000; stroke-width: 3; stroke-linejoin: miter; stroke-linecap: square"/>
   </g>
   <g id="patch_5">
    <path d="M 138.26 603.52 
L 680.062185 603.52 
" style="fill: none; stroke: #000000; stroke-width: 3; stroke-linejoin: miter; stroke-linecap: square"/>
   </g>
   <g id="patch_6">
    <path d="M 138.26 67.44 
L 680.062185 67.44 
" style="fill: none; stroke: #000000; stroke-width: 3; stroke-linejoin: miter; stroke-linecap: square"/>
   </g>
   <g id="legend_1">
    <g id="line2d_19">
     <path d="M 405.437185 132.932188 
L 455.437185 132.932188 
L 505.437185 132.932188 
" style="fill: none; stroke: #ff0000; stroke-width: 4; stroke-linecap: square"/>
    </g>
    <g id="text_14">
     <!-- Mo  -->
     <g transform="translate(545.437185 150.432188) scale(0.5 -0.5)">
      <defs>
       <path id="DejaVuSans-4d" d="M 628 4666 
L 1569 4666 
L 2759 1491 
L 3956 4666 
L 4897 4666 
L 4897 0 
L 4281 0 
L 4281 4097 
L 3078 897 
L 2444 897 
L 1241 4097 
L 1241 0 
L 628 0 
L 628 4666 
z
" transform="scale(0.015625)"/>
      </defs>
      <use xlink:href="#DejaVuSans-4d"/>
      <use xlink:href="#DejaVuSans-6f" x="86.279297"/>
      <use xlink:href="#DejaVuSans-20" x="147.460938"/>
     </g>
    </g>
   </g>
  </g>
 </g>
 <defs>
  <clipPath id="p09e312fa33">
   <rect x="138.26" y="67.44" width="541.802185" height="536.08"/>
  </clipPath>
 </defs>
</svg>
