<?xml version="1.0" encoding="utf-8" standalone="no"?>
<!DOCTYPE svg PUBLIC "-//W3C//DTD SVG 1.1//EN"
  "http://www.w3.org/Graphics/SVG/1.1/DTD/svg11.dtd">
<svg xmlns:xlink="http://www.w3.org/1999/xlink" width="720pt" height="720pt" viewBox="0 0 720 720" xmlns="http://www.w3.org/2000/svg" version="1.1">
 <metadata>
  <rdf:RDF xmlns:dc="http://purl.org/dc/elements/1.1/" xmlns:cc="http://creativecommons.org/ns#" xmlns:rdf="http://www.w3.org/1999/02/22-rdf-syntax-ns#">
   <cc:Work>
    <dc:type rdf:resource="http://purl.org/dc/dcmitype/StillImage"/>
    <dc:date>2023-11-23T21:09:14.014382</dc:date>
    <dc:format>image/svg+xml</dc:format>
    <dc:creator>
     <cc:Agent>
      <dc:title>Matplotlib v3.7.2, https://matplotlib.org/</dc:title>
     </cc:Agent>
    </dc:creator>
   </cc:Work>
  </rdf:RDF>
 </metadata>
 <defs>
  <style type="text/css">*{stroke-linejoin: round; stroke-linecap: butt}</style>
 </defs>
 <g id="figure_1">
  <g id="patch_1">
   <path d="M 0 720 
L 720 720 
L 720 0 
L 0 0 
z
" style="fill: #ffffff"/>
  </g>
  <g id="axes_1">
   <g id="patch_2">
    <path d="M 138.26 603.52 
L 680.062185 603.52 
L 680.062185 67.44 
L 138.26 67.44 
z
" style="fill: #ffffff"/>
   </g>
   <g id="PolyCollection_1">
    <path d="M -352.050705 733.932266 
L -352.050705 756.83613 
L -350.131366 757.177978 
L -348.244975 752.490526 
L -346.374401 754.040827 
L -344.481229 752.842965 
L -342.533236 752.364586 
L -340.641766 751.433201 
L -338.735658 751.243807 
L -336.773483 750.383161 
L -334.914248 757.391676 
L -333.024534 748.909105 
L -331.079544 757.941425 
L -329.185464 749.029561 
L -327.260248 751.16833 
L -325.300119 746.058905 
L -323.340402 746.334999 
L -321.537376 755.648782 
L -319.606311 746.925557 
L -317.666714 745.468869 
L -315.760484 749.349083 
L -313.838485 752.035765 
L -311.930751 746.746992 
L -309.98091 746.755073 
L -308.072342 746.319729 
L -306.21338 752.233099 
L -304.290844 741.490208 
L -302.354949 744.705802 
L -300.449443 749.117129 
L -298.45649 743.728012 
L -296.501345 740.879847 
L -294.54637 741.127798 
L -292.586049 739.247762 
L -290.580815 737.73559 
L -288.632842 740.54288 
L -286.656913 740.245862 
L -284.684403 737.397291 
L -282.752145 735.73487 
L -280.833838 741.822111 
L -278.897628 734.14 
L -276.920605 735.609529 
L -274.944762 732.556346 
L -273.023349 734.406849 
L -271.097358 735.769127 
L -269.088453 734.486073 
L -267.096413 732.986054 
L -265.126492 732.616342 
L -263.171503 731.52903 
L -261.194885 730.704517 
L -259.269278 728.074538 
L -257.346733 737.541748 
L -255.418287 729.199132 
L -253.484918 730.317614 
L -251.538703 727.8396 
L -249.576529 727.699268 
L -247.560533 725.106769 
L -245.591862 724.984763 
L -243.651221 725.342206 
L -241.713267 725.53437 
L -239.730481 725.010001 
L -237.79237 725.866099 
L -235.856122 724.993111 
L -233.912699 721.099225 
L -231.961761 729.806066 
L -230.010489 730.487179 
L -228.05995 730.919613 
L -226.047451 719.934149 
L -224.145724 722.538318 
L -222.177231 719.601084 
L -220.183277 720.881275 
L -218.224637 718.996378 
L -216.282627 718.999925 
L -214.260855 715.569006 
L -212.341791 717.211929 
L -210.371122 716.979741 
L -208.37093 717.445466 
L -206.477125 722.231336 
L -204.509282 714.610128 
L -202.540273 713.969591 
L -200.593718 713.758101 
L -198.648765 712.931458 
L -196.704848 713.183708 
L -194.791068 719.3392 
L -192.872116 717.758345 
L -190.911615 709.745411 
L -188.905497 712.41398 
L -186.91449 710.699373 
L -184.991627 708.649581 
L -183.029876 708.842451 
L -181.04992 709.755366 
L -179.047077 710.644547 
L -177.155528 705.738245 
L -175.218504 706.823234 
L -173.264485 704.158656 
L -171.259147 705.156767 
L -169.286379 706.313329 
L -167.357293 712.273178 
L -165.417668 705.020288 
L -163.466491 699.358434 
L -161.499703 703.029715 
L -159.533942 703.97377 
L -157.599383 708.184791 
L -155.634713 699.354891 
L -153.684978 705.993384 
L -151.762374 696.73368 
L -149.802888 696.85515 
L -147.870723 696.147284 
L -145.913392 695.373775 
L -143.965719 699.313579 
L -141.980448 697.516203 
L -140.03929 701.320343 
L -138.052068 693.277942 
L -136.069223 694.79659 
L -134.133369 699.774463 
L -132.184485 699.864544 
L -130.238367 691.389508 
L -128.25176 694.012688 
L -126.310842 689.237072 
L -124.278799 689.944553 
L -122.293554 696.833098 
L -120.34228 689.197129 
L -118.392699 690.236277 
L -116.467013 689.954438 
L -114.515162 695.292709 
L -112.552239 689.171055 
L -110.620417 689.056556 
L -108.673568 684.269927 
L -106.744524 685.20041 
L -104.777109 686.458225 
L -102.840832 684.455512 
L -100.866191 686.135544 
L -98.870603 681.523076 
L -96.941267 689.021679 
L -95.026853 688.964842 
L -93.097119 690.32043 
L -91.12343 679.161589 
L -89.185476 679.379454 
L -87.204856 688.479898 
L -85.233259 682.626739 
L -83.254363 679.61772 
L -81.318524 677.098924 
L -79.369679 679.098233 
L -77.395277 678.111419 
L -75.359612 676.032186 
L -73.392274 677.20581 
L -71.427934 673.543165 
L -69.477351 682.254715 
L -67.505881 680.294518 
L -65.547255 673.294392 
L -63.611152 673.890156 
L -61.68675 672.812528 
L -59.69426 668.841796 
L -57.763852 675.134345 
L -55.744018 671.258513 
L -53.809249 672.046211 
L -51.847105 669.990917 
L -49.862411 671.494339 
L -47.879534 668.266309 
L -45.872834 669.744244 
L -43.888254 664.304973 
L -41.881125 665.305947 
L -39.922208 665.128843 
L -37.934525 665.903468 
L -35.993133 665.1757 
L -34.033006 663.476038 
L -32.083987 671.530612 
L -30.12148 664.624089 
L -28.118646 665.165623 
L -26.117101 660.838888 
L -24.140641 661.915691 
L -22.151196 661.330259 
L -20.191172 664.720389 
L -18.181418 659.940534 
L -16.207469 658.273813 
L -14.207366 655.86806 
L -12.220053 657.669818 
L -10.233298 655.668804 
L -8.315917 663.087617 
L -6.374508 654.527174 
L -4.400245 656.012192 
L -2.433632 654.283579 
L -0.440033 653.528601 
L 1.577637 649.964325 
L 3.58089 651.840821 
L 5.52771 649.899981 
L 7.420309 657.505805 
L 9.325703 655.658092 
L 11.306323 651.43892 
L 13.289353 650.04711 
L 15.270534 648.337916 
L 17.286344 645.796679 
L 19.218063 653.371017 
L 21.246959 644.362029 
L 23.288223 644.441241 
L 25.240983 646.44887 
L 27.259856 645.438027 
L 29.228372 644.524396 
L 31.216457 644.301174 
L 33.214597 642.523987 
L 35.216167 638.402893 
L 37.216188 641.179203 
L 39.240579 641.420651 
L 41.184776 640.80379 
L 43.166798 637.215896 
L 45.150537 637.035535 
L 47.104774 636.574018 
L 49.077595 638.386445 
L 51.063563 638.332829 
L 53.008071 636.636217 
L 54.967882 634.629624 
L 56.912615 633.13395 
L 58.8188 642.147113 
L 60.80498 634.947763 
L 62.83304 633.081542 
L 64.808142 630.931196 
L 66.778181 633.283527 
L 68.742288 633.408321 
L 70.72724 631.418212 
L 72.706982 631.04994 
L 74.688096 630.615873 
L 76.691449 628.12489 
L 78.687181 626.148511 
L 80.633917 626.909656 
L 82.634987 626.557026 
L 84.594631 626.010688 
L 86.613118 626.122919 
L 88.617086 626.978452 
L 90.646047 627.350973 
L 92.628646 627.556677 
L 94.665483 626.19577 
L 96.664637 624.597946 
L 98.624122 623.933896 
L 100.62687 623.631647 
L 102.614175 619.086401 
L 104.528519 627.7606 
L 106.475923 628.79682 
L 108.472661 620.937339 
L 110.478889 625.100867 
L 112.455811 619.759456 
L 114.468587 621.259581 
L 116.411732 616.952474 
L 118.38231 618.381441 
L 120.331939 620.477567 
L 122.339335 617.507061 
L 124.38667 616.151033 
L 126.388372 616.175635 
L 128.316188 624.535729 
L 130.305113 615.937755 
L 132.32646 616.924954 
L 134.317925 616.337558 
L 136.295075 616.022599 
L 138.26 613.232433 
L 140.187728 620.553186 
L 142.221455 611.702134 
L 144.260279 612.00077 
L 146.237576 613.324374 
L 148.219504 611.553239 
L 150.172301 616.954494 
L 152.167166 608.881233 
L 154.166005 608.059818 
L 156.118631 610.844424 
L 158.147369 608.062024 
L 160.148065 609.611435 
L 162.112138 606.255643 
L 164.062995 607.156272 
L 166.058264 609.657244 
L 168.016315 604.02426 
L 169.991417 604.887216 
L 171.943515 605.04861 
L 173.888858 604.7011 
L 175.875676 602.956319 
L 177.83412 603.999122 
L 179.850373 602.8902 
L 181.81515 602.402068 
L 183.758154 607.377711 
L 185.663233 601.478822 
L 187.61682 601.30646 
L 189.588323 600.105315 
L 191.60069 601.360637 
L 193.523255 606.247381 
L 195.506832 595.432697 
L 197.486189 598.576876 
L 199.503527 597.547251 
L 201.466784 596.483246 
L 203.450003 596.551809 
L 205.431647 592.627744 
L 207.427334 592.603802 
L 209.412967 593.632689 
L 211.443995 590.152533 
L 213.445309 591.751526 
L 215.461891 591.504092 
L 217.51731 588.93433 
L 219.557114 588.690028 
L 221.532957 589.852465 
L 223.535183 589.220734 
L 225.451001 591.053128 
L 227.440064 589.766088 
L 229.428659 587.175402 
L 231.38543 583.251385 
L 233.349129 587.199406 
L 235.362011 582.303351 
L 237.305067 592.336117 
L 239.335303 583.649215 
L 241.27796 584.879296 
L 243.276119 584.966994 
L 245.224911 589.624344 
L 247.228568 589.571866 
L 249.180562 582.832751 
L 251.133631 581.475844 
L 253.125828 580.544464 
L 255.10029 586.594614 
L 257.056746 577.187584 
L 259.009738 578.135896 
L 261.000286 579.56151 
L 262.970461 576.407346 
L 264.987328 575.212974 
L 266.957995 577.509767 
L 268.955009 572.931091 
L 270.921339 572.143882 
L 272.897549 572.342329 
L 274.90635 572.803579 
L 276.890147 572.287826 
L 278.891432 571.13897 
L 280.890777 571.532073 
L 282.906725 569.7505 
L 284.923779 565.465153 
L 286.873946 576.174632 
L 288.868553 574.641489 
L 290.808893 569.816248 
L 292.771474 568.659894 
L 294.775249 563.989163 
L 296.748 564.120173 
L 298.791729 565.405147 
L 300.82106 563.345788 
L 302.932121 562.771342 
L 304.97739 561.587161 
L 307.006869 561.653667 
L 309.028908 558.999196 
L 311.051421 559.152377 
L 313.059411 554.912366 
L 315.123203 555.04607 
L 317.175038 553.956264 
L 319.153579 553.620584 
L 321.178221 551.207346 
L 323.211062 550.53556 
L 325.189802 549.426047 
L 327.213625 550.656468 
L 329.174119 545.158555 
L 331.176639 546.571255 
L 333.132424 544.414389 
L 335.116589 544.665939 
L 337.081583 548.112962 
L 339.026131 549.026489 
L 341.029653 542.800608 
L 343.001702 539.992707 
L 344.981667 540.151974 
L 346.925712 536.624623 
L 348.871316 532.893974 
L 350.849192 533.142483 
L 352.780599 533.046357 
L 354.698994 531.630716 
L 356.570449 527.923371 
L 358.433 528.27009 
L 360.284372 522.537037 
L 362.160596 524.780486 
L 363.932862 522.738719 
L 365.73379 517.668611 
L 367.50173 516.854571 
L 369.20468 518.112259 
L 370.928948 510.02954 
L 372.615034 512.317189 
L 374.280063 508.544163 
L 375.881524 506.500459 
L 377.560308 504.124583 
L 379.132401 501.191202 
L 380.70897 496.582241 
L 382.286303 497.367141 
L 383.830501 495.691429 
L 385.376703 490.786353 
L 386.889271 486.367808 
L 388.299554 491.857319 
L 389.777316 484.908949 
L 391.179096 480.016858 
L 392.644761 480.030346 
L 394.068103 476.962478 
L 395.49009 473.45264 
L 396.889764 474.634711 
L 398.255485 463.635741 
L 399.676135 462.170764 
L 401.138275 458.045272 
L 402.590726 458.541581 
L 404.033511 454.725907 
L 405.433338 452.540678 
L 406.81534 447.817722 
L 408.200561 444.126947 
L 409.613479 443.066632 
L 411.043186 440.372677 
L 412.517664 441.52974 
L 413.992113 437.125703 
L 415.474134 433.214506 
L 417.004672 432.324793 
L 418.51349 430.58034 
L 420.071105 428.889161 
L 421.652963 425.678113 
L 423.233871 422.827507 
L 424.860449 424.404645 
L 426.504294 424.578691 
L 428.181837 417.152799 
L 429.843792 415.092258 
L 431.557359 412.988408 
L 433.280871 411.820701 
L 434.977208 412.308811 
L 436.678937 407.121573 
L 438.4707 405.588756 
L 440.176559 410.350011 
L 441.924331 401.825106 
L 443.654712 408.436672 
L 445.416399 401.937095 
L 447.186867 400.756538 
L 448.955932 404.903163 
L 450.714508 404.933818 
L 452.549401 393.637187 
L 454.325831 399.944301 
L 456.161417 393.568332 
L 458.043295 391.943491 
L 459.876418 397.642787 
L 461.700888 391.197515 
L 463.524942 391.601104 
L 465.364836 386.74437 
L 467.154586 385.267157 
L 468.985786 386.721198 
L 470.852481 384.918511 
L 472.742682 382.537578 
L 474.564858 382.368327 
L 476.424702 381.088686 
L 478.282525 377.264411 
L 480.122401 377.290105 
L 481.987882 378.902326 
L 483.890555 376.203719 
L 485.790546 374.15807 
L 487.695287 373.699679 
L 489.556498 372.627336 
L 491.3894 372.545412 
L 493.247121 373.184645 
L 495.050988 379.095562 
L 496.881431 368.363983 
L 498.67328 368.113094 
L 500.432004 367.038918 
L 502.27063 367.701371 
L 504.118022 368.770353 
L 505.937482 364.582385 
L 507.816538 362.445908 
L 509.659786 360.724059 
L 511.477793 363.970665 
L 513.293674 363.545911 
L 515.106006 359.170489 
L 516.949149 360.94482 
L 518.779978 361.186392 
L 520.662197 356.20754 
L 522.431532 356.140749 
L 524.25029 355.78646 
L 526.031623 353.777909 
L 527.803028 353.160637 
L 529.624774 352.689358 
L 531.383597 358.773575 
L 533.114506 352.378517 
L 534.958658 353.664151 
L 536.791262 349.818898 
L 538.626413 352.601411 
L 540.465475 345.088853 
L 542.210811 348.49547 
L 543.973546 357.314569 
L 545.790542 352.469979 
L 547.580064 346.220996 
L 549.348226 353.489812 
L 551.13268 347.783106 
L 552.934524 346.783892 
L 554.643447 346.998976 
L 556.409751 345.303601 
L 558.171994 345.729296 
L 559.916153 339.848022 
L 561.738431 346.776325 
L 563.491001 340.914246 
L 565.221998 350.53747 
L 567.03324 342.894516 
L 568.813764 342.81776 
L 570.507786 348.049996 
L 572.260938 341.70926 
L 574.013829 339.500431 
L 575.723039 344.675603 
L 577.508085 337.251995 
L 579.262605 335.848515 
L 580.998115 336.370398 
L 582.782829 334.800183 
L 584.575728 335.186873 
L 586.326208 334.577928 
L 588.040263 337.599108 
L 589.793534 335.015608 
L 591.500387 330.84836 
L 593.188682 328.357347 
L 594.957241 331.698719 
L 596.690483 332.375774 
L 598.47085 330.957916 
L 600.23346 329.895594 
L 602.028709 329.721023 
L 603.744402 328.191921 
L 605.440992 330.077405 
L 607.18285 328.746518 
L 608.856944 326.661441 
L 610.556863 333.808766 
L 612.301592 325.649327 
L 614.027424 327.021383 
L 615.704047 325.461792 
L 617.481592 323.832637 
L 619.178831 326.282027 
L 620.87376 323.668319 
L 622.544611 321.753582 
L 624.248181 321.282539 
L 625.977301 317.950956 
L 627.689238 319.547942 
L 629.385065 322.627388 
L 631.099024 320.010647 
L 632.797432 318.886507 
L 634.519499 317.592734 
L 636.185328 317.273609 
L 637.884454 325.353855 
L 639.60935 316.702531 
L 641.323412 314.907101 
L 643.01679 315.358606 
L 644.733995 323.482337 
L 646.458551 312.187339 
L 648.199609 314.331767 
L 649.843797 311.40013 
L 651.540086 312.970591 
L 653.201719 318.827003 
L 654.883351 312.237874 
L 656.560913 313.237382 
L 658.215092 318.961424 
L 659.934065 309.975931 
L 661.581244 309.096582 
L 663.297191 307.354132 
L 665.021478 308.875493 
L 666.699357 317.072291 
L 668.322679 309.83982 
L 669.985199 307.440064 
L 671.655053 304.769631 
L 673.324895 308.017072 
L 674.981373 306.570858 
L 676.650818 305.476772 
L 678.35455 305.999418 
L 680.062185 304.290222 
L 681.772834 304.674816 
L 683.410931 308.995201 
L 685.031131 299.952509 
L 686.710229 303.582113 
L 688.365603 299.686684 
L 690.075186 300.648985 
L 691.726374 298.119692 
L 693.439536 299.169993 
L 695.097763 301.030785 
L 696.70348 304.628187 
L 698.356994 295.854109 
L 700.026122 297.491536 
L 701.661512 298.073798 
L 703.229316 303.421126 
L 704.864754 304.147911 
L 706.570163 296.253422 
L 708.227453 294.600769 
L 709.893987 294.967415 
L 711.524726 293.475426 
L 713.140943 292.768524 
L 714.787294 294.208154 
L 716.39252 298.344596 
L 718.000606 292.457922 
L 719.653271 291.79671 
L 721.258623 291.414967 
L 722.86975 290.09283 
L 724.445598 287.612062 
L 726.085412 290.17619 
L 727.710947 282.536586 
L 729.307129 285.097513 
L 730.933794 286.711313 
L 732.516231 286.365247 
L 734.114278 287.043794 
L 735.740239 285.107437 
L 737.330781 284.622133 
L 738.974398 286.620038 
L 740.624057 282.679792 
L 742.170492 283.874996 
L 743.827155 283.276034 
L 745.354203 292.480215 
L 746.998921 278.926497 
L 748.563203 282.845305 
L 750.175642 281.839327 
L 751.793665 280.987675 
L 753.32919 278.547414 
L 754.904893 277.861403 
L 756.47554 279.345013 
L 758.022163 274.886018 
L 759.582615 276.978888 
L 761.159816 276.762353 
L 761.159816 256.504692 
L 761.159816 256.504692 
L 759.582615 257.569269 
L 758.022163 260.55541 
L 756.47554 256.736972 
L 754.904893 259.757917 
L 753.32919 260.096775 
L 751.793665 258.553293 
L 750.175642 258.585607 
L 748.563203 259.116964 
L 746.998921 264.573108 
L 745.354203 251.659946 
L 743.827155 262.125607 
L 742.170492 262.624944 
L 740.624057 264.575985 
L 738.974398 261.660629 
L 737.330781 264.874903 
L 735.740239 265.528167 
L 734.114278 264.744811 
L 732.516231 266.704304 
L 730.933794 267.51124 
L 729.307129 270.278041 
L 727.710947 273.479525 
L 726.085412 266.096143 
L 724.445598 270.453829 
L 722.86975 268.86984 
L 721.258623 268.956927 
L 719.653271 269.984408 
L 718.000606 270.73242 
L 716.39252 266.126858 
L 714.787294 270.413542 
L 713.140943 272.993308 
L 711.524726 272.914157 
L 709.893987 272.17807 
L 708.227453 274.082052 
L 706.570163 273.18524 
L 704.864754 266.956197 
L 703.229316 268.707669 
L 701.661512 275.006582 
L 700.026122 277.254291 
L 698.356994 280.172831 
L 696.70348 272.167421 
L 695.097763 276.186856 
L 693.439536 279.969318 
L 691.726374 282.17262 
L 690.075186 280.40059 
L 688.365603 282.644003 
L 686.710229 279.645353 
L 685.031131 285.068514 
L 683.410931 276.666379 
L 681.772834 281.073355 
L 680.062185 283.065022 
L 678.35455 282.76505 
L 676.650818 284.42787 
L 674.981373 284.544832 
L 673.324895 284.507841 
L 671.655053 289.232429 
L 669.985199 287.202553 
L 668.322679 286.08391 
L 666.699357 279.863428 
L 665.021478 288.99816 
L 663.297191 291.67244 
L 661.581244 290.698658 
L 659.934065 290.810617 
L 658.215092 282.850015 
L 656.560913 289.468978 
L 654.883351 292.005822 
L 653.201719 286.55859 
L 651.540086 292.7332 
L 649.843797 295.584773 
L 648.199609 292.896571 
L 646.458551 296.322112 
L 644.733995 285.795781 
L 643.01679 295.070125 
L 641.323412 296.802743 
L 639.60935 296.032203 
L 637.884454 288.64601 
L 636.185328 298.065329 
L 634.519499 298.899206 
L 632.797432 298.630322 
L 631.099024 298.787295 
L 629.385065 297.579778 
L 627.689238 302.452782 
L 625.977301 304.818435 
L 624.248181 301.999297 
L 622.544611 302.553144 
L 620.87376 301.791409 
L 619.178831 300.586925 
L 617.481592 304.630525 
L 615.704047 304.154296 
L 614.027424 304.003928 
L 612.301592 306.446752 
L 610.556863 299.440314 
L 608.856944 307.204329 
L 607.18285 306.272253 
L 605.440992 306.435802 
L 603.744402 309.986734 
L 602.028709 309.482522 
L 600.23346 310.589063 
L 598.47085 310.551631 
L 596.690483 310.414886 
L 594.957241 312.494718 
L 593.188682 316.989092 
L 591.500387 314.882413 
L 589.793534 311.483832 
L 588.040263 310.24793 
L 586.326208 313.26911 
L 584.575728 314.059125 
L 582.782829 315.598817 
L 580.998115 315.181603 
L 579.262605 316.861242 
L 577.508085 316.35454 
L 575.723039 310.212045 
L 574.013829 316.171138 
L 572.260938 314.577281 
L 570.507786 310.542548 
L 568.813764 316.571626 
L 567.03324 318.54465 
L 565.221998 312.396326 
L 563.491001 322.726034 
L 561.738431 317.370089 
L 559.916153 326.860617 
L 558.171994 321.491788 
L 556.409751 323.048243 
L 554.643447 322.879341 
L 552.934524 324.759872 
L 551.13268 324.607263 
L 549.348226 320.040769 
L 547.580064 328.11574 
L 545.790542 322.891648 
L 543.973546 320.304921 
L 542.210811 329.565519 
L 540.465475 333.996905 
L 538.626413 326.86868 
L 536.791262 331.700974 
L 534.958658 328.880611 
L 533.114506 332.087914 
L 531.383597 326.973969 
L 529.624774 333.339125 
L 527.803028 333.833815 
L 526.031623 334.369544 
L 524.25029 333.513995 
L 522.431532 334.56893 
L 520.662197 335.911363 
L 518.779978 332.206375 
L 516.949149 334.366431 
L 515.106006 338.067292 
L 513.293674 334.966134 
L 511.477793 336.62733 
L 509.659786 341.98767 
L 507.816538 341.220558 
L 505.937482 340.493305 
L 504.118022 338.098895 
L 502.27063 342.114437 
L 500.432004 344.826669 
L 498.67328 345.03345 
L 496.881431 346.448008 
L 495.050988 337.125652 
L 493.247121 343.102112 
L 491.3894 346.30357 
L 489.556498 348.271427 
L 487.695287 348.86453 
L 485.790546 350.199697 
L 483.890555 349.947606 
L 481.987882 349.298779 
L 480.122401 353.03883 
L 478.282525 354.72997 
L 476.424702 352.44303 
L 474.564858 353.718616 
L 472.742682 356.105039 
L 470.852481 355.901998 
L 468.985786 356.598073 
L 467.154586 360.343309 
L 465.364836 360.659654 
L 463.524942 357.724589 
L 461.700888 361.190005 
L 459.876418 357.563113 
L 458.043295 364.066535 
L 456.161417 364.875808 
L 454.325831 361.045097 
L 452.549401 367.801842 
L 450.714508 358.159552 
L 448.955932 359.376327 
L 447.186867 365.536183 
L 445.416399 367.673775 
L 443.654712 364.505091 
L 441.924331 372.434712 
L 440.176559 366.327306 
L 438.4707 372.421518 
L 436.678937 374.091483 
L 434.977208 372.107026 
L 433.280871 377.205043 
L 431.557359 379.450232 
L 429.843792 380.240485 
L 428.181837 381.510837 
L 426.504294 377.543949 
L 424.860449 379.773624 
L 423.233871 386.147258 
L 421.652963 387.011879 
L 420.071105 387.503253 
L 418.51349 390.108902 
L 417.004672 392.487035 
L 415.474134 395.837964 
L 413.992113 396.282516 
L 412.517664 397.131041 
L 411.043186 403.282139 
L 409.613479 404.413091 
L 408.200561 407.580448 
L 406.81534 407.989233 
L 405.433338 408.262616 
L 404.033511 411.445528 
L 402.590726 413.000499 
L 401.138275 419.505248 
L 399.676135 419.932783 
L 398.255485 423.644826 
L 396.889764 417.211743 
L 395.49009 426.853848 
L 394.068103 429.54971 
L 392.644761 433.015517 
L 391.179096 439.394309 
L 389.777316 439.242335 
L 388.299554 438.699528 
L 386.889271 447.582815 
L 385.376703 447.46112 
L 383.830501 448.449162 
L 382.286303 453.418987 
L 380.70897 459.902099 
L 379.132401 459.520566 
L 377.560308 460.899585 
L 375.881524 463.754067 
L 374.280063 466.42646 
L 372.615034 467.905997 
L 370.928948 476.214876 
L 369.20468 471.719272 
L 367.50173 479.126301 
L 365.73379 482.668044 
L 363.932862 481.313163 
L 362.160596 483.394828 
L 360.284372 491.01895 
L 358.433 487.959985 
L 356.570449 492.64959 
L 354.698994 492.762638 
L 352.780599 495.17757 
L 350.849192 499.052893 
L 348.871316 502.760406 
L 346.925712 501.848206 
L 344.981667 501.968931 
L 343.001702 506.173694 
L 341.029653 506.952909 
L 339.026131 504.314144 
L 337.081583 506.07286 
L 335.116589 510.179514 
L 333.132424 514.134851 
L 331.176639 514.668322 
L 329.174119 519.155692 
L 327.213625 515.251695 
L 325.189802 519.87069 
L 323.211062 521.14903 
L 321.178221 523.167581 
L 319.153579 522.921116 
L 317.175038 525.275773 
L 315.123203 526.748192 
L 313.059411 529.159811 
L 311.051421 526.96958 
L 309.028908 530.325421 
L 307.006869 530.105064 
L 304.97739 532.807081 
L 302.932121 534.167045 
L 300.82106 536.154824 
L 298.791729 536.392623 
L 296.748 540.111711 
L 294.775249 542.03628 
L 292.771474 538.774772 
L 290.808893 539.540758 
L 288.868553 537.116938 
L 286.873946 536.771806 
L 284.923779 548.525787 
L 282.906725 545.13722 
L 280.890777 545.021093 
L 278.891432 547.066805 
L 276.890147 547.455284 
L 274.90635 548.861201 
L 272.897549 551.116008 
L 270.921339 552.723679 
L 268.955009 552.82215 
L 266.957995 549.396475 
L 264.987328 554.127382 
L 262.970461 554.214123 
L 261.000286 552.597294 
L 259.009738 555.67558 
L 257.056746 558.139131 
L 255.10029 549.756991 
L 253.125828 556.860974 
L 251.133631 557.007481 
L 249.180562 557.257065 
L 247.228568 551.494504 
L 245.224911 552.897189 
L 243.276119 558.217979 
L 241.27796 560.422381 
L 239.335303 563.317907 
L 237.305067 555.900592 
L 235.362011 566.548318 
L 233.349129 562.420931 
L 231.38543 568.29062 
L 229.428659 565.00716 
L 227.440064 563.953809 
L 225.451001 564.588199 
L 223.535183 568.452244 
L 221.532957 569.101625 
L 219.557114 571.545175 
L 217.51731 571.949935 
L 215.461891 570.276953 
L 213.445309 571.438742 
L 211.443995 574.318848 
L 209.412967 571.479248 
L 207.427334 573.392114 
L 205.431647 574.521173 
L 203.450003 571.621998 
L 201.466784 573.61223 
L 199.503527 573.560291 
L 197.486189 574.324223 
L 195.506832 579.133815 
L 193.523255 569.087799 
L 191.60069 574.984942 
L 189.588323 578.418156 
L 187.61682 578.498124 
L 185.663233 579.517849 
L 183.758154 575.028184 
L 181.81515 580.30934 
L 179.850373 580.70511 
L 177.83412 580.90996 
L 175.875676 583.61821 
L 173.888858 582.753956 
L 171.943515 583.81567 
L 169.991417 585.386288 
L 168.016315 587.402246 
L 166.058264 582.53793 
L 164.062995 586.84598 
L 162.112138 588.785165 
L 160.148065 586.326152 
L 158.147369 589.01579 
L 156.118631 586.66437 
L 154.166005 591.114423 
L 152.167166 591.189787 
L 150.172301 584.013305 
L 148.219504 589.955144 
L 146.237576 589.105293 
L 144.260279 592.094344 
L 142.221455 593.545981 
L 140.187728 585.719819 
L 138.26 593.807567 
L 136.295075 591.91371 
L 134.317925 593.264197 
L 132.32646 594.342248 
L 130.305113 596.354337 
L 128.316188 588.909365 
L 126.388372 597.903022 
L 124.38667 598.824403 
L 122.339335 598.237042 
L 120.331939 596.419537 
L 118.38231 600.18111 
L 116.411732 602.634967 
L 114.468587 598.968417 
L 112.455811 601.877766 
L 110.478889 597.433134 
L 108.472661 602.714621 
L 106.475923 595.354792 
L 104.528519 596.820362 
L 102.614175 605.494561 
L 100.62687 601.46176 
L 98.624122 602.696846 
L 96.664637 603.44202 
L 94.665483 603.006568 
L 92.628646 603.182996 
L 90.646047 605.182258 
L 88.617086 607.092114 
L 86.613118 609.100649 
L 84.594631 610.109537 
L 82.634987 610.32542 
L 80.633917 610.415735 
L 78.687181 611.817437 
L 76.691449 610.481615 
L 74.688096 608.88741 
L 72.706982 609.606345 
L 70.72724 609.721423 
L 68.742288 609.078864 
L 66.778181 610.580001 
L 64.808142 614.13826 
L 62.83304 612.628469 
L 60.80498 612.043361 
L 58.8188 606.381346 
L 56.912615 616.571093 
L 54.967882 615.318817 
L 53.008071 614.465226 
L 51.063563 614.305948 
L 49.077595 616.04589 
L 47.104774 619.267542 
L 45.150537 619.447556 
L 43.166798 619.842398 
L 41.184776 617.023171 
L 39.240579 617.479509 
L 37.216188 619.514515 
L 35.216167 623.641142 
L 33.214597 620.160604 
L 31.216457 619.792642 
L 29.228372 621.362977 
L 27.259856 621.986682 
L 25.240983 622.641285 
L 23.288223 626.31436 
L 21.246959 627.418463 
L 19.218063 619.306254 
L 17.286344 627.68614 
L 15.270534 626.169794 
L 13.289353 625.997934 
L 11.306323 626.127217 
L 9.325703 623.701603 
L 7.420309 622.168793 
L 5.52771 630.400126 
L 3.58089 629.612287 
L 1.577637 633.026118 
L -0.440033 630.358622 
L -2.433632 631.012867 
L -4.400245 630.949701 
L -6.374508 633.843943 
L -8.315917 626.267942 
L -10.233298 634.995069 
L -12.220053 634.275168 
L -14.207366 637.614261 
L -16.207469 636.105287 
L -18.181418 635.975901 
L -20.191172 632.989604 
L -22.151196 636.508895 
L -24.140641 637.845132 
L -26.117101 639.537016 
L -28.118646 636.619505 
L -30.12148 638.711229 
L -32.083987 633.603518 
L -34.033006 643.235995 
L -35.993133 642.817446 
L -37.934525 643.627013 
L -39.922208 645.810862 
L -41.881125 646.261494 
L -43.888254 648.031135 
L -45.872834 643.360531 
L -47.879534 647.016358 
L -49.862411 645.197552 
L -51.847105 648.620235 
L -53.809249 647.974166 
L -55.744018 650.555422 
L -57.763852 647.960702 
L -59.69426 656.02965 
L -61.68675 652.571363 
L -63.611152 652.774848 
L -65.547255 654.523613 
L -67.505881 648.548377 
L -69.477351 646.869496 
L -71.427934 656.257464 
L -73.392274 653.235375 
L -75.359612 656.202557 
L -77.395277 654.751091 
L -79.369679 655.429723 
L -81.318524 658.552618 
L -83.254363 657.058713 
L -85.233259 655.186463 
L -87.204856 651.268034 
L -89.185476 661.212341 
L -91.12343 662.21254 
L -93.097119 651.950478 
L -95.026853 654.625366 
L -96.941267 655.222668 
L -98.870603 663.416965 
L -100.866191 659.829387 
L -102.840832 663.431088 
L -104.777109 662.709488 
L -106.744524 665.248416 
L -108.673568 667.331899 
L -110.620417 663.44205 
L -112.552239 665.2451 
L -114.515162 660.779681 
L -116.467013 666.8127 
L -118.392699 668.068196 
L -120.34228 670.644679 
L -122.293554 663.852499 
L -124.278799 671.315486 
L -126.310842 673.047858 
L -128.25176 669.04091 
L -130.238367 673.184835 
L -132.184485 665.734688 
L -134.133369 666.164082 
L -136.069223 671.54191 
L -138.052068 674.072674 
L -140.03929 667.183274 
L -141.980448 671.924996 
L -143.965719 672.177399 
L -145.913392 678.423207 
L -147.870723 678.162142 
L -149.802888 678.23661 
L -151.762374 679.32404 
L -153.684978 670.961114 
L -155.634713 678.536474 
L -157.599383 670.26548 
L -159.533942 675.75806 
L -161.499703 679.008118 
L -163.466491 684.472957 
L -165.417668 679.451659 
L -167.357293 674.120438 
L -169.286379 680.724014 
L -171.259147 683.930357 
L -173.264485 686.337692 
L -175.218504 684.254723 
L -177.155528 686.844389 
L -179.047077 682.374706 
L -181.04992 685.395654 
L -183.029876 687.932988 
L -184.991627 689.406972 
L -186.91449 688.510181 
L -188.905497 688.332909 
L -190.911615 692.141649 
L -192.872116 685.025312 
L -194.791068 683.731621 
L -196.704848 690.928628 
L -198.648765 692.46199 
L -200.593718 692.532125 
L -202.540273 693.72986 
L -204.509282 694.370435 
L -206.477125 688.03034 
L -208.37093 693.180964 
L -210.371122 695.312135 
L -212.341791 696.430211 
L -214.260855 699.295303 
L -216.282627 696.633051 
L -218.224637 698.168722 
L -220.183277 697.564938 
L -222.177231 700.382464 
L -224.145724 698.598232 
L -226.047451 702.995958 
L -228.05995 692.907273 
L -230.010489 694.103999 
L -231.961761 695.808871 
L -233.912699 704.87255 
L -235.856122 701.747332 
L -237.79237 702.411679 
L -239.730481 704.434831 
L -241.713267 705.191575 
L -243.651221 706.139604 
L -245.591862 707.650048 
L -247.560533 708.168599 
L -249.576529 706.472879 
L -251.538703 707.741736 
L -253.484918 706.416724 
L -255.418287 709.159489 
L -257.346733 701.193264 
L -259.269278 711.710155 
L -261.194885 709.848843 
L -263.171503 710.303006 
L -265.126492 710.624919 
L -267.096413 711.647463 
L -269.088453 711.031416 
L -271.097358 711.358096 
L -273.023349 714.385821 
L -274.944762 716.86407 
L -276.920605 714.579555 
L -278.897628 717.202085 
L -280.833838 710.416753 
L -282.752145 718.797119 
L -284.684403 718.031477 
L -286.656913 716.152504 
L -288.632842 717.518919 
L -290.580815 721.433112 
L -292.586049 720.520568 
L -294.54637 719.665422 
L -296.501345 721.066375 
L -298.45649 719.371209 
L -300.449443 715.647538 
L -302.354949 720.720963 
L -304.290844 725.72918 
L -306.21338 715.747263 
L -308.072342 722.952092 
L -309.98091 724.182195 
L -311.930751 725.599499 
L -313.838485 721.591839 
L -315.760484 724.590725 
L -317.666714 729.72472 
L -319.606311 729.0367 
L -321.537376 721.210253 
L -323.340402 730.652154 
L -325.300119 731.696915 
L -327.260248 727.228047 
L -329.185464 731.160374 
L -331.079544 723.145289 
L -333.024534 732.955415 
L -334.914248 724.985289 
L -336.773483 732.133434 
L -338.735658 732.041456 
L -340.641766 733.005063 
L -342.533236 733.098568 
L -344.481229 733.773191 
L -346.374401 733.541301 
L -348.244975 736.18176 
L -350.131366 732.204037 
L -352.050705 733.932266 
z
" clip-path="url(#p14280dd894)" style="fill: #4169e1; fill-opacity: 0.25; stroke: #4169e1; stroke-opacity: 0.25"/>
   </g>
   <g id="PathCollection_1">
    <defs>
     <path id="mb38b56e502" d="M 0 3 
C 0.795609 3 1.55874 2.683901 2.12132 2.12132 
C 2.683901 1.55874 3 0.795609 3 0 
C 3 -0.795609 2.683901 -1.55874 2.12132 -2.12132 
C 1.55874 -2.683901 0.795609 -3 0 -3 
C -0.795609 -3 -1.55874 -2.683901 -2.12132 -2.12132 
C -2.683901 -1.55874 -3 -0.795609 -3 0 
C -3 0.795609 -2.683901 1.55874 -2.12132 2.12132 
C -1.55874 2.683901 -0.795609 3 0 3 
z
" style="stroke: #000000"/>
    </defs>
    <g clip-path="url(#p14280dd894)">
     <use xlink:href="#mb38b56e502" x="397.572624" y="520.362639" style="stroke: #000000"/>
    </g>
   </g>
   <g id="PathCollection_2">
    <g clip-path="url(#p14280dd894)">
     <use xlink:href="#mb38b56e502" x="397.572624" y="389.383706" style="stroke: #000000"/>
    </g>
   </g>
   <g id="matplotlib.axis_1">
    <g id="xtick_1">
     <g id="line2d_1">
      <defs>
       <path id="maf97e4867e" d="M 0 0 
L 0 3.5 
" style="stroke: #000000; stroke-width: 3"/>
      </defs>
      <g>
       <use xlink:href="#maf97e4867e" x="150.608582" y="603.52" style="stroke: #000000; stroke-width: 3"/>
      </g>
     </g>
     <g id="text_1">
      <!-- 1.5 -->
      <g transform="translate(122.778113 637.114531) scale(0.35 -0.35)">
       <defs>
        <path id="DejaVuSans-31" d="M 794 531 
L 1825 531 
L 1825 4091 
L 703 3866 
L 703 4441 
L 1819 4666 
L 2450 4666 
L 2450 531 
L 3481 531 
L 3481 0 
L 794 0 
L 794 531 
z
" transform="scale(0.015625)"/>
        <path id="DejaVuSans-2e" d="M 684 794 
L 1344 794 
L 1344 0 
L 684 0 
L 684 794 
z
" transform="scale(0.015625)"/>
        <path id="DejaVuSans-35" d="M 691 4666 
L 3169 4666 
L 3169 4134 
L 1269 4134 
L 1269 2991 
Q 1406 3038 1543 3061 
Q 1681 3084 1819 3084 
Q 2600 3084 3056 2656 
Q 3513 2228 3513 1497 
Q 3513 744 3044 326 
Q 2575 -91 1722 -91 
Q 1428 -91 1123 -41 
Q 819 9 494 109 
L 494 744 
Q 775 591 1075 516 
Q 1375 441 1709 441 
Q 2250 441 2565 725 
Q 2881 1009 2881 1497 
Q 2881 1984 2565 2268 
Q 2250 2553 1709 2553 
Q 1456 2553 1204 2497 
Q 953 2441 691 2322 
L 691 4666 
z
" transform="scale(0.015625)"/>
       </defs>
       <use xlink:href="#DejaVuSans-31"/>
       <use xlink:href="#DejaVuSans-2e" x="63.623047"/>
       <use xlink:href="#DejaVuSans-35" x="95.410156"/>
      </g>
     </g>
    </g>
    <g id="xtick_2">
     <g id="line2d_2">
      <g>
       <use xlink:href="#maf97e4867e" x="318.784128" y="603.52" style="stroke: #000000; stroke-width: 3"/>
      </g>
     </g>
     <g id="text_2">
      <!-- 2.0 -->
      <g transform="translate(290.95366 637.114531) scale(0.35 -0.35)">
       <defs>
        <path id="DejaVuSans-32" d="M 1228 531 
L 3431 531 
L 3431 0 
L 469 0 
L 469 531 
Q 828 903 1448 1529 
Q 2069 2156 2228 2338 
Q 2531 2678 2651 2914 
Q 2772 3150 2772 3378 
Q 2772 3750 2511 3984 
Q 2250 4219 1831 4219 
Q 1534 4219 1204 4116 
Q 875 4013 500 3803 
L 500 4441 
Q 881 4594 1212 4672 
Q 1544 4750 1819 4750 
Q 2544 4750 2975 4387 
Q 3406 4025 3406 3419 
Q 3406 3131 3298 2873 
Q 3191 2616 2906 2266 
Q 2828 2175 2409 1742 
Q 1991 1309 1228 531 
z
" transform="scale(0.015625)"/>
        <path id="DejaVuSans-30" d="M 2034 4250 
Q 1547 4250 1301 3770 
Q 1056 3291 1056 2328 
Q 1056 1369 1301 889 
Q 1547 409 2034 409 
Q 2525 409 2770 889 
Q 3016 1369 3016 2328 
Q 3016 3291 2770 3770 
Q 2525 4250 2034 4250 
z
M 2034 4750 
Q 2819 4750 3233 4129 
Q 3647 3509 3647 2328 
Q 3647 1150 3233 529 
Q 2819 -91 2034 -91 
Q 1250 -91 836 529 
Q 422 1150 422 2328 
Q 422 3509 836 4129 
Q 1250 4750 2034 4750 
z
" transform="scale(0.015625)"/>
       </defs>
       <use xlink:href="#DejaVuSans-32"/>
       <use xlink:href="#DejaVuSans-2e" x="63.623047"/>
       <use xlink:href="#DejaVuSans-30" x="95.410156"/>
      </g>
     </g>
    </g>
    <g id="xtick_3">
     <g id="line2d_3">
      <g>
       <use xlink:href="#maf97e4867e" x="486.959675" y="603.52" style="stroke: #000000; stroke-width: 3"/>
      </g>
     </g>
     <g id="text_3">
      <!-- 2.5 -->
      <g transform="translate(459.129206 637.114531) scale(0.35 -0.35)">
       <use xlink:href="#DejaVuSans-32"/>
       <use xlink:href="#DejaVuSans-2e" x="63.623047"/>
       <use xlink:href="#DejaVuSans-35" x="95.410156"/>
      </g>
     </g>
    </g>
    <g id="xtick_4">
     <g id="line2d_4">
      <g>
       <use xlink:href="#maf97e4867e" x="655.135221" y="603.52" style="stroke: #000000; stroke-width: 3"/>
      </g>
     </g>
     <g id="text_4">
      <!-- 3.0 -->
      <g transform="translate(627.304752 637.114531) scale(0.35 -0.35)">
       <defs>
        <path id="DejaVuSans-33" d="M 2597 2516 
Q 3050 2419 3304 2112 
Q 3559 1806 3559 1356 
Q 3559 666 3084 287 
Q 2609 -91 1734 -91 
Q 1441 -91 1130 -33 
Q 819 25 488 141 
L 488 750 
Q 750 597 1062 519 
Q 1375 441 1716 441 
Q 2309 441 2620 675 
Q 2931 909 2931 1356 
Q 2931 1769 2642 2001 
Q 2353 2234 1838 2234 
L 1294 2234 
L 1294 2753 
L 1863 2753 
Q 2328 2753 2575 2939 
Q 2822 3125 2822 3475 
Q 2822 3834 2567 4026 
Q 2313 4219 1838 4219 
Q 1578 4219 1281 4162 
Q 984 4106 628 3988 
L 628 4550 
Q 988 4650 1302 4700 
Q 1616 4750 1894 4750 
Q 2613 4750 3031 4423 
Q 3450 4097 3450 3541 
Q 3450 3153 3228 2886 
Q 3006 2619 2597 2516 
z
" transform="scale(0.015625)"/>
       </defs>
       <use xlink:href="#DejaVuSans-33"/>
       <use xlink:href="#DejaVuSans-2e" x="63.623047"/>
       <use xlink:href="#DejaVuSans-30" x="95.410156"/>
      </g>
     </g>
    </g>
    <g id="text_5">
     <!-- Cumulative total (cts) -->
     <g transform="translate(218.886874 674.987969) scale(0.35 -0.35)">
      <defs>
       <path id="DejaVuSans-43" d="M 4122 4306 
L 4122 3641 
Q 3803 3938 3442 4084 
Q 3081 4231 2675 4231 
Q 1875 4231 1450 3742 
Q 1025 3253 1025 2328 
Q 1025 1406 1450 917 
Q 1875 428 2675 428 
Q 3081 428 3442 575 
Q 3803 722 4122 1019 
L 4122 359 
Q 3791 134 3420 21 
Q 3050 -91 2638 -91 
Q 1578 -91 968 557 
Q 359 1206 359 2328 
Q 359 3453 968 4101 
Q 1578 4750 2638 4750 
Q 3056 4750 3426 4639 
Q 3797 4528 4122 4306 
z
" transform="scale(0.015625)"/>
       <path id="DejaVuSans-75" d="M 544 1381 
L 544 3500 
L 1119 3500 
L 1119 1403 
Q 1119 906 1312 657 
Q 1506 409 1894 409 
Q 2359 409 2629 706 
Q 2900 1003 2900 1516 
L 2900 3500 
L 3475 3500 
L 3475 0 
L 2900 0 
L 2900 538 
Q 2691 219 2414 64 
Q 2138 -91 1772 -91 
Q 1169 -91 856 284 
Q 544 659 544 1381 
z
M 1991 3584 
L 1991 3584 
z
" transform="scale(0.015625)"/>
       <path id="DejaVuSans-6d" d="M 3328 2828 
Q 3544 3216 3844 3400 
Q 4144 3584 4550 3584 
Q 5097 3584 5394 3201 
Q 5691 2819 5691 2113 
L 5691 0 
L 5113 0 
L 5113 2094 
Q 5113 2597 4934 2840 
Q 4756 3084 4391 3084 
Q 3944 3084 3684 2787 
Q 3425 2491 3425 1978 
L 3425 0 
L 2847 0 
L 2847 2094 
Q 2847 2600 2669 2842 
Q 2491 3084 2119 3084 
Q 1678 3084 1418 2786 
Q 1159 2488 1159 1978 
L 1159 0 
L 581 0 
L 581 3500 
L 1159 3500 
L 1159 2956 
Q 1356 3278 1631 3431 
Q 1906 3584 2284 3584 
Q 2666 3584 2933 3390 
Q 3200 3197 3328 2828 
z
" transform="scale(0.015625)"/>
       <path id="DejaVuSans-6c" d="M 603 4863 
L 1178 4863 
L 1178 0 
L 603 0 
L 603 4863 
z
" transform="scale(0.015625)"/>
       <path id="DejaVuSans-61" d="M 2194 1759 
Q 1497 1759 1228 1600 
Q 959 1441 959 1056 
Q 959 750 1161 570 
Q 1363 391 1709 391 
Q 2188 391 2477 730 
Q 2766 1069 2766 1631 
L 2766 1759 
L 2194 1759 
z
M 3341 1997 
L 3341 0 
L 2766 0 
L 2766 531 
Q 2569 213 2275 61 
Q 1981 -91 1556 -91 
Q 1019 -91 701 211 
Q 384 513 384 1019 
Q 384 1609 779 1909 
Q 1175 2209 1959 2209 
L 2766 2209 
L 2766 2266 
Q 2766 2663 2505 2880 
Q 2244 3097 1772 3097 
Q 1472 3097 1187 3025 
Q 903 2953 641 2809 
L 641 3341 
Q 956 3463 1253 3523 
Q 1550 3584 1831 3584 
Q 2591 3584 2966 3190 
Q 3341 2797 3341 1997 
z
" transform="scale(0.015625)"/>
       <path id="DejaVuSans-74" d="M 1172 4494 
L 1172 3500 
L 2356 3500 
L 2356 3053 
L 1172 3053 
L 1172 1153 
Q 1172 725 1289 603 
Q 1406 481 1766 481 
L 2356 481 
L 2356 0 
L 1766 0 
Q 1100 0 847 248 
Q 594 497 594 1153 
L 594 3053 
L 172 3053 
L 172 3500 
L 594 3500 
L 594 4494 
L 1172 4494 
z
" transform="scale(0.015625)"/>
       <path id="DejaVuSans-69" d="M 603 3500 
L 1178 3500 
L 1178 0 
L 603 0 
L 603 3500 
z
M 603 4863 
L 1178 4863 
L 1178 4134 
L 603 4134 
L 603 4863 
z
" transform="scale(0.015625)"/>
       <path id="DejaVuSans-76" d="M 191 3500 
L 800 3500 
L 1894 563 
L 2988 3500 
L 3597 3500 
L 2284 0 
L 1503 0 
L 191 3500 
z
" transform="scale(0.015625)"/>
       <path id="DejaVuSans-65" d="M 3597 1894 
L 3597 1613 
L 953 1613 
Q 991 1019 1311 708 
Q 1631 397 2203 397 
Q 2534 397 2845 478 
Q 3156 559 3463 722 
L 3463 178 
Q 3153 47 2828 -22 
Q 2503 -91 2169 -91 
Q 1331 -91 842 396 
Q 353 884 353 1716 
Q 353 2575 817 3079 
Q 1281 3584 2069 3584 
Q 2775 3584 3186 3129 
Q 3597 2675 3597 1894 
z
M 3022 2063 
Q 3016 2534 2758 2815 
Q 2500 3097 2075 3097 
Q 1594 3097 1305 2825 
Q 1016 2553 972 2059 
L 3022 2063 
z
" transform="scale(0.015625)"/>
       <path id="DejaVuSans-20" transform="scale(0.015625)"/>
       <path id="DejaVuSans-6f" d="M 1959 3097 
Q 1497 3097 1228 2736 
Q 959 2375 959 1747 
Q 959 1119 1226 758 
Q 1494 397 1959 397 
Q 2419 397 2687 759 
Q 2956 1122 2956 1747 
Q 2956 2369 2687 2733 
Q 2419 3097 1959 3097 
z
M 1959 3584 
Q 2709 3584 3137 3096 
Q 3566 2609 3566 1747 
Q 3566 888 3137 398 
Q 2709 -91 1959 -91 
Q 1206 -91 779 398 
Q 353 888 353 1747 
Q 353 2609 779 3096 
Q 1206 3584 1959 3584 
z
" transform="scale(0.015625)"/>
       <path id="DejaVuSans-28" d="M 1984 4856 
Q 1566 4138 1362 3434 
Q 1159 2731 1159 2009 
Q 1159 1288 1364 580 
Q 1569 -128 1984 -844 
L 1484 -844 
Q 1016 -109 783 600 
Q 550 1309 550 2009 
Q 550 2706 781 3412 
Q 1013 4119 1484 4856 
L 1984 4856 
z
" transform="scale(0.015625)"/>
       <path id="DejaVuSans-63" d="M 3122 3366 
L 3122 2828 
Q 2878 2963 2633 3030 
Q 2388 3097 2138 3097 
Q 1578 3097 1268 2742 
Q 959 2388 959 1747 
Q 959 1106 1268 751 
Q 1578 397 2138 397 
Q 2388 397 2633 464 
Q 2878 531 3122 666 
L 3122 134 
Q 2881 22 2623 -34 
Q 2366 -91 2075 -91 
Q 1284 -91 818 406 
Q 353 903 353 1747 
Q 353 2603 823 3093 
Q 1294 3584 2113 3584 
Q 2378 3584 2631 3529 
Q 2884 3475 3122 3366 
z
" transform="scale(0.015625)"/>
       <path id="DejaVuSans-73" d="M 2834 3397 
L 2834 2853 
Q 2591 2978 2328 3040 
Q 2066 3103 1784 3103 
Q 1356 3103 1142 2972 
Q 928 2841 928 2578 
Q 928 2378 1081 2264 
Q 1234 2150 1697 2047 
L 1894 2003 
Q 2506 1872 2764 1633 
Q 3022 1394 3022 966 
Q 3022 478 2636 193 
Q 2250 -91 1575 -91 
Q 1294 -91 989 -36 
Q 684 19 347 128 
L 347 722 
Q 666 556 975 473 
Q 1284 391 1588 391 
Q 1994 391 2212 530 
Q 2431 669 2431 922 
Q 2431 1156 2273 1281 
Q 2116 1406 1581 1522 
L 1381 1569 
Q 847 1681 609 1914 
Q 372 2147 372 2553 
Q 372 3047 722 3315 
Q 1072 3584 1716 3584 
Q 2034 3584 2315 3537 
Q 2597 3491 2834 3397 
z
" transform="scale(0.015625)"/>
       <path id="DejaVuSans-29" d="M 513 4856 
L 1013 4856 
Q 1481 4119 1714 3412 
Q 1947 2706 1947 2009 
Q 1947 1309 1714 600 
Q 1481 -109 1013 -844 
L 513 -844 
Q 928 -128 1133 580 
Q 1338 1288 1338 2009 
Q 1338 2731 1133 3434 
Q 928 4138 513 4856 
z
" transform="scale(0.015625)"/>
      </defs>
      <use xlink:href="#DejaVuSans-43"/>
      <use xlink:href="#DejaVuSans-75" x="69.824219"/>
      <use xlink:href="#DejaVuSans-6d" x="133.203125"/>
      <use xlink:href="#DejaVuSans-75" x="230.615234"/>
      <use xlink:href="#DejaVuSans-6c" x="293.994141"/>
      <use xlink:href="#DejaVuSans-61" x="321.777344"/>
      <use xlink:href="#DejaVuSans-74" x="383.056641"/>
      <use xlink:href="#DejaVuSans-69" x="422.265625"/>
      <use xlink:href="#DejaVuSans-76" x="450.048828"/>
      <use xlink:href="#DejaVuSans-65" x="509.228516"/>
      <use xlink:href="#DejaVuSans-20" x="570.751953"/>
      <use xlink:href="#DejaVuSans-74" x="602.539062"/>
      <use xlink:href="#DejaVuSans-6f" x="641.748047"/>
      <use xlink:href="#DejaVuSans-74" x="702.929688"/>
      <use xlink:href="#DejaVuSans-61" x="742.138672"/>
      <use xlink:href="#DejaVuSans-6c" x="803.417969"/>
      <use xlink:href="#DejaVuSans-20" x="831.201172"/>
      <use xlink:href="#DejaVuSans-28" x="862.988281"/>
      <use xlink:href="#DejaVuSans-63" x="902.001953"/>
      <use xlink:href="#DejaVuSans-74" x="956.982422"/>
      <use xlink:href="#DejaVuSans-73" x="996.191406"/>
      <use xlink:href="#DejaVuSans-29" x="1048.291016"/>
     </g>
    </g>
    <g id="text_6">
     <!-- 1e6 -->
     <g transform="translate(613.988747 673.987969) scale(0.35 -0.35)">
      <defs>
       <path id="DejaVuSans-36" d="M 2113 2584 
Q 1688 2584 1439 2293 
Q 1191 2003 1191 1497 
Q 1191 994 1439 701 
Q 1688 409 2113 409 
Q 2538 409 2786 701 
Q 3034 994 3034 1497 
Q 3034 2003 2786 2293 
Q 2538 2584 2113 2584 
z
M 3366 4563 
L 3366 3988 
Q 3128 4100 2886 4159 
Q 2644 4219 2406 4219 
Q 1781 4219 1451 3797 
Q 1122 3375 1075 2522 
Q 1259 2794 1537 2939 
Q 1816 3084 2150 3084 
Q 2853 3084 3261 2657 
Q 3669 2231 3669 1497 
Q 3669 778 3244 343 
Q 2819 -91 2113 -91 
Q 1303 -91 875 529 
Q 447 1150 447 2328 
Q 447 3434 972 4092 
Q 1497 4750 2381 4750 
Q 2619 4750 2861 4703 
Q 3103 4656 3366 4563 
z
" transform="scale(0.015625)"/>
      </defs>
      <use xlink:href="#DejaVuSans-31"/>
      <use xlink:href="#DejaVuSans-65" x="63.623047"/>
      <use xlink:href="#DejaVuSans-36" x="125.146484"/>
     </g>
    </g>
   </g>
   <g id="matplotlib.axis_2">
    <g id="ytick_1">
     <g id="line2d_5">
      <defs>
       <path id="md8d10011f6" d="M 0 0 
L -3.5 0 
" style="stroke: #000000; stroke-width: 3"/>
      </defs>
      <g>
       <use xlink:href="#md8d10011f6" x="138.26" y="489.93033" style="stroke: #000000; stroke-width: 3"/>
      </g>
     </g>
     <g id="text_7">
      <!-- 0.4 -->
      <g transform="translate(75.599063 503.227595) scale(0.35 -0.35)">
       <defs>
        <path id="DejaVuSans-34" d="M 2419 4116 
L 825 1625 
L 2419 1625 
L 2419 4116 
z
M 2253 4666 
L 3047 4666 
L 3047 1625 
L 3713 1625 
L 3713 1100 
L 3047 1100 
L 3047 0 
L 2419 0 
L 2419 1100 
L 313 1100 
L 313 1709 
L 2253 4666 
z
" transform="scale(0.015625)"/>
       </defs>
       <use xlink:href="#DejaVuSans-30"/>
       <use xlink:href="#DejaVuSans-2e" x="63.623047"/>
       <use xlink:href="#DejaVuSans-34" x="95.410156"/>
      </g>
     </g>
    </g>
    <g id="ytick_2">
     <g id="line2d_6">
      <g>
       <use xlink:href="#md8d10011f6" x="138.26" y="361.819062" style="stroke: #000000; stroke-width: 3"/>
      </g>
     </g>
     <g id="text_8">
      <!-- 0.6 -->
      <g transform="translate(75.599063 375.116327) scale(0.35 -0.35)">
       <use xlink:href="#DejaVuSans-30"/>
       <use xlink:href="#DejaVuSans-2e" x="63.623047"/>
       <use xlink:href="#DejaVuSans-36" x="95.410156"/>
      </g>
     </g>
    </g>
    <g id="ytick_3">
     <g id="line2d_7">
      <g>
       <use xlink:href="#md8d10011f6" x="138.26" y="233.707794" style="stroke: #000000; stroke-width: 3"/>
      </g>
     </g>
     <g id="text_9">
      <!-- 0.8 -->
      <g transform="translate(75.599063 247.005059) scale(0.35 -0.35)">
       <defs>
        <path id="DejaVuSans-38" d="M 2034 2216 
Q 1584 2216 1326 1975 
Q 1069 1734 1069 1313 
Q 1069 891 1326 650 
Q 1584 409 2034 409 
Q 2484 409 2743 651 
Q 3003 894 3003 1313 
Q 3003 1734 2745 1975 
Q 2488 2216 2034 2216 
z
M 1403 2484 
Q 997 2584 770 2862 
Q 544 3141 544 3541 
Q 544 4100 942 4425 
Q 1341 4750 2034 4750 
Q 2731 4750 3128 4425 
Q 3525 4100 3525 3541 
Q 3525 3141 3298 2862 
Q 3072 2584 2669 2484 
Q 3125 2378 3379 2068 
Q 3634 1759 3634 1313 
Q 3634 634 3220 271 
Q 2806 -91 2034 -91 
Q 1263 -91 848 271 
Q 434 634 434 1313 
Q 434 1759 690 2068 
Q 947 2378 1403 2484 
z
M 1172 3481 
Q 1172 3119 1398 2916 
Q 1625 2713 2034 2713 
Q 2441 2713 2670 2916 
Q 2900 3119 2900 3481 
Q 2900 3844 2670 4047 
Q 2441 4250 2034 4250 
Q 1625 4250 1398 4047 
Q 1172 3844 1172 3481 
z
" transform="scale(0.015625)"/>
       </defs>
       <use xlink:href="#DejaVuSans-30"/>
       <use xlink:href="#DejaVuSans-2e" x="63.623047"/>
       <use xlink:href="#DejaVuSans-38" x="95.410156"/>
      </g>
     </g>
    </g>
    <g id="ytick_4">
     <g id="line2d_8">
      <g>
       <use xlink:href="#md8d10011f6" x="138.26" y="105.596526" style="stroke: #000000; stroke-width: 3"/>
      </g>
     </g>
     <g id="text_10">
      <!-- 1.0 -->
      <g transform="translate(75.599063 118.893791) scale(0.35 -0.35)">
       <use xlink:href="#DejaVuSans-31"/>
       <use xlink:href="#DejaVuSans-2e" x="63.623047"/>
       <use xlink:href="#DejaVuSans-30" x="95.410156"/>
      </g>
     </g>
    </g>
    <g id="text_11">
     <!-- Cumulative solute (cts) -->
     <g transform="translate(64.320156 539.144453) rotate(-90) scale(0.35 -0.35)">
      <use xlink:href="#DejaVuSans-43"/>
      <use xlink:href="#DejaVuSans-75" x="69.824219"/>
      <use xlink:href="#DejaVuSans-6d" x="133.203125"/>
      <use xlink:href="#DejaVuSans-75" x="230.615234"/>
      <use xlink:href="#DejaVuSans-6c" x="293.994141"/>
      <use xlink:href="#DejaVuSans-61" x="321.777344"/>
      <use xlink:href="#DejaVuSans-74" x="383.056641"/>
      <use xlink:href="#DejaVuSans-69" x="422.265625"/>
      <use xlink:href="#DejaVuSans-76" x="450.048828"/>
      <use xlink:href="#DejaVuSans-65" x="509.228516"/>
      <use xlink:href="#DejaVuSans-20" x="570.751953"/>
      <use xlink:href="#DejaVuSans-73" x="602.539062"/>
      <use xlink:href="#DejaVuSans-6f" x="654.638672"/>
      <use xlink:href="#DejaVuSans-6c" x="715.820312"/>
      <use xlink:href="#DejaVuSans-75" x="743.603516"/>
      <use xlink:href="#DejaVuSans-74" x="806.982422"/>
      <use xlink:href="#DejaVuSans-65" x="846.191406"/>
      <use xlink:href="#DejaVuSans-20" x="907.714844"/>
      <use xlink:href="#DejaVuSans-28" x="939.501953"/>
      <use xlink:href="#DejaVuSans-63" x="978.515625"/>
      <use xlink:href="#DejaVuSans-74" x="1033.496094"/>
      <use xlink:href="#DejaVuSans-73" x="1072.705078"/>
      <use xlink:href="#DejaVuSans-29" x="1124.804688"/>
     </g>
    </g>
    <g id="text_12">
     <!-- 1e4 -->
     <g transform="translate(138.26 64.44) scale(0.35 -0.35)">
      <use xlink:href="#DejaVuSans-31"/>
      <use xlink:href="#DejaVuSans-65" x="63.623047"/>
      <use xlink:href="#DejaVuSans-34" x="125.146484"/>
     </g>
    </g>
   </g>
   <g id="line2d_9">
    <path d="M -1 642.141524 
L -0.440033 641.943611 
L 1.577637 641.495222 
L 3.58089 640.726554 
L 5.52771 640.150054 
L 7.420309 639.837299 
L 9.325703 639.679847 
L 11.306323 638.783068 
L 15.270534 637.253855 
L 19.218063 636.338635 
L 23.288223 635.377801 
L 31.216457 632.046908 
L 33.214597 631.342296 
L 35.216167 631.022018 
L 37.216188 630.346859 
L 39.240579 629.45008 
L 41.184776 628.913481 
L 45.150537 628.241545 
L 47.104774 627.92078 
L 49.077595 627.216168 
L 53.008071 625.550721 
L 54.967882 624.97422 
L 56.912615 624.852522 
L 58.8188 624.26423 
L 60.80498 623.495562 
L 62.83304 622.855006 
L 64.808142 622.534728 
L 68.742288 621.243593 
L 70.72724 620.569818 
L 72.706982 620.328142 
L 74.688096 619.751642 
L 76.691449 619.303252 
L 86.613118 617.611784 
L 88.617086 617.035283 
L 90.646047 616.266616 
L 92.628646 615.369837 
L 94.665483 614.601169 
L 96.664637 614.019983 
L 100.62687 612.546703 
L 102.614175 612.290481 
L 104.528519 612.290481 
L 108.472661 611.82598 
L 114.468587 610.113999 
L 116.411732 609.793721 
L 118.38231 609.281276 
L 120.331939 608.448552 
L 122.339335 607.872052 
L 128.316188 606.722547 
L 132.32646 605.633601 
L 136.295075 603.968155 
L 144.260279 602.047557 
L 146.237576 601.214834 
L 148.219504 600.754191 
L 150.172301 600.483899 
L 154.166005 599.587121 
L 156.118631 598.754397 
L 158.147369 598.538907 
L 162.112138 597.520404 
L 164.062995 597.001126 
L 166.058264 596.097587 
L 168.016315 595.713253 
L 169.991417 595.136752 
L 173.888858 593.727528 
L 175.875676 593.287264 
L 177.83412 592.454541 
L 179.850373 591.797655 
L 181.81515 591.355704 
L 183.758154 591.202947 
L 185.663233 590.498335 
L 189.588323 589.261736 
L 191.60069 588.17279 
L 193.523255 587.66759 
L 195.506832 587.283256 
L 199.503527 585.553771 
L 201.466784 585.047738 
L 203.450003 584.086904 
L 209.412967 582.555969 
L 211.443995 582.23569 
L 215.461891 580.890522 
L 217.51731 580.442133 
L 219.557114 580.117601 
L 223.535183 578.836489 
L 227.440064 576.859949 
L 229.428659 576.091281 
L 231.38543 575.771003 
L 233.349129 574.810168 
L 237.305067 574.118355 
L 239.335303 573.483561 
L 241.27796 572.650838 
L 243.276119 571.592487 
L 245.224911 571.260766 
L 247.228568 570.533185 
L 249.180562 570.044908 
L 251.133631 569.241662 
L 257.056746 567.663358 
L 264.987328 564.670178 
L 266.957995 563.453121 
L 268.955009 562.87662 
L 270.921339 562.43378 
L 272.897549 561.729168 
L 280.890777 558.276583 
L 282.906725 557.44386 
L 286.873946 556.473219 
L 288.868553 555.879214 
L 290.808893 554.678503 
L 292.771474 553.717333 
L 294.775249 553.012721 
L 296.748 552.115942 
L 307.006869 545.879366 
L 309.028908 544.662309 
L 311.051421 543.060978 
L 315.123203 540.897131 
L 325.189802 534.648369 
L 327.213625 532.954082 
L 329.174119 532.157123 
L 331.176639 530.619788 
L 333.132424 529.27462 
L 335.116589 527.422726 
L 339.026131 526.670316 
L 343.001702 523.083201 
L 344.981667 521.060452 
L 346.925712 519.236414 
L 348.871316 517.82719 
L 350.849192 516.097688 
L 356.570449 510.28648 
L 358.433 508.115037 
L 360.284372 506.777994 
L 362.160596 504.087657 
L 363.932862 502.025941 
L 365.73379 500.168328 
L 367.50173 497.990436 
L 369.20468 494.915766 
L 370.928948 493.122208 
L 372.615034 490.111593 
L 377.560308 482.512084 
L 380.70897 478.24217 
L 382.286303 475.393064 
L 383.830501 472.070296 
L 385.376703 469.123736 
L 386.889271 466.975311 
L 388.299554 465.278424 
L 389.777316 462.075642 
L 391.179096 459.705584 
L 395.49009 450.153244 
L 396.889764 445.923227 
L 401.138275 438.77526 
L 402.590726 435.77104 
L 406.81534 427.903478 
L 412.517664 419.33039 
L 413.992113 416.704109 
L 417.004672 412.405914 
L 420.071105 408.196207 
L 423.233871 404.487382 
L 424.860449 402.089134 
L 426.504294 401.06132 
L 429.843792 397.666372 
L 431.557359 396.21932 
L 433.280871 394.512872 
L 434.977208 392.207919 
L 438.4707 389.005137 
L 440.176559 388.338659 
L 441.924331 387.129909 
L 443.654712 386.470882 
L 447.186867 383.146361 
L 448.955932 382.139745 
L 450.714508 381.546685 
L 452.549401 380.719514 
L 454.325831 380.494699 
L 458.043295 378.005013 
L 459.876418 377.60295 
L 463.524942 374.662846 
L 467.154586 372.805233 
L 474.564858 368.043472 
L 476.424702 366.765858 
L 480.122401 365.164467 
L 483.890555 363.075662 
L 491.3894 359.424491 
L 493.247121 358.143379 
L 495.050988 358.110607 
L 496.881431 357.405995 
L 498.67328 356.573272 
L 500.432004 355.932794 
L 502.27063 354.907904 
L 504.118022 353.434624 
L 505.937482 352.537845 
L 507.816538 351.833233 
L 509.659786 351.355864 
L 513.293674 349.256022 
L 515.106006 348.61889 
L 518.779978 346.696383 
L 522.431532 345.354839 
L 526.031623 344.073727 
L 529.624774 343.014242 
L 531.383597 342.873772 
L 533.114506 342.233216 
L 534.958658 341.272381 
L 536.791262 340.759936 
L 538.626413 339.735046 
L 540.465475 339.542879 
L 542.210811 339.030495 
L 543.973546 338.809745 
L 545.790542 337.680813 
L 551.13268 336.195184 
L 552.934524 335.771882 
L 556.409751 334.175922 
L 558.171994 333.610542 
L 559.916153 333.35432 
L 561.738431 332.073207 
L 565.221998 331.466898 
L 567.03324 330.719583 
L 568.813764 329.694693 
L 570.507786 329.296272 
L 572.260938 328.14327 
L 575.723039 327.443824 
L 577.508085 326.803268 
L 579.262605 326.354878 
L 586.326208 323.923519 
L 588.040263 323.923519 
L 589.793534 323.24972 
L 591.500387 322.865386 
L 593.188682 322.673219 
L 594.957241 322.096719 
L 598.47085 320.754774 
L 600.23346 320.242329 
L 603.744402 319.089327 
L 607.18285 317.509385 
L 608.856944 316.932885 
L 610.556863 316.62454 
L 617.481592 314.231581 
L 620.87376 312.729864 
L 624.248181 311.640918 
L 625.977301 311.384696 
L 627.689238 311.000362 
L 629.385065 310.103583 
L 632.797432 308.758415 
L 636.185328 307.669469 
L 639.60935 306.367367 
L 641.323412 305.854922 
L 644.733995 304.639059 
L 646.458551 304.254726 
L 648.199609 303.614169 
L 649.843797 303.492452 
L 651.540086 302.851895 
L 653.201719 302.692796 
L 654.883351 302.121848 
L 656.560913 301.35318 
L 663.297191 299.513286 
L 666.699357 298.467859 
L 668.322679 297.961865 
L 669.985199 297.321308 
L 671.655053 297.00103 
L 674.981373 295.557845 
L 680.062185 293.677622 
L 681.772834 292.874085 
L 683.410931 292.83079 
L 685.031131 292.510512 
L 686.710229 291.613733 
L 688.365603 291.165344 
L 690.075186 290.524787 
L 691.726374 290.146156 
L 693.439536 289.569655 
L 695.097763 288.608821 
L 696.70348 288.397804 
L 698.356994 288.01347 
L 700.026122 287.372914 
L 701.661512 286.54019 
L 704.864754 285.552054 
L 706.570163 284.719331 
L 708.227453 284.34141 
L 709.893987 283.572743 
L 713.140943 282.880916 
L 714.787294 282.310848 
L 716.39252 282.235727 
L 721 280.29946 
L 721 280.29946 
" clip-path="url(#p14280dd894)" style="fill: none; stroke: #4169e1; stroke-width: 4; stroke-linecap: square"/>
   </g>
   <g id="line2d_10">
    <path d="M -1 651.4081 
L 396.889764 520.362639 
L 396.889764 520.362639 
" clip-path="url(#p14280dd894)" style="fill: none; stroke-dasharray: 7.4,3.2; stroke-dashoffset: 0; stroke: #000000; stroke-width: 2"/>
   </g>
   <g id="line2d_11">
    <path d="M 398.255485 389.383706 
L 721 278.712847 
L 721 278.712847 
" clip-path="url(#p14280dd894)" style="fill: none; stroke-dasharray: 7.4,3.2; stroke-dashoffset: 0; stroke: #000000; stroke-width: 2"/>
   </g>
   <g id="LineCollection_1">
    <path d="M 397.572624 520.362639 
L 397.572624 389.383706 
" clip-path="url(#p14280dd894)" style="fill: none; stroke: #000000; stroke-width: 2"/>
   </g>
   <g id="LineCollection_2">
    <path d="M 397.572624 523.561844 
L 397.572624 517.163434 
" clip-path="url(#p14280dd894)" style="fill: none; stroke: #000000; stroke-width: 1.5"/>
   </g>
   <g id="line2d_12">
    <defs>
     <path id="m991a57c3a3" d="M 25 0 
L -25 -0 
" style="stroke: #000000"/>
    </defs>
    <g clip-path="url(#p14280dd894)">
     <use xlink:href="#m991a57c3a3" x="397.572624" y="523.561844" style="stroke: #000000"/>
    </g>
   </g>
   <g id="line2d_13">
    <g clip-path="url(#p14280dd894)">
     <use xlink:href="#m991a57c3a3" x="397.572624" y="517.163434" style="stroke: #000000"/>
    </g>
   </g>
   <g id="LineCollection_3">
    <path d="M 397.572624 392.42974 
L 397.572624 386.337672 
" clip-path="url(#p14280dd894)" style="fill: none; stroke: #000000; stroke-width: 1.5"/>
   </g>
   <g id="line2d_14">
    <g clip-path="url(#p14280dd894)">
     <use xlink:href="#m991a57c3a3" x="397.572624" y="392.42974" style="stroke: #000000"/>
    </g>
   </g>
   <g id="line2d_15">
    <g clip-path="url(#p14280dd894)">
     <use xlink:href="#m991a57c3a3" x="397.572624" y="386.337672" style="stroke: #000000"/>
    </g>
   </g>
   <g id="line2d_16">
    <path d="M 397.572624 520.362639 
" clip-path="url(#p14280dd894)" style="fill: none; stroke: #000000; stroke-width: 1.5; stroke-linecap: square"/>
   </g>
   <g id="line2d_17">
    <path d="M 397.572624 389.383706 
" clip-path="url(#p14280dd894)" style="fill: none; stroke: #000000; stroke-width: 1.5; stroke-linecap: square"/>
   </g>
   <g id="patch_3">
    <path d="M 138.26 603.52 
L 138.26 67.44 
" style="fill: none; stroke: #000000; stroke-width: 3; stroke-linejoin: miter; stroke-linecap: square"/>
   </g>
   <g id="patch_4">
    <path d="M 680.062185 603.52 
L 680.062185 67.44 
" style="fill: none; stroke: #000000; stroke-width: 3; stroke-linejoin: miter; stroke-linecap: square"/>
   </g>
   <g id="patch_5">
    <path d="M 138.26 603.52 
L 680.062185 603.52 
" style="fill: none; stroke: #000000; stroke-width: 3; stroke-linejoin: miter; stroke-linecap: square"/>
   </g>
   <g id="patch_6">
    <path d="M 138.26 67.44 
L 680.062185 67.44 
" style="fill: none; stroke: #000000; stroke-width: 3; stroke-linejoin: miter; stroke-linecap: square"/>
   </g>
   <g id="legend_1">
    <g id="line2d_18">
     <path d="M 444.866872 132.932188 
L 494.866872 132.932188 
L 544.866872 132.932188 
" style="fill: none; stroke: #4169e1; stroke-width: 4; stroke-linecap: square"/>
    </g>
    <g id="text_13">
     <!-- B  -->
     <g transform="translate(584.866872 150.432188) scale(0.5 -0.5)">
      <defs>
       <path id="DejaVuSans-42" d="M 1259 2228 
L 1259 519 
L 2272 519 
Q 2781 519 3026 730 
Q 3272 941 3272 1375 
Q 3272 1813 3026 2020 
Q 2781 2228 2272 2228 
L 1259 2228 
z
M 1259 4147 
L 1259 2741 
L 2194 2741 
Q 2656 2741 2882 2914 
Q 3109 3088 3109 3444 
Q 3109 3797 2882 3972 
Q 2656 4147 2194 4147 
L 1259 4147 
z
M 628 4666 
L 2241 4666 
Q 2963 4666 3353 4366 
Q 3744 4066 3744 3513 
Q 3744 3084 3544 2831 
Q 3344 2578 2956 2516 
Q 3422 2416 3680 2098 
Q 3938 1781 3938 1306 
Q 3938 681 3513 340 
Q 3088 0 2303 0 
L 628 0 
L 628 4666 
z
" transform="scale(0.015625)"/>
      </defs>
      <use xlink:href="#DejaVuSans-42"/>
      <use xlink:href="#DejaVuSans-20" x="68.603516"/>
     </g>
    </g>
   </g>
  </g>
 </g>
 <defs>
  <clipPath id="p14280dd894">
   <rect x="138.26" y="67.44" width="541.802185" height="536.08"/>
  </clipPath>
 </defs>
</svg>
