<?xml version="1.0" encoding="utf-8" standalone="no"?>
<!DOCTYPE svg PUBLIC "-//W3C//DTD SVG 1.1//EN"
  "http://www.w3.org/Graphics/SVG/1.1/DTD/svg11.dtd">
<svg xmlns:xlink="http://www.w3.org/1999/xlink" width="720pt" height="720pt" viewBox="0 0 720 720" xmlns="http://www.w3.org/2000/svg" version="1.1">
 <metadata>
  <rdf:RDF xmlns:dc="http://purl.org/dc/elements/1.1/" xmlns:cc="http://creativecommons.org/ns#" xmlns:rdf="http://www.w3.org/1999/02/22-rdf-syntax-ns#">
   <cc:Work>
    <dc:type rdf:resource="http://purl.org/dc/dcmitype/StillImage"/>
    <dc:date>2023-11-23T21:09:14.430202</dc:date>
    <dc:format>image/svg+xml</dc:format>
    <dc:creator>
     <cc:Agent>
      <dc:title>Matplotlib v3.7.2, https://matplotlib.org/</dc:title>
     </cc:Agent>
    </dc:creator>
   </cc:Work>
  </rdf:RDF>
 </metadata>
 <defs>
  <style type="text/css">*{stroke-linejoin: round; stroke-linecap: butt}</style>
 </defs>
 <g id="figure_1">
  <g id="patch_1">
   <path d="M 0 720 
L 720 720 
L 720 0 
L 0 0 
z
" style="fill: #ffffff"/>
  </g>
  <g id="axes_1">
   <g id="patch_2">
    <path d="M 138.26 603.52 
L 680.062185 603.52 
L 680.062185 67.44 
L 138.26 67.44 
z
" style="fill: #ffffff"/>
   </g>
   <g id="PolyCollection_1">
    <path d="M -352.050705 854.552613 
L -352.050705 859.1537 
L -350.131366 858.054415 
L -348.244975 857.167606 
L -346.374401 856.234005 
L -344.481229 855.119729 
L -342.533236 854.112794 
L -340.641766 853.132696 
L -338.735658 852.08612 
L -336.773483 851.03811 
L -334.914248 850.105284 
L -333.024534 849.05394 
L -331.079544 848.151052 
L -329.185464 847.180308 
L -327.260248 846.077208 
L -325.300119 845.145998 
L -323.340402 844.144023 
L -321.537376 843.257874 
L -319.606311 842.298618 
L -317.666714 841.155158 
L -315.760484 840.22942 
L -313.838485 839.252423 
L -311.930751 838.363292 
L -309.98091 837.382961 
L -308.072342 836.227481 
L -306.21338 835.228151 
L -304.290844 834.245338 
L -302.354949 833.186925 
L -300.449443 832.348626 
L -298.45649 831.420115 
L -296.501345 830.398536 
L -294.54637 829.259497 
L -292.586049 828.235873 
L -290.580815 827.137201 
L -288.632842 826.235574 
L -286.656913 825.145281 
L -284.684403 824.181066 
L -282.752145 823.042052 
L -280.833838 822.08206 
L -278.897628 820.92936 
L -276.920605 820.019524 
L -274.944762 818.894817 
L -273.023349 817.970923 
L -271.097358 817.077878 
L -269.088453 815.953707 
L -267.096413 814.937388 
L -265.126492 814.077436 
L -263.171503 813.023435 
L -261.194885 812.129116 
L -259.269278 811.126372 
L -257.346733 810.008038 
L -255.418287 809.066488 
L -253.484918 808.018413 
L -251.538703 807.102659 
L -249.576529 806.083836 
L -247.560533 805.065957 
L -245.591862 803.990932 
L -243.651221 802.912544 
L -241.713267 801.95798 
L -239.730481 800.983479 
L -237.79237 800.115568 
L -235.856122 799.220039 
L -233.912699 798.20611 
L -231.961761 797.20383 
L -230.010489 796.22777 
L -228.05995 795.291417 
L -226.047451 794.129771 
L -224.145724 793.131243 
L -222.177231 792.127745 
L -220.183277 791.200292 
L -218.224637 790.215215 
L -216.282627 789.088752 
L -214.260855 788.050573 
L -212.341791 787.028646 
L -210.371122 786.019875 
L -208.37093 785.222749 
L -206.477125 784.064634 
L -204.509282 782.969006 
L -202.540273 781.901334 
L -200.593718 780.84284 
L -198.648765 779.962016 
L -196.704848 778.816629 
L -194.791068 777.913509 
L -192.872116 776.950215 
L -190.911615 775.950293 
L -188.905497 774.871485 
L -186.91449 773.707776 
L -184.991627 772.672923 
L -183.029876 771.667553 
L -181.04992 770.596651 
L -179.047077 769.647114 
L -177.155528 768.755229 
L -175.218504 767.74165 
L -173.264485 766.771477 
L -171.259147 765.767823 
L -169.286379 764.756845 
L -167.357293 763.94694 
L -165.417668 762.831384 
L -163.466491 761.861175 
L -161.499703 760.754768 
L -159.533942 759.825606 
L -157.599383 758.79257 
L -155.634713 757.797512 
L -153.684978 756.773309 
L -151.762374 755.831325 
L -149.802888 754.773814 
L -147.870723 753.770891 
L -145.913392 752.956794 
L -143.965719 751.78129 
L -141.980448 750.799835 
L -140.03929 749.825127 
L -138.052068 748.743055 
L -136.069223 747.849488 
L -134.133369 746.846866 
L -132.184485 745.755019 
L -130.238367 744.657265 
L -128.25176 743.810042 
L -126.310842 742.780802 
L -124.278799 741.724731 
L -122.293554 740.606456 
L -120.34228 739.66121 
L -118.392699 738.403075 
L -116.467013 737.518352 
L -114.515162 736.54357 
L -112.552239 735.561 
L -110.620417 734.5984 
L -108.673568 733.608346 
L -106.744524 732.737049 
L -104.777109 731.801512 
L -102.840832 730.692809 
L -100.866191 729.758772 
L -98.870603 728.613496 
L -96.941267 727.721314 
L -95.026853 726.844786 
L -93.097119 725.90219 
L -91.12343 724.64446 
L -89.185476 723.642813 
L -87.204856 722.639751 
L -85.233259 721.644925 
L -83.254363 720.710243 
L -81.318524 719.58892 
L -79.369679 718.525098 
L -77.395277 717.570724 
L -75.359612 716.515173 
L -73.392274 715.539202 
L -71.427934 714.519326 
L -69.477351 713.58802 
L -67.505881 712.512378 
L -65.547255 711.599821 
L -63.611152 710.587108 
L -61.68675 709.423812 
L -59.69426 708.465099 
L -57.763852 707.649414 
L -55.744018 706.587244 
L -53.809249 705.560703 
L -51.847105 704.449151 
L -49.862411 703.544117 
L -47.879534 702.34993 
L -45.872834 701.345993 
L -43.888254 700.325779 
L -41.881125 699.295063 
L -39.922208 698.326779 
L -37.934525 697.269625 
L -35.993133 696.299722 
L -34.033006 695.303588 
L -32.083987 694.357831 
L -30.12148 693.351255 
L -28.118646 692.25679 
L -26.117101 691.24163 
L -24.140641 690.309564 
L -22.151196 689.157462 
L -20.191172 688.185095 
L -18.181418 687.128378 
L -16.207469 686.12885 
L -14.207366 685.078917 
L -12.220053 684.083253 
L -10.233298 683.121586 
L -8.315917 682.010153 
L -6.374508 680.935563 
L -4.400245 680.07033 
L -2.433632 678.93461 
L -0.440033 677.818577 
L 1.577637 676.719869 
L 3.58089 675.719074 
L 5.52771 674.738125 
L 7.420309 673.689825 
L 9.325703 672.758278 
L 11.306323 671.713565 
L 13.289353 670.550206 
L 15.270534 669.456875 
L 17.286344 668.395706 
L 19.218063 667.404397 
L 21.246959 666.373662 
L 23.288223 665.363556 
L 25.240983 664.455155 
L 27.259856 663.385205 
L 29.228372 662.317298 
L 31.216457 661.185658 
L 33.214597 660.149192 
L 35.216167 659.288867 
L 37.216188 658.172045 
L 39.240579 657.121038 
L 41.184776 656.070797 
L 43.166798 655.058995 
L 45.150537 654.140846 
L 47.104774 653.190349 
L 49.077595 652.248198 
L 51.063563 651.059154 
L 53.008071 650.009551 
L 54.967882 648.94501 
L 56.912615 648.06647 
L 58.8188 647.055729 
L 60.80498 646.095408 
L 62.83304 644.96533 
L 64.808142 643.952753 
L 66.778181 642.878424 
L 68.742288 641.929919 
L 70.72724 640.954548 
L 72.706982 640.108434 
L 74.688096 638.900018 
L 76.691449 637.999755 
L 78.687181 636.886022 
L 80.633917 635.890052 
L 82.634987 634.746223 
L 84.594631 633.788688 
L 86.613118 632.77657 
L 88.617086 631.842457 
L 90.646047 630.732132 
L 92.628646 629.741849 
L 94.665483 628.642696 
L 96.664637 627.571739 
L 98.624122 626.493097 
L 100.62687 625.444593 
L 102.614175 624.625143 
L 104.528519 623.470615 
L 106.475923 622.483892 
L 108.472661 621.405523 
L 110.478889 620.394338 
L 112.455811 619.337982 
L 114.468587 618.065186 
L 116.411732 616.963079 
L 118.38231 615.95505 
L 120.331939 615.041151 
L 122.339335 613.833882 
L 124.38667 612.895576 
L 126.388372 611.949432 
L 128.316188 610.86023 
L 130.305113 609.853602 
L 132.32646 608.782717 
L 134.317925 607.710375 
L 136.295075 606.855799 
L 138.26 605.756704 
L 140.187728 604.791451 
L 142.221455 603.773374 
L 144.260279 602.802084 
L 146.237576 601.754343 
L 148.219504 600.725009 
L 150.172301 599.724197 
L 152.167166 598.754041 
L 154.166005 597.554371 
L 156.118631 596.634084 
L 158.147369 595.56508 
L 160.148065 594.634508 
L 162.112138 593.713985 
L 164.062995 592.683159 
L 166.058264 591.772731 
L 168.016315 590.706684 
L 169.991417 589.607584 
L 171.943515 588.553713 
L 173.888858 587.602692 
L 175.875676 586.482471 
L 177.83412 585.479114 
L 179.850373 584.46033 
L 181.81515 583.435042 
L 183.758154 582.390182 
L 185.663233 581.378305 
L 187.61682 580.305231 
L 189.588323 579.482424 
L 191.60069 578.235621 
L 193.523255 577.26327 
L 195.506832 576.238042 
L 197.486189 575.274795 
L 199.503527 574.168602 
L 201.466784 573.216614 
L 203.450003 572.123161 
L 205.431647 571.071779 
L 207.427334 570.037355 
L 209.412967 569.123262 
L 211.443995 568.010232 
L 213.445309 567.000471 
L 215.461891 565.964993 
L 217.51731 564.924405 
L 219.557114 563.979736 
L 221.532957 562.962705 
L 223.535183 561.860499 
L 225.451001 560.810723 
L 227.440064 559.882327 
L 229.428659 558.82634 
L 231.38543 557.940195 
L 233.349129 556.861975 
L 235.362011 555.859243 
L 237.305067 555.050164 
L 239.335303 553.828051 
L 241.27796 552.991523 
L 243.276119 551.826044 
L 245.224911 550.882613 
L 247.228568 549.764367 
L 249.180562 548.824182 
L 251.133631 547.79648 
L 253.125828 546.861168 
L 255.10029 545.634299 
L 257.056746 544.65735 
L 259.009738 543.485209 
L 261.000286 542.527989 
L 262.970461 541.49863 
L 264.987328 540.606969 
L 266.957995 539.447687 
L 268.955009 538.500648 
L 270.921339 537.377812 
L 272.897549 536.308987 
L 274.90635 535.367255 
L 276.890147 534.291885 
L 278.891432 533.435538 
L 280.890777 532.197496 
L 282.906725 531.263595 
L 284.923779 530.050308 
L 286.873946 529.042089 
L 288.868553 528.060364 
L 290.808893 527.179671 
L 292.771474 526.008257 
L 294.775249 525.147163 
L 296.748 524.079398 
L 298.791729 523.120038 
L 300.82106 521.936464 
L 302.932121 520.922684 
L 304.97739 519.878042 
L 307.006869 518.847239 
L 309.028908 517.785861 
L 311.051421 516.632398 
L 313.059411 515.573934 
L 315.123203 514.564592 
L 317.175038 513.439017 
L 319.153579 512.537129 
L 321.178221 511.364961 
L 323.211062 510.262057 
L 325.189802 509.173736 
L 327.213625 508.207422 
L 329.174119 507.09077 
L 331.176639 506.064925 
L 333.132424 505.03248 
L 335.116589 503.958561 
L 337.081583 503.172129 
L 339.026131 502.047203 
L 341.029653 501.122749 
L 343.001702 499.946085 
L 344.981667 499.084814 
L 346.925712 498.112268 
L 348.871316 497.108088 
L 350.849192 496.262059 
L 352.780599 495.383189 
L 354.698994 494.378287 
L 356.570449 493.321691 
L 358.433 492.458149 
L 360.284372 491.591115 
L 362.160596 490.78122 
L 363.932862 489.938668 
L 365.73379 489.187376 
L 367.50173 488.3528 
L 369.20468 487.502839 
L 370.928948 486.688775 
L 372.615034 485.896256 
L 374.280063 485.281818 
L 375.881524 484.677072 
L 377.560308 483.771695 
L 379.132401 483.077268 
L 380.70897 482.394629 
L 382.286303 481.713001 
L 383.830501 481.011375 
L 385.376703 480.395152 
L 386.889271 479.901232 
L 388.299554 479.399486 
L 389.777316 478.68424 
L 391.179096 478.273791 
L 392.644761 477.672841 
L 394.068103 477.170314 
L 395.49009 476.592868 
L 396.889764 476.244186 
L 398.255485 475.533982 
L 399.676135 475.059964 
L 401.138275 474.511938 
L 402.590726 473.953387 
L 404.033511 473.473211 
L 405.433338 472.78742 
L 406.81534 472.255875 
L 408.200561 471.795759 
L 409.613479 471.31438 
L 411.043186 470.785555 
L 412.517664 470.179814 
L 413.992113 469.623602 
L 415.474134 468.993797 
L 417.004672 468.491329 
L 418.51349 467.880126 
L 420.071105 467.289724 
L 421.652963 466.666625 
L 423.233871 465.999274 
L 424.860449 465.233633 
L 426.504294 464.494621 
L 428.181837 463.717818 
L 429.843792 462.88892 
L 431.557359 462.081538 
L 433.280871 461.22421 
L 434.977208 460.50852 
L 436.678937 459.63532 
L 438.4707 458.830278 
L 440.176559 457.886507 
L 441.924331 457.011302 
L 443.654712 456.182486 
L 445.416399 455.438285 
L 447.186867 454.545231 
L 448.955932 453.717946 
L 450.714508 452.842096 
L 452.549401 451.842297 
L 454.325831 450.896049 
L 456.161417 449.926024 
L 458.043295 448.967396 
L 459.876418 448.204031 
L 461.700888 447.046468 
L 463.524942 446.04977 
L 465.364836 445.244758 
L 467.154586 444.209439 
L 468.985786 443.208569 
L 470.852481 442.348327 
L 472.742682 441.335953 
L 474.564858 440.390774 
L 476.424702 439.485446 
L 478.282525 438.550472 
L 480.122401 437.637858 
L 481.987882 436.518803 
L 483.890555 435.608846 
L 485.790546 434.663353 
L 487.695287 433.691495 
L 489.556498 432.80503 
L 491.3894 431.755992 
L 493.247121 430.863695 
L 495.050988 429.867535 
L 496.881431 428.749711 
L 498.67328 427.7094 
L 500.432004 426.857305 
L 502.27063 425.866651 
L 504.118022 424.889867 
L 505.937482 423.998566 
L 507.816538 422.974936 
L 509.659786 421.979954 
L 511.477793 421.049003 
L 513.293674 420.102519 
L 515.106006 419.17096 
L 516.949149 418.169403 
L 518.779978 417.283909 
L 520.662197 416.245065 
L 522.431532 415.331908 
L 524.25029 414.481529 
L 526.031623 413.450726 
L 527.803028 412.466566 
L 529.624774 411.574325 
L 531.383597 410.57804 
L 533.114506 409.64614 
L 534.958658 408.720512 
L 536.791262 407.751355 
L 538.626413 406.861866 
L 540.465475 405.863169 
L 542.210811 404.995202 
L 543.973546 404.112972 
L 545.790542 403.025099 
L 547.580064 402.049502 
L 549.348226 401.067672 
L 551.13268 400.099559 
L 552.934524 399.244455 
L 554.643447 398.333169 
L 556.409751 397.389008 
L 558.171994 396.672186 
L 559.916153 395.655878 
L 561.738431 394.803286 
L 563.491001 393.782536 
L 565.221998 393.038253 
L 567.03324 391.989617 
L 568.813764 391.100098 
L 570.507786 390.352363 
L 572.260938 389.217291 
L 574.013829 388.275811 
L 575.723039 387.481879 
L 577.508085 386.490906 
L 579.262605 385.535754 
L 580.998115 384.58588 
L 582.782829 383.705214 
L 584.575728 382.979007 
L 586.326208 381.743265 
L 588.040263 380.845426 
L 589.793534 379.939204 
L 591.500387 379.007607 
L 593.188682 378.143308 
L 594.957241 377.226772 
L 596.690483 376.373973 
L 598.47085 375.453316 
L 600.23346 374.709264 
L 602.028709 373.754461 
L 603.744402 372.835475 
L 605.440992 371.974066 
L 607.18285 371.065382 
L 608.856944 370.174612 
L 610.556863 369.263426 
L 612.301592 368.291639 
L 614.027424 367.47041 
L 615.704047 366.548246 
L 617.481592 365.635576 
L 619.178831 364.780575 
L 620.87376 363.926296 
L 622.544611 363.027976 
L 624.248181 362.320734 
L 625.977301 361.341267 
L 627.689238 360.447147 
L 629.385065 359.610731 
L 631.099024 358.630297 
L 632.797432 357.690945 
L 634.519499 356.970718 
L 636.185328 355.923047 
L 637.884454 355.195052 
L 639.60935 354.297058 
L 641.323412 353.409951 
L 643.01679 352.512901 
L 644.733995 351.683305 
L 646.458551 350.773916 
L 648.199609 349.949362 
L 649.843797 348.952427 
L 651.540086 348.016893 
L 653.201719 347.236255 
L 654.883351 346.325985 
L 656.560913 345.413296 
L 658.215092 344.521878 
L 659.934065 343.565792 
L 661.581244 342.659882 
L 663.297191 341.802716 
L 665.021478 341.07389 
L 666.699357 340.28865 
L 668.322679 339.388171 
L 669.985199 338.364259 
L 671.655053 337.533676 
L 673.324895 336.645389 
L 674.981373 335.723809 
L 676.650818 334.751413 
L 678.35455 333.896137 
L 680.062185 332.989024 
L 681.772834 332.153585 
L 683.410931 331.243368 
L 685.031131 330.435577 
L 686.710229 329.414933 
L 688.365603 328.488719 
L 690.075186 327.636978 
L 691.726374 326.75903 
L 693.439536 325.925131 
L 695.097763 325.000111 
L 696.70348 324.11068 
L 698.356994 323.170538 
L 700.026122 322.356742 
L 701.661512 321.567494 
L 703.229316 320.823749 
L 704.864754 320.007928 
L 706.570163 319.066051 
L 708.227453 318.13306 
L 709.893987 317.326256 
L 711.524726 316.420354 
L 713.140943 315.520299 
L 714.787294 314.680342 
L 716.39252 313.751127 
L 718.000606 312.983992 
L 719.653271 312.060806 
L 721.258623 311.299976 
L 722.86975 310.335009 
L 724.445598 309.542621 
L 726.085412 308.62046 
L 727.710947 307.735803 
L 729.307129 306.995202 
L 730.933794 306.136392 
L 732.516231 305.397249 
L 734.114278 304.525139 
L 735.740239 303.770286 
L 737.330781 302.902552 
L 738.974398 302.170611 
L 740.624057 301.075708 
L 742.170492 300.253469 
L 743.827155 299.325893 
L 745.354203 298.585379 
L 746.998921 297.573477 
L 748.563203 296.754219 
L 750.175642 295.970796 
L 751.793665 295.177928 
L 753.32919 294.360357 
L 754.904893 293.325837 
L 756.47554 292.518813 
L 758.022163 291.576838 
L 759.582615 290.816189 
L 761.159816 289.95202 
L 761.159816 285.847366 
L 761.159816 285.847366 
L 759.582615 286.673222 
L 758.022163 287.618247 
L 756.47554 288.242201 
L 754.904893 289.255314 
L 753.32919 289.846714 
L 751.793665 290.737896 
L 750.175642 291.689998 
L 748.563203 292.579408 
L 746.998921 293.477415 
L 745.354203 294.150258 
L 743.827155 295.086634 
L 742.170492 295.972416 
L 740.624057 296.821638 
L 738.974398 297.569299 
L 737.330781 298.652557 
L 735.740239 299.627628 
L 734.114278 300.546071 
L 732.516231 301.290634 
L 730.933794 302.165047 
L 729.307129 302.868429 
L 727.710947 303.680526 
L 726.085412 304.488825 
L 724.445598 305.243192 
L 722.86975 306.215377 
L 721.258623 306.910864 
L 719.653271 307.896722 
L 718.000606 308.562806 
L 716.39252 309.532561 
L 714.787294 310.338374 
L 713.140943 311.338191 
L 711.524726 312.093133 
L 709.893987 313.090564 
L 708.227453 314.009804 
L 706.570163 314.765459 
L 704.864754 315.687268 
L 703.229316 316.661063 
L 701.661512 317.541195 
L 700.026122 318.409803 
L 698.356994 319.125003 
L 696.70348 319.805116 
L 695.097763 320.708534 
L 693.439536 321.648318 
L 691.726374 322.6661 
L 690.075186 323.474656 
L 688.365603 324.403427 
L 686.710229 325.130381 
L 685.031131 325.964393 
L 683.410931 326.980552 
L 681.772834 327.820391 
L 680.062185 328.843888 
L 678.35455 329.702325 
L 676.650818 330.600678 
L 674.981373 331.36019 
L 673.324895 332.22385 
L 671.655053 333.1844 
L 669.985199 334.105415 
L 668.322679 334.875271 
L 666.699357 335.758829 
L 665.021478 336.693844 
L 663.297191 337.766207 
L 661.581244 338.5614 
L 659.934065 339.384341 
L 658.215092 340.223879 
L 656.560913 341.122461 
L 654.883351 341.81119 
L 653.201719 342.790834 
L 651.540086 343.862955 
L 649.843797 344.670779 
L 648.199609 345.476115 
L 646.458551 346.470139 
L 644.733995 347.367795 
L 643.01679 348.318023 
L 641.323412 349.147533 
L 639.60935 350.144843 
L 637.884454 350.93115 
L 636.185328 351.958894 
L 634.519499 352.503143 
L 632.797432 353.679561 
L 631.099024 354.394114 
L 629.385065 355.205621 
L 627.689238 356.163379 
L 625.977301 357.144673 
L 624.248181 357.86857 
L 622.544611 358.931459 
L 620.87376 359.6774 
L 619.178831 360.48888 
L 617.481592 361.440902 
L 615.704047 362.30091 
L 614.027424 363.144446 
L 612.301592 364.21975 
L 610.556863 364.947644 
L 608.856944 365.874216 
L 607.18285 366.815735 
L 605.440992 367.712115 
L 603.744402 368.629867 
L 602.028709 369.515825 
L 600.23346 370.419134 
L 598.47085 371.271321 
L 596.690483 372.087868 
L 594.957241 372.980015 
L 593.188682 373.928628 
L 591.500387 374.762594 
L 589.793534 375.618188 
L 588.040263 376.601392 
L 586.326208 377.445584 
L 584.575728 378.094135 
L 582.782829 379.39353 
L 580.998115 380.414159 
L 579.262605 381.202784 
L 577.508085 382.000489 
L 575.723039 382.924565 
L 574.013829 384.07538 
L 572.260938 384.916071 
L 570.507786 385.704545 
L 568.813764 386.867847 
L 567.03324 387.697685 
L 565.221998 388.469249 
L 563.491001 389.496556 
L 561.738431 390.273769 
L 559.916153 391.350739 
L 558.171994 392.153167 
L 556.409751 393.339393 
L 554.643447 394.024977 
L 552.934524 394.793372 
L 551.13268 395.865082 
L 549.348226 396.645357 
L 547.580064 397.603298 
L 545.790542 398.64325 
L 543.973546 399.403988 
L 542.210811 400.47114 
L 540.465475 401.457367 
L 538.626413 402.474874 
L 536.791262 403.473078 
L 534.958658 404.320984 
L 533.114506 405.34279 
L 531.383597 406.248893 
L 529.624774 406.98907 
L 527.803028 408.030585 
L 526.031623 409.024285 
L 524.25029 409.942031 
L 522.431532 410.96426 
L 520.662197 411.913716 
L 518.779978 412.724317 
L 516.949149 413.823106 
L 515.106006 414.712649 
L 513.293674 415.646411 
L 511.477793 416.712109 
L 509.659786 417.639725 
L 507.816538 418.547227 
L 505.937482 419.53856 
L 504.118022 420.62942 
L 502.27063 421.505021 
L 500.432004 422.480673 
L 498.67328 423.518891 
L 496.881431 424.276228 
L 495.050988 425.090544 
L 493.247121 426.190499 
L 491.3894 427.299378 
L 489.556498 428.143894 
L 487.695287 429.229825 
L 485.790546 430.141195 
L 483.890555 431.322776 
L 481.987882 432.199846 
L 480.122401 432.950005 
L 478.282525 434.088683 
L 476.424702 435.136167 
L 474.564858 436.14047 
L 472.742682 437.005097 
L 470.852481 437.878455 
L 468.985786 439.02885 
L 467.154586 439.763376 
L 465.364836 440.550418 
L 463.524942 441.744668 
L 461.700888 442.594344 
L 459.876418 443.438652 
L 458.043295 444.565252 
L 456.161417 445.571924 
L 454.325831 446.485364 
L 452.549401 447.374049 
L 450.714508 448.212808 
L 448.955932 449.210374 
L 447.186867 450.317485 
L 445.416399 451.160819 
L 443.654712 452.066688 
L 441.924331 452.804468 
L 440.176559 453.744632 
L 438.4707 454.479988 
L 436.678937 455.477949 
L 434.977208 456.253268 
L 433.280871 457.171518 
L 431.557359 458.009804 
L 429.843792 458.760141 
L 428.181837 459.423876 
L 426.504294 460.2788 
L 424.860449 461.195298 
L 423.233871 461.81092 
L 421.652963 462.693978 
L 420.071105 463.518841 
L 418.51349 464.306652 
L 417.004672 464.827776 
L 415.474134 465.617972 
L 413.992113 466.120745 
L 412.517664 466.767719 
L 411.043186 467.233891 
L 409.613479 467.795194 
L 408.200561 468.432853 
L 406.81534 469.055048 
L 405.433338 469.556289 
L 404.033511 469.880471 
L 402.590726 470.593569 
L 401.138275 471.160317 
L 399.676135 471.734673 
L 398.255485 472.358961 
L 396.889764 472.625331 
L 395.49009 473.338252 
L 394.068103 473.81492 
L 392.644761 474.346253 
L 391.179096 474.831589 
L 389.777316 475.456272 
L 388.299554 475.747252 
L 386.889271 476.342847 
L 385.376703 477.014858 
L 383.830501 477.542401 
L 382.286303 477.993711 
L 380.70897 478.709625 
L 379.132401 479.377292 
L 377.560308 479.94774 
L 375.881524 480.510442 
L 374.280063 481.367109 
L 372.615034 482.174061 
L 370.928948 482.740128 
L 369.20468 483.467332 
L 367.50173 484.077951 
L 365.73379 485.045917 
L 363.932862 485.910137 
L 362.160596 486.637571 
L 360.284372 487.574228 
L 358.433 488.21798 
L 356.570449 489.102942 
L 354.698994 489.817851 
L 352.780599 490.69167 
L 350.849192 491.752411 
L 348.871316 492.819754 
L 346.925712 493.675038 
L 344.981667 494.675609 
L 343.001702 495.7141 
L 341.029653 496.339977 
L 339.026131 497.464572 
L 337.081583 498.301245 
L 335.116589 499.56885 
L 333.132424 500.468819 
L 331.176639 501.397078 
L 329.174119 502.552616 
L 327.213625 503.339685 
L 325.189802 504.544972 
L 323.211062 505.626019 
L 321.178221 506.62632 
L 319.153579 507.737696 
L 317.175038 508.929239 
L 315.123203 509.839786 
L 313.059411 510.938677 
L 311.051421 511.975597 
L 309.028908 513.025816 
L 307.006869 514.149783 
L 304.97739 515.272715 
L 302.932121 516.360313 
L 300.82106 517.48629 
L 298.791729 518.345621 
L 296.748 519.51772 
L 294.775249 520.543935 
L 292.771474 521.619665 
L 290.808893 522.322541 
L 288.868553 523.438413 
L 286.873946 524.549885 
L 284.923779 525.547324 
L 282.906725 526.413751 
L 280.890777 527.559763 
L 278.891432 528.540794 
L 276.890147 529.720935 
L 274.90635 530.745308 
L 272.897549 531.9467 
L 270.921339 532.749202 
L 268.955009 533.737474 
L 266.957995 534.872428 
L 264.987328 535.833934 
L 262.970461 537.039897 
L 261.000286 538.017693 
L 259.009738 539.060999 
L 257.056746 539.884631 
L 255.10029 540.991086 
L 253.125828 541.87904 
L 251.133631 543.094478 
L 249.180562 544.079522 
L 247.228568 545.213379 
L 245.224911 546.101077 
L 243.276119 547.189155 
L 241.27796 548.260106 
L 239.335303 549.42182 
L 237.305067 550.125645 
L 235.362011 551.308148 
L 233.349129 552.43015 
L 231.38543 553.284568 
L 229.428659 554.41509 
L 227.440064 555.306535 
L 225.451001 556.278392 
L 223.535183 557.141436 
L 221.532957 558.217003 
L 219.557114 559.303177 
L 217.51731 560.503869 
L 215.461891 561.402336 
L 213.445309 562.496145 
L 211.443995 563.550232 
L 209.412967 564.441146 
L 207.427334 565.606561 
L 205.431647 566.59621 
L 203.450003 567.555071 
L 201.466784 568.55381 
L 199.503527 569.675438 
L 197.486189 570.634428 
L 195.506832 571.588187 
L 193.523255 572.611886 
L 191.60069 573.70116 
L 189.588323 574.554207 
L 187.61682 575.904656 
L 185.663233 576.768676 
L 183.758154 577.769847 
L 181.81515 578.852409 
L 179.850373 579.805543 
L 177.83412 580.949426 
L 175.875676 582.023481 
L 173.888858 582.927746 
L 171.943515 584.080686 
L 169.991417 585.081731 
L 168.016315 585.914153 
L 166.058264 586.842997 
L 164.062995 588.071508 
L 162.112138 589.147239 
L 160.148065 590.21643 
L 158.147369 591.163507 
L 156.118631 592.061599 
L 154.166005 593.071956 
L 152.167166 593.933072 
L 150.172301 595.130032 
L 148.219504 596.157504 
L 146.237576 597.165166 
L 144.260279 598.06932 
L 142.221455 599.219728 
L 140.187728 600.265771 
L 138.26 601.283296 
L 136.295075 602.135488 
L 134.317925 603.324645 
L 132.32646 604.170424 
L 130.305113 605.256903 
L 128.316188 606.249909 
L 126.388372 607.195179 
L 124.38667 608.237668 
L 122.339335 609.431601 
L 120.331939 610.198814 
L 118.38231 611.485947 
L 116.411732 612.511642 
L 114.468587 613.440899 
L 112.455811 614.338027 
L 110.478889 615.592138 
L 108.472661 616.773858 
L 106.475923 617.929717 
L 104.528519 618.948929 
L 102.614175 619.747354 
L 100.62687 621.07282 
L 98.624122 621.971235 
L 96.664637 623.000605 
L 94.665483 624.099678 
L 92.628646 625.064647 
L 90.646047 626.190976 
L 88.617086 627.210845 
L 86.613118 628.334836 
L 84.594631 629.336053 
L 82.634987 630.362695 
L 80.633917 631.167723 
L 78.687181 632.152067 
L 76.691449 633.29968 
L 74.688096 634.496744 
L 72.706982 635.228124 
L 70.72724 636.616977 
L 68.742288 637.562362 
L 66.778181 638.303927 
L 64.808142 639.392127 
L 62.83304 640.359217 
L 60.80498 641.391997 
L 58.8188 642.56609 
L 56.912615 643.507157 
L 54.967882 644.547411 
L 53.008071 645.430958 
L 51.063563 646.496289 
L 49.077595 647.455162 
L 47.104774 648.630174 
L 45.150537 649.651119 
L 43.166798 650.716252 
L 41.184776 651.638484 
L 39.240579 652.599817 
L 37.216188 653.665636 
L 35.216167 654.561563 
L 33.214597 655.858716 
L 31.216457 656.660129 
L 29.228372 657.525975 
L 27.259856 658.564064 
L 25.240983 659.843262 
L 23.288223 660.914677 
L 21.246959 661.926459 
L 19.218063 662.930069 
L 17.286344 663.933903 
L 15.270534 664.905934 
L 13.289353 665.951861 
L 11.306323 666.924362 
L 9.325703 667.980582 
L 7.420309 669.146686 
L 5.52771 670.141836 
L 3.58089 671.230315 
L 1.577637 672.217718 
L -0.440033 673.187473 
L -2.433632 674.263022 
L -4.400245 675.283549 
L -6.374508 676.403149 
L -8.315917 677.343918 
L -10.233298 678.369613 
L -12.220053 679.616116 
L -14.207366 680.622321 
L -16.207469 681.593382 
L -18.181418 682.702711 
L -20.191172 683.630164 
L -22.151196 684.719977 
L -24.140641 685.545735 
L -26.117101 686.749539 
L -28.118646 687.798629 
L -30.12148 688.743795 
L -32.083987 689.846702 
L -34.033006 690.928907 
L -35.993133 691.824654 
L -37.934525 692.877915 
L -39.922208 693.797533 
L -41.881125 694.907048 
L -43.888254 695.850349 
L -45.872834 696.867178 
L -47.879534 697.873485 
L -49.862411 698.742937 
L -51.847105 699.894765 
L -53.809249 700.889383 
L -55.744018 702.102296 
L -57.763852 703.066382 
L -59.69426 704.159834 
L -61.68675 705.052702 
L -63.611152 705.816248 
L -65.547255 706.893333 
L -67.505881 708.07851 
L -69.477351 708.911703 
L -71.427934 709.985708 
L -73.392274 711.016836 
L -75.359612 712.159164 
L -77.395277 713.041278 
L -79.369679 714.084642 
L -81.318524 714.926193 
L -83.254363 715.916233 
L -85.233259 717.080364 
L -87.204856 717.986898 
L -89.185476 719.11651 
L -91.12343 720.182692 
L -93.097119 720.933414 
L -95.026853 722.124131 
L -96.941267 723.23251 
L -98.870603 724.277126 
L -100.866191 725.044649 
L -102.840832 726.077127 
L -104.777109 726.991436 
L -106.744524 728.150143 
L -108.673568 729.287108 
L -110.620417 730.187538 
L -112.552239 731.095025 
L -114.515162 731.914724 
L -116.467013 733.026105 
L -118.392699 734.041146 
L -120.34228 734.684382 
L -122.293554 735.942557 
L -124.278799 736.895283 
L -126.310842 738.054079 
L -128.25176 739.148704 
L -130.238367 740.320739 
L -132.184485 741.110694 
L -134.133369 742.154344 
L -136.069223 743.173506 
L -138.052068 744.339052 
L -140.03929 745.198506 
L -141.980448 746.300315 
L -143.965719 747.387307 
L -145.913392 748.179327 
L -147.870723 749.460605 
L -149.802888 750.33086 
L -151.762374 751.311943 
L -153.684978 752.305393 
L -155.634713 753.23151 
L -157.599383 754.219433 
L -159.533942 755.246556 
L -161.499703 756.299338 
L -163.466491 757.156559 
L -165.417668 758.296345 
L -167.357293 759.136269 
L -169.286379 760.252813 
L -171.259147 761.312303 
L -173.264485 762.306206 
L -175.218504 763.30012 
L -177.155528 764.287574 
L -179.047077 765.380593 
L -181.04992 766.225148 
L -183.029876 767.101674 
L -184.991627 768.085101 
L -186.91449 769.169366 
L -188.905497 770.114444 
L -190.911615 771.171678 
L -192.872116 772.268261 
L -194.791068 773.337502 
L -196.704848 774.463715 
L -198.648765 775.254371 
L -200.593718 776.403609 
L -202.540273 777.388288 
L -204.509282 778.438598 
L -206.477125 779.433883 
L -208.37093 780.351023 
L -210.371122 781.705959 
L -212.341791 782.613964 
L -214.260855 783.540029 
L -216.282627 784.59404 
L -218.224637 785.496955 
L -220.183277 786.661475 
L -222.177231 787.594637 
L -224.145724 788.703928 
L -226.047451 789.691639 
L -228.05995 790.520416 
L -230.010489 791.677342 
L -231.961761 792.654758 
L -233.912699 793.610394 
L -235.856122 794.630764 
L -237.79237 795.654474 
L -239.730481 796.660506 
L -241.713267 797.498557 
L -243.651221 798.554795 
L -245.591862 799.440196 
L -247.560533 800.470309 
L -249.576529 801.649484 
L -251.538703 802.587892 
L -253.484918 803.556592 
L -255.418287 804.466847 
L -257.346733 805.502779 
L -259.269278 806.317837 
L -261.194885 807.468912 
L -263.171503 808.676065 
L -265.126492 809.547483 
L -267.096413 810.622962 
L -269.088453 811.484564 
L -271.097358 812.419277 
L -273.023349 813.510651 
L -274.944762 814.403266 
L -276.920605 815.305545 
L -278.897628 816.46465 
L -280.833838 817.362257 
L -282.752145 818.476315 
L -284.684403 819.48051 
L -286.656913 820.564785 
L -288.632842 821.428343 
L -290.580815 822.580507 
L -292.586049 823.574467 
L -294.54637 824.637428 
L -296.501345 825.661378 
L -298.45649 826.793357 
L -300.449443 827.810897 
L -302.354949 828.975619 
L -304.290844 829.733248 
L -306.21338 830.745657 
L -308.072342 831.744772 
L -309.98091 832.60424 
L -311.930751 833.669731 
L -313.838485 834.794636 
L -315.760484 835.694729 
L -317.666714 836.784564 
L -319.606311 837.553331 
L -321.537376 838.672589 
L -323.340402 839.626306 
L -325.300119 840.698504 
L -327.260248 841.801278 
L -329.185464 842.515802 
L -331.079544 843.546145 
L -333.024534 844.740427 
L -334.914248 845.566856 
L -336.773483 846.592398 
L -338.735658 847.569909 
L -340.641766 848.565961 
L -342.533236 849.660445 
L -344.481229 850.688082 
L -346.374401 851.49518 
L -348.244975 852.646417 
L -350.131366 853.843391 
L -352.050705 854.552613 
z
" clip-path="url(#p94eb5e4c6f)" style="fill: #0000ff; fill-opacity: 0.25; stroke: #0000ff; stroke-opacity: 0.25"/>
   </g>
   <g id="PathCollection_1">
    <defs>
     <path id="m3f5486d1bc" d="M 0 3 
C 0.795609 3 1.55874 2.683901 2.12132 2.12132 
C 2.683901 1.55874 3 0.795609 3 0 
C 3 -0.795609 2.683901 -1.55874 2.12132 -2.12132 
C 1.55874 -2.683901 0.795609 -3 0 -3 
C -0.795609 -3 -1.55874 -2.683901 -2.12132 -2.12132 
C -2.683901 -1.55874 -3 -0.795609 -3 0 
C -3 0.795609 -2.683901 1.55874 -2.12132 2.12132 
C -1.55874 2.683901 -0.795609 3 0 3 
z
" style="stroke: #000000"/>
    </defs>
    <g clip-path="url(#p94eb5e4c6f)">
     <use xlink:href="#m3f5486d1bc" x="417.759081" y="459.582754" style="stroke: #000000"/>
    </g>
   </g>
   <g id="PathCollection_2">
    <g clip-path="url(#p94eb5e4c6f)">
     <use xlink:href="#m3f5486d1bc" x="417.759081" y="467.120094" style="stroke: #000000"/>
    </g>
   </g>
   <g id="matplotlib.axis_1">
    <g id="xtick_1">
     <g id="line2d_1">
      <defs>
       <path id="mc1e28a555d" d="M 0 0 
L 0 3.5 
" style="stroke: #000000; stroke-width: 3"/>
      </defs>
      <g>
       <use xlink:href="#mc1e28a555d" x="150.608582" y="603.52" style="stroke: #000000; stroke-width: 3"/>
      </g>
     </g>
     <g id="text_1">
      <!-- 1.5 -->
      <g transform="translate(122.778113 637.114531) scale(0.35 -0.35)">
       <defs>
        <path id="DejaVuSans-31" d="M 794 531 
L 1825 531 
L 1825 4091 
L 703 3866 
L 703 4441 
L 1819 4666 
L 2450 4666 
L 2450 531 
L 3481 531 
L 3481 0 
L 794 0 
L 794 531 
z
" transform="scale(0.015625)"/>
        <path id="DejaVuSans-2e" d="M 684 794 
L 1344 794 
L 1344 0 
L 684 0 
L 684 794 
z
" transform="scale(0.015625)"/>
        <path id="DejaVuSans-35" d="M 691 4666 
L 3169 4666 
L 3169 4134 
L 1269 4134 
L 1269 2991 
Q 1406 3038 1543 3061 
Q 1681 3084 1819 3084 
Q 2600 3084 3056 2656 
Q 3513 2228 3513 1497 
Q 3513 744 3044 326 
Q 2575 -91 1722 -91 
Q 1428 -91 1123 -41 
Q 819 9 494 109 
L 494 744 
Q 775 591 1075 516 
Q 1375 441 1709 441 
Q 2250 441 2565 725 
Q 2881 1009 2881 1497 
Q 2881 1984 2565 2268 
Q 2250 2553 1709 2553 
Q 1456 2553 1204 2497 
Q 953 2441 691 2322 
L 691 4666 
z
" transform="scale(0.015625)"/>
       </defs>
       <use xlink:href="#DejaVuSans-31"/>
       <use xlink:href="#DejaVuSans-2e" x="63.623047"/>
       <use xlink:href="#DejaVuSans-35" x="95.410156"/>
      </g>
     </g>
    </g>
    <g id="xtick_2">
     <g id="line2d_2">
      <g>
       <use xlink:href="#mc1e28a555d" x="318.784128" y="603.52" style="stroke: #000000; stroke-width: 3"/>
      </g>
     </g>
     <g id="text_2">
      <!-- 2.0 -->
      <g transform="translate(290.95366 637.114531) scale(0.35 -0.35)">
       <defs>
        <path id="DejaVuSans-32" d="M 1228 531 
L 3431 531 
L 3431 0 
L 469 0 
L 469 531 
Q 828 903 1448 1529 
Q 2069 2156 2228 2338 
Q 2531 2678 2651 2914 
Q 2772 3150 2772 3378 
Q 2772 3750 2511 3984 
Q 2250 4219 1831 4219 
Q 1534 4219 1204 4116 
Q 875 4013 500 3803 
L 500 4441 
Q 881 4594 1212 4672 
Q 1544 4750 1819 4750 
Q 2544 4750 2975 4387 
Q 3406 4025 3406 3419 
Q 3406 3131 3298 2873 
Q 3191 2616 2906 2266 
Q 2828 2175 2409 1742 
Q 1991 1309 1228 531 
z
" transform="scale(0.015625)"/>
        <path id="DejaVuSans-30" d="M 2034 4250 
Q 1547 4250 1301 3770 
Q 1056 3291 1056 2328 
Q 1056 1369 1301 889 
Q 1547 409 2034 409 
Q 2525 409 2770 889 
Q 3016 1369 3016 2328 
Q 3016 3291 2770 3770 
Q 2525 4250 2034 4250 
z
M 2034 4750 
Q 2819 4750 3233 4129 
Q 3647 3509 3647 2328 
Q 3647 1150 3233 529 
Q 2819 -91 2034 -91 
Q 1250 -91 836 529 
Q 422 1150 422 2328 
Q 422 3509 836 4129 
Q 1250 4750 2034 4750 
z
" transform="scale(0.015625)"/>
       </defs>
       <use xlink:href="#DejaVuSans-32"/>
       <use xlink:href="#DejaVuSans-2e" x="63.623047"/>
       <use xlink:href="#DejaVuSans-30" x="95.410156"/>
      </g>
     </g>
    </g>
    <g id="xtick_3">
     <g id="line2d_3">
      <g>
       <use xlink:href="#mc1e28a555d" x="486.959675" y="603.52" style="stroke: #000000; stroke-width: 3"/>
      </g>
     </g>
     <g id="text_3">
      <!-- 2.5 -->
      <g transform="translate(459.129206 637.114531) scale(0.35 -0.35)">
       <use xlink:href="#DejaVuSans-32"/>
       <use xlink:href="#DejaVuSans-2e" x="63.623047"/>
       <use xlink:href="#DejaVuSans-35" x="95.410156"/>
      </g>
     </g>
    </g>
    <g id="xtick_4">
     <g id="line2d_4">
      <g>
       <use xlink:href="#mc1e28a555d" x="655.135221" y="603.52" style="stroke: #000000; stroke-width: 3"/>
      </g>
     </g>
     <g id="text_4">
      <!-- 3.0 -->
      <g transform="translate(627.304752 637.114531) scale(0.35 -0.35)">
       <defs>
        <path id="DejaVuSans-33" d="M 2597 2516 
Q 3050 2419 3304 2112 
Q 3559 1806 3559 1356 
Q 3559 666 3084 287 
Q 2609 -91 1734 -91 
Q 1441 -91 1130 -33 
Q 819 25 488 141 
L 488 750 
Q 750 597 1062 519 
Q 1375 441 1716 441 
Q 2309 441 2620 675 
Q 2931 909 2931 1356 
Q 2931 1769 2642 2001 
Q 2353 2234 1838 2234 
L 1294 2234 
L 1294 2753 
L 1863 2753 
Q 2328 2753 2575 2939 
Q 2822 3125 2822 3475 
Q 2822 3834 2567 4026 
Q 2313 4219 1838 4219 
Q 1578 4219 1281 4162 
Q 984 4106 628 3988 
L 628 4550 
Q 988 4650 1302 4700 
Q 1616 4750 1894 4750 
Q 2613 4750 3031 4423 
Q 3450 4097 3450 3541 
Q 3450 3153 3228 2886 
Q 3006 2619 2597 2516 
z
" transform="scale(0.015625)"/>
       </defs>
       <use xlink:href="#DejaVuSans-33"/>
       <use xlink:href="#DejaVuSans-2e" x="63.623047"/>
       <use xlink:href="#DejaVuSans-30" x="95.410156"/>
      </g>
     </g>
    </g>
    <g id="text_5">
     <!-- Cumulative total (cts) -->
     <g transform="translate(218.886874 674.987969) scale(0.35 -0.35)">
      <defs>
       <path id="DejaVuSans-43" d="M 4122 4306 
L 4122 3641 
Q 3803 3938 3442 4084 
Q 3081 4231 2675 4231 
Q 1875 4231 1450 3742 
Q 1025 3253 1025 2328 
Q 1025 1406 1450 917 
Q 1875 428 2675 428 
Q 3081 428 3442 575 
Q 3803 722 4122 1019 
L 4122 359 
Q 3791 134 3420 21 
Q 3050 -91 2638 -91 
Q 1578 -91 968 557 
Q 359 1206 359 2328 
Q 359 3453 968 4101 
Q 1578 4750 2638 4750 
Q 3056 4750 3426 4639 
Q 3797 4528 4122 4306 
z
" transform="scale(0.015625)"/>
       <path id="DejaVuSans-75" d="M 544 1381 
L 544 3500 
L 1119 3500 
L 1119 1403 
Q 1119 906 1312 657 
Q 1506 409 1894 409 
Q 2359 409 2629 706 
Q 2900 1003 2900 1516 
L 2900 3500 
L 3475 3500 
L 3475 0 
L 2900 0 
L 2900 538 
Q 2691 219 2414 64 
Q 2138 -91 1772 -91 
Q 1169 -91 856 284 
Q 544 659 544 1381 
z
M 1991 3584 
L 1991 3584 
z
" transform="scale(0.015625)"/>
       <path id="DejaVuSans-6d" d="M 3328 2828 
Q 3544 3216 3844 3400 
Q 4144 3584 4550 3584 
Q 5097 3584 5394 3201 
Q 5691 2819 5691 2113 
L 5691 0 
L 5113 0 
L 5113 2094 
Q 5113 2597 4934 2840 
Q 4756 3084 4391 3084 
Q 3944 3084 3684 2787 
Q 3425 2491 3425 1978 
L 3425 0 
L 2847 0 
L 2847 2094 
Q 2847 2600 2669 2842 
Q 2491 3084 2119 3084 
Q 1678 3084 1418 2786 
Q 1159 2488 1159 1978 
L 1159 0 
L 581 0 
L 581 3500 
L 1159 3500 
L 1159 2956 
Q 1356 3278 1631 3431 
Q 1906 3584 2284 3584 
Q 2666 3584 2933 3390 
Q 3200 3197 3328 2828 
z
" transform="scale(0.015625)"/>
       <path id="DejaVuSans-6c" d="M 603 4863 
L 1178 4863 
L 1178 0 
L 603 0 
L 603 4863 
z
" transform="scale(0.015625)"/>
       <path id="DejaVuSans-61" d="M 2194 1759 
Q 1497 1759 1228 1600 
Q 959 1441 959 1056 
Q 959 750 1161 570 
Q 1363 391 1709 391 
Q 2188 391 2477 730 
Q 2766 1069 2766 1631 
L 2766 1759 
L 2194 1759 
z
M 3341 1997 
L 3341 0 
L 2766 0 
L 2766 531 
Q 2569 213 2275 61 
Q 1981 -91 1556 -91 
Q 1019 -91 701 211 
Q 384 513 384 1019 
Q 384 1609 779 1909 
Q 1175 2209 1959 2209 
L 2766 2209 
L 2766 2266 
Q 2766 2663 2505 2880 
Q 2244 3097 1772 3097 
Q 1472 3097 1187 3025 
Q 903 2953 641 2809 
L 641 3341 
Q 956 3463 1253 3523 
Q 1550 3584 1831 3584 
Q 2591 3584 2966 3190 
Q 3341 2797 3341 1997 
z
" transform="scale(0.015625)"/>
       <path id="DejaVuSans-74" d="M 1172 4494 
L 1172 3500 
L 2356 3500 
L 2356 3053 
L 1172 3053 
L 1172 1153 
Q 1172 725 1289 603 
Q 1406 481 1766 481 
L 2356 481 
L 2356 0 
L 1766 0 
Q 1100 0 847 248 
Q 594 497 594 1153 
L 594 3053 
L 172 3053 
L 172 3500 
L 594 3500 
L 594 4494 
L 1172 4494 
z
" transform="scale(0.015625)"/>
       <path id="DejaVuSans-69" d="M 603 3500 
L 1178 3500 
L 1178 0 
L 603 0 
L 603 3500 
z
M 603 4863 
L 1178 4863 
L 1178 4134 
L 603 4134 
L 603 4863 
z
" transform="scale(0.015625)"/>
       <path id="DejaVuSans-76" d="M 191 3500 
L 800 3500 
L 1894 563 
L 2988 3500 
L 3597 3500 
L 2284 0 
L 1503 0 
L 191 3500 
z
" transform="scale(0.015625)"/>
       <path id="DejaVuSans-65" d="M 3597 1894 
L 3597 1613 
L 953 1613 
Q 991 1019 1311 708 
Q 1631 397 2203 397 
Q 2534 397 2845 478 
Q 3156 559 3463 722 
L 3463 178 
Q 3153 47 2828 -22 
Q 2503 -91 2169 -91 
Q 1331 -91 842 396 
Q 353 884 353 1716 
Q 353 2575 817 3079 
Q 1281 3584 2069 3584 
Q 2775 3584 3186 3129 
Q 3597 2675 3597 1894 
z
M 3022 2063 
Q 3016 2534 2758 2815 
Q 2500 3097 2075 3097 
Q 1594 3097 1305 2825 
Q 1016 2553 972 2059 
L 3022 2063 
z
" transform="scale(0.015625)"/>
       <path id="DejaVuSans-20" transform="scale(0.015625)"/>
       <path id="DejaVuSans-6f" d="M 1959 3097 
Q 1497 3097 1228 2736 
Q 959 2375 959 1747 
Q 959 1119 1226 758 
Q 1494 397 1959 397 
Q 2419 397 2687 759 
Q 2956 1122 2956 1747 
Q 2956 2369 2687 2733 
Q 2419 3097 1959 3097 
z
M 1959 3584 
Q 2709 3584 3137 3096 
Q 3566 2609 3566 1747 
Q 3566 888 3137 398 
Q 2709 -91 1959 -91 
Q 1206 -91 779 398 
Q 353 888 353 1747 
Q 353 2609 779 3096 
Q 1206 3584 1959 3584 
z
" transform="scale(0.015625)"/>
       <path id="DejaVuSans-28" d="M 1984 4856 
Q 1566 4138 1362 3434 
Q 1159 2731 1159 2009 
Q 1159 1288 1364 580 
Q 1569 -128 1984 -844 
L 1484 -844 
Q 1016 -109 783 600 
Q 550 1309 550 2009 
Q 550 2706 781 3412 
Q 1013 4119 1484 4856 
L 1984 4856 
z
" transform="scale(0.015625)"/>
       <path id="DejaVuSans-63" d="M 3122 3366 
L 3122 2828 
Q 2878 2963 2633 3030 
Q 2388 3097 2138 3097 
Q 1578 3097 1268 2742 
Q 959 2388 959 1747 
Q 959 1106 1268 751 
Q 1578 397 2138 397 
Q 2388 397 2633 464 
Q 2878 531 3122 666 
L 3122 134 
Q 2881 22 2623 -34 
Q 2366 -91 2075 -91 
Q 1284 -91 818 406 
Q 353 903 353 1747 
Q 353 2603 823 3093 
Q 1294 3584 2113 3584 
Q 2378 3584 2631 3529 
Q 2884 3475 3122 3366 
z
" transform="scale(0.015625)"/>
       <path id="DejaVuSans-73" d="M 2834 3397 
L 2834 2853 
Q 2591 2978 2328 3040 
Q 2066 3103 1784 3103 
Q 1356 3103 1142 2972 
Q 928 2841 928 2578 
Q 928 2378 1081 2264 
Q 1234 2150 1697 2047 
L 1894 2003 
Q 2506 1872 2764 1633 
Q 3022 1394 3022 966 
Q 3022 478 2636 193 
Q 2250 -91 1575 -91 
Q 1294 -91 989 -36 
Q 684 19 347 128 
L 347 722 
Q 666 556 975 473 
Q 1284 391 1588 391 
Q 1994 391 2212 530 
Q 2431 669 2431 922 
Q 2431 1156 2273 1281 
Q 2116 1406 1581 1522 
L 1381 1569 
Q 847 1681 609 1914 
Q 372 2147 372 2553 
Q 372 3047 722 3315 
Q 1072 3584 1716 3584 
Q 2034 3584 2315 3537 
Q 2597 3491 2834 3397 
z
" transform="scale(0.015625)"/>
       <path id="DejaVuSans-29" d="M 513 4856 
L 1013 4856 
Q 1481 4119 1714 3412 
Q 1947 2706 1947 2009 
Q 1947 1309 1714 600 
Q 1481 -109 1013 -844 
L 513 -844 
Q 928 -128 1133 580 
Q 1338 1288 1338 2009 
Q 1338 2731 1133 3434 
Q 928 4138 513 4856 
z
" transform="scale(0.015625)"/>
      </defs>
      <use xlink:href="#DejaVuSans-43"/>
      <use xlink:href="#DejaVuSans-75" x="69.824219"/>
      <use xlink:href="#DejaVuSans-6d" x="133.203125"/>
      <use xlink:href="#DejaVuSans-75" x="230.615234"/>
      <use xlink:href="#DejaVuSans-6c" x="293.994141"/>
      <use xlink:href="#DejaVuSans-61" x="321.777344"/>
      <use xlink:href="#DejaVuSans-74" x="383.056641"/>
      <use xlink:href="#DejaVuSans-69" x="422.265625"/>
      <use xlink:href="#DejaVuSans-76" x="450.048828"/>
      <use xlink:href="#DejaVuSans-65" x="509.228516"/>
      <use xlink:href="#DejaVuSans-20" x="570.751953"/>
      <use xlink:href="#DejaVuSans-74" x="602.539062"/>
      <use xlink:href="#DejaVuSans-6f" x="641.748047"/>
      <use xlink:href="#DejaVuSans-74" x="702.929688"/>
      <use xlink:href="#DejaVuSans-61" x="742.138672"/>
      <use xlink:href="#DejaVuSans-6c" x="803.417969"/>
      <use xlink:href="#DejaVuSans-20" x="831.201172"/>
      <use xlink:href="#DejaVuSans-28" x="862.988281"/>
      <use xlink:href="#DejaVuSans-63" x="902.001953"/>
      <use xlink:href="#DejaVuSans-74" x="956.982422"/>
      <use xlink:href="#DejaVuSans-73" x="996.191406"/>
      <use xlink:href="#DejaVuSans-29" x="1048.291016"/>
     </g>
    </g>
    <g id="text_6">
     <!-- 1e6 -->
     <g transform="translate(613.988747 673.987969) scale(0.35 -0.35)">
      <defs>
       <path id="DejaVuSans-36" d="M 2113 2584 
Q 1688 2584 1439 2293 
Q 1191 2003 1191 1497 
Q 1191 994 1439 701 
Q 1688 409 2113 409 
Q 2538 409 2786 701 
Q 3034 994 3034 1497 
Q 3034 2003 2786 2293 
Q 2538 2584 2113 2584 
z
M 3366 4563 
L 3366 3988 
Q 3128 4100 2886 4159 
Q 2644 4219 2406 4219 
Q 1781 4219 1451 3797 
Q 1122 3375 1075 2522 
Q 1259 2794 1537 2939 
Q 1816 3084 2150 3084 
Q 2853 3084 3261 2657 
Q 3669 2231 3669 1497 
Q 3669 778 3244 343 
Q 2819 -91 2113 -91 
Q 1303 -91 875 529 
Q 447 1150 447 2328 
Q 447 3434 972 4092 
Q 1497 4750 2381 4750 
Q 2619 4750 2861 4703 
Q 3103 4656 3366 4563 
z
" transform="scale(0.015625)"/>
      </defs>
      <use xlink:href="#DejaVuSans-31"/>
      <use xlink:href="#DejaVuSans-65" x="63.623047"/>
      <use xlink:href="#DejaVuSans-36" x="125.146484"/>
     </g>
    </g>
   </g>
   <g id="matplotlib.axis_2">
    <g id="ytick_1">
     <g id="line2d_5">
      <defs>
       <path id="m4d36315c95" d="M 0 0 
L -3.5 0 
" style="stroke: #000000; stroke-width: 3"/>
      </defs>
      <g>
       <use xlink:href="#m4d36315c95" x="138.26" y="543.812054" style="stroke: #000000; stroke-width: 3"/>
      </g>
     </g>
     <g id="text_7">
      <!-- 1.5 -->
      <g transform="translate(75.599063 557.10932) scale(0.35 -0.35)">
       <use xlink:href="#DejaVuSans-31"/>
       <use xlink:href="#DejaVuSans-2e" x="63.623047"/>
       <use xlink:href="#DejaVuSans-35" x="95.410156"/>
      </g>
     </g>
    </g>
    <g id="ytick_2">
     <g id="line2d_6">
      <g>
       <use xlink:href="#m4d36315c95" x="138.26" y="439.126283" style="stroke: #000000; stroke-width: 3"/>
      </g>
     </g>
     <g id="text_8">
      <!-- 2.0 -->
      <g transform="translate(75.599063 452.423549) scale(0.35 -0.35)">
       <use xlink:href="#DejaVuSans-32"/>
       <use xlink:href="#DejaVuSans-2e" x="63.623047"/>
       <use xlink:href="#DejaVuSans-30" x="95.410156"/>
      </g>
     </g>
    </g>
    <g id="ytick_3">
     <g id="line2d_7">
      <g>
       <use xlink:href="#m4d36315c95" x="138.26" y="334.440512" style="stroke: #000000; stroke-width: 3"/>
      </g>
     </g>
     <g id="text_9">
      <!-- 2.5 -->
      <g transform="translate(75.599063 347.737778) scale(0.35 -0.35)">
       <use xlink:href="#DejaVuSans-32"/>
       <use xlink:href="#DejaVuSans-2e" x="63.623047"/>
       <use xlink:href="#DejaVuSans-35" x="95.410156"/>
      </g>
     </g>
    </g>
    <g id="ytick_4">
     <g id="line2d_8">
      <g>
       <use xlink:href="#m4d36315c95" x="138.26" y="229.754741" style="stroke: #000000; stroke-width: 3"/>
      </g>
     </g>
     <g id="text_10">
      <!-- 3.0 -->
      <g transform="translate(75.599063 243.052007) scale(0.35 -0.35)">
       <use xlink:href="#DejaVuSans-33"/>
       <use xlink:href="#DejaVuSans-2e" x="63.623047"/>
       <use xlink:href="#DejaVuSans-30" x="95.410156"/>
      </g>
     </g>
    </g>
    <g id="ytick_5">
     <g id="line2d_9">
      <g>
       <use xlink:href="#m4d36315c95" x="138.26" y="125.06897" style="stroke: #000000; stroke-width: 3"/>
      </g>
     </g>
     <g id="text_11">
      <!-- 3.5 -->
      <g transform="translate(75.599063 138.366236) scale(0.35 -0.35)">
       <use xlink:href="#DejaVuSans-33"/>
       <use xlink:href="#DejaVuSans-2e" x="63.623047"/>
       <use xlink:href="#DejaVuSans-35" x="95.410156"/>
      </g>
     </g>
    </g>
    <g id="text_12">
     <!-- Cumulative solute (cts) -->
     <g transform="translate(64.320156 539.144453) rotate(-90) scale(0.35 -0.35)">
      <use xlink:href="#DejaVuSans-43"/>
      <use xlink:href="#DejaVuSans-75" x="69.824219"/>
      <use xlink:href="#DejaVuSans-6d" x="133.203125"/>
      <use xlink:href="#DejaVuSans-75" x="230.615234"/>
      <use xlink:href="#DejaVuSans-6c" x="293.994141"/>
      <use xlink:href="#DejaVuSans-61" x="321.777344"/>
      <use xlink:href="#DejaVuSans-74" x="383.056641"/>
      <use xlink:href="#DejaVuSans-69" x="422.265625"/>
      <use xlink:href="#DejaVuSans-76" x="450.048828"/>
      <use xlink:href="#DejaVuSans-65" x="509.228516"/>
      <use xlink:href="#DejaVuSans-20" x="570.751953"/>
      <use xlink:href="#DejaVuSans-73" x="602.539062"/>
      <use xlink:href="#DejaVuSans-6f" x="654.638672"/>
      <use xlink:href="#DejaVuSans-6c" x="715.820312"/>
      <use xlink:href="#DejaVuSans-75" x="743.603516"/>
      <use xlink:href="#DejaVuSans-74" x="806.982422"/>
      <use xlink:href="#DejaVuSans-65" x="846.191406"/>
      <use xlink:href="#DejaVuSans-20" x="907.714844"/>
      <use xlink:href="#DejaVuSans-28" x="939.501953"/>
      <use xlink:href="#DejaVuSans-63" x="978.515625"/>
      <use xlink:href="#DejaVuSans-74" x="1033.496094"/>
      <use xlink:href="#DejaVuSans-73" x="1072.705078"/>
      <use xlink:href="#DejaVuSans-29" x="1124.804688"/>
     </g>
    </g>
    <g id="text_13">
     <!-- 1e5 -->
     <g transform="translate(138.26 64.44) scale(0.35 -0.35)">
      <use xlink:href="#DejaVuSans-31"/>
      <use xlink:href="#DejaVuSans-65" x="63.623047"/>
      <use xlink:href="#DejaVuSans-35" x="125.146484"/>
     </g>
    </g>
   </g>
   <g id="line2d_10">
    <path d="M -1 675.810813 
L 1.577637 674.468793 
L 5.52771 672.439981 
L 19.218063 665.167233 
L 25.240983 662.149208 
L 29.228372 659.921636 
L 49.077595 649.85168 
L 54.967882 646.74621 
L 60.80498 643.743703 
L 66.778181 640.591176 
L 70.72724 638.785762 
L 72.706982 637.668279 
L 76.691449 635.649717 
L 80.633917 633.528887 
L 88.617086 629.526651 
L 110.478889 617.993238 
L 114.468587 615.753042 
L 132.32646 606.476571 
L 138.26 603.52 
L 158.147369 593.364294 
L 162.112138 591.430612 
L 168.016315 588.310418 
L 171.943515 586.317199 
L 179.850373 582.132937 
L 183.758154 580.080015 
L 195.506832 573.913115 
L 199.503527 571.92202 
L 209.412967 566.782204 
L 217.51731 562.714137 
L 227.440064 557.594431 
L 233.349129 554.646063 
L 237.305067 552.587904 
L 241.27796 550.625815 
L 245.224911 548.491845 
L 251.133631 545.445479 
L 259.009738 541.273104 
L 266.957995 537.160057 
L 292.771474 523.813961 
L 296.748 521.798559 
L 325.189802 506.859354 
L 331.176639 503.731001 
L 348.871316 494.963921 
L 358.433 490.338065 
L 362.160596 488.709396 
L 365.73379 487.116647 
L 367.50173 486.215375 
L 383.830501 479.276888 
L 402.590726 472.273478 
L 405.433338 471.171855 
L 415.474134 467.305885 
L 421.652963 464.680302 
L 428.181837 461.570847 
L 433.280871 459.197864 
L 440.176559 455.81557 
L 443.654712 454.124587 
L 447.186867 452.431358 
L 452.549401 449.608173 
L 493.247121 428.527097 
L 496.881431 426.51297 
L 504.118022 422.759643 
L 509.659786 419.80984 
L 516.949149 415.996255 
L 522.431532 413.148084 
L 526.031623 411.237505 
L 529.624774 409.281697 
L 533.114506 407.494465 
L 554.643447 396.179073 
L 556.409751 395.3642 
L 563.491001 391.639546 
L 574.013829 386.175595 
L 577.508085 384.245697 
L 582.782829 381.549372 
L 586.326208 379.594424 
L 608.856944 368.024414 
L 615.704047 364.424578 
L 625.977301 359.24297 
L 631.099024 356.512205 
L 636.185328 353.940971 
L 651.540086 345.939924 
L 656.560913 343.267879 
L 661.581244 340.610641 
L 666.699357 338.02374 
L 676.650818 332.676045 
L 683.410931 329.11196 
L 688.365603 326.446073 
L 695.097763 322.854323 
L 698.356994 321.147771 
L 701.661512 319.554345 
L 709.893987 315.20841 
L 713.140943 313.429245 
L 718.000606 310.773399 
L 721 309.246116 
L 721 309.246116 
" clip-path="url(#p94eb5e4c6f)" style="fill: none; stroke: #0000ff; stroke-width: 4; stroke-linecap: square"/>
   </g>
   <g id="line2d_11">
    <path d="M -1 675.604555 
L 417.004672 459.582754 
L 417.004672 459.582754 
" clip-path="url(#p94eb5e4c6f)" style="fill: none; stroke-dasharray: 7.4,3.2; stroke-dashoffset: 0; stroke: #000000; stroke-width: 2"/>
   </g>
   <g id="line2d_12">
    <path d="M 418.51349 467.120094 
L 721 309.688467 
L 721 309.688467 
" clip-path="url(#p94eb5e4c6f)" style="fill: none; stroke-dasharray: 7.4,3.2; stroke-dashoffset: 0; stroke: #000000; stroke-width: 2"/>
   </g>
   <g id="LineCollection_1">
    <path d="M 417.759081 459.582754 
L 417.759081 467.120094 
" clip-path="url(#p94eb5e4c6f)" style="fill: none; stroke: #000000; stroke-width: 2"/>
   </g>
   <g id="LineCollection_2">
    <path d="M 417.759081 459.807828 
L 417.759081 459.357679 
" clip-path="url(#p94eb5e4c6f)" style="fill: none; stroke: #000000; stroke-width: 1.5"/>
   </g>
   <g id="line2d_13">
    <defs>
     <path id="m5667d68028" d="M 25 0 
L -25 -0 
" style="stroke: #000000"/>
    </defs>
    <g clip-path="url(#p94eb5e4c6f)">
     <use xlink:href="#m5667d68028" x="417.759081" y="459.807828" style="stroke: #000000"/>
    </g>
   </g>
   <g id="line2d_14">
    <g clip-path="url(#p94eb5e4c6f)">
     <use xlink:href="#m5667d68028" x="417.759081" y="459.357679" style="stroke: #000000"/>
    </g>
   </g>
   <g id="LineCollection_3">
    <path d="M 417.759081 467.433739 
L 417.759081 466.80645 
" clip-path="url(#p94eb5e4c6f)" style="fill: none; stroke: #000000; stroke-width: 1.5"/>
   </g>
   <g id="line2d_15">
    <g clip-path="url(#p94eb5e4c6f)">
     <use xlink:href="#m5667d68028" x="417.759081" y="467.433739" style="stroke: #000000"/>
    </g>
   </g>
   <g id="line2d_16">
    <g clip-path="url(#p94eb5e4c6f)">
     <use xlink:href="#m5667d68028" x="417.759081" y="466.80645" style="stroke: #000000"/>
    </g>
   </g>
   <g id="line2d_17">
    <path d="M 417.759081 459.582754 
" clip-path="url(#p94eb5e4c6f)" style="fill: none; stroke: #000000; stroke-width: 1.5; stroke-linecap: square"/>
   </g>
   <g id="line2d_18">
    <path d="M 417.759081 467.120094 
" clip-path="url(#p94eb5e4c6f)" style="fill: none; stroke: #000000; stroke-width: 1.5; stroke-linecap: square"/>
   </g>
   <g id="patch_3">
    <path d="M 138.26 603.52 
L 138.26 67.44 
" style="fill: none; stroke: #000000; stroke-width: 3; stroke-linejoin: miter; stroke-linecap: square"/>
   </g>
   <g id="patch_4">
    <path d="M 680.062185 603.52 
L 680.062185 67.44 
" style="fill: none; stroke: #000000; stroke-width: 3; stroke-linejoin: miter; stroke-linecap: square"/>
   </g>
   <g id="patch_5">
    <path d="M 138.26 603.52 
L 680.062185 603.52 
" style="fill: none; stroke: #000000; stroke-width: 3; stroke-linejoin: miter; stroke-linecap: square"/>
   </g>
   <g id="patch_6">
    <path d="M 138.26 67.44 
L 680.062185 67.44 
" style="fill: none; stroke: #000000; stroke-width: 3; stroke-linejoin: miter; stroke-linecap: square"/>
   </g>
   <g id="legend_1">
    <g id="line2d_19">
     <path d="M 413.663747 132.932188 
L 463.663747 132.932188 
L 513.663747 132.932188 
" style="fill: none; stroke: #0000ff; stroke-width: 4; stroke-linecap: square"/>
    </g>
    <g id="text_14">
     <!-- Co  -->
     <g transform="translate(553.663747 150.432188) scale(0.5 -0.5)">
      <use xlink:href="#DejaVuSans-43"/>
      <use xlink:href="#DejaVuSans-6f" x="69.824219"/>
      <use xlink:href="#DejaVuSans-20" x="131.005859"/>
     </g>
    </g>
   </g>
  </g>
 </g>
 <defs>
  <clipPath id="p94eb5e4c6f">
   <rect x="138.26" y="67.44" width="541.802185" height="536.08"/>
  </clipPath>
 </defs>
</svg>
