<?xml version="1.0" encoding="utf-8" standalone="no"?>
<!DOCTYPE svg PUBLIC "-//W3C//DTD SVG 1.1//EN"
  "http://www.w3.org/Graphics/SVG/1.1/DTD/svg11.dtd">
<svg xmlns:xlink="http://www.w3.org/1999/xlink" width="720pt" height="720pt" viewBox="0 0 720 720" xmlns="http://www.w3.org/2000/svg" version="1.1">
 <metadata>
  <rdf:RDF xmlns:dc="http://purl.org/dc/elements/1.1/" xmlns:cc="http://creativecommons.org/ns#" xmlns:rdf="http://www.w3.org/1999/02/22-rdf-syntax-ns#">
   <cc:Work>
    <dc:type rdf:resource="http://purl.org/dc/dcmitype/StillImage"/>
    <dc:date>2023-11-23T21:09:14.637033</dc:date>
    <dc:format>image/svg+xml</dc:format>
    <dc:creator>
     <cc:Agent>
      <dc:title>Matplotlib v3.7.2, https://matplotlib.org/</dc:title>
     </cc:Agent>
    </dc:creator>
   </cc:Work>
  </rdf:RDF>
 </metadata>
 <defs>
  <style type="text/css">*{stroke-linejoin: round; stroke-linecap: butt}</style>
 </defs>
 <g id="figure_1">
  <g id="patch_1">
   <path d="M 0 720 
L 720 720 
L 720 0 
L 0 0 
z
" style="fill: #ffffff"/>
  </g>
  <g id="axes_1">
   <g id="patch_2">
    <path d="M 104.87 603.52 
L 680.062185 603.52 
L 680.062185 67.44 
L 104.87 67.44 
z
" style="fill: #ffffff"/>
   </g>
   <g id="PolyCollection_1">
    <path d="M -415.657405 844.699855 
L -415.657405 854.551254 
L -413.619782 853.888508 
L -411.617137 852.955201 
L -409.631284 851.88118 
L -407.621441 851.336306 
L -405.553397 850.592044 
L -403.54536 849.504375 
L -401.521783 848.597307 
L -399.438684 848.130679 
L -397.464869 846.843196 
L -395.458696 846.067515 
L -393.393841 845.161196 
L -391.383033 843.953361 
L -389.339171 842.711024 
L -387.258244 841.625203 
L -385.177754 841.00712 
L -383.263612 840.637067 
L -381.21354 838.916073 
L -379.154409 838.515306 
L -377.130704 836.598738 
L -375.090256 836.009158 
L -373.064952 835.369835 
L -370.994948 834.889146 
L -368.96876 833.259521 
L -366.995234 832.266064 
L -364.954216 831.411659 
L -362.899017 830.281714 
L -360.876079 829.204858 
L -358.760304 828.490337 
L -356.684669 827.329406 
L -354.609213 826.255378 
L -352.528082 825.339037 
L -350.39927 824.201646 
L -348.331248 823.344336 
L -346.233548 822.224111 
L -344.139477 821.029139 
L -342.088138 820.188811 
L -340.05161 819.541286 
L -337.996076 818.010239 
L -335.897213 816.88687 
L -333.799604 816.341844 
L -331.759779 815.51473 
L -329.715093 814.818139 
L -327.582385 813.817305 
L -325.46758 812.245318 
L -323.376257 811.439361 
L -321.300787 810.502361 
L -319.202354 809.795465 
L -317.158077 808.678284 
L -315.117049 808.067862 
L -313.069758 807.17847 
L -311.01724 805.190666 
L -308.951084 804.530077 
L -306.867986 803.433577 
L -304.727749 802.230085 
L -302.637753 801.445686 
L -300.577516 800.44253 
L -298.52013 799.371608 
L -296.415149 798.853139 
L -294.357598 797.315361 
L -292.302023 796.882758 
L -290.238831 795.812963 
L -288.167661 794.90845 
L -286.096136 793.837215 
L -284.02539 792.776004 
L -281.888866 791.505955 
L -279.86994 790.383523 
L -277.780133 789.758253 
L -275.663297 788.845433 
L -273.58395 787.704733 
L -271.522259 786.491653 
L -269.37589 785.591679 
L -267.338559 784.13026 
L -265.246441 783.476059 
L -263.122982 782.414921 
L -261.112467 781.779777 
L -259.023351 780.240659 
L -256.932996 779.2153 
L -254.866479 778.217054 
L -252.801664 777.412332 
L -250.737948 776.25679 
L -248.706225 775.203911 
L -246.669013 774.536499 
L -244.587691 773.4954 
L -242.45794 772.858911 
L -240.344233 771.725807 
L -238.302868 770.802351 
L -236.220219 769.761876 
L -234.118243 768.574446 
L -231.991969 767.244101 
L -229.983849 765.900123 
L -227.92745 765.621262 
L -225.853009 764.783177 
L -223.724087 763.821863 
L -221.629742 762.792574 
L -219.581772 762.752556 
L -217.522612 760.878225 
L -215.451188 759.994685 
L -213.363192 759.083463 
L -211.276285 757.953441 
L -209.222504 757.374658 
L -207.136756 755.962902 
L -205.066864 755.612081 
L -203.025774 754.591175 
L -200.945529 752.914325 
L -198.89429 752.506794 
L -196.816333 751.533452 
L -194.74863 750.186168 
L -192.64101 748.908862 
L -190.580223 748.478633 
L -188.470534 747.603352 
L -186.365491 746.23865 
L -184.310334 745.71687 
L -182.241346 745.002871 
L -180.175293 744.331301 
L -178.066256 742.783675 
L -176.005723 742.094122 
L -173.848451 741.194504 
L -171.740859 740.180779 
L -169.669333 739.141141 
L -167.599603 737.817611 
L -165.555242 737.197166 
L -163.483103 736.444206 
L -161.39921 735.146799 
L -159.348334 734.6356 
L -157.281506 733.542847 
L -155.233579 732.526204 
L -153.144917 731.002196 
L -151.089312 730.099198 
L -148.992979 729.622967 
L -146.874407 728.315245 
L -144.82617 727.449694 
L -142.793776 726.336735 
L -140.745117 725.759576 
L -138.649793 724.543157 
L -136.592409 723.721337 
L -134.489727 722.710785 
L -132.396625 721.373023 
L -130.295774 720.663768 
L -128.240634 719.295261 
L -126.171686 717.853109 
L -124.075607 717.218392 
L -121.914488 716.712479 
L -119.825908 715.063925 
L -117.74051 713.99426 
L -115.669718 713.589658 
L -113.57675 712.590526 
L -111.497419 711.365549 
L -109.441999 710.1931 
L -107.399 709.237568 
L -105.283717 707.942096 
L -103.234343 707.104493 
L -101.090032 705.803716 
L -99.036027 704.522777 
L -96.952961 703.968044 
L -94.845954 703.140759 
L -92.740877 701.947747 
L -90.610509 700.985271 
L -88.503625 699.761834 
L -86.3728 699.051214 
L -84.29316 698.339532 
L -82.182981 696.878305 
L -80.121945 696.096709 
L -78.041021 694.856423 
L -75.971888 693.954482 
L -73.888436 693.149944 
L -71.762173 691.976055 
L -69.637277 691.373181 
L -67.539012 690.420293 
L -65.426962 689.639177 
L -63.346146 688.178987 
L -61.212537 687.292754 
L -59.116937 686.027563 
L -56.993573 685.879028 
L -54.883787 684.110001 
L -52.774592 683.648496 
L -50.739047 682.800369 
L -48.677995 681.364529 
L -46.582061 680.903919 
L -44.494251 679.504521 
L -42.377791 678.220605 
L -40.235776 677.472869 
L -38.109068 676.161414 
L -36.042271 675.037336 
L -34.033035 674.064456 
L -32.010216 673.36801 
L -29.907535 672.024996 
L -27.802296 671.336925 
L -25.699019 670.236978 
L -23.558979 668.877832 
L -21.508212 668.559104 
L -19.354281 667.515904 
L -17.187219 666.620038 
L -15.114114 665.738383 
L -12.970823 664.36804 
L -10.880992 663.044408 
L -8.770386 662.427526 
L -6.649105 661.395557 
L -4.524183 660.617854 
L -2.400906 659.088939 
L -0.251756 658.609373 
L 1.812257 657.848897 
L 3.916426 656.861548 
L 6.022419 655.566142 
L 8.097091 654.910223 
L 10.191493 654.070634 
L 12.299851 652.960106 
L 14.364194 651.656151 
L 16.444784 650.575886 
L 18.509367 649.494611 
L 20.533025 648.644525 
L 22.641608 648.157134 
L 24.794653 646.271602 
L 26.891476 645.718712 
L 28.982924 644.189372 
L 31.068074 643.616576 
L 33.175355 641.908779 
L 35.277104 641.640548 
L 37.380309 640.008145 
L 39.507123 639.68154 
L 41.625848 638.387672 
L 43.692557 637.276274 
L 45.816948 636.281011 
L 47.89736 635.51604 
L 50.040242 634.42493 
L 52.167709 632.910344 
L 54.321711 632.384393 
L 56.426492 631.262865 
L 58.588855 629.999231 
L 60.711212 629.268532 
L 62.791455 628.959007 
L 64.917628 627.640987 
L 67.027406 627.859565 
L 69.059726 626.257426 
L 71.127145 625.412343 
L 73.246937 623.947976 
L 75.376804 623.308387 
L 77.475559 622.35047 
L 79.612378 621.054966 
L 81.675274 619.921121 
L 83.767294 618.450432 
L 85.837075 618.135098 
L 87.968181 617.132149 
L 90.141689 616.290846 
L 92.266751 615.177856 
L 94.313374 614.494163 
L 96.424871 613.118639 
L 98.57079 612.203388 
L 100.684984 611.216532 
L 102.783981 610.075737 
L 104.87 609.003828 
L 106.91653 608.211755 
L 109.07559 606.910365 
L 111.240062 606.108239 
L 113.339215 605.117876 
L 115.443285 604.175206 
L 117.516428 603.728491 
L 119.634232 602.190616 
L 121.756255 601.514436 
L 123.829217 600.981353 
L 125.982981 599.245231 
L 128.106975 597.933476 
L 130.19209 596.843134 
L 132.263173 596.803526 
L 134.381406 595.75656 
L 136.460127 594.516295 
L 138.55695 593.420477 
L 140.629351 592.335123 
L 142.694581 591.54896 
L 144.803842 590.167203 
L 146.88298 589.388418 
L 149.02349 588.318727 
L 151.109352 587.478249 
L 153.172099 586.143819 
L 155.194583 585.162304 
L 157.268565 584.104418 
L 159.361567 583.650365 
L 161.497952 582.422976 
L 163.539 581.35153 
L 165.644821 581.021236 
L 167.74616 579.574309 
L 169.887823 578.463591 
L 171.97207 577.48613 
L 174.07751 576.48424 
L 176.181278 575.199473 
L 178.299955 574.430864 
L 180.407958 573.621797 
L 182.564153 572.04991 
L 184.688804 571.704477 
L 186.829662 570.379296 
L 189.011752 569.411202 
L 191.177265 568.853622 
L 193.274874 567.579799 
L 195.400493 566.586964 
L 197.434378 565.726196 
L 199.546023 564.701371 
L 201.65717 563.429259 
L 203.734532 562.618393 
L 205.819249 561.892297 
L 207.956181 560.450417 
L 210.018982 559.963744 
L 212.174337 558.540842 
L 214.236715 557.598441 
L 216.358016 556.728386 
L 218.426908 556.138735 
L 220.554046 555.133462 
L 222.626336 554.173964 
L 224.699769 553.063656 
L 226.81474 551.909594 
L 228.910884 551.134673 
L 230.987911 550.011022 
L 233.061262 549.081228 
L 235.174483 548.219479 
L 237.266074 546.713192 
L 239.407236 546.521375 
L 241.499352 544.712388 
L 243.619436 543.872777 
L 245.706947 542.758843 
L 247.804946 541.902339 
L 249.937545 540.866915 
L 252.043598 540.493147 
L 254.168218 539.301306 
L 256.290778 537.496035 
L 258.430964 536.993589 
L 260.572325 535.728209 
L 262.642676 535.366482 
L 264.760206 534.107847 
L 266.820124 533.698265 
L 268.903654 532.051299 
L 271.030918 531.042631 
L 273.125244 530.071451 
L 275.294924 529.111692 
L 277.449317 527.862638 
L 279.690478 527.685787 
L 281.861792 525.9586 
L 284.016343 525.61985 
L 286.162996 524.347245 
L 288.310152 523.362036 
L 290.441889 522.122619 
L 292.632868 520.944148 
L 294.811153 519.662986 
L 296.911627 519.286551 
L 299.061042 518.060763 
L 301.219163 517.159267 
L 303.319848 515.721223 
L 305.468394 515.35959 
L 307.549709 514.226335 
L 309.67564 512.787904 
L 311.751955 511.84099 
L 313.858399 510.802759 
L 315.944491 510.661161 
L 318.008877 508.74648 
L 320.135872 508.390837 
L 322.229453 506.702829 
L 324.331439 505.669732 
L 326.395291 504.339887 
L 328.460799 503.869339 
L 330.560566 502.898898 
L 332.611001 501.828916 
L 334.647622 500.516322 
L 336.634411 498.835885 
L 338.611746 498.687026 
L 340.577214 497.289661 
L 342.569065 496.111477 
L 344.450552 494.862998 
L 346.362467 494.054307 
L 348.239361 492.679969 
L 350.04726 492.774155 
L 351.877791 491.165336 
L 353.667786 490.59341 
L 355.435427 489.695146 
L 357.135582 488.878918 
L 358.917825 487.645712 
L 360.586803 487.090194 
L 362.260532 485.874978 
L 363.935072 485.049706 
L 365.574436 483.893093 
L 367.215926 483.025482 
L 368.821711 482.457694 
L 370.318906 481.705688 
L 371.887739 480.181423 
L 373.375908 479.292152 
L 374.931898 478.972068 
L 376.442957 477.471002 
L 377.952579 477.132956 
L 379.438511 476.393381 
L 380.888398 475.593642 
L 382.396599 474.567488 
L 383.948848 473.934388 
L 385.490809 473.249235 
L 387.02251 472.471391 
L 388.508605 471.369119 
L 389.975777 470.545674 
L 391.446366 470.330796 
L 392.946359 469.362313 
L 394.464175 468.966699 
L 396.029522 467.894321 
L 397.594837 466.664777 
L 399.168192 466.192352 
L 400.793054 465.283847 
L 402.394856 464.766063 
L 404.048463 464.110019 
L 405.727807 462.48324 
L 407.406143 462.308039 
L 409.132964 461.70798 
L 410.878115 460.799009 
L 412.659041 459.91787 
L 414.423418 458.699891 
L 416.242589 457.761496 
L 418.072317 456.618499 
L 419.873195 456.315938 
L 421.679798 455.136619 
L 423.581982 455.018509 
L 425.392969 453.460068 
L 427.248453 452.019752 
L 429.085473 450.938068 
L 430.955729 450.466429 
L 432.835307 449.470067 
L 434.713395 448.789705 
L 436.580348 447.750401 
L 438.528321 447.043957 
L 440.414228 446.423193 
L 442.362937 445.507421 
L 444.360791 443.974708 
L 446.306885 443.924255 
L 448.243792 441.761159 
L 450.180259 441.054177 
L 452.133542 440.44839 
L 454.033589 439.686482 
L 455.977642 438.759836 
L 457.959377 437.637783 
L 459.966066 436.489945 
L 461.900539 435.426818 
L 463.875001 434.629276 
L 465.847317 433.849872 
L 467.80058 433.401123 
L 469.781026 432.039602 
L 471.800957 431.223597 
L 473.81804 430.016573 
L 475.840166 429.301886 
L 477.816078 428.496935 
L 479.761938 427.493566 
L 481.734146 426.271768 
L 483.649182 425.503624 
L 485.59243 424.689438 
L 487.494706 423.570358 
L 489.361816 423.205132 
L 491.313753 422.105178 
L 493.274995 420.810931 
L 495.206584 420.477465 
L 497.201442 418.784411 
L 499.158285 418.242692 
L 501.088331 417.16937 
L 503.016121 416.163951 
L 504.940143 415.588859 
L 506.896875 414.965227 
L 508.840534 413.503982 
L 510.838749 413.46212 
L 512.717124 412.146896 
L 514.647968 411.799754 
L 516.53908 410.37409 
L 518.419653 409.692849 
L 520.353668 409.045976 
L 522.220883 408.187451 
L 524.058465 407.236422 
L 526.016267 406.534614 
L 527.961811 405.427029 
L 529.910058 404.674484 
L 531.862457 403.345853 
L 533.715354 403.074878 
L 535.586722 402.49437 
L 537.515695 401.33129 
L 539.415501 400.185186 
L 541.29263 399.446439 
L 543.187057 398.796854 
L 545.099944 397.525905 
L 546.914184 396.522746 
L 548.789341 395.819731 
L 550.660187 394.850191 
L 552.511835 394.53826 
L 554.446415 393.249156 
L 556.306992 392.196626 
L 558.144666 391.883914 
L 560.067531 390.754481 
L 561.957785 389.611768 
L 563.756205 388.569902 
L 565.6174 386.665777 
L 567.478317 386.694601 
L 569.292862 385.612375 
L 571.187916 385.392881 
L 573.050563 384.039204 
L 574.893028 383.089039 
L 576.787731 382.337753 
L 578.691122 382.611507 
L 580.549479 380.564098 
L 582.369168 379.753095 
L 584.230488 378.764935 
L 586.04253 378.022917 
L 587.834871 377.096958 
L 589.712423 376.593205 
L 591.55248 375.380629 
L 593.442567 374.240167 
L 595.313802 374.022765 
L 597.219688 373.000148 
L 599.041116 371.513182 
L 600.842262 371.177882 
L 602.691467 370.312276 
L 604.468732 369.068266 
L 606.273413 368.624869 
L 608.125665 367.296642 
L 609.957857 366.514002 
L 611.737806 365.849713 
L 613.624897 365.191972 
L 615.426732 364.719554 
L 617.226116 363.336816 
L 618.999937 362.13486 
L 620.808495 361.776139 
L 622.644176 360.424172 
L 624.461616 359.601685 
L 626.261952 359.239802 
L 628.081539 358.023757 
L 629.884616 356.604605 
L 631.71281 356.533728 
L 633.4813 355.310075 
L 635.28514 354.496609 
L 637.116336 353.563751 
L 638.936032 352.617671 
L 640.733769 351.902828 
L 642.556801 351.184449 
L 644.387638 350.592629 
L 646.235993 349.859698 
L 647.981508 348.263131 
L 649.782336 347.338536 
L 651.546371 346.808102 
L 653.331638 345.53225 
L 655.112585 345.571145 
L 656.868707 345.033024 
L 658.693617 343.263283 
L 660.442307 342.436229 
L 662.264004 342.087696 
L 664.094555 340.895038 
L 665.875837 340.654489 
L 667.599201 340.22198 
L 669.364178 338.420586 
L 671.136941 338.189366 
L 672.909692 336.930782 
L 674.668255 335.768284 
L 676.440583 334.881062 
L 678.249312 334.341062 
L 680.062185 333.092035 
L 681.878257 332.478978 
L 683.617306 332.000707 
L 685.337356 331.247251 
L 687.119932 329.719159 
L 688.877323 329.560917 
L 690.692263 328.59817 
L 692.44521 327.548178 
L 694.263951 326.475744 
L 696.02437 326.096148 
L 697.729044 325.586866 
L 699.48446 324.684991 
L 701.256453 323.324971 
L 702.992628 322.538122 
L 704.657052 322.236613 
L 706.393278 321.222194 
L 708.203788 320.732986 
L 709.963213 319.570888 
L 711.732451 319.297488 
L 713.463689 318.355316 
L 715.17951 317.325967 
L 716.927321 316.687167 
L 718.631473 316.059888 
L 720.338662 314.850196 
L 722.093177 314.206835 
L 723.797463 313.342433 
L 725.50788 312.42286 
L 727.180843 311.590538 
L 728.921716 310.68328 
L 730.647429 310.385757 
L 732.34198 309.141343 
L 734.068893 308.661134 
L 735.748851 307.029654 
L 737.445382 306.646858 
L 739.171548 305.843674 
L 740.860111 304.81431 
L 742.60502 304.933591 
L 744.356343 303.447681 
L 745.998082 302.819647 
L 747.756841 302.173732 
L 749.377998 301.829296 
L 751.124075 300.959305 
L 752.784761 299.749619 
L 754.496571 299.430247 
L 756.214308 299.162346 
L 757.844464 298.492786 
L 759.517274 296.698736 
L 761.184716 296.690859 
L 762.826654 294.951204 
L 764.483273 294.543336 
L 766.157673 293.89413 
L 766.157673 284.998009 
L 766.157673 284.998009 
L 764.483273 285.671188 
L 762.826654 286.523085 
L 761.184716 286.015755 
L 759.517274 287.971249 
L 757.844464 287.502528 
L 756.214308 288.451727 
L 754.496571 289.957032 
L 752.784761 291.055995 
L 751.124075 290.917691 
L 749.377998 291.784346 
L 747.756841 292.741759 
L 745.998082 293.61846 
L 744.356343 294.339007 
L 742.60502 294.245245 
L 740.860111 295.979311 
L 739.171548 296.198924 
L 737.445382 296.953584 
L 735.748851 298.142395 
L 734.068893 297.712126 
L 732.34198 299.271838 
L 730.647429 299.559077 
L 728.921716 301.208767 
L 727.180843 301.778989 
L 725.50788 302.427119 
L 723.797463 303.251339 
L 722.093177 303.918566 
L 720.338662 304.92185 
L 718.631473 305.200248 
L 716.927321 306.325738 
L 715.17951 307.400652 
L 713.463689 307.896802 
L 711.732451 308.666372 
L 709.963213 310.154189 
L 708.203788 310.450728 
L 706.393278 311.650024 
L 704.657052 311.964959 
L 702.992628 313.21411 
L 701.256453 313.889132 
L 699.48446 314.047231 
L 697.729044 315.072274 
L 696.02437 316.202913 
L 694.263951 317.520669 
L 692.44521 317.843319 
L 690.692263 318.298302 
L 688.877323 319.112414 
L 687.119932 320.837536 
L 685.337356 320.681277 
L 683.617306 321.706499 
L 681.878257 322.7578 
L 680.062185 323.772033 
L 678.249312 324.033693 
L 676.440583 325.231665 
L 674.668255 325.925539 
L 672.909692 326.172548 
L 671.136941 326.722373 
L 669.364178 328.554495 
L 667.599201 328.450368 
L 665.875837 329.935991 
L 664.094555 331.173358 
L 662.264004 331.515293 
L 660.442307 333.119877 
L 658.693617 333.804165 
L 656.868707 333.592266 
L 655.112585 335.057428 
L 653.331638 336.770099 
L 651.546371 336.653875 
L 649.782336 337.605917 
L 647.981508 338.331683 
L 646.235993 338.455687 
L 644.387638 339.745627 
L 642.556801 341.005081 
L 640.733769 341.778338 
L 638.936032 342.818361 
L 637.116336 343.546381 
L 635.28514 344.310875 
L 633.4813 345.048759 
L 631.71281 345.661967 
L 629.884616 347.422043 
L 628.081539 347.467729 
L 626.261952 348.164426 
L 624.461616 349.706201 
L 622.644176 350.571929 
L 620.808495 350.774859 
L 618.999937 352.276249 
L 617.226116 352.727196 
L 615.426732 352.983547 
L 613.624897 354.801972 
L 611.737806 356.027004 
L 609.957857 356.949222 
L 608.125665 357.698914 
L 606.273413 357.975033 
L 604.468732 359.204581 
L 602.691467 359.61142 
L 600.842262 360.745434 
L 599.041116 362.182956 
L 597.219688 362.127025 
L 595.313802 362.991201 
L 593.442567 364.535014 
L 591.55248 364.850553 
L 589.712423 365.451585 
L 587.834871 367.101756 
L 586.04253 367.773943 
L 584.230488 368.799031 
L 582.369168 369.386889 
L 580.549479 370.170067 
L 578.691122 369.958697 
L 576.787731 372.385995 
L 574.893028 373.302878 
L 573.050563 373.938612 
L 571.187916 374.199931 
L 569.292862 375.973855 
L 567.478317 376.201116 
L 565.6174 378.087087 
L 563.756205 377.461766 
L 561.957785 378.080987 
L 560.067531 379.147157 
L 558.144666 380.356766 
L 556.306992 381.824866 
L 554.446415 382.620311 
L 552.511835 383.141871 
L 550.660187 385.038823 
L 548.789341 385.554439 
L 546.914184 386.688284 
L 545.099944 387.214969 
L 543.187057 387.696043 
L 541.29263 389.080179 
L 539.415501 389.958055 
L 537.515695 390.615264 
L 535.586722 391.35841 
L 533.715354 392.445335 
L 531.862457 393.76692 
L 529.910058 393.956707 
L 527.961811 395.08163 
L 526.016267 395.830018 
L 524.058465 397.12783 
L 522.220883 397.938476 
L 520.353668 398.57752 
L 518.419653 399.697748 
L 516.53908 400.413918 
L 514.647968 400.598148 
L 512.717124 402.029547 
L 510.838749 402.38222 
L 508.840534 404.42679 
L 506.896875 404.290584 
L 504.940143 405.62007 
L 503.016121 406.608326 
L 501.088331 407.149919 
L 499.158285 407.750697 
L 497.201442 409.106095 
L 495.206584 408.991175 
L 493.274995 410.935716 
L 491.313753 411.338822 
L 489.361816 412.260148 
L 487.494706 413.661588 
L 485.59243 414.088245 
L 483.649182 415.11091 
L 481.734146 415.797975 
L 479.761938 416.197879 
L 477.816078 417.308179 
L 475.840166 418.451179 
L 473.81804 419.643059 
L 471.800957 420.236569 
L 469.781026 421.41973 
L 467.80058 422.000657 
L 465.847317 423.544952 
L 463.875001 424.555907 
L 461.900539 425.525471 
L 459.966066 426.011347 
L 457.959377 426.770124 
L 455.977642 427.594907 
L 454.033589 428.776012 
L 452.133542 429.912456 
L 450.180259 431.050346 
L 448.243792 432.087196 
L 446.306885 431.551698 
L 444.360791 433.582452 
L 442.362937 433.933102 
L 440.414228 435.229679 
L 438.528321 436.436091 
L 436.580348 437.543257 
L 434.713395 437.850594 
L 432.835307 438.950889 
L 430.955729 439.808438 
L 429.085473 441.127156 
L 427.248453 441.445111 
L 425.392969 441.957913 
L 423.581982 442.40438 
L 421.679798 444.858719 
L 419.873195 445.35055 
L 418.072317 446.954603 
L 416.242589 447.439205 
L 414.423418 448.182801 
L 412.659041 448.628856 
L 410.878115 449.677583 
L 409.132964 450.545049 
L 407.406143 451.679998 
L 405.727807 453.213155 
L 404.048463 452.934958 
L 402.394856 454.315399 
L 400.793054 455.494967 
L 399.168192 456.21903 
L 397.594837 457.417759 
L 396.029522 457.673623 
L 394.464175 458.256313 
L 392.946359 459.651056 
L 391.446366 460.132678 
L 389.975777 461.582583 
L 388.508605 462.05532 
L 387.02251 462.4216 
L 385.490809 463.195558 
L 383.948848 464.277512 
L 382.396599 465.27201 
L 380.888398 465.678549 
L 379.438511 466.503443 
L 377.952579 467.13276 
L 376.442957 468.439662 
L 374.931898 468.141778 
L 373.375908 469.771671 
L 371.887739 470.323717 
L 370.318906 470.449344 
L 368.821711 471.383577 
L 367.215926 472.811922 
L 365.574436 473.755201 
L 363.935072 474.365694 
L 362.260532 475.49537 
L 360.586803 476.163518 
L 358.917825 477.540061 
L 357.135582 478.041596 
L 355.435427 478.922719 
L 353.667786 479.884152 
L 351.877791 481.229848 
L 350.04726 481.341632 
L 348.239361 483.455728 
L 346.362467 483.522977 
L 344.450552 484.425184 
L 342.569065 484.916439 
L 340.577214 485.874437 
L 338.611746 486.635628 
L 336.634411 488.893438 
L 334.647622 488.856538 
L 332.611001 489.729436 
L 330.560566 490.821002 
L 328.460799 492.219261 
L 326.395291 494.04764 
L 324.331439 494.505204 
L 322.229453 495.515285 
L 320.135872 495.965895 
L 318.008877 497.906233 
L 315.944491 497.669882 
L 313.858399 499.846461 
L 311.751955 500.900856 
L 309.67564 501.906671 
L 307.549709 502.384577 
L 305.468394 503.501567 
L 303.319848 505.075075 
L 301.219163 505.6134 
L 299.061042 506.766544 
L 296.911627 507.746631 
L 294.811153 509.48607 
L 292.632868 509.945817 
L 290.441889 510.572118 
L 288.310152 511.63459 
L 286.162996 513.021024 
L 284.016343 513.818555 
L 281.861792 515.789156 
L 279.690478 515.805558 
L 277.449317 518.043908 
L 275.294924 518.419507 
L 273.125244 519.296145 
L 271.030918 520.217297 
L 268.903654 521.067083 
L 266.820124 521.442989 
L 264.760206 523.246502 
L 262.642676 523.789958 
L 260.572325 525.505968 
L 258.430964 525.9553 
L 256.290778 527.263498 
L 254.168218 527.270054 
L 252.043598 528.217341 
L 249.937545 530.470444 
L 247.804946 531.318384 
L 245.706947 532.414996 
L 243.619436 533.088356 
L 241.499352 534.076018 
L 239.407236 534.18776 
L 237.266074 536.288995 
L 235.174483 536.613365 
L 233.061262 537.998194 
L 230.987911 539.134834 
L 228.910884 539.871295 
L 226.81474 541.013394 
L 224.699769 541.553737 
L 222.626336 542.500739 
L 220.554046 543.493739 
L 218.426908 544.571967 
L 216.358016 545.828255 
L 214.236715 546.978127 
L 212.174337 547.730131 
L 210.018982 548.268406 
L 207.956181 549.593807 
L 205.819249 550.067508 
L 203.734532 551.683927 
L 201.65717 552.779197 
L 199.546023 553.481671 
L 197.434378 554.433461 
L 195.400493 555.659571 
L 193.274874 556.643018 
L 191.177265 557.338678 
L 189.011752 558.914341 
L 186.829662 559.803393 
L 184.688804 560.387879 
L 182.564153 562.239083 
L 180.407958 562.341297 
L 178.299955 563.56863 
L 176.181278 564.788946 
L 174.07751 565.382228 
L 171.97207 566.394126 
L 169.887823 567.430422 
L 167.74616 568.435581 
L 165.644821 568.892333 
L 163.539 570.879219 
L 161.497952 571.413015 
L 159.361567 572.30148 
L 157.268565 573.800275 
L 155.194583 574.47449 
L 153.172099 575.213955 
L 151.109352 575.731246 
L 149.02349 577.110436 
L 146.88298 578.176446 
L 144.803842 579.57715 
L 142.694581 580.145896 
L 140.629351 581.422573 
L 138.55695 582.352473 
L 136.460127 583.276583 
L 134.381406 583.890536 
L 132.263173 584.996486 
L 130.19209 587.351772 
L 128.106975 587.673475 
L 125.982981 588.175329 
L 123.829217 588.537249 
L 121.756255 590.4688 
L 119.634232 591.801676 
L 117.516428 591.984404 
L 115.443285 593.594042 
L 113.339215 594.381256 
L 111.240062 595.197379 
L 109.07559 596.325119 
L 106.91653 596.848173 
L 104.87 598.036172 
L 102.783981 598.819243 
L 100.684984 599.70132 
L 98.57079 600.954641 
L 96.424871 602.248272 
L 94.313374 602.844936 
L 92.266751 604.1634 
L 90.141689 604.86402 
L 87.968181 606.083229 
L 85.837075 607.196157 
L 83.767294 608.590569 
L 81.675274 608.79398 
L 79.612378 609.822515 
L 77.475559 610.696271 
L 75.376804 611.658655 
L 73.246937 613.109965 
L 71.127145 613.642274 
L 69.059726 614.926992 
L 67.027406 615.248658 
L 64.917628 617.882418 
L 62.791455 618.116342 
L 60.711212 619.80348 
L 58.588855 620.630625 
L 56.426492 620.818325 
L 54.321711 621.490762 
L 52.167709 623.033229 
L 50.040242 623.099737 
L 47.89736 624.069165 
L 45.816948 625.523031 
L 43.692557 626.512172 
L 41.625848 627.191032 
L 39.507123 628.082796 
L 37.380309 629.918352 
L 35.277104 630.02681 
L 33.175355 631.798826 
L 31.068074 631.846919 
L 28.982924 633.475081 
L 26.891476 633.895556 
L 24.794653 635.621303 
L 22.641608 635.71214 
L 20.533025 637.755723 
L 18.509367 638.681975 
L 16.444784 639.41869 
L 14.364194 640.421438 
L 12.299851 641.098802 
L 10.191493 642.427511 
L 8.097091 643.591444 
L 6.022419 645.074653 
L 3.916426 645.605984 
L 1.812257 646.778081 
L -0.251756 648.116011 
L -2.400906 649.530587 
L -4.524183 649.574991 
L -6.649105 650.796907 
L -8.770386 651.718056 
L -10.880992 653.007789 
L -12.970823 653.288503 
L -15.114114 653.938076 
L -17.187219 655.236165 
L -19.354281 656.546234 
L -21.508212 657.496754 
L -23.558979 659.05028 
L -25.699019 659.266335 
L -27.802296 660.250618 
L -29.907535 661.648726 
L -32.010216 661.978748 
L -34.033035 663.15933 
L -36.042271 663.764114 
L -38.109068 664.766901 
L -40.235776 665.710832 
L -42.377791 667.379834 
L -44.494251 668.142039 
L -46.582061 668.85149 
L -48.677995 670.548511 
L -50.739047 671.078087 
L -52.774592 672.33261 
L -54.883787 673.960785 
L -56.993573 673.932667 
L -59.116937 676.123684 
L -61.212537 676.499447 
L -63.346146 677.584672 
L -65.426962 677.802882 
L -67.539012 679.463163 
L -69.637277 680.463391 
L -71.762173 681.751643 
L -73.888436 682.292476 
L -75.971888 683.487559 
L -78.041021 684.249416 
L -80.121945 684.813892 
L -82.182981 686.217927 
L -84.29316 686.733068 
L -86.3728 688.317076 
L -88.503625 689.55663 
L -90.610509 690.146802 
L -92.740877 691.228656 
L -94.845954 692.035264 
L -96.952961 693.065167 
L -99.036027 694.51045 
L -101.090032 694.851218 
L -103.234343 695.642848 
L -105.283717 696.849579 
L -107.399 697.592489 
L -109.441999 699.008599 
L -111.497419 699.79348 
L -113.57675 700.719187 
L -115.669718 701.91525 
L -117.74051 703.452433 
L -119.825908 704.213721 
L -121.914488 704.561847 
L -124.075607 706.493396 
L -126.171686 707.762353 
L -128.240634 708.001333 
L -130.295774 708.649804 
L -132.396625 710.195919 
L -134.489727 710.857778 
L -136.592409 711.978837 
L -138.649793 713.490078 
L -140.745117 714.375179 
L -142.793776 715.507801 
L -144.82617 716.052734 
L -146.874407 717.179692 
L -148.992979 718.031357 
L -151.089312 719.615446 
L -153.144917 720.426775 
L -155.233579 720.448827 
L -157.281506 721.670255 
L -159.348334 722.992707 
L -161.39921 724.492596 
L -163.483103 725.020573 
L -165.555242 726.259915 
L -167.599603 727.49315 
L -169.669333 727.985469 
L -171.740859 728.753552 
L -173.848451 729.664084 
L -176.005723 730.851201 
L -178.066256 732.231023 
L -180.175293 732.466631 
L -182.241346 733.916529 
L -184.310334 735.033603 
L -186.365491 736.123659 
L -188.470534 736.337069 
L -190.580223 737.616714 
L -192.64101 738.966593 
L -194.74863 739.40989 
L -196.816333 740.081449 
L -198.89429 741.078579 
L -200.945529 742.944378 
L -203.025774 742.791894 
L -205.066864 744.072876 
L -207.136756 745.804274 
L -209.222504 745.93182 
L -211.276285 747.333572 
L -213.363192 747.967726 
L -215.451188 749.192477 
L -217.522612 750.148669 
L -219.581772 750.157701 
L -221.629742 752.215072 
L -223.724087 753.047897 
L -225.853009 754.10758 
L -227.92745 755.077196 
L -229.983849 756.655504 
L -231.991969 756.582789 
L -234.118243 757.195392 
L -236.220219 758.081165 
L -238.302868 759.27282 
L -240.344233 760.638829 
L -242.45794 761.595404 
L -244.587691 763.005037 
L -246.669013 763.678285 
L -248.706225 764.672565 
L -250.737948 765.231741 
L -252.801664 766.140131 
L -254.866479 767.381532 
L -256.932996 768.37996 
L -259.023351 769.351256 
L -261.112467 769.880971 
L -263.122982 771.407989 
L -265.246441 772.252213 
L -267.338559 773.769101 
L -269.37589 774.124838 
L -271.522259 775.437927 
L -273.58395 776.309016 
L -275.663297 777.306944 
L -277.780133 778.434046 
L -279.86994 779.989633 
L -281.888866 780.750564 
L -284.02539 781.415588 
L -286.096136 782.171098 
L -288.167661 783.149807 
L -290.238831 784.312717 
L -292.302023 785.318453 
L -294.357598 786.99656 
L -296.415149 787.213966 
L -298.52013 788.962379 
L -300.577516 789.675894 
L -302.637753 790.695609 
L -304.727749 791.834008 
L -306.867986 792.513879 
L -308.951084 793.288947 
L -311.01724 794.616584 
L -313.069758 794.488892 
L -315.117049 796.154206 
L -317.158077 797.715659 
L -319.202354 798.441496 
L -321.300787 799.704395 
L -323.376257 800.778599 
L -325.46758 801.780039 
L -327.582385 802.114667 
L -329.715093 803.508726 
L -331.759779 804.726811 
L -333.799604 805.733611 
L -335.897213 807.134599 
L -337.996076 807.490181 
L -340.05161 807.889 
L -342.088138 809.301672 
L -344.139477 810.530643 
L -346.233548 811.102777 
L -348.331248 811.909481 
L -350.39927 813.051791 
L -352.528082 813.997742 
L -354.609213 815.169306 
L -356.684669 816.211155 
L -358.760304 817.024254 
L -360.876079 818.345298 
L -362.899017 819.021082 
L -364.954216 820.100019 
L -366.995234 821.474298 
L -368.96876 822.23103 
L -370.994948 822.670779 
L -373.064952 824.490394 
L -375.090256 825.63552 
L -377.130704 826.666611 
L -379.154409 826.375859 
L -381.21354 828.483281 
L -383.263612 828.459639 
L -385.177754 830.044544 
L -387.258244 831.37443 
L -389.339171 832.096521 
L -391.383033 832.655701 
L -393.393841 833.447486 
L -395.458696 834.639862 
L -397.464869 836.043609 
L -399.438684 836.483319 
L -401.521783 838.388334 
L -403.54536 839.245426 
L -405.553397 839.875415 
L -407.621441 841.093316 
L -409.631284 842.248142 
L -411.617137 842.658244 
L -413.619782 843.51235 
L -415.657405 844.699855 
z
" clip-path="url(#pc60c552779)" style="fill: #008080; fill-opacity: 0.25; stroke: #008080; stroke-opacity: 0.25"/>
   </g>
   <g id="PathCollection_1">
    <defs>
     <path id="mea1b6bee8b" d="M 0 3 
C 0.795609 3 1.55874 2.683901 2.12132 2.12132 
C 2.683901 1.55874 3 0.795609 3 0 
C 3 -0.795609 2.683901 -1.55874 2.12132 -2.12132 
C 1.55874 -2.683901 0.795609 -3 0 -3 
C -0.795609 -3 -1.55874 -2.683901 -2.12132 -2.12132 
C -2.683901 -1.55874 -3 -0.795609 -3 0 
C -3 0.795609 -2.683901 1.55874 -2.12132 2.12132 
C -1.55874 2.683901 -0.795609 3 0 3 
z
" style="stroke: #000000"/>
    </defs>
    <g clip-path="url(#pc60c552779)">
     <use xlink:href="#mea1b6bee8b" x="384.719828" y="472.642139" style="stroke: #000000"/>
    </g>
   </g>
   <g id="PathCollection_2">
    <g clip-path="url(#pc60c552779)">
     <use xlink:href="#mea1b6bee8b" x="384.719828" y="466.841028" style="stroke: #000000"/>
    </g>
   </g>
   <g id="matplotlib.axis_1">
    <g id="xtick_1">
     <g id="line2d_1">
      <defs>
       <path id="mad2b528a2f" d="M 0 0 
L 0 3.5 
" style="stroke: #000000; stroke-width: 3"/>
      </defs>
      <g>
       <use xlink:href="#mad2b528a2f" x="117.979596" y="603.52" style="stroke: #000000; stroke-width: 3"/>
      </g>
     </g>
     <g id="text_1">
      <!-- 1.5 -->
      <g transform="translate(90.149127 637.114531) scale(0.35 -0.35)">
       <defs>
        <path id="DejaVuSans-31" d="M 794 531 
L 1825 531 
L 1825 4091 
L 703 3866 
L 703 4441 
L 1819 4666 
L 2450 4666 
L 2450 531 
L 3481 531 
L 3481 0 
L 794 0 
L 794 531 
z
" transform="scale(0.015625)"/>
        <path id="DejaVuSans-2e" d="M 684 794 
L 1344 794 
L 1344 0 
L 684 0 
L 684 794 
z
" transform="scale(0.015625)"/>
        <path id="DejaVuSans-35" d="M 691 4666 
L 3169 4666 
L 3169 4134 
L 1269 4134 
L 1269 2991 
Q 1406 3038 1543 3061 
Q 1681 3084 1819 3084 
Q 2600 3084 3056 2656 
Q 3513 2228 3513 1497 
Q 3513 744 3044 326 
Q 2575 -91 1722 -91 
Q 1428 -91 1123 -41 
Q 819 9 494 109 
L 494 744 
Q 775 591 1075 516 
Q 1375 441 1709 441 
Q 2250 441 2565 725 
Q 2881 1009 2881 1497 
Q 2881 1984 2565 2268 
Q 2250 2553 1709 2553 
Q 1456 2553 1204 2497 
Q 953 2441 691 2322 
L 691 4666 
z
" transform="scale(0.015625)"/>
       </defs>
       <use xlink:href="#DejaVuSans-31"/>
       <use xlink:href="#DejaVuSans-2e" x="63.623047"/>
       <use xlink:href="#DejaVuSans-35" x="95.410156"/>
      </g>
     </g>
    </g>
    <g id="xtick_2">
     <g id="line2d_2">
      <g>
       <use xlink:href="#mad2b528a2f" x="296.519408" y="603.52" style="stroke: #000000; stroke-width: 3"/>
      </g>
     </g>
     <g id="text_2">
      <!-- 2.0 -->
      <g transform="translate(268.688939 637.114531) scale(0.35 -0.35)">
       <defs>
        <path id="DejaVuSans-32" d="M 1228 531 
L 3431 531 
L 3431 0 
L 469 0 
L 469 531 
Q 828 903 1448 1529 
Q 2069 2156 2228 2338 
Q 2531 2678 2651 2914 
Q 2772 3150 2772 3378 
Q 2772 3750 2511 3984 
Q 2250 4219 1831 4219 
Q 1534 4219 1204 4116 
Q 875 4013 500 3803 
L 500 4441 
Q 881 4594 1212 4672 
Q 1544 4750 1819 4750 
Q 2544 4750 2975 4387 
Q 3406 4025 3406 3419 
Q 3406 3131 3298 2873 
Q 3191 2616 2906 2266 
Q 2828 2175 2409 1742 
Q 1991 1309 1228 531 
z
" transform="scale(0.015625)"/>
        <path id="DejaVuSans-30" d="M 2034 4250 
Q 1547 4250 1301 3770 
Q 1056 3291 1056 2328 
Q 1056 1369 1301 889 
Q 1547 409 2034 409 
Q 2525 409 2770 889 
Q 3016 1369 3016 2328 
Q 3016 3291 2770 3770 
Q 2525 4250 2034 4250 
z
M 2034 4750 
Q 2819 4750 3233 4129 
Q 3647 3509 3647 2328 
Q 3647 1150 3233 529 
Q 2819 -91 2034 -91 
Q 1250 -91 836 529 
Q 422 1150 422 2328 
Q 422 3509 836 4129 
Q 1250 4750 2034 4750 
z
" transform="scale(0.015625)"/>
       </defs>
       <use xlink:href="#DejaVuSans-32"/>
       <use xlink:href="#DejaVuSans-2e" x="63.623047"/>
       <use xlink:href="#DejaVuSans-30" x="95.410156"/>
      </g>
     </g>
    </g>
    <g id="xtick_3">
     <g id="line2d_3">
      <g>
       <use xlink:href="#mad2b528a2f" x="475.059219" y="603.52" style="stroke: #000000; stroke-width: 3"/>
      </g>
     </g>
     <g id="text_3">
      <!-- 2.5 -->
      <g transform="translate(447.22875 637.114531) scale(0.35 -0.35)">
       <use xlink:href="#DejaVuSans-32"/>
       <use xlink:href="#DejaVuSans-2e" x="63.623047"/>
       <use xlink:href="#DejaVuSans-35" x="95.410156"/>
      </g>
     </g>
    </g>
    <g id="xtick_4">
     <g id="line2d_4">
      <g>
       <use xlink:href="#mad2b528a2f" x="653.599031" y="603.52" style="stroke: #000000; stroke-width: 3"/>
      </g>
     </g>
     <g id="text_4">
      <!-- 3.0 -->
      <g transform="translate(625.768562 637.114531) scale(0.35 -0.35)">
       <defs>
        <path id="DejaVuSans-33" d="M 2597 2516 
Q 3050 2419 3304 2112 
Q 3559 1806 3559 1356 
Q 3559 666 3084 287 
Q 2609 -91 1734 -91 
Q 1441 -91 1130 -33 
Q 819 25 488 141 
L 488 750 
Q 750 597 1062 519 
Q 1375 441 1716 441 
Q 2309 441 2620 675 
Q 2931 909 2931 1356 
Q 2931 1769 2642 2001 
Q 2353 2234 1838 2234 
L 1294 2234 
L 1294 2753 
L 1863 2753 
Q 2328 2753 2575 2939 
Q 2822 3125 2822 3475 
Q 2822 3834 2567 4026 
Q 2313 4219 1838 4219 
Q 1578 4219 1281 4162 
Q 984 4106 628 3988 
L 628 4550 
Q 988 4650 1302 4700 
Q 1616 4750 1894 4750 
Q 2613 4750 3031 4423 
Q 3450 4097 3450 3541 
Q 3450 3153 3228 2886 
Q 3006 2619 2597 2516 
z
" transform="scale(0.015625)"/>
       </defs>
       <use xlink:href="#DejaVuSans-33"/>
       <use xlink:href="#DejaVuSans-2e" x="63.623047"/>
       <use xlink:href="#DejaVuSans-30" x="95.410156"/>
      </g>
     </g>
    </g>
    <g id="text_5">
     <!-- Cumulative total (cts) -->
     <g transform="translate(202.191874 674.987969) scale(0.35 -0.35)">
      <defs>
       <path id="DejaVuSans-43" d="M 4122 4306 
L 4122 3641 
Q 3803 3938 3442 4084 
Q 3081 4231 2675 4231 
Q 1875 4231 1450 3742 
Q 1025 3253 1025 2328 
Q 1025 1406 1450 917 
Q 1875 428 2675 428 
Q 3081 428 3442 575 
Q 3803 722 4122 1019 
L 4122 359 
Q 3791 134 3420 21 
Q 3050 -91 2638 -91 
Q 1578 -91 968 557 
Q 359 1206 359 2328 
Q 359 3453 968 4101 
Q 1578 4750 2638 4750 
Q 3056 4750 3426 4639 
Q 3797 4528 4122 4306 
z
" transform="scale(0.015625)"/>
       <path id="DejaVuSans-75" d="M 544 1381 
L 544 3500 
L 1119 3500 
L 1119 1403 
Q 1119 906 1312 657 
Q 1506 409 1894 409 
Q 2359 409 2629 706 
Q 2900 1003 2900 1516 
L 2900 3500 
L 3475 3500 
L 3475 0 
L 2900 0 
L 2900 538 
Q 2691 219 2414 64 
Q 2138 -91 1772 -91 
Q 1169 -91 856 284 
Q 544 659 544 1381 
z
M 1991 3584 
L 1991 3584 
z
" transform="scale(0.015625)"/>
       <path id="DejaVuSans-6d" d="M 3328 2828 
Q 3544 3216 3844 3400 
Q 4144 3584 4550 3584 
Q 5097 3584 5394 3201 
Q 5691 2819 5691 2113 
L 5691 0 
L 5113 0 
L 5113 2094 
Q 5113 2597 4934 2840 
Q 4756 3084 4391 3084 
Q 3944 3084 3684 2787 
Q 3425 2491 3425 1978 
L 3425 0 
L 2847 0 
L 2847 2094 
Q 2847 2600 2669 2842 
Q 2491 3084 2119 3084 
Q 1678 3084 1418 2786 
Q 1159 2488 1159 1978 
L 1159 0 
L 581 0 
L 581 3500 
L 1159 3500 
L 1159 2956 
Q 1356 3278 1631 3431 
Q 1906 3584 2284 3584 
Q 2666 3584 2933 3390 
Q 3200 3197 3328 2828 
z
" transform="scale(0.015625)"/>
       <path id="DejaVuSans-6c" d="M 603 4863 
L 1178 4863 
L 1178 0 
L 603 0 
L 603 4863 
z
" transform="scale(0.015625)"/>
       <path id="DejaVuSans-61" d="M 2194 1759 
Q 1497 1759 1228 1600 
Q 959 1441 959 1056 
Q 959 750 1161 570 
Q 1363 391 1709 391 
Q 2188 391 2477 730 
Q 2766 1069 2766 1631 
L 2766 1759 
L 2194 1759 
z
M 3341 1997 
L 3341 0 
L 2766 0 
L 2766 531 
Q 2569 213 2275 61 
Q 1981 -91 1556 -91 
Q 1019 -91 701 211 
Q 384 513 384 1019 
Q 384 1609 779 1909 
Q 1175 2209 1959 2209 
L 2766 2209 
L 2766 2266 
Q 2766 2663 2505 2880 
Q 2244 3097 1772 3097 
Q 1472 3097 1187 3025 
Q 903 2953 641 2809 
L 641 3341 
Q 956 3463 1253 3523 
Q 1550 3584 1831 3584 
Q 2591 3584 2966 3190 
Q 3341 2797 3341 1997 
z
" transform="scale(0.015625)"/>
       <path id="DejaVuSans-74" d="M 1172 4494 
L 1172 3500 
L 2356 3500 
L 2356 3053 
L 1172 3053 
L 1172 1153 
Q 1172 725 1289 603 
Q 1406 481 1766 481 
L 2356 481 
L 2356 0 
L 1766 0 
Q 1100 0 847 248 
Q 594 497 594 1153 
L 594 3053 
L 172 3053 
L 172 3500 
L 594 3500 
L 594 4494 
L 1172 4494 
z
" transform="scale(0.015625)"/>
       <path id="DejaVuSans-69" d="M 603 3500 
L 1178 3500 
L 1178 0 
L 603 0 
L 603 3500 
z
M 603 4863 
L 1178 4863 
L 1178 4134 
L 603 4134 
L 603 4863 
z
" transform="scale(0.015625)"/>
       <path id="DejaVuSans-76" d="M 191 3500 
L 800 3500 
L 1894 563 
L 2988 3500 
L 3597 3500 
L 2284 0 
L 1503 0 
L 191 3500 
z
" transform="scale(0.015625)"/>
       <path id="DejaVuSans-65" d="M 3597 1894 
L 3597 1613 
L 953 1613 
Q 991 1019 1311 708 
Q 1631 397 2203 397 
Q 2534 397 2845 478 
Q 3156 559 3463 722 
L 3463 178 
Q 3153 47 2828 -22 
Q 2503 -91 2169 -91 
Q 1331 -91 842 396 
Q 353 884 353 1716 
Q 353 2575 817 3079 
Q 1281 3584 2069 3584 
Q 2775 3584 3186 3129 
Q 3597 2675 3597 1894 
z
M 3022 2063 
Q 3016 2534 2758 2815 
Q 2500 3097 2075 3097 
Q 1594 3097 1305 2825 
Q 1016 2553 972 2059 
L 3022 2063 
z
" transform="scale(0.015625)"/>
       <path id="DejaVuSans-20" transform="scale(0.015625)"/>
       <path id="DejaVuSans-6f" d="M 1959 3097 
Q 1497 3097 1228 2736 
Q 959 2375 959 1747 
Q 959 1119 1226 758 
Q 1494 397 1959 397 
Q 2419 397 2687 759 
Q 2956 1122 2956 1747 
Q 2956 2369 2687 2733 
Q 2419 3097 1959 3097 
z
M 1959 3584 
Q 2709 3584 3137 3096 
Q 3566 2609 3566 1747 
Q 3566 888 3137 398 
Q 2709 -91 1959 -91 
Q 1206 -91 779 398 
Q 353 888 353 1747 
Q 353 2609 779 3096 
Q 1206 3584 1959 3584 
z
" transform="scale(0.015625)"/>
       <path id="DejaVuSans-28" d="M 1984 4856 
Q 1566 4138 1362 3434 
Q 1159 2731 1159 2009 
Q 1159 1288 1364 580 
Q 1569 -128 1984 -844 
L 1484 -844 
Q 1016 -109 783 600 
Q 550 1309 550 2009 
Q 550 2706 781 3412 
Q 1013 4119 1484 4856 
L 1984 4856 
z
" transform="scale(0.015625)"/>
       <path id="DejaVuSans-63" d="M 3122 3366 
L 3122 2828 
Q 2878 2963 2633 3030 
Q 2388 3097 2138 3097 
Q 1578 3097 1268 2742 
Q 959 2388 959 1747 
Q 959 1106 1268 751 
Q 1578 397 2138 397 
Q 2388 397 2633 464 
Q 2878 531 3122 666 
L 3122 134 
Q 2881 22 2623 -34 
Q 2366 -91 2075 -91 
Q 1284 -91 818 406 
Q 353 903 353 1747 
Q 353 2603 823 3093 
Q 1294 3584 2113 3584 
Q 2378 3584 2631 3529 
Q 2884 3475 3122 3366 
z
" transform="scale(0.015625)"/>
       <path id="DejaVuSans-73" d="M 2834 3397 
L 2834 2853 
Q 2591 2978 2328 3040 
Q 2066 3103 1784 3103 
Q 1356 3103 1142 2972 
Q 928 2841 928 2578 
Q 928 2378 1081 2264 
Q 1234 2150 1697 2047 
L 1894 2003 
Q 2506 1872 2764 1633 
Q 3022 1394 3022 966 
Q 3022 478 2636 193 
Q 2250 -91 1575 -91 
Q 1294 -91 989 -36 
Q 684 19 347 128 
L 347 722 
Q 666 556 975 473 
Q 1284 391 1588 391 
Q 1994 391 2212 530 
Q 2431 669 2431 922 
Q 2431 1156 2273 1281 
Q 2116 1406 1581 1522 
L 1381 1569 
Q 847 1681 609 1914 
Q 372 2147 372 2553 
Q 372 3047 722 3315 
Q 1072 3584 1716 3584 
Q 2034 3584 2315 3537 
Q 2597 3491 2834 3397 
z
" transform="scale(0.015625)"/>
       <path id="DejaVuSans-29" d="M 513 4856 
L 1013 4856 
Q 1481 4119 1714 3412 
Q 1947 2706 1947 2009 
Q 1947 1309 1714 600 
Q 1481 -109 1013 -844 
L 513 -844 
Q 928 -128 1133 580 
Q 1338 1288 1338 2009 
Q 1338 2731 1133 3434 
Q 928 4138 513 4856 
z
" transform="scale(0.015625)"/>
      </defs>
      <use xlink:href="#DejaVuSans-43"/>
      <use xlink:href="#DejaVuSans-75" x="69.824219"/>
      <use xlink:href="#DejaVuSans-6d" x="133.203125"/>
      <use xlink:href="#DejaVuSans-75" x="230.615234"/>
      <use xlink:href="#DejaVuSans-6c" x="293.994141"/>
      <use xlink:href="#DejaVuSans-61" x="321.777344"/>
      <use xlink:href="#DejaVuSans-74" x="383.056641"/>
      <use xlink:href="#DejaVuSans-69" x="422.265625"/>
      <use xlink:href="#DejaVuSans-76" x="450.048828"/>
      <use xlink:href="#DejaVuSans-65" x="509.228516"/>
      <use xlink:href="#DejaVuSans-20" x="570.751953"/>
      <use xlink:href="#DejaVuSans-74" x="602.539062"/>
      <use xlink:href="#DejaVuSans-6f" x="641.748047"/>
      <use xlink:href="#DejaVuSans-74" x="702.929688"/>
      <use xlink:href="#DejaVuSans-61" x="742.138672"/>
      <use xlink:href="#DejaVuSans-6c" x="803.417969"/>
      <use xlink:href="#DejaVuSans-20" x="831.201172"/>
      <use xlink:href="#DejaVuSans-28" x="862.988281"/>
      <use xlink:href="#DejaVuSans-63" x="902.001953"/>
      <use xlink:href="#DejaVuSans-74" x="956.982422"/>
      <use xlink:href="#DejaVuSans-73" x="996.191406"/>
      <use xlink:href="#DejaVuSans-29" x="1048.291016"/>
     </g>
    </g>
    <g id="text_6">
     <!-- 1e6 -->
     <g transform="translate(613.988747 673.987969) scale(0.35 -0.35)">
      <defs>
       <path id="DejaVuSans-36" d="M 2113 2584 
Q 1688 2584 1439 2293 
Q 1191 2003 1191 1497 
Q 1191 994 1439 701 
Q 1688 409 2113 409 
Q 2538 409 2786 701 
Q 3034 994 3034 1497 
Q 3034 2003 2786 2293 
Q 2538 2584 2113 2584 
z
M 3366 4563 
L 3366 3988 
Q 3128 4100 2886 4159 
Q 2644 4219 2406 4219 
Q 1781 4219 1451 3797 
Q 1122 3375 1075 2522 
Q 1259 2794 1537 2939 
Q 1816 3084 2150 3084 
Q 2853 3084 3261 2657 
Q 3669 2231 3669 1497 
Q 3669 778 3244 343 
Q 2819 -91 2113 -91 
Q 1303 -91 875 529 
Q 447 1150 447 2328 
Q 447 3434 972 4092 
Q 1497 4750 2381 4750 
Q 2619 4750 2861 4703 
Q 3103 4656 3366 4563 
z
" transform="scale(0.015625)"/>
      </defs>
      <use xlink:href="#DejaVuSans-31"/>
      <use xlink:href="#DejaVuSans-65" x="63.623047"/>
      <use xlink:href="#DejaVuSans-36" x="125.146484"/>
     </g>
    </g>
   </g>
   <g id="matplotlib.axis_2">
    <g id="ytick_1">
     <g id="line2d_5">
      <defs>
       <path id="mca00ebdd95" d="M 0 0 
L -3.5 0 
" style="stroke: #000000; stroke-width: 3"/>
      </defs>
      <g>
       <use xlink:href="#mca00ebdd95" x="104.87" y="501.645128" style="stroke: #000000; stroke-width: 3"/>
      </g>
     </g>
     <g id="text_7">
      <!-- 3 -->
      <g transform="translate(75.60125 514.942393) scale(0.35 -0.35)">
       <use xlink:href="#DejaVuSans-33"/>
      </g>
     </g>
    </g>
    <g id="ytick_2">
     <g id="line2d_6">
      <g>
       <use xlink:href="#mca00ebdd95" x="104.87" y="385.388136" style="stroke: #000000; stroke-width: 3"/>
      </g>
     </g>
     <g id="text_8">
      <!-- 4 -->
      <g transform="translate(75.60125 398.685402) scale(0.35 -0.35)">
       <defs>
        <path id="DejaVuSans-34" d="M 2419 4116 
L 825 1625 
L 2419 1625 
L 2419 4116 
z
M 2253 4666 
L 3047 4666 
L 3047 1625 
L 3713 1625 
L 3713 1100 
L 3047 1100 
L 3047 0 
L 2419 0 
L 2419 1100 
L 313 1100 
L 313 1709 
L 2253 4666 
z
" transform="scale(0.015625)"/>
       </defs>
       <use xlink:href="#DejaVuSans-34"/>
      </g>
     </g>
    </g>
    <g id="ytick_3">
     <g id="line2d_7">
      <g>
       <use xlink:href="#mca00ebdd95" x="104.87" y="269.131145" style="stroke: #000000; stroke-width: 3"/>
      </g>
     </g>
     <g id="text_9">
      <!-- 5 -->
      <g transform="translate(75.60125 282.42841) scale(0.35 -0.35)">
       <use xlink:href="#DejaVuSans-35"/>
      </g>
     </g>
    </g>
    <g id="ytick_4">
     <g id="line2d_8">
      <g>
       <use xlink:href="#mca00ebdd95" x="104.87" y="152.874153" style="stroke: #000000; stroke-width: 3"/>
      </g>
     </g>
     <g id="text_10">
      <!-- 6 -->
      <g transform="translate(75.60125 166.171419) scale(0.35 -0.35)">
       <use xlink:href="#DejaVuSans-36"/>
      </g>
     </g>
    </g>
    <g id="text_11">
     <!-- Cumulative solute (cts) -->
     <g transform="translate(64.322344 539.144453) rotate(-90) scale(0.35 -0.35)">
      <use xlink:href="#DejaVuSans-43"/>
      <use xlink:href="#DejaVuSans-75" x="69.824219"/>
      <use xlink:href="#DejaVuSans-6d" x="133.203125"/>
      <use xlink:href="#DejaVuSans-75" x="230.615234"/>
      <use xlink:href="#DejaVuSans-6c" x="293.994141"/>
      <use xlink:href="#DejaVuSans-61" x="321.777344"/>
      <use xlink:href="#DejaVuSans-74" x="383.056641"/>
      <use xlink:href="#DejaVuSans-69" x="422.265625"/>
      <use xlink:href="#DejaVuSans-76" x="450.048828"/>
      <use xlink:href="#DejaVuSans-65" x="509.228516"/>
      <use xlink:href="#DejaVuSans-20" x="570.751953"/>
      <use xlink:href="#DejaVuSans-73" x="602.539062"/>
      <use xlink:href="#DejaVuSans-6f" x="654.638672"/>
      <use xlink:href="#DejaVuSans-6c" x="715.820312"/>
      <use xlink:href="#DejaVuSans-75" x="743.603516"/>
      <use xlink:href="#DejaVuSans-74" x="806.982422"/>
      <use xlink:href="#DejaVuSans-65" x="846.191406"/>
      <use xlink:href="#DejaVuSans-20" x="907.714844"/>
      <use xlink:href="#DejaVuSans-28" x="939.501953"/>
      <use xlink:href="#DejaVuSans-63" x="978.515625"/>
      <use xlink:href="#DejaVuSans-74" x="1033.496094"/>
      <use xlink:href="#DejaVuSans-73" x="1072.705078"/>
      <use xlink:href="#DejaVuSans-29" x="1124.804688"/>
     </g>
    </g>
    <g id="text_12">
     <!-- 1e4 -->
     <g transform="translate(104.87 64.44) scale(0.35 -0.35)">
      <use xlink:href="#DejaVuSans-31"/>
      <use xlink:href="#DejaVuSans-65" x="63.623047"/>
      <use xlink:href="#DejaVuSans-34" x="125.146484"/>
     </g>
    </g>
   </g>
   <g id="line2d_9">
    <path d="M -1 653.692423 
L -0.251756 653.362692 
L 3.916426 651.233766 
L 6.022419 650.320398 
L 16.444784 644.997288 
L 20.533025 643.200124 
L 22.641608 641.934637 
L 24.794653 640.946453 
L 26.891476 639.807134 
L 28.982924 638.832226 
L 31.068074 637.731748 
L 33.175355 636.853803 
L 35.277104 635.833679 
L 37.380309 634.963248 
L 41.625848 632.789352 
L 45.816948 630.902021 
L 50.040242 628.762334 
L 52.167709 627.971786 
L 56.426492 626.040595 
L 60.711212 624.536006 
L 62.791455 623.537674 
L 64.917628 622.761703 
L 67.027406 621.554112 
L 77.475559 616.52337 
L 81.675274 614.357551 
L 85.837075 612.665627 
L 90.141689 610.577433 
L 92.266751 609.670628 
L 106.91653 602.529964 
L 115.443285 598.884624 
L 117.516428 597.856448 
L 119.634232 596.996146 
L 121.756255 595.991618 
L 123.829217 594.759301 
L 125.982981 593.71028 
L 128.106975 592.803475 
L 130.19209 592.097453 
L 132.263173 590.900006 
L 134.381406 589.823548 
L 138.55695 587.886475 
L 149.02349 582.714582 
L 151.109352 581.604747 
L 163.539 576.115374 
L 165.644821 574.956785 
L 169.887823 572.947007 
L 180.407958 567.981547 
L 182.564153 567.144496 
L 184.688804 566.046178 
L 193.274874 562.111409 
L 203.734532 557.15116 
L 205.819249 555.979903 
L 222.626336 548.337351 
L 224.699769 547.308697 
L 228.910884 545.502984 
L 233.061262 543.539711 
L 235.174483 542.416422 
L 237.266074 541.501093 
L 239.407236 540.354568 
L 243.619436 538.480566 
L 249.937545 535.66868 
L 252.043598 534.355244 
L 254.168218 533.28568 
L 264.760206 528.677175 
L 268.903654 526.559191 
L 275.294924 523.7656 
L 277.449317 522.953273 
L 279.690478 521.745673 
L 281.861792 520.873878 
L 290.441889 516.347369 
L 294.811153 514.574528 
L 303.319848 510.398149 
L 305.468394 509.430579 
L 307.549709 508.305456 
L 311.751955 506.370923 
L 328.460799 498.0443 
L 332.611001 495.779176 
L 334.647622 494.68643 
L 336.634411 493.864661 
L 340.577214 491.582049 
L 342.569065 490.513958 
L 346.362467 488.788642 
L 348.239361 488.067849 
L 350.04726 487.057894 
L 353.667786 485.238781 
L 362.260532 480.685174 
L 370.318906 476.077516 
L 377.952579 472.132858 
L 379.438511 471.448412 
L 380.888398 470.636095 
L 383.948848 469.10595 
L 387.02251 467.446496 
L 392.946359 464.506684 
L 396.029522 462.783972 
L 399.168192 461.205691 
L 402.394856 459.540731 
L 404.048463 458.522488 
L 405.727807 457.848198 
L 416.242589 452.60035 
L 418.072317 451.786551 
L 421.679798 449.997669 
L 423.581982 448.711445 
L 427.248453 446.732432 
L 429.085473 446.032612 
L 434.713395 443.320149 
L 436.580348 442.646829 
L 440.414228 440.826436 
L 442.362937 439.720261 
L 444.360791 438.77858 
L 446.306885 437.737977 
L 452.133542 435.180423 
L 459.966066 431.250646 
L 463.875001 429.592591 
L 467.80058 427.70089 
L 479.761938 421.845723 
L 487.494706 418.615973 
L 493.274995 415.873324 
L 495.206584 414.73432 
L 497.201442 413.945253 
L 501.088331 412.159644 
L 504.940143 410.604464 
L 506.896875 409.627906 
L 508.840534 408.965386 
L 510.838749 407.92217 
L 516.53908 405.394004 
L 518.419653 404.695298 
L 527.961811 400.254329 
L 529.910058 399.315596 
L 533.715354 397.760107 
L 537.515695 395.973277 
L 548.789341 390.687085 
L 550.660187 389.944507 
L 552.511835 388.840066 
L 558.144666 386.12034 
L 561.957785 383.846378 
L 563.756205 383.015834 
L 565.6174 382.376432 
L 567.478317 381.447858 
L 569.292862 380.793115 
L 571.187916 379.796406 
L 576.787731 377.361874 
L 578.691122 376.285102 
L 582.369168 374.569992 
L 586.04253 372.89843 
L 587.834871 372.099357 
L 589.712423 371.022395 
L 591.55248 370.115591 
L 593.442567 369.387591 
L 609.957857 361.731612 
L 613.624897 359.996972 
L 615.426732 358.85155 
L 618.999937 357.205555 
L 620.808495 356.275499 
L 624.461616 354.653943 
L 628.081539 352.745743 
L 629.884616 352.013324 
L 635.28514 349.403742 
L 644.387638 345.169128 
L 647.981508 343.297407 
L 651.546371 341.730989 
L 653.331638 341.151174 
L 655.112585 340.314287 
L 656.868707 339.312645 
L 660.442307 337.778053 
L 662.264004 336.801494 
L 665.875837 335.29524 
L 667.599201 334.336174 
L 669.364178 333.48754 
L 672.909692 331.551665 
L 676.440583 330.056364 
L 680.062185 328.432034 
L 687.119932 325.278347 
L 690.692263 323.448236 
L 697.729044 320.32957 
L 699.48446 319.366111 
L 709.963213 314.862538 
L 718.631473 310.630068 
L 721 309.575684 
L 721 309.575684 
" clip-path="url(#pc60c552779)" style="fill: none; stroke: #008080; stroke-width: 4; stroke-linecap: square"/>
   </g>
   <g id="line2d_10">
    <path d="M -1 653.273292 
L 383.948848 472.642139 
L 383.948848 472.642139 
" clip-path="url(#pc60c552779)" style="fill: none; stroke-dasharray: 7.4,3.2; stroke-dashoffset: 0; stroke: #000000; stroke-width: 2"/>
   </g>
   <g id="line2d_11">
    <path d="M 385.490809 466.841028 
L 721 309.361053 
L 721 309.361053 
" clip-path="url(#pc60c552779)" style="fill: none; stroke-dasharray: 7.4,3.2; stroke-dashoffset: 0; stroke: #000000; stroke-width: 2"/>
   </g>
   <g id="LineCollection_1">
    <path d="M 384.719828 472.642139 
L 384.719828 466.841028 
" clip-path="url(#pc60c552779)" style="fill: none; stroke: #000000; stroke-width: 2"/>
   </g>
   <g id="LineCollection_2">
    <path d="M 384.719828 473.039667 
L 384.719828 472.244611 
" clip-path="url(#pc60c552779)" style="fill: none; stroke: #000000; stroke-width: 1.5"/>
   </g>
   <g id="line2d_12">
    <defs>
     <path id="mc722526c70" d="M 25 0 
L -25 -0 
" style="stroke: #000000"/>
    </defs>
    <g clip-path="url(#pc60c552779)">
     <use xlink:href="#mc722526c70" x="384.719828" y="473.039667" style="stroke: #000000"/>
    </g>
   </g>
   <g id="line2d_13">
    <g clip-path="url(#pc60c552779)">
     <use xlink:href="#mc722526c70" x="384.719828" y="472.244611" style="stroke: #000000"/>
    </g>
   </g>
   <g id="LineCollection_3">
    <path d="M 384.719828 467.711325 
L 384.719828 465.970732 
" clip-path="url(#pc60c552779)" style="fill: none; stroke: #000000; stroke-width: 1.5"/>
   </g>
   <g id="line2d_14">
    <g clip-path="url(#pc60c552779)">
     <use xlink:href="#mc722526c70" x="384.719828" y="467.711325" style="stroke: #000000"/>
    </g>
   </g>
   <g id="line2d_15">
    <g clip-path="url(#pc60c552779)">
     <use xlink:href="#mc722526c70" x="384.719828" y="465.970732" style="stroke: #000000"/>
    </g>
   </g>
   <g id="line2d_16">
    <path d="M 384.719828 472.642139 
" clip-path="url(#pc60c552779)" style="fill: none; stroke: #000000; stroke-width: 1.5; stroke-linecap: square"/>
   </g>
   <g id="line2d_17">
    <path d="M 384.719828 466.841028 
" clip-path="url(#pc60c552779)" style="fill: none; stroke: #000000; stroke-width: 1.5; stroke-linecap: square"/>
   </g>
   <g id="patch_3">
    <path d="M 104.87 603.52 
L 104.87 67.44 
" style="fill: none; stroke: #000000; stroke-width: 3; stroke-linejoin: miter; stroke-linecap: square"/>
   </g>
   <g id="patch_4">
    <path d="M 680.062185 603.52 
L 680.062185 67.44 
" style="fill: none; stroke: #000000; stroke-width: 3; stroke-linejoin: miter; stroke-linecap: square"/>
   </g>
   <g id="patch_5">
    <path d="M 104.87 603.52 
L 680.062185 603.52 
" style="fill: none; stroke: #000000; stroke-width: 3; stroke-linejoin: miter; stroke-linecap: square"/>
   </g>
   <g id="patch_6">
    <path d="M 104.87 67.44 
L 680.062185 67.44 
" style="fill: none; stroke: #000000; stroke-width: 3; stroke-linejoin: miter; stroke-linecap: square"/>
   </g>
   <g id="legend_1">
    <g id="line2d_18">
     <path d="M 431.07781 132.932188 
L 481.07781 132.932188 
L 531.07781 132.932188 
" style="fill: none; stroke: #008080; stroke-width: 4; stroke-linecap: square"/>
    </g>
    <g id="text_13">
     <!-- Al  -->
     <g transform="translate(571.07781 150.432188) scale(0.5 -0.5)">
      <defs>
       <path id="DejaVuSans-41" d="M 2188 4044 
L 1331 1722 
L 3047 1722 
L 2188 4044 
z
M 1831 4666 
L 2547 4666 
L 4325 0 
L 3669 0 
L 3244 1197 
L 1141 1197 
L 716 0 
L 50 0 
L 1831 4666 
z
" transform="scale(0.015625)"/>
      </defs>
      <use xlink:href="#DejaVuSans-41"/>
      <use xlink:href="#DejaVuSans-6c" x="68.408203"/>
      <use xlink:href="#DejaVuSans-20" x="96.191406"/>
     </g>
    </g>
   </g>
  </g>
 </g>
 <defs>
  <clipPath id="pc60c552779">
   <rect x="104.87" y="67.44" width="575.192185" height="536.08"/>
  </clipPath>
 </defs>
</svg>
