<?xml version="1.0" encoding="utf-8" standalone="no"?>
<!DOCTYPE svg PUBLIC "-//W3C//DTD SVG 1.1//EN"
  "http://www.w3.org/Graphics/SVG/1.1/DTD/svg11.dtd">
<svg xmlns:xlink="http://www.w3.org/1999/xlink" width="720pt" height="720pt" viewBox="0 0 720 720" xmlns="http://www.w3.org/2000/svg" version="1.1">
 <metadata>
  <rdf:RDF xmlns:dc="http://purl.org/dc/elements/1.1/" xmlns:cc="http://creativecommons.org/ns#" xmlns:rdf="http://www.w3.org/1999/02/22-rdf-syntax-ns#">
   <cc:Work>
    <dc:type rdf:resource="http://purl.org/dc/dcmitype/StillImage"/>
    <dc:date>2023-11-23T21:09:14.840364</dc:date>
    <dc:format>image/svg+xml</dc:format>
    <dc:creator>
     <cc:Agent>
      <dc:title>Matplotlib v3.7.2, https://matplotlib.org/</dc:title>
     </cc:Agent>
    </dc:creator>
   </cc:Work>
  </rdf:RDF>
 </metadata>
 <defs>
  <style type="text/css">*{stroke-linejoin: round; stroke-linecap: butt}</style>
 </defs>
 <g id="figure_1">
  <g id="patch_1">
   <path d="M 0 720 
L 720 720 
L 720 0 
L 0 0 
z
" style="fill: #ffffff"/>
  </g>
  <g id="axes_1">
   <g id="patch_2">
    <path d="M 104.87 603.52 
L 680.062185 603.52 
L 680.062185 67.44 
L 104.87 67.44 
z
" style="fill: #ffffff"/>
   </g>
   <g id="PolyCollection_1">
    <path d="M -415.657405 846.190817 
L -415.657405 850.072375 
L -413.619782 848.803469 
L -411.617137 847.926808 
L -409.631284 847.35943 
L -407.621441 846.295462 
L -405.553397 845.135196 
L -403.54536 844.245751 
L -401.521783 843.144149 
L -399.438684 842.312147 
L -397.464869 841.669195 
L -395.458696 840.557025 
L -393.393841 839.749149 
L -391.383033 839.010503 
L -389.339171 837.724511 
L -387.258244 836.691954 
L -385.177754 835.627809 
L -383.263612 835.17879 
L -381.21354 834.206785 
L -379.154409 832.917582 
L -377.130704 832.120737 
L -375.090256 831.207487 
L -373.064952 830.415538 
L -370.994948 829.793451 
L -368.96876 828.316774 
L -366.995234 827.460681 
L -364.954216 826.438383 
L -362.899017 825.326949 
L -360.876079 824.664357 
L -358.760304 823.919137 
L -356.684669 822.707003 
L -354.609213 821.480518 
L -352.528082 820.73053 
L -350.39927 819.666653 
L -348.331248 819.046727 
L -346.233548 817.860578 
L -344.139477 816.780832 
L -342.088138 815.395905 
L -340.05161 814.848652 
L -337.996076 813.511909 
L -335.897213 812.938705 
L -333.799604 811.506355 
L -331.759779 810.830677 
L -329.715093 810.071635 
L -327.582385 808.588911 
L -325.46758 807.446173 
L -323.376257 806.767567 
L -321.300787 805.451604 
L -319.202354 804.72558 
L -317.158077 803.772805 
L -315.117049 802.808059 
L -313.069758 801.984911 
L -311.01724 800.874437 
L -308.951084 800.132581 
L -306.867986 798.748512 
L -304.727749 797.663738 
L -302.637753 796.691747 
L -300.577516 795.606921 
L -298.52013 794.564722 
L -296.415149 793.737412 
L -294.357598 792.815098 
L -292.302023 792.192997 
L -290.238831 791.101796 
L -288.167661 790.05608 
L -286.096136 789.235758 
L -284.02539 788.508352 
L -281.888866 787.050869 
L -279.86994 786.104537 
L -277.780133 785.130272 
L -275.663297 784.536066 
L -273.58395 783.417037 
L -271.522259 782.460132 
L -269.37589 781.222579 
L -267.338559 780.24993 
L -265.246441 779.248276 
L -263.122982 778.59243 
L -261.112467 777.431281 
L -259.023351 776.260166 
L -256.932996 775.208713 
L -254.866479 774.195272 
L -252.801664 773.676968 
L -250.737948 772.249764 
L -248.706225 771.726682 
L -246.669013 770.991675 
L -244.587691 769.941453 
L -242.45794 768.845951 
L -240.344233 767.544148 
L -238.302868 766.608835 
L -236.220219 765.837394 
L -234.118243 764.551059 
L -231.991969 763.630085 
L -229.983849 762.632806 
L -227.92745 761.701971 
L -225.853009 760.888851 
L -223.724087 759.802055 
L -221.629742 758.755544 
L -219.581772 758.737143 
L -217.522612 757.287879 
L -215.451188 756.313445 
L -213.363192 755.145283 
L -211.276285 754.438541 
L -209.222504 753.378842 
L -207.136756 752.538029 
L -205.066864 751.318955 
L -203.025774 750.56123 
L -200.945529 749.274896 
L -198.89429 748.213821 
L -196.816333 747.717696 
L -194.74863 746.256305 
L -192.64101 745.243223 
L -190.580223 744.391964 
L -188.470534 743.298097 
L -186.365491 742.515505 
L -184.310334 741.536334 
L -182.241346 740.472669 
L -180.175293 739.436016 
L -178.066256 738.671335 
L -176.005723 737.51273 
L -173.848451 736.599219 
L -171.740859 735.792056 
L -169.669333 735.125872 
L -167.599603 733.538031 
L -165.555242 732.987353 
L -163.483103 731.938534 
L -161.39921 731.122926 
L -159.348334 730.077187 
L -157.281506 728.83675 
L -155.233579 728.291403 
L -153.144917 727.425507 
L -151.089312 726.370598 
L -148.992979 725.567239 
L -146.874407 724.038311 
L -144.82617 723.278126 
L -142.793776 722.666502 
L -140.745117 722.044415 
L -138.649793 720.28512 
L -136.592409 719.263832 
L -134.489727 718.364499 
L -132.396625 717.520091 
L -130.295774 716.662231 
L -128.240634 715.382751 
L -126.171686 714.433486 
L -124.075607 713.318948 
L -121.914488 712.090993 
L -119.825908 711.121452 
L -117.74051 710.093468 
L -115.669718 709.567071 
L -113.57675 708.343051 
L -111.497419 707.570932 
L -109.441999 706.831869 
L -107.399 705.489392 
L -105.283717 704.515445 
L -103.234343 704.088853 
L -101.090032 702.568396 
L -99.036027 701.617678 
L -96.952961 700.676671 
L -94.845954 700.030229 
L -92.740877 698.566355 
L -90.610509 697.53262 
L -88.503625 696.575395 
L -86.3728 695.610537 
L -84.29316 694.53195 
L -82.182981 693.680068 
L -80.121945 692.780824 
L -78.041021 691.739735 
L -75.971888 690.959717 
L -73.888436 689.842254 
L -71.762173 688.740601 
L -69.637277 687.752714 
L -67.539012 686.892133 
L -65.426962 685.7218 
L -63.346146 684.881648 
L -61.212537 683.757569 
L -59.116937 682.760365 
L -56.993573 681.607742 
L -54.883787 680.60654 
L -52.774592 679.78102 
L -50.739047 678.951251 
L -48.677995 677.843415 
L -46.582061 677.443778 
L -44.494251 676.098439 
L -42.377791 675.016524 
L -40.235776 673.855029 
L -38.109068 672.947665 
L -36.042271 672.002175 
L -34.033035 671.091148 
L -32.010216 670.435941 
L -29.907535 669.419893 
L -27.802296 668.099068 
L -25.699019 667.019634 
L -23.558979 665.978979 
L -21.508212 665.314361 
L -19.354281 664.04303 
L -17.187219 662.999287 
L -15.114114 662.205408 
L -12.970823 661.099228 
L -10.880992 660.24003 
L -8.770386 659.107577 
L -6.649105 657.786068 
L -4.524183 657.027425 
L -2.400906 655.798407 
L -0.251756 654.816065 
L 1.812257 653.937956 
L 3.916426 652.825471 
L 6.022419 651.967375 
L 8.097091 650.958446 
L 10.191493 650.158442 
L 12.299851 648.865403 
L 14.364194 648.013744 
L 16.444784 647.141899 
L 18.509367 646.605645 
L 20.533025 645.433827 
L 22.641608 644.592572 
L 24.794653 643.258754 
L 26.891476 642.558101 
L 28.982924 641.203849 
L 31.068074 640.574039 
L 33.175355 639.126501 
L 35.277104 638.523194 
L 37.380309 637.234944 
L 39.507123 636.419554 
L 41.625848 634.959431 
L 43.692557 634.434882 
L 45.816948 633.0292 
L 47.89736 632.182766 
L 50.040242 631.192749 
L 52.167709 630.359379 
L 54.321711 628.989621 
L 56.426492 628.113091 
L 58.588855 626.984621 
L 60.711212 625.84252 
L 62.791455 624.907481 
L 64.917628 623.827449 
L 67.027406 623.259397 
L 69.059726 622.129341 
L 71.127145 621.280568 
L 73.246937 620.185562 
L 75.376804 619.584495 
L 77.475559 618.673937 
L 79.612378 617.190567 
L 81.675274 616.205145 
L 83.767294 615.324234 
L 85.837075 614.657638 
L 87.968181 613.152947 
L 90.141689 612.195999 
L 92.266751 611.656855 
L 94.313374 610.503193 
L 96.424871 609.389662 
L 98.57079 608.253274 
L 100.684984 607.234079 
L 102.783981 606.490992 
L 104.87 605.389565 
L 106.91653 604.453004 
L 109.07559 603.305892 
L 111.240062 602.483512 
L 113.339215 601.668579 
L 115.443285 600.493435 
L 117.516428 599.54323 
L 119.634232 598.777165 
L 121.756255 597.317333 
L 123.829217 596.749551 
L 125.982981 595.348773 
L 128.106975 594.369738 
L 130.19209 593.521769 
L 132.263173 592.426178 
L 134.381406 591.904932 
L 136.460127 590.936158 
L 138.55695 589.607994 
L 140.629351 588.508053 
L 142.694581 587.861729 
L 144.803842 586.567959 
L 146.88298 585.711669 
L 149.02349 584.776495 
L 151.109352 584.017621 
L 153.172099 582.911522 
L 155.194583 582.018522 
L 157.268565 580.901047 
L 159.361567 580.409323 
L 161.497952 578.673869 
L 163.539 577.832873 
L 165.644821 577.076305 
L 167.74616 576.223183 
L 169.887823 574.777606 
L 171.97207 574.017869 
L 174.07751 572.850054 
L 176.181278 571.776593 
L 178.299955 570.715685 
L 180.407958 569.978567 
L 182.564153 568.6136 
L 184.688804 567.559341 
L 186.829662 566.50242 
L 189.011752 565.499139 
L 191.177265 564.619162 
L 193.274874 563.747874 
L 195.400493 562.799996 
L 197.434378 561.95967 
L 199.546023 561.015903 
L 201.65717 559.647452 
L 203.734532 559.089247 
L 205.819249 557.704525 
L 207.956181 556.807038 
L 210.018982 556.428675 
L 212.174337 554.849368 
L 214.236715 554.20471 
L 216.358016 552.788644 
L 218.426908 552.500378 
L 220.554046 551.264687 
L 222.626336 550.541763 
L 224.699769 549.482306 
L 226.81474 548.877396 
L 228.910884 547.318955 
L 230.987911 546.787499 
L 233.061262 545.415491 
L 235.174483 544.538594 
L 237.266074 543.380783 
L 239.407236 542.637293 
L 241.499352 541.511552 
L 243.619436 540.749056 
L 245.706947 539.502486 
L 247.804946 538.397427 
L 249.937545 537.272661 
L 252.043598 536.299008 
L 254.168218 536.000202 
L 256.290778 534.453019 
L 258.430964 534.024377 
L 260.572325 532.462584 
L 262.642676 531.601231 
L 264.760206 530.68516 
L 266.820124 530.369674 
L 268.903654 528.916794 
L 271.030918 528.034118 
L 273.125244 526.776389 
L 275.294924 526.202423 
L 277.449317 524.867086 
L 279.690478 523.739254 
L 281.861792 522.70727 
L 284.016343 521.769241 
L 286.162996 520.870476 
L 288.310152 519.616145 
L 290.441889 518.578339 
L 292.632868 517.803908 
L 294.811153 516.446888 
L 296.911627 515.818138 
L 299.061042 514.499785 
L 301.219163 513.32902 
L 303.319848 512.306807 
L 305.468394 511.805301 
L 307.549709 510.685069 
L 309.67564 509.581209 
L 311.751955 508.806406 
L 313.858399 507.472609 
L 315.944491 507.208545 
L 318.008877 506.123043 
L 320.135872 505.205274 
L 322.229453 503.657831 
L 324.331439 502.805131 
L 326.395291 501.791008 
L 328.460799 500.761287 
L 330.560566 499.995975 
L 332.611001 499.31126 
L 334.647622 498.212873 
L 336.634411 497.023587 
L 338.611746 496.289759 
L 340.577214 495.331877 
L 342.569065 494.171995 
L 344.450552 493.17436 
L 346.362467 492.444973 
L 348.239361 491.488946 
L 350.04726 490.781111 
L 351.877791 489.500315 
L 353.667786 488.643332 
L 355.435427 487.977035 
L 357.135582 487.387627 
L 358.917825 485.851817 
L 360.586803 485.184509 
L 362.260532 484.111255 
L 363.935072 483.180987 
L 365.574436 482.339146 
L 367.215926 481.442352 
L 368.821711 480.748285 
L 370.318906 480.259096 
L 371.887739 478.918834 
L 373.375908 478.3344 
L 374.931898 477.160414 
L 376.442957 476.541592 
L 377.952579 475.311764 
L 379.438511 475.038081 
L 380.888398 473.684368 
L 382.396599 472.80962 
L 383.948848 471.814957 
L 385.490809 471.013536 
L 387.02251 470.509158 
L 388.508605 469.381943 
L 389.975777 468.427555 
L 391.446366 467.648015 
L 392.946359 467.123705 
L 394.464175 466.416832 
L 396.029522 465.377997 
L 397.594837 464.297654 
L 399.168192 463.401667 
L 400.793054 462.479057 
L 402.394856 461.987866 
L 404.048463 460.967926 
L 405.727807 460.386629 
L 407.406143 459.511687 
L 409.132964 458.631187 
L 410.878115 457.615489 
L 412.659041 456.868532 
L 414.423418 456.125702 
L 416.242589 455.082725 
L 418.072317 453.736344 
L 419.873195 453.203173 
L 421.679798 452.264386 
L 423.581982 451.447546 
L 425.392969 450.342608 
L 427.248453 449.282391 
L 429.085473 448.504429 
L 430.955729 447.90695 
L 432.835307 446.590984 
L 434.713395 445.943682 
L 436.580348 445.511994 
L 438.528321 444.284282 
L 440.414228 443.221163 
L 442.362937 442.142395 
L 444.360791 441.21965 
L 446.306885 441.083826 
L 448.243792 439.377106 
L 450.180259 438.411827 
L 452.133542 437.879148 
L 454.033589 437.029482 
L 455.977642 435.848233 
L 457.959377 434.865378 
L 459.966066 433.742094 
L 461.900539 432.700571 
L 463.875001 431.807705 
L 465.847317 431.011573 
L 467.80058 430.309559 
L 469.781026 429.115161 
L 471.800957 428.324345 
L 473.81804 427.165672 
L 475.840166 426.456706 
L 477.816078 425.562703 
L 479.761938 424.503613 
L 481.734146 423.740192 
L 483.649182 422.879562 
L 485.59243 421.921264 
L 487.494706 420.780946 
L 489.361816 419.978429 
L 491.313753 419.11624 
L 493.274995 418.214856 
L 495.206584 417.272137 
L 497.201442 416.249125 
L 499.158285 415.25914 
L 501.088331 414.446085 
L 503.016121 413.453924 
L 504.940143 412.783217 
L 506.896875 411.673974 
L 508.840534 410.9075 
L 510.838749 409.592783 
L 512.717124 408.787585 
L 514.647968 408.08658 
L 516.53908 406.846601 
L 518.419653 405.904473 
L 520.353668 405.236143 
L 522.220883 404.457721 
L 524.058465 403.353939 
L 526.016267 402.382427 
L 527.961811 401.393304 
L 529.910058 400.612553 
L 531.862457 399.652937 
L 533.715354 399.125701 
L 535.586722 398.581879 
L 537.515695 397.380846 
L 539.415501 396.283633 
L 541.29263 395.597148 
L 543.187057 394.522615 
L 545.099944 393.75142 
L 546.914184 393.013835 
L 548.789341 391.672064 
L 550.660187 391.097271 
L 552.511835 390.058879 
L 554.446415 389.249129 
L 556.306992 388.102306 
L 558.144666 387.775533 
L 560.067531 386.406403 
L 561.957785 385.695697 
L 563.756205 385.302977 
L 565.6174 383.762682 
L 567.478317 383.029315 
L 569.292862 382.4573 
L 571.187916 381.604003 
L 573.050563 380.878383 
L 574.893028 379.592459 
L 576.787731 378.625466 
L 578.691122 378.380823 
L 580.549479 376.737524 
L 582.369168 375.971479 
L 584.230488 374.852193 
L 586.04253 374.130875 
L 587.834871 373.3184 
L 589.712423 372.271963 
L 591.55248 371.650199 
L 593.442567 370.597996 
L 595.313802 369.98468 
L 597.219688 368.591757 
L 599.041116 367.665643 
L 600.842262 366.927097 
L 602.691467 366.036336 
L 604.468732 365.327813 
L 606.273413 364.49607 
L 608.125665 363.441319 
L 609.957857 362.556581 
L 611.737806 361.819541 
L 613.624897 360.926551 
L 615.426732 360.263689 
L 617.226116 359.497679 
L 618.999937 358.298472 
L 620.808495 357.990187 
L 622.644176 356.86895 
L 624.461616 355.786688 
L 626.261952 355.161362 
L 628.081539 353.976608 
L 629.884616 353.121609 
L 631.71281 352.452384 
L 633.4813 351.365803 
L 635.28514 350.646573 
L 637.116336 349.779902 
L 638.936032 348.733816 
L 640.733769 347.918796 
L 642.556801 347.130414 
L 644.387638 346.276836 
L 646.235993 345.751859 
L 647.981508 344.386779 
L 649.782336 343.537228 
L 651.546371 343.039524 
L 653.331638 342.341753 
L 655.112585 341.527767 
L 656.868707 340.389457 
L 658.693617 339.314151 
L 660.442307 338.473123 
L 662.264004 337.524713 
L 664.094555 337.007988 
L 665.875837 336.693837 
L 667.599201 335.664373 
L 669.364178 334.488586 
L 671.136941 333.95443 
L 672.909692 333.111446 
L 674.668255 332.222695 
L 676.440583 331.308288 
L 678.249312 330.375399 
L 680.062185 329.62334 
L 681.878257 328.707787 
L 683.617306 328.035421 
L 685.337356 327.321506 
L 687.119932 326.306656 
L 688.877323 325.416034 
L 690.692263 324.511273 
L 692.44521 323.746088 
L 694.263951 322.691426 
L 696.02437 321.849146 
L 697.729044 321.247487 
L 699.48446 320.206347 
L 701.256453 319.375847 
L 702.992628 318.58033 
L 704.657052 318.052991 
L 706.393278 317.233394 
L 708.203788 316.161354 
L 709.963213 315.437693 
L 711.732451 314.830274 
L 713.463689 314.031157 
L 715.17951 313.415689 
L 716.927321 312.617258 
L 718.631473 311.709847 
L 720.338662 311.279697 
L 722.093177 310.167741 
L 723.797463 309.554044 
L 725.50788 308.416646 
L 727.180843 307.836002 
L 728.921716 306.905797 
L 730.647429 305.95025 
L 732.34198 305.389519 
L 734.068893 304.241264 
L 735.748851 303.588435 
L 737.445382 302.660075 
L 739.171548 302.110591 
L 740.860111 301.219402 
L 742.60502 300.886219 
L 744.356343 299.506362 
L 745.998082 299.092701 
L 747.756841 297.892163 
L 749.377998 297.787448 
L 751.124075 296.318709 
L 752.784761 295.533283 
L 754.496571 294.937793 
L 756.214308 294.170372 
L 757.844464 293.588282 
L 759.517274 292.210155 
L 761.184716 291.489848 
L 762.826654 290.837051 
L 764.483273 290.075516 
L 766.157673 289.134399 
L 766.157673 286.075676 
L 766.157673 286.075676 
L 764.483273 286.780725 
L 762.826654 287.658816 
L 761.184716 288.342041 
L 759.517274 289.144023 
L 757.844464 289.336627 
L 756.214308 290.299588 
L 754.496571 291.227594 
L 752.784761 292.096054 
L 751.124075 292.957025 
L 749.377998 293.428509 
L 747.756841 294.690125 
L 745.998082 295.308082 
L 744.356343 296.383344 
L 742.60502 296.740062 
L 740.860111 298.017657 
L 739.171548 298.553817 
L 737.445382 299.484812 
L 735.748851 300.146896 
L 734.068893 301.040528 
L 732.34198 301.678427 
L 730.647429 302.823134 
L 728.921716 303.682034 
L 727.180843 304.344799 
L 725.50788 305.280384 
L 723.797463 305.691588 
L 722.093177 306.619194 
L 720.338662 307.202543 
L 718.631473 308.377277 
L 716.927321 308.96074 
L 715.17951 309.730712 
L 713.463689 310.515205 
L 711.732451 311.107985 
L 709.963213 312.133013 
L 708.203788 312.944455 
L 706.393278 313.621578 
L 704.657052 314.604609 
L 702.992628 315.367582 
L 701.256453 316.159152 
L 699.48446 317.107823 
L 697.729044 317.796131 
L 696.02437 318.685748 
L 694.263951 319.462847 
L 692.44521 320.339195 
L 690.692263 321.296587 
L 688.877323 322.273688 
L 687.119932 323.02365 
L 685.337356 323.669011 
L 683.617306 324.45492 
L 681.878257 325.356534 
L 680.062185 326.29109 
L 678.249312 327.21592 
L 676.440583 328.013704 
L 674.668255 328.650085 
L 672.909692 329.263192 
L 671.136941 330.04422 
L 669.364178 331.216269 
L 667.599201 331.743599 
L 665.875837 332.117416 
L 664.094555 333.209391 
L 662.264004 334.298315 
L 660.442307 335.286551 
L 658.693617 336.023095 
L 656.868707 336.856294 
L 655.112585 337.329537 
L 653.331638 338.342037 
L 651.546371 339.356455 
L 649.782336 340.376812 
L 647.981508 341.260691 
L 646.235993 341.448145 
L 644.387638 342.819421 
L 642.556801 343.61605 
L 640.733769 344.568748 
L 638.936032 345.467612 
L 637.116336 346.28457 
L 635.28514 347.183232 
L 633.4813 348.152531 
L 631.71281 348.740644 
L 629.884616 349.805988 
L 628.081539 350.820323 
L 626.261952 351.368696 
L 624.461616 352.44623 
L 622.644176 353.1574 
L 620.808495 353.82172 
L 618.999937 355.203754 
L 617.226116 355.724053 
L 615.426732 356.748004 
L 613.624897 357.670723 
L 611.737806 358.488751 
L 609.957857 359.344541 
L 608.125665 360.208579 
L 606.273413 360.974737 
L 604.468732 361.851579 
L 602.691467 362.608906 
L 600.842262 363.40994 
L 599.041116 364.399527 
L 597.219688 365.231752 
L 595.313802 365.751545 
L 593.442567 366.992888 
L 591.55248 367.907464 
L 589.712423 368.977277 
L 587.834871 369.755862 
L 586.04253 370.577512 
L 584.230488 371.587037 
L 582.369168 372.391628 
L 580.549479 373.376251 
L 578.691122 373.517608 
L 576.787731 375.389453 
L 574.893028 376.253899 
L 573.050563 376.970325 
L 571.187916 377.838314 
L 569.292862 378.76851 
L 567.478317 379.645366 
L 565.6174 380.568548 
L 563.756205 380.925588 
L 561.957785 382.022531 
L 560.067531 382.944826 
L 558.144666 383.456944 
L 556.306992 384.842793 
L 554.446415 385.390169 
L 552.511835 386.603273 
L 550.660187 387.242827 
L 548.789341 388.363655 
L 546.914184 389.083079 
L 545.099944 390.042249 
L 543.187057 391.034228 
L 541.29263 391.889788 
L 539.415501 392.936367 
L 537.515695 393.537666 
L 535.586722 394.213143 
L 533.715354 395.258674 
L 531.862457 396.331643 
L 529.910058 397.148493 
L 527.961811 398.078132 
L 526.016267 399.023262 
L 524.058465 400.053704 
L 522.220883 400.472459 
L 520.353668 401.313625 
L 518.419653 402.465063 
L 516.53908 403.304187 
L 514.647968 403.889527 
L 512.717124 405.185188 
L 510.838749 406.258526 
L 508.840534 406.980179 
L 506.896875 408.060552 
L 504.940143 408.832881 
L 503.016121 409.963497 
L 501.088331 410.858114 
L 499.158285 411.915492 
L 497.201442 412.75385 
L 495.206584 413.774002 
L 493.274995 414.726037 
L 491.313753 415.785094 
L 489.361816 416.785554 
L 487.494706 417.464579 
L 485.59243 418.0787 
L 483.649182 418.811104 
L 481.734146 419.665365 
L 479.761938 420.752371 
L 477.816078 421.307735 
L 475.840166 422.531109 
L 473.81804 423.705043 
L 471.800957 424.519638 
L 469.781026 425.661661 
L 467.80058 426.248362 
L 465.847317 427.391733 
L 463.875001 428.338811 
L 461.900539 429.445625 
L 459.966066 430.272072 
L 457.959377 431.274697 
L 455.977642 432.378776 
L 454.033589 432.967398 
L 452.133542 433.823901 
L 450.180259 435.097178 
L 448.243792 436.067134 
L 446.306885 436.331681 
L 444.360791 437.813787 
L 442.362937 438.803703 
L 440.414228 439.547532 
L 438.528321 440.323545 
L 436.580348 441.09446 
L 434.713395 442.165921 
L 432.835307 443.197247 
L 430.955729 443.698999 
L 429.085473 444.935797 
L 427.248453 445.969705 
L 425.392969 446.897385 
L 423.581982 447.486339 
L 421.679798 448.466472 
L 419.873195 449.364374 
L 418.072317 450.581367 
L 416.242589 451.026358 
L 414.423418 451.768098 
L 412.659041 452.622125 
L 410.878115 453.699246 
L 409.132964 454.293674 
L 407.406143 455.443455 
L 405.727807 456.263288 
L 404.048463 457.418626 
L 402.394856 457.992409 
L 400.793054 459.19237 
L 399.168192 460.128303 
L 397.594837 461.035759 
L 396.029522 461.70138 
L 394.464175 462.375901 
L 392.946359 463.348767 
L 391.446366 464.398494 
L 389.975777 465.210938 
L 388.508605 466.022688 
L 387.02251 466.616179 
L 385.490809 467.848009 
L 383.948848 468.59717 
L 382.396599 469.512855 
L 380.888398 470.414439 
L 379.438511 470.632007 
L 377.952579 472.180209 
L 376.442957 472.810294 
L 374.931898 473.870603 
L 373.375908 474.578291 
L 371.887739 475.534753 
L 370.318906 476.011303 
L 368.821711 477.013757 
L 367.215926 478.165988 
L 365.574436 479.001094 
L 363.935072 479.934722 
L 362.260532 480.856343 
L 360.586803 481.636998 
L 358.917825 482.512626 
L 357.135582 482.908131 
L 355.435427 484.043744 
L 353.667786 485.080154 
L 351.877791 486.042838 
L 350.04726 486.687891 
L 348.239361 487.881227 
L 346.362467 488.786827 
L 344.450552 489.93695 
L 342.569065 490.710797 
L 340.577214 491.617079 
L 338.611746 492.479631 
L 336.634411 493.620256 
L 334.647622 494.195313 
L 332.611001 494.909098 
L 330.560566 496.100036 
L 328.460799 497.337078 
L 326.395291 498.218054 
L 324.331439 499.141025 
L 322.229453 500.273083 
L 320.135872 500.745313 
L 318.008877 501.875766 
L 315.944491 502.516654 
L 313.858399 503.954936 
L 311.751955 504.723161 
L 309.67564 505.858594 
L 307.549709 506.793674 
L 305.468394 507.504395 
L 303.319848 508.9508 
L 301.219163 509.765329 
L 299.061042 510.89874 
L 296.911627 511.644088 
L 294.811153 512.841839 
L 292.632868 513.720496 
L 290.441889 515.010012 
L 288.310152 516.059185 
L 286.162996 516.8211 
L 284.016343 517.935564 
L 281.861792 519.004284 
L 279.690478 520.212172 
L 277.449317 521.377585 
L 275.294924 521.985954 
L 273.125244 523.413403 
L 271.030918 523.988974 
L 268.903654 525.182952 
L 266.820124 525.581182 
L 264.760206 526.909234 
L 262.642676 527.858106 
L 260.572325 529.007878 
L 258.430964 529.375811 
L 256.290778 530.876964 
L 254.168218 531.184734 
L 252.043598 532.802573 
L 249.937545 533.815825 
L 247.804946 534.880802 
L 245.706947 535.859142 
L 243.619436 536.509435 
L 241.499352 537.771947 
L 239.407236 538.496564 
L 237.266074 539.826786 
L 235.174483 540.722068 
L 233.061262 541.918146 
L 230.987911 542.354388 
L 228.910884 543.554409 
L 226.81474 544.078145 
L 224.699769 545.549069 
L 222.626336 546.298933 
L 220.554046 547.451318 
L 218.426908 548.011826 
L 216.358016 549.354302 
L 214.236715 549.921371 
L 212.174337 551.250522 
L 210.018982 551.783286 
L 207.956181 553.261463 
L 205.819249 554.381639 
L 203.734532 555.032685 
L 201.65717 556.273186 
L 199.546023 556.883354 
L 197.434378 558.034176 
L 195.400493 558.891676 
L 193.274874 559.8968 
L 191.177265 560.763184 
L 189.011752 561.904064 
L 186.829662 563.200098 
L 184.688804 564.148697 
L 182.564153 565.195844 
L 180.407958 565.922899 
L 178.299955 567.234265 
L 176.181278 568.308237 
L 174.07751 569.214077 
L 171.97207 569.988487 
L 169.887823 571.156436 
L 167.74616 571.860166 
L 165.644821 572.954967 
L 163.539 574.230609 
L 161.497952 575.16886 
L 159.361567 575.723034 
L 157.268565 577.265744 
L 155.194583 578.153644 
L 153.172099 579.19421 
L 151.109352 580.021393 
L 149.02349 581.169186 
L 146.88298 582.161492 
L 144.803842 583.120011 
L 142.694581 583.941211 
L 140.629351 585.217431 
L 138.55695 585.835388 
L 136.460127 586.554169 
L 134.381406 587.450353 
L 132.263173 588.875986 
L 130.19209 589.495114 
L 128.106975 590.754496 
L 125.982981 591.807757 
L 123.829217 592.592384 
L 121.756255 593.98993 
L 119.634232 594.545834 
L 117.516428 595.749255 
L 115.443285 596.537425 
L 113.339215 597.302604 
L 111.240062 598.408844 
L 109.07559 599.848507 
L 106.91653 600.814007 
L 104.87 601.650435 
L 102.783981 602.452536 
L 100.684984 603.636956 
L 98.57079 604.736636 
L 96.424871 605.674687 
L 94.313374 606.506168 
L 92.266751 607.076893 
L 90.141689 608.493527 
L 87.968181 609.506278 
L 85.837075 610.424412 
L 83.767294 611.693929 
L 81.675274 612.739445 
L 79.612378 613.677265 
L 77.475559 614.292044 
L 75.376804 615.342406 
L 73.246937 616.82302 
L 71.127145 617.58981 
L 69.059726 618.381111 
L 67.027406 618.988137 
L 64.917628 620.296897 
L 62.791455 621.390581 
L 60.711212 622.391539 
L 58.588855 623.323825 
L 56.426492 624.412336 
L 54.321711 625.492377 
L 52.167709 626.302404 
L 50.040242 627.535751 
L 47.89736 628.575846 
L 45.816948 629.60525 
L 43.692557 630.183101 
L 41.625848 631.453548 
L 39.507123 632.192662 
L 37.380309 633.45116 
L 35.277104 634.375535 
L 33.175355 635.712461 
L 31.068074 636.356691 
L 28.982924 637.825713 
L 26.891476 638.452508 
L 24.794653 639.833238 
L 22.641608 640.601941 
L 20.533025 641.760657 
L 18.509367 642.275921 
L 16.444784 643.468456 
L 14.364194 644.459537 
L 12.299851 645.428409 
L 10.191493 646.042489 
L 8.097091 647.09831 
L 6.022419 648.130918 
L 3.916426 649.351766 
L 1.812257 650.277623 
L -0.251756 651.376677 
L -2.400906 652.427775 
L -4.524183 653.149205 
L -6.649105 654.34028 
L -8.770386 655.149849 
L -10.880992 656.170027 
L -12.970823 657.304236 
L -15.114114 658.276501 
L -17.187219 659.407965 
L -19.354281 660.572518 
L -21.508212 661.451989 
L -23.558979 662.55289 
L -25.699019 663.609465 
L -27.802296 664.601539 
L -29.907535 665.219062 
L -32.010216 666.171442 
L -34.033035 667.337606 
L -36.042271 668.237627 
L -38.109068 669.232439 
L -40.235776 670.305315 
L -42.377791 671.394946 
L -44.494251 672.367391 
L -46.582061 672.777858 
L -48.677995 674.426093 
L -50.739047 675.195721 
L -52.774592 675.99905 
L -54.883787 677.173852 
L -56.993573 678.200218 
L -59.116937 679.152533 
L -61.212537 680.183536 
L -63.346146 681.125181 
L -65.426962 682.066962 
L -67.539012 682.924669 
L -69.637277 684.134114 
L -71.762173 685.24511 
L -73.888436 686.163041 
L -75.971888 687.113518 
L -78.041021 688.282904 
L -80.121945 689.230087 
L -82.182981 690.171515 
L -84.29316 691.227018 
L -86.3728 692.071244 
L -88.503625 693.065015 
L -90.610509 693.976524 
L -92.740877 695.109634 
L -94.845954 695.643031 
L -96.952961 697.04761 
L -99.036027 698.053841 
L -101.090032 699.114983 
L -103.234343 699.766843 
L -105.283717 701.224133 
L -107.399 702.158605 
L -109.441999 702.566974 
L -111.497419 703.513541 
L -113.57675 704.571906 
L -115.669718 705.292783 
L -117.74051 706.582583 
L -119.825908 707.607515 
L -121.914488 708.659719 
L -124.075607 709.581166 
L -126.171686 710.592836 
L -128.240634 711.586869 
L -130.295774 712.229362 
L -132.396625 713.472296 
L -134.489727 714.561841 
L -136.592409 715.729985 
L -138.649793 716.787884 
L -140.745117 717.200197 
L -142.793776 718.466338 
L -144.82617 719.502798 
L -146.874407 720.58826 
L -148.992979 721.188271 
L -151.089312 722.32911 
L -153.144917 723.205797 
L -155.233579 724.212684 
L -157.281506 725.544209 
L -159.348334 726.144574 
L -161.39921 727.128286 
L -163.483103 728.216782 
L -165.555242 728.961741 
L -167.599603 730.192168 
L -169.669333 730.465331 
L -171.740859 731.570358 
L -173.848451 732.629971 
L -176.005723 733.736672 
L -178.066256 734.468351 
L -180.175293 735.802986 
L -182.241346 736.59184 
L -184.310334 737.391971 
L -186.365491 738.443886 
L -188.470534 739.637608 
L -190.580223 740.768779 
L -192.64101 741.788473 
L -194.74863 742.906431 
L -196.816333 743.476982 
L -198.89429 744.863961 
L -200.945529 745.901414 
L -203.025774 746.602689 
L -205.066864 747.606985 
L -207.136756 748.407145 
L -209.222504 749.672078 
L -211.276285 750.422581 
L -213.363192 751.532467 
L -215.451188 752.304368 
L -217.522612 753.273995 
L -219.581772 753.670753 
L -221.629742 755.377466 
L -223.724087 756.311365 
L -225.853009 757.233594 
L -227.92745 758.246982 
L -229.983849 759.031338 
L -231.991969 759.875637 
L -234.118243 761.122136 
L -236.220219 761.864703 
L -238.302868 763.102471 
L -240.344233 763.993362 
L -242.45794 764.850843 
L -244.587691 765.725888 
L -246.669013 766.662626 
L -248.706225 767.654458 
L -250.737948 768.94288 
L -252.801664 769.471594 
L -254.866479 770.783411 
L -256.932996 771.772657 
L -259.023351 772.868757 
L -261.112467 773.7639 
L -263.122982 774.416506 
L -265.246441 775.836298 
L -267.338559 776.878482 
L -269.37589 777.850934 
L -271.522259 778.702306 
L -273.58395 779.411236 
L -275.663297 780.237676 
L -277.780133 781.641091 
L -279.86994 782.677687 
L -281.888866 783.584304 
L -284.02539 784.259802 
L -286.096136 785.251446 
L -288.167661 786.371592 
L -290.238831 787.052367 
L -292.302023 787.900385 
L -294.357598 789.076621 
L -296.415149 790.033953 
L -298.52013 791.227683 
L -300.577516 792.223102 
L -302.637753 793.075331 
L -304.727749 794.081372 
L -306.867986 795.2876 
L -308.951084 796.007449 
L -311.01724 797.145166 
L -313.069758 797.870223 
L -315.117049 798.981571 
L -317.158077 799.77887 
L -319.202354 800.676309 
L -321.300787 802.025152 
L -323.376257 802.715306 
L -325.46758 804.09843 
L -327.582385 805.031871 
L -329.715093 805.861144 
L -331.759779 806.875242 
L -333.799604 808.040661 
L -335.897213 808.716437 
L -337.996076 810.134535 
L -340.05161 810.698568 
L -342.088138 812.074156 
L -344.139477 812.705051 
L -346.233548 813.756568 
L -348.331248 814.662668 
L -350.39927 815.889652 
L -352.528082 816.828937 
L -354.609213 817.963291 
L -356.684669 818.792411 
L -358.760304 819.612567 
L -360.876079 820.947182 
L -362.899017 821.959627 
L -364.954216 822.930194 
L -366.995234 823.705656 
L -368.96876 824.624796 
L -370.994948 825.161345 
L -373.064952 826.380668 
L -375.090256 827.607329 
L -377.130704 828.41952 
L -379.154409 829.43552 
L -381.21354 829.924586 
L -383.263612 830.872505 
L -385.177754 832.140493 
L -387.258244 833.107112 
L -389.339171 834.180014 
L -391.383033 834.927885 
L -393.393841 835.971938 
L -395.458696 837.0333 
L -397.464869 837.774473 
L -399.438684 838.756389 
L -401.521783 839.776129 
L -403.54536 840.656067 
L -405.553397 841.714319 
L -407.621441 842.551436 
L -409.631284 843.427179 
L -411.617137 844.460881 
L -413.619782 845.429107 
L -415.657405 846.190817 
z
" clip-path="url(#p1561672f51)" style="fill: #a0522d; fill-opacity: 0.25; stroke: #a0522d; stroke-opacity: 0.25"/>
   </g>
   <g id="PathCollection_1">
    <defs>
     <path id="m02a8c33a6d" d="M 0 3 
C 0.795609 3 1.55874 2.683901 2.12132 2.12132 
C 2.683901 1.55874 3 0.795609 3 0 
C 3 -0.795609 2.683901 -1.55874 2.12132 -2.12132 
C 1.55874 -2.683901 0.795609 -3 0 -3 
C -0.795609 -3 -1.55874 -2.683901 -2.12132 -2.12132 
C -2.683901 -1.55874 -3 -0.795609 -3 0 
C -3 0.795609 -2.683901 1.55874 -2.12132 2.12132 
C -1.55874 2.683901 -0.795609 3 0 3 
z
" style="stroke: #000000"/>
    </defs>
    <g clip-path="url(#p1561672f51)">
     <use xlink:href="#m02a8c33a6d" x="384.719828" y="473.078344" style="stroke: #000000"/>
    </g>
   </g>
   <g id="PathCollection_2">
    <g clip-path="url(#p1561672f51)">
     <use xlink:href="#m02a8c33a6d" x="384.719828" y="467.500472" style="stroke: #000000"/>
    </g>
   </g>
   <g id="matplotlib.axis_1">
    <g id="xtick_1">
     <g id="line2d_1">
      <defs>
       <path id="m0dac2f691e" d="M 0 0 
L 0 3.5 
" style="stroke: #000000; stroke-width: 3"/>
      </defs>
      <g>
       <use xlink:href="#m0dac2f691e" x="117.979596" y="603.52" style="stroke: #000000; stroke-width: 3"/>
      </g>
     </g>
     <g id="text_1">
      <!-- 1.5 -->
      <g transform="translate(90.149127 637.114531) scale(0.35 -0.35)">
       <defs>
        <path id="DejaVuSans-31" d="M 794 531 
L 1825 531 
L 1825 4091 
L 703 3866 
L 703 4441 
L 1819 4666 
L 2450 4666 
L 2450 531 
L 3481 531 
L 3481 0 
L 794 0 
L 794 531 
z
" transform="scale(0.015625)"/>
        <path id="DejaVuSans-2e" d="M 684 794 
L 1344 794 
L 1344 0 
L 684 0 
L 684 794 
z
" transform="scale(0.015625)"/>
        <path id="DejaVuSans-35" d="M 691 4666 
L 3169 4666 
L 3169 4134 
L 1269 4134 
L 1269 2991 
Q 1406 3038 1543 3061 
Q 1681 3084 1819 3084 
Q 2600 3084 3056 2656 
Q 3513 2228 3513 1497 
Q 3513 744 3044 326 
Q 2575 -91 1722 -91 
Q 1428 -91 1123 -41 
Q 819 9 494 109 
L 494 744 
Q 775 591 1075 516 
Q 1375 441 1709 441 
Q 2250 441 2565 725 
Q 2881 1009 2881 1497 
Q 2881 1984 2565 2268 
Q 2250 2553 1709 2553 
Q 1456 2553 1204 2497 
Q 953 2441 691 2322 
L 691 4666 
z
" transform="scale(0.015625)"/>
       </defs>
       <use xlink:href="#DejaVuSans-31"/>
       <use xlink:href="#DejaVuSans-2e" x="63.623047"/>
       <use xlink:href="#DejaVuSans-35" x="95.410156"/>
      </g>
     </g>
    </g>
    <g id="xtick_2">
     <g id="line2d_2">
      <g>
       <use xlink:href="#m0dac2f691e" x="296.519408" y="603.52" style="stroke: #000000; stroke-width: 3"/>
      </g>
     </g>
     <g id="text_2">
      <!-- 2.0 -->
      <g transform="translate(268.688939 637.114531) scale(0.35 -0.35)">
       <defs>
        <path id="DejaVuSans-32" d="M 1228 531 
L 3431 531 
L 3431 0 
L 469 0 
L 469 531 
Q 828 903 1448 1529 
Q 2069 2156 2228 2338 
Q 2531 2678 2651 2914 
Q 2772 3150 2772 3378 
Q 2772 3750 2511 3984 
Q 2250 4219 1831 4219 
Q 1534 4219 1204 4116 
Q 875 4013 500 3803 
L 500 4441 
Q 881 4594 1212 4672 
Q 1544 4750 1819 4750 
Q 2544 4750 2975 4387 
Q 3406 4025 3406 3419 
Q 3406 3131 3298 2873 
Q 3191 2616 2906 2266 
Q 2828 2175 2409 1742 
Q 1991 1309 1228 531 
z
" transform="scale(0.015625)"/>
        <path id="DejaVuSans-30" d="M 2034 4250 
Q 1547 4250 1301 3770 
Q 1056 3291 1056 2328 
Q 1056 1369 1301 889 
Q 1547 409 2034 409 
Q 2525 409 2770 889 
Q 3016 1369 3016 2328 
Q 3016 3291 2770 3770 
Q 2525 4250 2034 4250 
z
M 2034 4750 
Q 2819 4750 3233 4129 
Q 3647 3509 3647 2328 
Q 3647 1150 3233 529 
Q 2819 -91 2034 -91 
Q 1250 -91 836 529 
Q 422 1150 422 2328 
Q 422 3509 836 4129 
Q 1250 4750 2034 4750 
z
" transform="scale(0.015625)"/>
       </defs>
       <use xlink:href="#DejaVuSans-32"/>
       <use xlink:href="#DejaVuSans-2e" x="63.623047"/>
       <use xlink:href="#DejaVuSans-30" x="95.410156"/>
      </g>
     </g>
    </g>
    <g id="xtick_3">
     <g id="line2d_3">
      <g>
       <use xlink:href="#m0dac2f691e" x="475.059219" y="603.52" style="stroke: #000000; stroke-width: 3"/>
      </g>
     </g>
     <g id="text_3">
      <!-- 2.5 -->
      <g transform="translate(447.22875 637.114531) scale(0.35 -0.35)">
       <use xlink:href="#DejaVuSans-32"/>
       <use xlink:href="#DejaVuSans-2e" x="63.623047"/>
       <use xlink:href="#DejaVuSans-35" x="95.410156"/>
      </g>
     </g>
    </g>
    <g id="xtick_4">
     <g id="line2d_4">
      <g>
       <use xlink:href="#m0dac2f691e" x="653.599031" y="603.52" style="stroke: #000000; stroke-width: 3"/>
      </g>
     </g>
     <g id="text_4">
      <!-- 3.0 -->
      <g transform="translate(625.768562 637.114531) scale(0.35 -0.35)">
       <defs>
        <path id="DejaVuSans-33" d="M 2597 2516 
Q 3050 2419 3304 2112 
Q 3559 1806 3559 1356 
Q 3559 666 3084 287 
Q 2609 -91 1734 -91 
Q 1441 -91 1130 -33 
Q 819 25 488 141 
L 488 750 
Q 750 597 1062 519 
Q 1375 441 1716 441 
Q 2309 441 2620 675 
Q 2931 909 2931 1356 
Q 2931 1769 2642 2001 
Q 2353 2234 1838 2234 
L 1294 2234 
L 1294 2753 
L 1863 2753 
Q 2328 2753 2575 2939 
Q 2822 3125 2822 3475 
Q 2822 3834 2567 4026 
Q 2313 4219 1838 4219 
Q 1578 4219 1281 4162 
Q 984 4106 628 3988 
L 628 4550 
Q 988 4650 1302 4700 
Q 1616 4750 1894 4750 
Q 2613 4750 3031 4423 
Q 3450 4097 3450 3541 
Q 3450 3153 3228 2886 
Q 3006 2619 2597 2516 
z
" transform="scale(0.015625)"/>
       </defs>
       <use xlink:href="#DejaVuSans-33"/>
       <use xlink:href="#DejaVuSans-2e" x="63.623047"/>
       <use xlink:href="#DejaVuSans-30" x="95.410156"/>
      </g>
     </g>
    </g>
    <g id="text_5">
     <!-- Cumulative total (cts) -->
     <g transform="translate(202.191874 674.987969) scale(0.35 -0.35)">
      <defs>
       <path id="DejaVuSans-43" d="M 4122 4306 
L 4122 3641 
Q 3803 3938 3442 4084 
Q 3081 4231 2675 4231 
Q 1875 4231 1450 3742 
Q 1025 3253 1025 2328 
Q 1025 1406 1450 917 
Q 1875 428 2675 428 
Q 3081 428 3442 575 
Q 3803 722 4122 1019 
L 4122 359 
Q 3791 134 3420 21 
Q 3050 -91 2638 -91 
Q 1578 -91 968 557 
Q 359 1206 359 2328 
Q 359 3453 968 4101 
Q 1578 4750 2638 4750 
Q 3056 4750 3426 4639 
Q 3797 4528 4122 4306 
z
" transform="scale(0.015625)"/>
       <path id="DejaVuSans-75" d="M 544 1381 
L 544 3500 
L 1119 3500 
L 1119 1403 
Q 1119 906 1312 657 
Q 1506 409 1894 409 
Q 2359 409 2629 706 
Q 2900 1003 2900 1516 
L 2900 3500 
L 3475 3500 
L 3475 0 
L 2900 0 
L 2900 538 
Q 2691 219 2414 64 
Q 2138 -91 1772 -91 
Q 1169 -91 856 284 
Q 544 659 544 1381 
z
M 1991 3584 
L 1991 3584 
z
" transform="scale(0.015625)"/>
       <path id="DejaVuSans-6d" d="M 3328 2828 
Q 3544 3216 3844 3400 
Q 4144 3584 4550 3584 
Q 5097 3584 5394 3201 
Q 5691 2819 5691 2113 
L 5691 0 
L 5113 0 
L 5113 2094 
Q 5113 2597 4934 2840 
Q 4756 3084 4391 3084 
Q 3944 3084 3684 2787 
Q 3425 2491 3425 1978 
L 3425 0 
L 2847 0 
L 2847 2094 
Q 2847 2600 2669 2842 
Q 2491 3084 2119 3084 
Q 1678 3084 1418 2786 
Q 1159 2488 1159 1978 
L 1159 0 
L 581 0 
L 581 3500 
L 1159 3500 
L 1159 2956 
Q 1356 3278 1631 3431 
Q 1906 3584 2284 3584 
Q 2666 3584 2933 3390 
Q 3200 3197 3328 2828 
z
" transform="scale(0.015625)"/>
       <path id="DejaVuSans-6c" d="M 603 4863 
L 1178 4863 
L 1178 0 
L 603 0 
L 603 4863 
z
" transform="scale(0.015625)"/>
       <path id="DejaVuSans-61" d="M 2194 1759 
Q 1497 1759 1228 1600 
Q 959 1441 959 1056 
Q 959 750 1161 570 
Q 1363 391 1709 391 
Q 2188 391 2477 730 
Q 2766 1069 2766 1631 
L 2766 1759 
L 2194 1759 
z
M 3341 1997 
L 3341 0 
L 2766 0 
L 2766 531 
Q 2569 213 2275 61 
Q 1981 -91 1556 -91 
Q 1019 -91 701 211 
Q 384 513 384 1019 
Q 384 1609 779 1909 
Q 1175 2209 1959 2209 
L 2766 2209 
L 2766 2266 
Q 2766 2663 2505 2880 
Q 2244 3097 1772 3097 
Q 1472 3097 1187 3025 
Q 903 2953 641 2809 
L 641 3341 
Q 956 3463 1253 3523 
Q 1550 3584 1831 3584 
Q 2591 3584 2966 3190 
Q 3341 2797 3341 1997 
z
" transform="scale(0.015625)"/>
       <path id="DejaVuSans-74" d="M 1172 4494 
L 1172 3500 
L 2356 3500 
L 2356 3053 
L 1172 3053 
L 1172 1153 
Q 1172 725 1289 603 
Q 1406 481 1766 481 
L 2356 481 
L 2356 0 
L 1766 0 
Q 1100 0 847 248 
Q 594 497 594 1153 
L 594 3053 
L 172 3053 
L 172 3500 
L 594 3500 
L 594 4494 
L 1172 4494 
z
" transform="scale(0.015625)"/>
       <path id="DejaVuSans-69" d="M 603 3500 
L 1178 3500 
L 1178 0 
L 603 0 
L 603 3500 
z
M 603 4863 
L 1178 4863 
L 1178 4134 
L 603 4134 
L 603 4863 
z
" transform="scale(0.015625)"/>
       <path id="DejaVuSans-76" d="M 191 3500 
L 800 3500 
L 1894 563 
L 2988 3500 
L 3597 3500 
L 2284 0 
L 1503 0 
L 191 3500 
z
" transform="scale(0.015625)"/>
       <path id="DejaVuSans-65" d="M 3597 1894 
L 3597 1613 
L 953 1613 
Q 991 1019 1311 708 
Q 1631 397 2203 397 
Q 2534 397 2845 478 
Q 3156 559 3463 722 
L 3463 178 
Q 3153 47 2828 -22 
Q 2503 -91 2169 -91 
Q 1331 -91 842 396 
Q 353 884 353 1716 
Q 353 2575 817 3079 
Q 1281 3584 2069 3584 
Q 2775 3584 3186 3129 
Q 3597 2675 3597 1894 
z
M 3022 2063 
Q 3016 2534 2758 2815 
Q 2500 3097 2075 3097 
Q 1594 3097 1305 2825 
Q 1016 2553 972 2059 
L 3022 2063 
z
" transform="scale(0.015625)"/>
       <path id="DejaVuSans-20" transform="scale(0.015625)"/>
       <path id="DejaVuSans-6f" d="M 1959 3097 
Q 1497 3097 1228 2736 
Q 959 2375 959 1747 
Q 959 1119 1226 758 
Q 1494 397 1959 397 
Q 2419 397 2687 759 
Q 2956 1122 2956 1747 
Q 2956 2369 2687 2733 
Q 2419 3097 1959 3097 
z
M 1959 3584 
Q 2709 3584 3137 3096 
Q 3566 2609 3566 1747 
Q 3566 888 3137 398 
Q 2709 -91 1959 -91 
Q 1206 -91 779 398 
Q 353 888 353 1747 
Q 353 2609 779 3096 
Q 1206 3584 1959 3584 
z
" transform="scale(0.015625)"/>
       <path id="DejaVuSans-28" d="M 1984 4856 
Q 1566 4138 1362 3434 
Q 1159 2731 1159 2009 
Q 1159 1288 1364 580 
Q 1569 -128 1984 -844 
L 1484 -844 
Q 1016 -109 783 600 
Q 550 1309 550 2009 
Q 550 2706 781 3412 
Q 1013 4119 1484 4856 
L 1984 4856 
z
" transform="scale(0.015625)"/>
       <path id="DejaVuSans-63" d="M 3122 3366 
L 3122 2828 
Q 2878 2963 2633 3030 
Q 2388 3097 2138 3097 
Q 1578 3097 1268 2742 
Q 959 2388 959 1747 
Q 959 1106 1268 751 
Q 1578 397 2138 397 
Q 2388 397 2633 464 
Q 2878 531 3122 666 
L 3122 134 
Q 2881 22 2623 -34 
Q 2366 -91 2075 -91 
Q 1284 -91 818 406 
Q 353 903 353 1747 
Q 353 2603 823 3093 
Q 1294 3584 2113 3584 
Q 2378 3584 2631 3529 
Q 2884 3475 3122 3366 
z
" transform="scale(0.015625)"/>
       <path id="DejaVuSans-73" d="M 2834 3397 
L 2834 2853 
Q 2591 2978 2328 3040 
Q 2066 3103 1784 3103 
Q 1356 3103 1142 2972 
Q 928 2841 928 2578 
Q 928 2378 1081 2264 
Q 1234 2150 1697 2047 
L 1894 2003 
Q 2506 1872 2764 1633 
Q 3022 1394 3022 966 
Q 3022 478 2636 193 
Q 2250 -91 1575 -91 
Q 1294 -91 989 -36 
Q 684 19 347 128 
L 347 722 
Q 666 556 975 473 
Q 1284 391 1588 391 
Q 1994 391 2212 530 
Q 2431 669 2431 922 
Q 2431 1156 2273 1281 
Q 2116 1406 1581 1522 
L 1381 1569 
Q 847 1681 609 1914 
Q 372 2147 372 2553 
Q 372 3047 722 3315 
Q 1072 3584 1716 3584 
Q 2034 3584 2315 3537 
Q 2597 3491 2834 3397 
z
" transform="scale(0.015625)"/>
       <path id="DejaVuSans-29" d="M 513 4856 
L 1013 4856 
Q 1481 4119 1714 3412 
Q 1947 2706 1947 2009 
Q 1947 1309 1714 600 
Q 1481 -109 1013 -844 
L 513 -844 
Q 928 -128 1133 580 
Q 1338 1288 1338 2009 
Q 1338 2731 1133 3434 
Q 928 4138 513 4856 
z
" transform="scale(0.015625)"/>
      </defs>
      <use xlink:href="#DejaVuSans-43"/>
      <use xlink:href="#DejaVuSans-75" x="69.824219"/>
      <use xlink:href="#DejaVuSans-6d" x="133.203125"/>
      <use xlink:href="#DejaVuSans-75" x="230.615234"/>
      <use xlink:href="#DejaVuSans-6c" x="293.994141"/>
      <use xlink:href="#DejaVuSans-61" x="321.777344"/>
      <use xlink:href="#DejaVuSans-74" x="383.056641"/>
      <use xlink:href="#DejaVuSans-69" x="422.265625"/>
      <use xlink:href="#DejaVuSans-76" x="450.048828"/>
      <use xlink:href="#DejaVuSans-65" x="509.228516"/>
      <use xlink:href="#DejaVuSans-20" x="570.751953"/>
      <use xlink:href="#DejaVuSans-74" x="602.539062"/>
      <use xlink:href="#DejaVuSans-6f" x="641.748047"/>
      <use xlink:href="#DejaVuSans-74" x="702.929688"/>
      <use xlink:href="#DejaVuSans-61" x="742.138672"/>
      <use xlink:href="#DejaVuSans-6c" x="803.417969"/>
      <use xlink:href="#DejaVuSans-20" x="831.201172"/>
      <use xlink:href="#DejaVuSans-28" x="862.988281"/>
      <use xlink:href="#DejaVuSans-63" x="902.001953"/>
      <use xlink:href="#DejaVuSans-74" x="956.982422"/>
      <use xlink:href="#DejaVuSans-73" x="996.191406"/>
      <use xlink:href="#DejaVuSans-29" x="1048.291016"/>
     </g>
    </g>
    <g id="text_6">
     <!-- 1e6 -->
     <g transform="translate(613.988747 673.987969) scale(0.35 -0.35)">
      <defs>
       <path id="DejaVuSans-36" d="M 2113 2584 
Q 1688 2584 1439 2293 
Q 1191 2003 1191 1497 
Q 1191 994 1439 701 
Q 1688 409 2113 409 
Q 2538 409 2786 701 
Q 3034 994 3034 1497 
Q 3034 2003 2786 2293 
Q 2538 2584 2113 2584 
z
M 3366 4563 
L 3366 3988 
Q 3128 4100 2886 4159 
Q 2644 4219 2406 4219 
Q 1781 4219 1451 3797 
Q 1122 3375 1075 2522 
Q 1259 2794 1537 2939 
Q 1816 3084 2150 3084 
Q 2853 3084 3261 2657 
Q 3669 2231 3669 1497 
Q 3669 778 3244 343 
Q 2819 -91 2113 -91 
Q 1303 -91 875 529 
Q 447 1150 447 2328 
Q 447 3434 972 4092 
Q 1497 4750 2381 4750 
Q 2619 4750 2861 4703 
Q 3103 4656 3366 4563 
z
" transform="scale(0.015625)"/>
      </defs>
      <use xlink:href="#DejaVuSans-31"/>
      <use xlink:href="#DejaVuSans-65" x="63.623047"/>
      <use xlink:href="#DejaVuSans-36" x="125.146484"/>
     </g>
    </g>
   </g>
   <g id="matplotlib.axis_2">
    <g id="ytick_1">
     <g id="line2d_5">
      <defs>
       <path id="me0415480c3" d="M 0 0 
L -3.5 0 
" style="stroke: #000000; stroke-width: 3"/>
      </defs>
      <g>
       <use xlink:href="#me0415480c3" x="104.87" y="482.109466" style="stroke: #000000; stroke-width: 3"/>
      </g>
     </g>
     <g id="text_7">
      <!-- 3 -->
      <g transform="translate(75.60125 495.406731) scale(0.35 -0.35)">
       <use xlink:href="#DejaVuSans-33"/>
      </g>
     </g>
    </g>
    <g id="ytick_2">
     <g id="line2d_6">
      <g>
       <use xlink:href="#me0415480c3" x="104.87" y="359.815406" style="stroke: #000000; stroke-width: 3"/>
      </g>
     </g>
     <g id="text_8">
      <!-- 4 -->
      <g transform="translate(75.60125 373.112672) scale(0.35 -0.35)">
       <defs>
        <path id="DejaVuSans-34" d="M 2419 4116 
L 825 1625 
L 2419 1625 
L 2419 4116 
z
M 2253 4666 
L 3047 4666 
L 3047 1625 
L 3713 1625 
L 3713 1100 
L 3047 1100 
L 3047 0 
L 2419 0 
L 2419 1100 
L 313 1100 
L 313 1709 
L 2253 4666 
z
" transform="scale(0.015625)"/>
       </defs>
       <use xlink:href="#DejaVuSans-34"/>
      </g>
     </g>
    </g>
    <g id="ytick_3">
     <g id="line2d_7">
      <g>
       <use xlink:href="#me0415480c3" x="104.87" y="237.521346" style="stroke: #000000; stroke-width: 3"/>
      </g>
     </g>
     <g id="text_9">
      <!-- 5 -->
      <g transform="translate(75.60125 250.818612) scale(0.35 -0.35)">
       <use xlink:href="#DejaVuSans-35"/>
      </g>
     </g>
    </g>
    <g id="ytick_4">
     <g id="line2d_8">
      <g>
       <use xlink:href="#me0415480c3" x="104.87" y="115.227287" style="stroke: #000000; stroke-width: 3"/>
      </g>
     </g>
     <g id="text_10">
      <!-- 6 -->
      <g transform="translate(75.60125 128.524552) scale(0.35 -0.35)">
       <use xlink:href="#DejaVuSans-36"/>
      </g>
     </g>
    </g>
    <g id="text_11">
     <!-- Cumulative solute (cts) -->
     <g transform="translate(64.322344 539.144453) rotate(-90) scale(0.35 -0.35)">
      <use xlink:href="#DejaVuSans-43"/>
      <use xlink:href="#DejaVuSans-75" x="69.824219"/>
      <use xlink:href="#DejaVuSans-6d" x="133.203125"/>
      <use xlink:href="#DejaVuSans-75" x="230.615234"/>
      <use xlink:href="#DejaVuSans-6c" x="293.994141"/>
      <use xlink:href="#DejaVuSans-61" x="321.777344"/>
      <use xlink:href="#DejaVuSans-74" x="383.056641"/>
      <use xlink:href="#DejaVuSans-69" x="422.265625"/>
      <use xlink:href="#DejaVuSans-76" x="450.048828"/>
      <use xlink:href="#DejaVuSans-65" x="509.228516"/>
      <use xlink:href="#DejaVuSans-20" x="570.751953"/>
      <use xlink:href="#DejaVuSans-73" x="602.539062"/>
      <use xlink:href="#DejaVuSans-6f" x="654.638672"/>
      <use xlink:href="#DejaVuSans-6c" x="715.820312"/>
      <use xlink:href="#DejaVuSans-75" x="743.603516"/>
      <use xlink:href="#DejaVuSans-74" x="806.982422"/>
      <use xlink:href="#DejaVuSans-65" x="846.191406"/>
      <use xlink:href="#DejaVuSans-20" x="907.714844"/>
      <use xlink:href="#DejaVuSans-28" x="939.501953"/>
      <use xlink:href="#DejaVuSans-63" x="978.515625"/>
      <use xlink:href="#DejaVuSans-74" x="1033.496094"/>
      <use xlink:href="#DejaVuSans-73" x="1072.705078"/>
      <use xlink:href="#DejaVuSans-29" x="1124.804688"/>
     </g>
    </g>
    <g id="text_12">
     <!-- 1e5 -->
     <g transform="translate(104.87 64.44) scale(0.35 -0.35)">
      <use xlink:href="#DejaVuSans-31"/>
      <use xlink:href="#DejaVuSans-65" x="63.623047"/>
      <use xlink:href="#DejaVuSans-35" x="125.146484"/>
     </g>
    </g>
   </g>
   <g id="line2d_9">
    <path d="M -1 653.450351 
L 16.444784 645.305178 
L 22.641608 642.597256 
L 47.89736 630.379306 
L 56.426492 626.262713 
L 60.711212 624.11703 
L 69.059726 620.255226 
L 73.246937 618.504291 
L 81.675274 614.472295 
L 85.837075 612.541025 
L 87.968181 611.329613 
L 98.57079 606.494955 
L 102.783981 604.471764 
L 109.07559 601.5772 
L 111.240062 600.446178 
L 125.982981 593.578265 
L 134.381406 589.677642 
L 142.694581 585.90147 
L 144.803842 584.843985 
L 151.109352 582.019507 
L 159.361567 578.066178 
L 161.497952 576.921364 
L 165.644821 575.015636 
L 176.181278 570.042415 
L 184.688804 565.854019 
L 186.829662 564.851259 
L 189.011752 563.701602 
L 193.274874 561.822337 
L 212.174337 553.049945 
L 216.358016 551.071473 
L 220.554046 549.358002 
L 226.81474 546.47777 
L 228.910884 545.436682 
L 233.061262 543.666818 
L 241.499352 539.64175 
L 256.290778 532.664992 
L 277.449317 523.122335 
L 284.016343 519.852402 
L 292.632868 515.762202 
L 294.811153 514.644363 
L 299.061042 512.699262 
L 301.219163 511.547175 
L 307.549709 508.739371 
L 313.858399 505.713772 
L 318.008877 503.999404 
L 330.560566 498.048005 
L 342.569065 492.441396 
L 348.239361 489.685087 
L 355.435427 486.010389 
L 362.260532 482.483799 
L 377.952579 473.745986 
L 380.888398 472.049404 
L 387.02251 468.562669 
L 392.946359 465.236236 
L 404.048463 459.193276 
L 414.423418 453.9469 
L 434.713395 444.054801 
L 436.580348 443.303227 
L 440.414228 441.384347 
L 457.959377 433.070038 
L 461.900539 431.073098 
L 463.875001 430.073258 
L 469.781026 427.388411 
L 483.649182 420.845333 
L 491.313753 417.450667 
L 503.016121 411.70871 
L 510.838749 407.925654 
L 520.353668 403.274884 
L 526.016267 400.702845 
L 529.910058 398.880523 
L 546.914184 391.048457 
L 548.789341 390.01786 
L 552.511835 388.331076 
L 554.446415 387.319649 
L 574.893028 377.923179 
L 576.787731 377.00746 
L 578.691122 375.949216 
L 595.313802 367.868113 
L 600.842262 365.168519 
L 618.999937 356.751113 
L 628.081539 352.398465 
L 631.71281 350.596514 
L 656.868707 338.622876 
L 658.693617 337.668623 
L 660.442307 336.879837 
L 662.264004 335.911514 
L 665.875837 334.405627 
L 667.599201 333.703986 
L 672.909692 331.187319 
L 678.249312 328.79566 
L 688.877323 323.844861 
L 694.263951 321.077136 
L 715.17951 311.573201 
L 721 308.92161 
L 721 308.92161 
" clip-path="url(#p1561672f51)" style="fill: none; stroke: #a0522d; stroke-width: 4; stroke-linecap: square"/>
   </g>
   <g id="line2d_10">
    <path d="M -1 652.845685 
L 383.948848 473.078344 
L 383.948848 473.078344 
" clip-path="url(#p1561672f51)" style="fill: none; stroke-dasharray: 7.4,3.2; stroke-dashoffset: 0; stroke: #000000; stroke-width: 2"/>
   </g>
   <g id="line2d_11">
    <path d="M 385.490809 467.500472 
L 721 308.30135 
L 721 308.30135 
" clip-path="url(#p1561672f51)" style="fill: none; stroke-dasharray: 7.4,3.2; stroke-dashoffset: 0; stroke: #000000; stroke-width: 2"/>
   </g>
   <g id="LineCollection_1">
    <path d="M 384.719828 473.078344 
L 384.719828 467.500472 
" clip-path="url(#p1561672f51)" style="fill: none; stroke: #000000; stroke-width: 2"/>
   </g>
   <g id="LineCollection_2">
    <path d="M 384.719828 473.531377 
L 384.719828 472.625311 
" clip-path="url(#p1561672f51)" style="fill: none; stroke: #000000; stroke-width: 1.5"/>
   </g>
   <g id="line2d_12">
    <defs>
     <path id="m0f4fc4f6ff" d="M 25 0 
L -25 -0 
" style="stroke: #000000"/>
    </defs>
    <g clip-path="url(#p1561672f51)">
     <use xlink:href="#m0f4fc4f6ff" x="384.719828" y="473.531377" style="stroke: #000000"/>
    </g>
   </g>
   <g id="line2d_13">
    <g clip-path="url(#p1561672f51)">
     <use xlink:href="#m0f4fc4f6ff" x="384.719828" y="472.625311" style="stroke: #000000"/>
    </g>
   </g>
   <g id="LineCollection_3">
    <path d="M 384.719828 467.893862 
L 384.719828 467.107082 
" clip-path="url(#p1561672f51)" style="fill: none; stroke: #000000; stroke-width: 1.5"/>
   </g>
   <g id="line2d_14">
    <g clip-path="url(#p1561672f51)">
     <use xlink:href="#m0f4fc4f6ff" x="384.719828" y="467.893862" style="stroke: #000000"/>
    </g>
   </g>
   <g id="line2d_15">
    <g clip-path="url(#p1561672f51)">
     <use xlink:href="#m0f4fc4f6ff" x="384.719828" y="467.107082" style="stroke: #000000"/>
    </g>
   </g>
   <g id="line2d_16">
    <path d="M 384.719828 473.078344 
" clip-path="url(#p1561672f51)" style="fill: none; stroke: #000000; stroke-width: 1.5; stroke-linecap: square"/>
   </g>
   <g id="line2d_17">
    <path d="M 384.719828 467.500472 
" clip-path="url(#p1561672f51)" style="fill: none; stroke: #000000; stroke-width: 1.5; stroke-linecap: square"/>
   </g>
   <g id="patch_3">
    <path d="M 104.87 603.52 
L 104.87 67.44 
" style="fill: none; stroke: #000000; stroke-width: 3; stroke-linejoin: miter; stroke-linecap: square"/>
   </g>
   <g id="patch_4">
    <path d="M 680.062185 603.52 
L 680.062185 67.44 
" style="fill: none; stroke: #000000; stroke-width: 3; stroke-linejoin: miter; stroke-linecap: square"/>
   </g>
   <g id="patch_5">
    <path d="M 104.87 603.52 
L 680.062185 603.52 
" style="fill: none; stroke: #000000; stroke-width: 3; stroke-linejoin: miter; stroke-linecap: square"/>
   </g>
   <g id="patch_6">
    <path d="M 104.87 67.44 
L 680.062185 67.44 
" style="fill: none; stroke: #000000; stroke-width: 3; stroke-linejoin: miter; stroke-linecap: square"/>
   </g>
   <g id="legend_1">
    <g id="line2d_18">
     <path d="M 444.257497 132.932188 
L 494.257497 132.932188 
L 544.257497 132.932188 
" style="fill: none; stroke: #a0522d; stroke-width: 4; stroke-linecap: square"/>
    </g>
    <g id="text_13">
     <!-- C  -->
     <g transform="translate(584.257497 150.432188) scale(0.5 -0.5)">
      <use xlink:href="#DejaVuSans-43"/>
      <use xlink:href="#DejaVuSans-20" x="69.824219"/>
     </g>
    </g>
   </g>
  </g>
 </g>
 <defs>
  <clipPath id="p1561672f51">
   <rect x="104.87" y="67.44" width="575.192185" height="536.08"/>
  </clipPath>
 </defs>
</svg>
