<?xml version="1.0" encoding="utf-8" standalone="no"?>
<!DOCTYPE svg PUBLIC "-//W3C//DTD SVG 1.1//EN"
  "http://www.w3.org/Graphics/SVG/1.1/DTD/svg11.dtd">
<svg xmlns:xlink="http://www.w3.org/1999/xlink" width="720pt" height="720pt" viewBox="0 0 720 720" xmlns="http://www.w3.org/2000/svg" version="1.1">
 <metadata>
  <rdf:RDF xmlns:dc="http://purl.org/dc/elements/1.1/" xmlns:cc="http://creativecommons.org/ns#" xmlns:rdf="http://www.w3.org/1999/02/22-rdf-syntax-ns#">
   <cc:Work>
    <dc:type rdf:resource="http://purl.org/dc/dcmitype/StillImage"/>
    <dc:date>2023-11-23T21:09:14.533157</dc:date>
    <dc:format>image/svg+xml</dc:format>
    <dc:creator>
     <cc:Agent>
      <dc:title>Matplotlib v3.7.2, https://matplotlib.org/</dc:title>
     </cc:Agent>
    </dc:creator>
   </cc:Work>
  </rdf:RDF>
 </metadata>
 <defs>
  <style type="text/css">*{stroke-linejoin: round; stroke-linecap: butt}</style>
 </defs>
 <g id="figure_1">
  <g id="patch_1">
   <path d="M 0 720 
L 720 720 
L 720 0 
L 0 0 
z
" style="fill: #ffffff"/>
  </g>
  <g id="axes_1">
   <g id="patch_2">
    <path d="M 104.87 603.52 
L 680.062185 603.52 
L 680.062185 67.44 
L 104.87 67.44 
z
" style="fill: #ffffff"/>
   </g>
   <g id="PolyCollection_1">
    <path d="M -415.657405 854.206649 
L -415.657405 856.924799 
L -413.619782 855.885269 
L -411.617137 854.903653 
L -409.631284 853.982284 
L -407.621441 852.963437 
L -405.553397 851.923641 
L -403.54536 850.938293 
L -401.521783 849.940191 
L -399.438684 848.948424 
L -397.464869 847.98255 
L -395.458696 846.971433 
L -393.393841 846.016517 
L -391.383033 845.102136 
L -389.339171 844.046931 
L -387.258244 843.070831 
L -385.177754 842.06007 
L -383.263612 841.152662 
L -381.21354 840.200294 
L -379.154409 839.137581 
L -377.130704 838.180322 
L -375.090256 837.200145 
L -373.064952 836.286575 
L -370.994948 835.322022 
L -368.96876 834.233937 
L -366.995234 833.298333 
L -364.954216 832.298686 
L -362.899017 831.29874 
L -360.876079 830.319479 
L -358.760304 829.337628 
L -356.684669 828.283721 
L -354.609213 827.227044 
L -352.528082 826.282651 
L -350.39927 825.260911 
L -348.331248 824.362564 
L -346.233548 823.321706 
L -344.139477 822.298984 
L -342.088138 821.227137 
L -340.05161 820.331609 
L -337.996076 819.254768 
L -335.897213 818.323081 
L -333.799604 817.248561 
L -331.759779 816.302616 
L -329.715093 815.337685 
L -327.582385 814.292132 
L -325.46758 813.304171 
L -323.376257 812.339264 
L -321.300787 811.322009 
L -319.202354 810.403588 
L -317.158077 809.451248 
L -315.117049 808.426765 
L -313.069758 807.459232 
L -311.01724 806.460829 
L -308.951084 805.489156 
L -306.867986 804.401222 
L -304.727749 803.402829 
L -302.637753 802.445612 
L -300.577516 801.447901 
L -298.52013 800.461811 
L -296.415149 799.489734 
L -294.357598 798.463297 
L -292.302023 797.49792 
L -290.238831 796.466029 
L -288.167661 795.45933 
L -286.096136 794.438103 
L -284.02539 793.424358 
L -281.888866 792.29483 
L -279.86994 791.290199 
L -277.780133 790.300032 
L -275.663297 789.354313 
L -273.58395 788.30645 
L -271.522259 787.274313 
L -269.37589 786.231538 
L -267.338559 785.22181 
L -265.246441 784.219742 
L -263.122982 783.305065 
L -261.112467 782.26109 
L -259.023351 781.224835 
L -256.932996 780.231521 
L -254.866479 779.243196 
L -252.801664 778.32243 
L -250.737948 777.257704 
L -248.706225 776.316989 
L -246.669013 775.354466 
L -244.587691 774.326098 
L -242.45794 773.285052 
L -240.344233 772.166605 
L -238.302868 771.146727 
L -236.220219 770.192213 
L -234.118243 769.125985 
L -231.991969 768.103148 
L -229.983849 767.089719 
L -227.92745 766.094235 
L -225.853009 765.08571 
L -223.724087 764.020401 
L -221.629742 762.988035 
L -219.581772 762.129952 
L -217.522612 761.00604 
L -215.451188 760.022815 
L -213.363192 758.96909 
L -211.276285 757.990015 
L -209.222504 756.905612 
L -207.136756 755.920258 
L -205.066864 754.90127 
L -203.025774 753.929209 
L -200.945529 752.901588 
L -198.89429 751.914924 
L -196.816333 751.00399 
L -194.74863 749.921826 
L -192.64101 748.919235 
L -190.580223 747.935342 
L -188.470534 746.893069 
L -186.365491 745.923627 
L -184.310334 744.914218 
L -182.241346 743.875325 
L -180.175293 742.800654 
L -178.066256 741.824521 
L -176.005723 740.802548 
L -173.848451 739.795901 
L -171.740859 738.786434 
L -169.669333 737.818014 
L -167.599603 736.734974 
L -165.555242 735.82998 
L -163.483103 734.780239 
L -161.39921 733.759677 
L -159.348334 732.744131 
L -157.281506 731.698076 
L -155.233579 730.74941 
L -153.144917 729.77141 
L -151.089312 728.731183 
L -148.992979 727.768499 
L -146.874407 726.656774 
L -144.82617 725.64304 
L -142.793776 724.664382 
L -140.745117 723.731662 
L -138.649793 722.60635 
L -136.592409 721.63125 
L -134.489727 720.657875 
L -132.396625 719.682408 
L -130.295774 718.688206 
L -128.240634 717.643293 
L -126.171686 716.636255 
L -124.075607 715.617279 
L -121.914488 714.592084 
L -119.825908 713.599061 
L -117.74051 712.618633 
L -115.669718 711.686354 
L -113.57675 710.59295 
L -111.497419 709.60776 
L -109.441999 708.61619 
L -107.399 707.533245 
L -105.283717 706.504619 
L -103.234343 705.577262 
L -101.090032 704.474414 
L -99.036027 703.454304 
L -96.952961 702.458271 
L -94.845954 701.536505 
L -92.740877 700.443351 
L -90.610509 699.414471 
L -88.503625 698.391728 
L -86.3728 697.401032 
L -84.29316 696.424312 
L -82.182981 695.42074 
L -80.121945 694.393896 
L -78.041021 693.333309 
L -75.971888 692.324092 
L -73.888436 691.341779 
L -71.762173 690.309538 
L -69.637277 689.260282 
L -67.539012 688.275266 
L -65.426962 687.220901 
L -63.346146 686.24247 
L -61.212537 685.233044 
L -59.116937 684.231027 
L -56.993573 683.238162 
L -54.883787 682.23429 
L -52.774592 681.226144 
L -50.739047 680.227704 
L -48.677995 679.209644 
L -46.582061 678.302891 
L -44.494251 677.154276 
L -42.377791 676.117534 
L -40.235776 675.119005 
L -38.109068 674.101575 
L -36.042271 673.077208 
L -34.033035 672.087558 
L -32.010216 671.148568 
L -29.907535 670.145799 
L -27.802296 669.042852 
L -25.699019 668.026445 
L -23.558979 666.992223 
L -21.508212 665.997853 
L -19.354281 664.940196 
L -17.187219 663.879009 
L -15.114114 662.873547 
L -12.970823 661.827513 
L -10.880992 660.850934 
L -8.770386 659.821232 
L -6.649105 658.785015 
L -4.524183 657.811687 
L -2.400906 656.729471 
L -0.251756 655.696348 
L 1.812257 654.700401 
L 3.916426 653.68792 
L 6.022419 652.676591 
L 8.097091 651.667418 
L 10.191493 650.697893 
L 12.299851 649.592564 
L 14.364194 648.563141 
L 16.444784 647.566736 
L 18.509367 646.603618 
L 20.533025 645.536196 
L 22.641608 644.568859 
L 24.794653 643.512517 
L 26.891476 642.533402 
L 28.982924 641.481614 
L 31.068074 640.571338 
L 33.175355 639.503389 
L 35.277104 638.603943 
L 37.380309 637.567018 
L 39.507123 636.62042 
L 41.625848 635.574606 
L 43.692557 634.681384 
L 45.816948 633.562911 
L 47.89736 632.562312 
L 50.040242 631.554591 
L 52.167709 630.55282 
L 54.321711 629.45796 
L 56.426492 628.454241 
L 58.588855 627.406598 
L 60.711212 626.367908 
L 62.791455 625.340379 
L 64.917628 624.322145 
L 67.027406 623.378235 
L 69.059726 622.292071 
L 71.127145 621.301454 
L 73.246937 620.240779 
L 75.376804 619.274281 
L 77.475559 618.283143 
L 79.612378 617.17942 
L 81.675274 616.183045 
L 83.767294 615.1969 
L 85.837075 614.236357 
L 87.968181 613.169077 
L 90.141689 612.14742 
L 92.266751 611.15779 
L 94.313374 610.0153 
L 96.424871 608.967737 
L 98.57079 607.89952 
L 100.684984 606.8701 
L 102.783981 605.915562 
L 104.87 604.853417 
L 106.91653 603.85014 
L 109.07559 602.797033 
L 111.240062 601.796523 
L 113.339215 600.756696 
L 115.443285 599.681493 
L 117.516428 598.659212 
L 119.634232 597.634931 
L 121.756255 596.523768 
L 123.829217 595.589341 
L 125.982981 594.496299 
L 128.106975 593.461487 
L 130.19209 592.47459 
L 132.263173 591.417717 
L 134.381406 590.465949 
L 136.460127 589.413689 
L 138.55695 588.273836 
L 140.629351 587.200936 
L 142.694581 586.240396 
L 144.803842 585.19321 
L 146.88298 584.181653 
L 149.02349 583.184766 
L 151.109352 582.228439 
L 153.172099 581.178239 
L 155.194583 580.192478 
L 157.268565 579.151858 
L 159.361567 578.272291 
L 161.497952 577.162221 
L 163.539 576.184289 
L 165.644821 575.180884 
L 167.74616 574.170801 
L 169.887823 573.085013 
L 171.97207 572.125476 
L 174.07751 571.08646 
L 176.181278 570.065286 
L 178.299955 569.061616 
L 180.407958 568.089866 
L 182.564153 567.003678 
L 184.688804 565.992846 
L 186.829662 564.953671 
L 189.011752 563.907893 
L 191.177265 562.882188 
L 193.274874 561.851262 
L 195.400493 560.82142 
L 197.434378 559.818979 
L 199.546023 558.823761 
L 201.65717 557.761386 
L 203.734532 556.826688 
L 205.819249 555.726371 
L 207.956181 554.701465 
L 210.018982 553.794914 
L 212.174337 552.648999 
L 214.236715 551.70236 
L 216.358016 550.602153 
L 218.426908 549.673972 
L 220.554046 548.524304 
L 222.626336 547.515532 
L 224.699769 546.475984 
L 226.81474 545.524213 
L 228.910884 544.382544 
L 230.987911 543.412551 
L 233.061262 542.312257 
L 235.174483 541.332833 
L 237.266074 540.308359 
L 239.407236 539.349956 
L 241.499352 538.310036 
L 243.619436 537.370007 
L 245.706947 536.306376 
L 247.804946 535.310024 
L 249.937545 534.289322 
L 252.043598 533.261073 
L 254.168218 532.382145 
L 256.290778 531.219488 
L 258.430964 530.263918 
L 260.572325 529.101174 
L 262.642676 528.088717 
L 264.760206 527.074285 
L 266.820124 526.144334 
L 268.903654 525.017279 
L 271.030918 524.005576 
L 273.125244 522.90586 
L 275.294924 521.920862 
L 277.449317 520.80773 
L 279.690478 519.743742 
L 281.861792 518.7126 
L 284.016343 517.711323 
L 286.162996 516.67582 
L 288.310152 515.598579 
L 290.441889 514.578867 
L 292.632868 513.553439 
L 294.811153 512.39601 
L 296.911627 511.391578 
L 299.061042 510.304926 
L 301.219163 509.331864 
L 303.319848 508.33365 
L 305.468394 507.380328 
L 307.549709 506.297951 
L 309.67564 505.271425 
L 311.751955 504.302519 
L 313.858399 503.251064 
L 315.944491 502.337717 
L 318.008877 501.216963 
L 320.135872 500.239082 
L 322.229453 499.136018 
L 324.331439 498.141626 
L 326.395291 497.137374 
L 328.460799 496.192339 
L 330.560566 495.275787 
L 332.611001 494.384298 
L 334.647622 493.408892 
L 336.634411 492.414685 
L 338.611746 491.51584 
L 340.577214 490.603617 
L 342.569065 489.677133 
L 344.450552 488.788009 
L 346.362467 487.941749 
L 348.239361 487.105746 
L 350.04726 486.370475 
L 351.877791 485.519305 
L 353.667786 484.741447 
L 355.435427 483.952234 
L 357.135582 483.221584 
L 358.917825 482.31986 
L 360.586803 481.592454 
L 362.260532 480.823625 
L 363.935072 480.114375 
L 365.574436 479.456657 
L 367.215926 478.796444 
L 368.821711 478.188294 
L 370.318906 477.621719 
L 371.887739 476.899031 
L 373.375908 476.303066 
L 374.931898 475.653116 
L 376.442957 475.092515 
L 377.952579 474.424888 
L 379.438511 473.933183 
L 380.888398 473.250516 
L 382.396599 472.652152 
L 383.948848 472.026422 
L 385.490809 471.393345 
L 387.02251 470.822734 
L 388.508605 470.112642 
L 389.975777 469.472164 
L 391.446366 468.871981 
L 392.946359 468.299901 
L 394.464175 467.709376 
L 396.029522 467.034757 
L 397.594837 466.322263 
L 399.168192 465.694815 
L 400.793054 465.052331 
L 402.394856 464.466608 
L 404.048463 463.757444 
L 405.727807 463.086001 
L 407.406143 462.398249 
L 409.132964 461.694675 
L 410.878115 460.921916 
L 412.659041 460.202067 
L 414.423418 459.420334 
L 416.242589 458.587203 
L 418.072317 457.698952 
L 419.873195 456.938882 
L 421.679798 456.113948 
L 423.581982 455.317333 
L 425.392969 454.445893 
L 427.248453 453.57184 
L 429.085473 452.750234 
L 430.955729 451.934012 
L 432.835307 450.991334 
L 434.713395 450.157265 
L 436.580348 449.329972 
L 438.528321 448.359943 
L 440.414228 447.421728 
L 442.362937 446.470326 
L 444.360791 445.537387 
L 446.306885 444.73419 
L 448.243792 443.670107 
L 450.180259 442.766879 
L 452.133542 441.909337 
L 454.033589 440.960566 
L 455.977642 439.963078 
L 457.959377 439.015035 
L 459.966066 438.1015 
L 461.900539 437.198541 
L 463.875001 436.293559 
L 465.847317 435.386896 
L 467.80058 434.49534 
L 469.781026 433.486058 
L 471.800957 432.580857 
L 473.81804 431.599358 
L 475.840166 430.653758 
L 477.816078 429.703575 
L 479.761938 428.738756 
L 481.734146 427.840076 
L 483.649182 426.911638 
L 485.59243 425.958628 
L 487.494706 424.96487 
L 489.361816 424.024628 
L 491.313753 423.109189 
L 493.274995 422.201534 
L 495.206584 421.3072 
L 497.201442 420.39182 
L 499.158285 419.449333 
L 501.088331 418.520712 
L 503.016121 417.590023 
L 504.940143 416.70987 
L 506.896875 415.692411 
L 508.840534 414.79451 
L 510.838749 413.806811 
L 512.717124 412.90337 
L 514.647968 412.038098 
L 516.53908 411.033828 
L 518.419653 410.106755 
L 520.353668 409.227026 
L 522.220883 408.28926 
L 524.058465 407.302912 
L 526.016267 406.376138 
L 527.961811 405.443305 
L 529.910058 404.526581 
L 531.862457 403.569018 
L 533.715354 402.681153 
L 535.586722 401.821679 
L 537.515695 400.849168 
L 539.415501 399.908773 
L 541.29263 399.033916 
L 543.187057 398.104828 
L 545.099944 397.235808 
L 546.914184 396.363535 
L 548.789341 395.410827 
L 550.660187 394.57753 
L 552.511835 393.620374 
L 554.446415 392.712138 
L 556.306992 391.72008 
L 558.144666 390.913138 
L 560.067531 389.924728 
L 561.957785 389.044891 
L 563.756205 388.221286 
L 565.6174 387.230181 
L 567.478317 386.335144 
L 569.292862 385.459588 
L 571.187916 384.557476 
L 573.050563 383.67117 
L 574.893028 382.723487 
L 576.787731 381.860708 
L 578.691122 381.119232 
L 580.549479 380.082551 
L 582.369168 379.221997 
L 584.230488 378.27493 
L 586.04253 377.367001 
L 587.834871 376.485615 
L 589.712423 375.561145 
L 591.55248 374.727168 
L 593.442567 373.791533 
L 595.313802 372.954294 
L 597.219688 371.948915 
L 599.041116 371.069605 
L 600.842262 370.227573 
L 602.691467 369.328944 
L 604.468732 368.465187 
L 606.273413 367.589125 
L 608.125665 366.654594 
L 609.957857 365.769167 
L 611.737806 364.894604 
L 613.624897 363.980892 
L 615.426732 363.095416 
L 617.226116 362.253607 
L 618.999937 361.371024 
L 620.808495 360.602238 
L 622.644176 359.673274 
L 624.461616 358.747538 
L 626.261952 357.950969 
L 628.081539 357.003139 
L 629.884616 356.093308 
L 631.71281 355.244139 
L 633.4813 354.335364 
L 635.28514 353.52436 
L 637.116336 352.639333 
L 638.936032 351.729393 
L 640.733769 350.864264 
L 642.556801 350.020442 
L 644.387638 349.102427 
L 646.235993 348.290812 
L 647.981508 347.329041 
L 649.782336 346.467238 
L 651.546371 345.675432 
L 653.331638 344.83008 
L 655.112585 343.975629 
L 656.868707 343.033434 
L 658.693617 342.171659 
L 660.442307 341.331175 
L 662.264004 340.471918 
L 664.094555 339.657547 
L 665.875837 338.853135 
L 667.599201 337.926646 
L 669.364178 336.971278 
L 671.136941 336.186854 
L 672.909692 335.29925 
L 674.668255 334.459866 
L 676.440583 333.559408 
L 678.249312 332.642165 
L 680.062185 331.737333 
L 681.878257 330.860152 
L 683.617306 330.045087 
L 685.337356 329.223082 
L 687.119932 328.329932 
L 688.877323 327.488799 
L 690.692263 326.601133 
L 692.44521 325.75742 
L 694.263951 324.899492 
L 696.02437 324.012339 
L 697.729044 323.149926 
L 699.48446 322.242418 
L 701.256453 321.389971 
L 702.992628 320.499436 
L 704.657052 319.667072 
L 706.393278 318.837721 
L 708.203788 317.977076 
L 709.963213 317.120591 
L 711.732451 316.275256 
L 713.463689 315.395282 
L 715.17951 314.57771 
L 716.927321 313.746583 
L 718.631473 312.89995 
L 720.338662 312.130142 
L 722.093177 311.212759 
L 723.797463 310.382815 
L 725.50788 309.49535 
L 727.180843 308.710949 
L 728.921716 307.88473 
L 730.647429 307.03728 
L 732.34198 306.270491 
L 734.068893 305.417522 
L 735.748851 304.633548 
L 737.445382 303.795313 
L 739.171548 302.997591 
L 740.860111 302.11543 
L 742.60502 301.37268 
L 744.356343 300.432042 
L 745.998082 299.652861 
L 747.756841 298.744183 
L 749.377998 298.017636 
L 751.124075 297.099826 
L 752.784761 296.33141 
L 754.496571 295.552991 
L 756.214308 294.725362 
L 757.844464 293.965871 
L 759.517274 293.056121 
L 761.184716 292.288693 
L 762.826654 291.498951 
L 764.483273 290.70618 
L 766.157673 289.87995 
L 766.157673 287.502373 
L 766.157673 287.502373 
L 764.483273 288.307537 
L 762.826654 289.138885 
L 761.184716 289.944307 
L 759.517274 290.714068 
L 757.844464 291.365387 
L 756.214308 292.189252 
L 754.496571 292.994595 
L 752.784761 293.901416 
L 751.124075 294.736045 
L 749.377998 295.404996 
L 747.756841 296.321996 
L 745.998082 297.08734 
L 744.356343 298.033032 
L 742.60502 298.729885 
L 740.860111 299.679437 
L 739.171548 300.502127 
L 737.445382 301.406211 
L 735.748851 302.188217 
L 734.068893 303.025012 
L 732.34198 303.81595 
L 730.647429 304.635674 
L 728.921716 305.457226 
L 727.180843 306.29418 
L 725.50788 307.106866 
L 723.797463 307.835004 
L 722.093177 308.642959 
L 720.338662 309.523141 
L 718.631473 310.414221 
L 716.927321 311.240304 
L 715.17951 312.092304 
L 713.463689 312.948698 
L 711.732451 313.7225 
L 709.963213 314.639468 
L 708.203788 315.51369 
L 706.393278 316.39621 
L 704.657052 317.176075 
L 702.992628 318.023501 
L 701.256453 318.919805 
L 699.48446 319.820215 
L 697.729044 320.605646 
L 696.02437 321.518614 
L 694.263951 322.423904 
L 692.44521 323.327602 
L 690.692263 324.104066 
L 688.877323 325.022241 
L 687.119932 325.909808 
L 685.337356 326.682984 
L 683.617306 327.546212 
L 681.878257 328.420909 
L 680.062185 329.222464 
L 678.249312 330.132481 
L 676.440583 331.026325 
L 674.668255 331.92956 
L 672.909692 332.769617 
L 671.136941 333.547829 
L 669.364178 334.552724 
L 667.599201 335.268169 
L 665.875837 336.100055 
L 664.094555 337.060913 
L 662.264004 338.033142 
L 660.442307 338.867332 
L 658.693617 339.758406 
L 656.868707 340.532496 
L 655.112585 341.31117 
L 653.331638 342.20567 
L 651.546371 343.123663 
L 649.782336 344.041036 
L 647.981508 344.867709 
L 646.235993 345.657806 
L 644.387638 346.559506 
L 642.556801 347.447128 
L 640.733769 348.400398 
L 638.936032 349.267365 
L 637.116336 350.1017 
L 635.28514 351.009709 
L 633.4813 351.922887 
L 631.71281 352.66843 
L 629.884616 353.586623 
L 628.081539 354.504333 
L 626.261952 355.362456 
L 624.461616 356.295813 
L 622.644176 357.087844 
L 620.808495 357.969258 
L 618.999937 358.915758 
L 617.226116 359.760033 
L 615.426732 360.560351 
L 613.624897 361.44294 
L 611.737806 362.395604 
L 609.957857 363.306083 
L 608.125665 364.144006 
L 606.273413 365.034694 
L 604.468732 365.947226 
L 602.691467 366.827615 
L 600.842262 367.719466 
L 599.041116 368.588293 
L 597.219688 369.443422 
L 595.313802 370.230758 
L 593.442567 371.224151 
L 591.55248 372.147588 
L 589.712423 373.071799 
L 587.834871 373.919119 
L 586.04253 374.82023 
L 584.230488 375.708014 
L 582.369168 376.670434 
L 580.549479 377.575776 
L 578.691122 378.343879 
L 576.787731 379.354749 
L 574.893028 380.295811 
L 573.050563 381.023666 
L 571.187916 381.974851 
L 569.292862 382.850278 
L 567.478317 383.802682 
L 565.6174 384.718542 
L 563.756205 385.549295 
L 561.957785 386.431264 
L 560.067531 387.410621 
L 558.144666 388.212709 
L 556.306992 389.176587 
L 554.446415 390.049448 
L 552.511835 391.062998 
L 550.660187 391.918742 
L 548.789341 392.935202 
L 546.914184 393.738437 
L 545.099944 394.651658 
L 543.187057 395.616943 
L 541.29263 396.446435 
L 539.415501 397.41202 
L 537.515695 398.235044 
L 535.586722 399.112152 
L 533.715354 399.996225 
L 531.862457 400.998195 
L 529.910058 401.952697 
L 527.961811 402.89951 
L 526.016267 403.819549 
L 524.058465 404.771029 
L 522.220883 405.626578 
L 520.353668 406.549926 
L 518.419653 407.566477 
L 516.53908 408.456593 
L 514.647968 409.326135 
L 512.717124 410.348084 
L 510.838749 411.248866 
L 508.840534 412.14114 
L 506.896875 413.074781 
L 504.940143 413.998716 
L 503.016121 415.061668 
L 501.088331 415.912986 
L 499.158285 416.842914 
L 497.201442 417.861015 
L 495.206584 418.769151 
L 493.274995 419.680053 
L 491.313753 420.578137 
L 489.361816 421.506414 
L 487.494706 422.377908 
L 485.59243 423.334605 
L 483.649182 424.196856 
L 481.734146 425.14976 
L 479.761938 426.094067 
L 477.816078 427.013204 
L 475.840166 427.861766 
L 473.81804 429.001181 
L 471.800957 429.950275 
L 469.781026 430.903454 
L 467.80058 431.805106 
L 465.847317 432.760804 
L 463.875001 433.745627 
L 461.900539 434.693906 
L 459.966066 435.57678 
L 457.959377 436.466422 
L 455.977642 437.341485 
L 454.033589 438.309273 
L 452.133542 439.192542 
L 450.180259 440.230584 
L 448.243792 441.158433 
L 446.306885 441.896033 
L 444.360791 442.994562 
L 442.362937 443.910949 
L 440.414228 444.840539 
L 438.528321 445.67635 
L 436.580348 446.593189 
L 434.713395 447.579713 
L 432.835307 448.502807 
L 430.955729 449.307912 
L 429.085473 450.231718 
L 427.248453 451.142552 
L 425.392969 451.943991 
L 423.581982 452.765905 
L 421.679798 453.645605 
L 419.873195 454.411774 
L 418.072317 455.280566 
L 416.242589 456.061648 
L 414.423418 456.870822 
L 412.659041 457.653803 
L 410.878115 458.485651 
L 409.132964 459.210597 
L 407.406143 459.969773 
L 405.727807 460.712037 
L 404.048463 461.431664 
L 402.394856 462.160057 
L 400.793054 462.860641 
L 399.168192 463.548981 
L 397.594837 464.193026 
L 396.029522 464.732769 
L 394.464175 465.416705 
L 392.946359 466.112124 
L 391.446366 466.702491 
L 389.975777 467.386899 
L 388.508605 467.953245 
L 387.02251 468.535767 
L 385.490809 469.283257 
L 383.948848 469.867711 
L 382.396599 470.540548 
L 380.888398 471.172826 
L 379.438511 471.647487 
L 377.952579 472.323769 
L 376.442957 472.884993 
L 374.931898 473.556663 
L 373.375908 474.111897 
L 371.887739 474.705512 
L 370.318906 475.284093 
L 368.821711 475.968457 
L 367.215926 476.604631 
L 365.574436 477.270129 
L 363.935072 477.916836 
L 362.260532 478.54666 
L 360.586803 479.224609 
L 358.917825 479.964273 
L 357.135582 480.597026 
L 355.435427 481.455851 
L 353.667786 482.311012 
L 351.877791 483.138845 
L 350.04726 483.880151 
L 348.239361 484.698883 
L 346.362467 485.428917 
L 344.450552 486.306749 
L 342.569065 487.161918 
L 340.577214 488.028573 
L 338.611746 488.902236 
L 336.634411 489.842689 
L 334.647622 490.721942 
L 332.611001 491.615531 
L 330.560566 492.609879 
L 328.460799 493.599877 
L 326.395291 494.549945 
L 324.331439 495.435666 
L 322.229453 496.469038 
L 320.135872 497.410317 
L 318.008877 498.427211 
L 315.944491 499.337777 
L 313.858399 500.593425 
L 311.751955 501.571539 
L 309.67564 502.577534 
L 307.549709 503.553256 
L 305.468394 504.48475 
L 303.319848 505.683617 
L 301.219163 506.680073 
L 299.061042 507.691577 
L 296.911627 508.532371 
L 294.811153 509.652382 
L 292.632868 510.660912 
L 290.441889 511.901936 
L 288.310152 512.919777 
L 286.162996 513.875782 
L 284.016343 514.952344 
L 281.861792 516.03717 
L 279.690478 517.020235 
L 277.449317 518.10202 
L 275.294924 519.094292 
L 273.125244 520.20702 
L 271.030918 521.208187 
L 268.903654 522.283509 
L 266.820124 523.227789 
L 264.760206 524.348699 
L 262.642676 525.386549 
L 260.572325 526.418376 
L 258.430964 527.329606 
L 256.290778 528.505262 
L 254.168218 529.465842 
L 252.043598 530.595199 
L 249.937545 531.61204 
L 247.804946 532.666762 
L 245.706947 533.68091 
L 243.619436 534.551145 
L 241.499352 535.669428 
L 239.407236 536.558661 
L 237.266074 537.645808 
L 235.174483 538.658227 
L 233.061262 539.628462 
L 230.987911 540.587058 
L 228.910884 541.646707 
L 226.81474 542.569616 
L 224.699769 543.701095 
L 222.626336 544.688173 
L 220.554046 545.728824 
L 218.426908 546.75829 
L 216.358016 547.949359 
L 214.236715 548.887797 
L 212.174337 549.946943 
L 210.018982 550.907578 
L 207.956181 551.981895 
L 205.819249 553.092036 
L 203.734532 554.003348 
L 201.65717 555.155118 
L 199.546023 556.028107 
L 197.434378 557.094624 
L 195.400493 558.092418 
L 193.274874 559.074024 
L 191.177265 560.142405 
L 189.011752 561.195652 
L 186.829662 562.27198 
L 184.688804 563.323335 
L 182.564153 564.349483 
L 180.407958 565.281647 
L 178.299955 566.410752 
L 176.181278 567.429496 
L 174.07751 568.397486 
L 171.97207 569.394905 
L 169.887823 570.431476 
L 167.74616 571.342809 
L 165.644821 572.377868 
L 163.539 573.454733 
L 161.497952 574.517274 
L 159.361567 575.408738 
L 157.268565 576.524828 
L 155.194583 577.459189 
L 153.172099 578.479988 
L 151.109352 579.476168 
L 149.02349 580.525239 
L 146.88298 581.500761 
L 144.803842 582.561242 
L 142.694581 583.512597 
L 140.629351 584.53089 
L 138.55695 585.518005 
L 136.460127 586.525414 
L 134.381406 587.584996 
L 132.263173 588.712168 
L 130.19209 589.7373 
L 128.106975 590.752974 
L 125.982981 591.804075 
L 123.829217 592.804773 
L 121.756255 593.878775 
L 119.634232 594.784421 
L 117.516428 595.883164 
L 115.443285 596.944319 
L 113.339215 597.897651 
L 111.240062 598.986456 
L 109.07559 600.087739 
L 106.91653 601.147539 
L 104.87 602.186583 
L 102.783981 603.097581 
L 100.684984 604.223142 
L 98.57079 605.199254 
L 96.424871 606.2562 
L 94.313374 607.221775 
L 92.266751 608.178126 
L 90.141689 609.363185 
L 87.968181 610.526555 
L 85.837075 611.442762 
L 83.767294 612.521447 
L 81.675274 613.57383 
L 79.612378 614.522725 
L 77.475559 615.44785 
L 75.376804 616.487777 
L 73.246937 617.554325 
L 71.127145 618.582173 
L 69.059726 619.61604 
L 67.027406 620.491011 
L 64.917628 621.659331 
L 62.791455 622.675376 
L 60.711212 623.707882 
L 58.588855 624.703014 
L 56.426492 625.751726 
L 54.321711 626.774807 
L 52.167709 627.75529 
L 50.040242 628.841333 
L 47.89736 629.937636 
L 45.816948 630.860397 
L 43.692557 631.848319 
L 41.625848 632.976951 
L 39.507123 633.843313 
L 37.380309 634.913433 
L 35.277104 635.856486 
L 33.175355 636.882878 
L 31.068074 637.778817 
L 28.982924 638.8992 
L 26.891476 639.758637 
L 24.794653 640.836426 
L 22.641608 641.853699 
L 20.533025 642.844078 
L 18.509367 643.763088 
L 16.444784 644.90341 
L 14.364194 645.911732 
L 12.299851 646.899398 
L 10.191493 647.882964 
L 8.097091 648.957278 
L 6.022419 649.949577 
L 3.916426 651.008222 
L 1.812257 652.081362 
L -0.251756 653.023174 
L -2.400906 654.05384 
L -4.524183 655.038884 
L -6.649105 656.140647 
L -8.770386 657.113211 
L -10.880992 658.074806 
L -12.970823 659.100345 
L -15.114114 660.124429 
L -17.187219 661.151588 
L -19.354281 662.244985 
L -21.508212 663.300442 
L -23.558979 664.311336 
L -25.699019 665.365076 
L -27.802296 666.413152 
L -29.907535 667.288134 
L -32.010216 668.372726 
L -34.033035 669.4156 
L -36.042271 670.375908 
L -38.109068 671.38181 
L -40.235776 672.506987 
L -42.377791 673.452541 
L -44.494251 674.453146 
L -46.582061 675.359996 
L -48.677995 676.548225 
L -50.739047 677.579185 
L -52.774592 678.478671 
L -54.883787 679.564892 
L -56.993573 680.626425 
L -59.116937 681.592254 
L -61.212537 682.58915 
L -63.346146 683.574836 
L -65.426962 684.540177 
L -67.539012 685.536149 
L -69.637277 686.555156 
L -71.762173 687.609519 
L -73.888436 688.688067 
L -75.971888 689.655184 
L -78.041021 690.627498 
L -80.121945 691.718791 
L -82.182981 692.722943 
L -84.29316 693.827358 
L -86.3728 694.764137 
L -88.503625 695.75057 
L -90.610509 696.734338 
L -92.740877 697.78055 
L -94.845954 698.736502 
L -96.952961 699.77243 
L -99.036027 700.821457 
L -101.090032 701.777121 
L -103.234343 702.793013 
L -105.283717 703.830305 
L -107.399 704.881152 
L -109.441999 705.841046 
L -111.497419 706.84961 
L -113.57675 707.879808 
L -115.669718 708.840972 
L -117.74051 709.983826 
L -119.825908 711.007105 
L -121.914488 711.931543 
L -124.075607 712.957241 
L -126.171686 713.911727 
L -128.240634 714.968414 
L -130.295774 715.85878 
L -132.396625 716.899533 
L -134.489727 717.947865 
L -136.592409 718.988541 
L -138.649793 719.977347 
L -140.745117 720.841821 
L -142.793776 721.875276 
L -144.82617 722.894512 
L -146.874407 723.979988 
L -148.992979 724.950165 
L -151.089312 725.968925 
L -153.144917 726.954054 
L -155.233579 728.006036 
L -157.281506 729.050701 
L -159.348334 730.034463 
L -161.39921 730.982054 
L -163.483103 732.022684 
L -165.555242 733.075547 
L -167.599603 734.161736 
L -169.669333 734.963415 
L -171.740859 735.993525 
L -173.848451 737.026931 
L -176.005723 738.077402 
L -178.066256 739.052115 
L -180.175293 740.095542 
L -182.241346 741.127198 
L -184.310334 742.169474 
L -186.365491 743.10254 
L -188.470534 744.238665 
L -190.580223 745.233066 
L -192.64101 746.264766 
L -194.74863 747.290912 
L -196.816333 748.216529 
L -198.89429 749.302809 
L -200.945529 750.301535 
L -203.025774 751.215879 
L -205.066864 752.233771 
L -207.136756 753.209931 
L -209.222504 754.151432 
L -211.276285 755.174903 
L -213.363192 756.304704 
L -215.451188 757.276233 
L -217.522612 758.264278 
L -219.581772 759.146063 
L -221.629742 760.357001 
L -223.724087 761.324533 
L -225.853009 762.369827 
L -227.92745 763.4047 
L -229.983849 764.479295 
L -231.991969 765.389887 
L -234.118243 766.48277 
L -236.220219 767.426058 
L -238.302868 768.532082 
L -240.344233 769.468435 
L -242.45794 770.45974 
L -244.587691 771.53928 
L -246.669013 772.563566 
L -248.706225 773.59608 
L -250.737948 774.631494 
L -252.801664 775.558135 
L -254.866479 776.628069 
L -256.932996 777.6019 
L -259.023351 778.611787 
L -261.112467 779.552502 
L -263.122982 780.542115 
L -265.246441 781.578802 
L -267.338559 782.589284 
L -269.37589 783.576944 
L -271.522259 784.570725 
L -273.58395 785.606969 
L -275.663297 786.510502 
L -277.780133 787.652248 
L -279.86994 788.67748 
L -281.888866 789.646014 
L -284.02539 790.544647 
L -286.096136 791.668279 
L -288.167661 792.73372 
L -290.238831 793.740487 
L -292.302023 794.690265 
L -294.357598 795.752549 
L -296.415149 796.756429 
L -298.52013 797.872727 
L -300.577516 798.815381 
L -302.637753 799.833246 
L -304.727749 800.781184 
L -306.867986 801.757377 
L -308.951084 802.672069 
L -311.01724 803.781451 
L -313.069758 804.752264 
L -315.117049 805.700788 
L -317.158077 806.713328 
L -319.202354 807.712585 
L -321.300787 808.726612 
L -323.376257 809.641017 
L -325.46758 810.619388 
L -327.582385 811.726806 
L -329.715093 812.535331 
L -331.759779 813.553887 
L -333.799604 814.612318 
L -335.897213 815.539555 
L -337.996076 816.591866 
L -340.05161 817.584163 
L -342.088138 818.64392 
L -344.139477 819.493879 
L -346.233548 820.545251 
L -348.331248 821.51637 
L -350.39927 822.624 
L -352.528082 823.550938 
L -354.609213 824.583117 
L -356.684669 825.519884 
L -358.760304 826.539469 
L -360.876079 827.551882 
L -362.899017 828.673367 
L -364.954216 829.671211 
L -366.995234 830.660798 
L -368.96876 831.63824 
L -370.994948 832.423703 
L -373.064952 833.56472 
L -375.090256 834.568676 
L -377.130704 835.490182 
L -379.154409 836.516808 
L -381.21354 837.408939 
L -383.263612 838.431185 
L -385.177754 839.375393 
L -387.258244 840.459548 
L -389.339171 841.417213 
L -391.383033 842.353057 
L -393.393841 843.374744 
L -395.458696 844.313806 
L -397.464869 845.316932 
L -399.438684 846.259383 
L -401.521783 847.3624 
L -403.54536 848.272584 
L -405.553397 849.282003 
L -407.621441 850.245232 
L -409.631284 851.26306 
L -411.617137 852.286656 
L -413.619782 853.273304 
L -415.657405 854.206649 
z
" clip-path="url(#p521f99be34)" style="fill: #ff00ff; fill-opacity: 0.25; stroke: #ff00ff; stroke-opacity: 0.25"/>
   </g>
   <g id="PathCollection_1">
    <defs>
     <path id="me1d1336495" d="M 0 3 
C 0.795609 3 1.55874 2.683901 2.12132 2.12132 
C 2.683901 1.55874 3 0.795609 3 0 
C 3 -0.795609 2.683901 -1.55874 2.12132 -2.12132 
C 1.55874 -2.683901 0.795609 -3 0 -3 
C -0.795609 -3 -1.55874 -2.683901 -2.12132 -2.12132 
C -2.683901 -1.55874 -3 -0.795609 -3 0 
C -3 0.795609 -2.683901 1.55874 -2.12132 2.12132 
C -1.55874 2.683901 -0.795609 3 0 3 
z
" style="stroke: #000000"/>
    </defs>
    <g clip-path="url(#p521f99be34)">
     <use xlink:href="#me1d1336495" x="387.765558" y="466.261548" style="stroke: #000000"/>
    </g>
   </g>
   <g id="PathCollection_2">
    <g clip-path="url(#p521f99be34)">
     <use xlink:href="#me1d1336495" x="387.765558" y="471.664603" style="stroke: #000000"/>
    </g>
   </g>
   <g id="matplotlib.axis_1">
    <g id="xtick_1">
     <g id="line2d_1">
      <defs>
       <path id="mc3d82b7dc4" d="M 0 0 
L 0 3.5 
" style="stroke: #000000; stroke-width: 3"/>
      </defs>
      <g>
       <use xlink:href="#mc3d82b7dc4" x="117.979596" y="603.52" style="stroke: #000000; stroke-width: 3"/>
      </g>
     </g>
     <g id="text_1">
      <!-- 1.5 -->
      <g transform="translate(90.149127 637.114531) scale(0.35 -0.35)">
       <defs>
        <path id="DejaVuSans-31" d="M 794 531 
L 1825 531 
L 1825 4091 
L 703 3866 
L 703 4441 
L 1819 4666 
L 2450 4666 
L 2450 531 
L 3481 531 
L 3481 0 
L 794 0 
L 794 531 
z
" transform="scale(0.015625)"/>
        <path id="DejaVuSans-2e" d="M 684 794 
L 1344 794 
L 1344 0 
L 684 0 
L 684 794 
z
" transform="scale(0.015625)"/>
        <path id="DejaVuSans-35" d="M 691 4666 
L 3169 4666 
L 3169 4134 
L 1269 4134 
L 1269 2991 
Q 1406 3038 1543 3061 
Q 1681 3084 1819 3084 
Q 2600 3084 3056 2656 
Q 3513 2228 3513 1497 
Q 3513 744 3044 326 
Q 2575 -91 1722 -91 
Q 1428 -91 1123 -41 
Q 819 9 494 109 
L 494 744 
Q 775 591 1075 516 
Q 1375 441 1709 441 
Q 2250 441 2565 725 
Q 2881 1009 2881 1497 
Q 2881 1984 2565 2268 
Q 2250 2553 1709 2553 
Q 1456 2553 1204 2497 
Q 953 2441 691 2322 
L 691 4666 
z
" transform="scale(0.015625)"/>
       </defs>
       <use xlink:href="#DejaVuSans-31"/>
       <use xlink:href="#DejaVuSans-2e" x="63.623047"/>
       <use xlink:href="#DejaVuSans-35" x="95.410156"/>
      </g>
     </g>
    </g>
    <g id="xtick_2">
     <g id="line2d_2">
      <g>
       <use xlink:href="#mc3d82b7dc4" x="296.519408" y="603.52" style="stroke: #000000; stroke-width: 3"/>
      </g>
     </g>
     <g id="text_2">
      <!-- 2.0 -->
      <g transform="translate(268.688939 637.114531) scale(0.35 -0.35)">
       <defs>
        <path id="DejaVuSans-32" d="M 1228 531 
L 3431 531 
L 3431 0 
L 469 0 
L 469 531 
Q 828 903 1448 1529 
Q 2069 2156 2228 2338 
Q 2531 2678 2651 2914 
Q 2772 3150 2772 3378 
Q 2772 3750 2511 3984 
Q 2250 4219 1831 4219 
Q 1534 4219 1204 4116 
Q 875 4013 500 3803 
L 500 4441 
Q 881 4594 1212 4672 
Q 1544 4750 1819 4750 
Q 2544 4750 2975 4387 
Q 3406 4025 3406 3419 
Q 3406 3131 3298 2873 
Q 3191 2616 2906 2266 
Q 2828 2175 2409 1742 
Q 1991 1309 1228 531 
z
" transform="scale(0.015625)"/>
        <path id="DejaVuSans-30" d="M 2034 4250 
Q 1547 4250 1301 3770 
Q 1056 3291 1056 2328 
Q 1056 1369 1301 889 
Q 1547 409 2034 409 
Q 2525 409 2770 889 
Q 3016 1369 3016 2328 
Q 3016 3291 2770 3770 
Q 2525 4250 2034 4250 
z
M 2034 4750 
Q 2819 4750 3233 4129 
Q 3647 3509 3647 2328 
Q 3647 1150 3233 529 
Q 2819 -91 2034 -91 
Q 1250 -91 836 529 
Q 422 1150 422 2328 
Q 422 3509 836 4129 
Q 1250 4750 2034 4750 
z
" transform="scale(0.015625)"/>
       </defs>
       <use xlink:href="#DejaVuSans-32"/>
       <use xlink:href="#DejaVuSans-2e" x="63.623047"/>
       <use xlink:href="#DejaVuSans-30" x="95.410156"/>
      </g>
     </g>
    </g>
    <g id="xtick_3">
     <g id="line2d_3">
      <g>
       <use xlink:href="#mc3d82b7dc4" x="475.059219" y="603.52" style="stroke: #000000; stroke-width: 3"/>
      </g>
     </g>
     <g id="text_3">
      <!-- 2.5 -->
      <g transform="translate(447.22875 637.114531) scale(0.35 -0.35)">
       <use xlink:href="#DejaVuSans-32"/>
       <use xlink:href="#DejaVuSans-2e" x="63.623047"/>
       <use xlink:href="#DejaVuSans-35" x="95.410156"/>
      </g>
     </g>
    </g>
    <g id="xtick_4">
     <g id="line2d_4">
      <g>
       <use xlink:href="#mc3d82b7dc4" x="653.599031" y="603.52" style="stroke: #000000; stroke-width: 3"/>
      </g>
     </g>
     <g id="text_4">
      <!-- 3.0 -->
      <g transform="translate(625.768562 637.114531) scale(0.35 -0.35)">
       <defs>
        <path id="DejaVuSans-33" d="M 2597 2516 
Q 3050 2419 3304 2112 
Q 3559 1806 3559 1356 
Q 3559 666 3084 287 
Q 2609 -91 1734 -91 
Q 1441 -91 1130 -33 
Q 819 25 488 141 
L 488 750 
Q 750 597 1062 519 
Q 1375 441 1716 441 
Q 2309 441 2620 675 
Q 2931 909 2931 1356 
Q 2931 1769 2642 2001 
Q 2353 2234 1838 2234 
L 1294 2234 
L 1294 2753 
L 1863 2753 
Q 2328 2753 2575 2939 
Q 2822 3125 2822 3475 
Q 2822 3834 2567 4026 
Q 2313 4219 1838 4219 
Q 1578 4219 1281 4162 
Q 984 4106 628 3988 
L 628 4550 
Q 988 4650 1302 4700 
Q 1616 4750 1894 4750 
Q 2613 4750 3031 4423 
Q 3450 4097 3450 3541 
Q 3450 3153 3228 2886 
Q 3006 2619 2597 2516 
z
" transform="scale(0.015625)"/>
       </defs>
       <use xlink:href="#DejaVuSans-33"/>
       <use xlink:href="#DejaVuSans-2e" x="63.623047"/>
       <use xlink:href="#DejaVuSans-30" x="95.410156"/>
      </g>
     </g>
    </g>
    <g id="text_5">
     <!-- Cumulative total (cts) -->
     <g transform="translate(202.191874 674.987969) scale(0.35 -0.35)">
      <defs>
       <path id="DejaVuSans-43" d="M 4122 4306 
L 4122 3641 
Q 3803 3938 3442 4084 
Q 3081 4231 2675 4231 
Q 1875 4231 1450 3742 
Q 1025 3253 1025 2328 
Q 1025 1406 1450 917 
Q 1875 428 2675 428 
Q 3081 428 3442 575 
Q 3803 722 4122 1019 
L 4122 359 
Q 3791 134 3420 21 
Q 3050 -91 2638 -91 
Q 1578 -91 968 557 
Q 359 1206 359 2328 
Q 359 3453 968 4101 
Q 1578 4750 2638 4750 
Q 3056 4750 3426 4639 
Q 3797 4528 4122 4306 
z
" transform="scale(0.015625)"/>
       <path id="DejaVuSans-75" d="M 544 1381 
L 544 3500 
L 1119 3500 
L 1119 1403 
Q 1119 906 1312 657 
Q 1506 409 1894 409 
Q 2359 409 2629 706 
Q 2900 1003 2900 1516 
L 2900 3500 
L 3475 3500 
L 3475 0 
L 2900 0 
L 2900 538 
Q 2691 219 2414 64 
Q 2138 -91 1772 -91 
Q 1169 -91 856 284 
Q 544 659 544 1381 
z
M 1991 3584 
L 1991 3584 
z
" transform="scale(0.015625)"/>
       <path id="DejaVuSans-6d" d="M 3328 2828 
Q 3544 3216 3844 3400 
Q 4144 3584 4550 3584 
Q 5097 3584 5394 3201 
Q 5691 2819 5691 2113 
L 5691 0 
L 5113 0 
L 5113 2094 
Q 5113 2597 4934 2840 
Q 4756 3084 4391 3084 
Q 3944 3084 3684 2787 
Q 3425 2491 3425 1978 
L 3425 0 
L 2847 0 
L 2847 2094 
Q 2847 2600 2669 2842 
Q 2491 3084 2119 3084 
Q 1678 3084 1418 2786 
Q 1159 2488 1159 1978 
L 1159 0 
L 581 0 
L 581 3500 
L 1159 3500 
L 1159 2956 
Q 1356 3278 1631 3431 
Q 1906 3584 2284 3584 
Q 2666 3584 2933 3390 
Q 3200 3197 3328 2828 
z
" transform="scale(0.015625)"/>
       <path id="DejaVuSans-6c" d="M 603 4863 
L 1178 4863 
L 1178 0 
L 603 0 
L 603 4863 
z
" transform="scale(0.015625)"/>
       <path id="DejaVuSans-61" d="M 2194 1759 
Q 1497 1759 1228 1600 
Q 959 1441 959 1056 
Q 959 750 1161 570 
Q 1363 391 1709 391 
Q 2188 391 2477 730 
Q 2766 1069 2766 1631 
L 2766 1759 
L 2194 1759 
z
M 3341 1997 
L 3341 0 
L 2766 0 
L 2766 531 
Q 2569 213 2275 61 
Q 1981 -91 1556 -91 
Q 1019 -91 701 211 
Q 384 513 384 1019 
Q 384 1609 779 1909 
Q 1175 2209 1959 2209 
L 2766 2209 
L 2766 2266 
Q 2766 2663 2505 2880 
Q 2244 3097 1772 3097 
Q 1472 3097 1187 3025 
Q 903 2953 641 2809 
L 641 3341 
Q 956 3463 1253 3523 
Q 1550 3584 1831 3584 
Q 2591 3584 2966 3190 
Q 3341 2797 3341 1997 
z
" transform="scale(0.015625)"/>
       <path id="DejaVuSans-74" d="M 1172 4494 
L 1172 3500 
L 2356 3500 
L 2356 3053 
L 1172 3053 
L 1172 1153 
Q 1172 725 1289 603 
Q 1406 481 1766 481 
L 2356 481 
L 2356 0 
L 1766 0 
Q 1100 0 847 248 
Q 594 497 594 1153 
L 594 3053 
L 172 3053 
L 172 3500 
L 594 3500 
L 594 4494 
L 1172 4494 
z
" transform="scale(0.015625)"/>
       <path id="DejaVuSans-69" d="M 603 3500 
L 1178 3500 
L 1178 0 
L 603 0 
L 603 3500 
z
M 603 4863 
L 1178 4863 
L 1178 4134 
L 603 4134 
L 603 4863 
z
" transform="scale(0.015625)"/>
       <path id="DejaVuSans-76" d="M 191 3500 
L 800 3500 
L 1894 563 
L 2988 3500 
L 3597 3500 
L 2284 0 
L 1503 0 
L 191 3500 
z
" transform="scale(0.015625)"/>
       <path id="DejaVuSans-65" d="M 3597 1894 
L 3597 1613 
L 953 1613 
Q 991 1019 1311 708 
Q 1631 397 2203 397 
Q 2534 397 2845 478 
Q 3156 559 3463 722 
L 3463 178 
Q 3153 47 2828 -22 
Q 2503 -91 2169 -91 
Q 1331 -91 842 396 
Q 353 884 353 1716 
Q 353 2575 817 3079 
Q 1281 3584 2069 3584 
Q 2775 3584 3186 3129 
Q 3597 2675 3597 1894 
z
M 3022 2063 
Q 3016 2534 2758 2815 
Q 2500 3097 2075 3097 
Q 1594 3097 1305 2825 
Q 1016 2553 972 2059 
L 3022 2063 
z
" transform="scale(0.015625)"/>
       <path id="DejaVuSans-20" transform="scale(0.015625)"/>
       <path id="DejaVuSans-6f" d="M 1959 3097 
Q 1497 3097 1228 2736 
Q 959 2375 959 1747 
Q 959 1119 1226 758 
Q 1494 397 1959 397 
Q 2419 397 2687 759 
Q 2956 1122 2956 1747 
Q 2956 2369 2687 2733 
Q 2419 3097 1959 3097 
z
M 1959 3584 
Q 2709 3584 3137 3096 
Q 3566 2609 3566 1747 
Q 3566 888 3137 398 
Q 2709 -91 1959 -91 
Q 1206 -91 779 398 
Q 353 888 353 1747 
Q 353 2609 779 3096 
Q 1206 3584 1959 3584 
z
" transform="scale(0.015625)"/>
       <path id="DejaVuSans-28" d="M 1984 4856 
Q 1566 4138 1362 3434 
Q 1159 2731 1159 2009 
Q 1159 1288 1364 580 
Q 1569 -128 1984 -844 
L 1484 -844 
Q 1016 -109 783 600 
Q 550 1309 550 2009 
Q 550 2706 781 3412 
Q 1013 4119 1484 4856 
L 1984 4856 
z
" transform="scale(0.015625)"/>
       <path id="DejaVuSans-63" d="M 3122 3366 
L 3122 2828 
Q 2878 2963 2633 3030 
Q 2388 3097 2138 3097 
Q 1578 3097 1268 2742 
Q 959 2388 959 1747 
Q 959 1106 1268 751 
Q 1578 397 2138 397 
Q 2388 397 2633 464 
Q 2878 531 3122 666 
L 3122 134 
Q 2881 22 2623 -34 
Q 2366 -91 2075 -91 
Q 1284 -91 818 406 
Q 353 903 353 1747 
Q 353 2603 823 3093 
Q 1294 3584 2113 3584 
Q 2378 3584 2631 3529 
Q 2884 3475 3122 3366 
z
" transform="scale(0.015625)"/>
       <path id="DejaVuSans-73" d="M 2834 3397 
L 2834 2853 
Q 2591 2978 2328 3040 
Q 2066 3103 1784 3103 
Q 1356 3103 1142 2972 
Q 928 2841 928 2578 
Q 928 2378 1081 2264 
Q 1234 2150 1697 2047 
L 1894 2003 
Q 2506 1872 2764 1633 
Q 3022 1394 3022 966 
Q 3022 478 2636 193 
Q 2250 -91 1575 -91 
Q 1294 -91 989 -36 
Q 684 19 347 128 
L 347 722 
Q 666 556 975 473 
Q 1284 391 1588 391 
Q 1994 391 2212 530 
Q 2431 669 2431 922 
Q 2431 1156 2273 1281 
Q 2116 1406 1581 1522 
L 1381 1569 
Q 847 1681 609 1914 
Q 372 2147 372 2553 
Q 372 3047 722 3315 
Q 1072 3584 1716 3584 
Q 2034 3584 2315 3537 
Q 2597 3491 2834 3397 
z
" transform="scale(0.015625)"/>
       <path id="DejaVuSans-29" d="M 513 4856 
L 1013 4856 
Q 1481 4119 1714 3412 
Q 1947 2706 1947 2009 
Q 1947 1309 1714 600 
Q 1481 -109 1013 -844 
L 513 -844 
Q 928 -128 1133 580 
Q 1338 1288 1338 2009 
Q 1338 2731 1133 3434 
Q 928 4138 513 4856 
z
" transform="scale(0.015625)"/>
      </defs>
      <use xlink:href="#DejaVuSans-43"/>
      <use xlink:href="#DejaVuSans-75" x="69.824219"/>
      <use xlink:href="#DejaVuSans-6d" x="133.203125"/>
      <use xlink:href="#DejaVuSans-75" x="230.615234"/>
      <use xlink:href="#DejaVuSans-6c" x="293.994141"/>
      <use xlink:href="#DejaVuSans-61" x="321.777344"/>
      <use xlink:href="#DejaVuSans-74" x="383.056641"/>
      <use xlink:href="#DejaVuSans-69" x="422.265625"/>
      <use xlink:href="#DejaVuSans-76" x="450.048828"/>
      <use xlink:href="#DejaVuSans-65" x="509.228516"/>
      <use xlink:href="#DejaVuSans-20" x="570.751953"/>
      <use xlink:href="#DejaVuSans-74" x="602.539062"/>
      <use xlink:href="#DejaVuSans-6f" x="641.748047"/>
      <use xlink:href="#DejaVuSans-74" x="702.929688"/>
      <use xlink:href="#DejaVuSans-61" x="742.138672"/>
      <use xlink:href="#DejaVuSans-6c" x="803.417969"/>
      <use xlink:href="#DejaVuSans-20" x="831.201172"/>
      <use xlink:href="#DejaVuSans-28" x="862.988281"/>
      <use xlink:href="#DejaVuSans-63" x="902.001953"/>
      <use xlink:href="#DejaVuSans-74" x="956.982422"/>
      <use xlink:href="#DejaVuSans-73" x="996.191406"/>
      <use xlink:href="#DejaVuSans-29" x="1048.291016"/>
     </g>
    </g>
    <g id="text_6">
     <!-- 1e6 -->
     <g transform="translate(613.988747 673.987969) scale(0.35 -0.35)">
      <defs>
       <path id="DejaVuSans-36" d="M 2113 2584 
Q 1688 2584 1439 2293 
Q 1191 2003 1191 1497 
Q 1191 994 1439 701 
Q 1688 409 2113 409 
Q 2538 409 2786 701 
Q 3034 994 3034 1497 
Q 3034 2003 2786 2293 
Q 2538 2584 2113 2584 
z
M 3366 4563 
L 3366 3988 
Q 3128 4100 2886 4159 
Q 2644 4219 2406 4219 
Q 1781 4219 1451 3797 
Q 1122 3375 1075 2522 
Q 1259 2794 1537 2939 
Q 1816 3084 2150 3084 
Q 2853 3084 3261 2657 
Q 3669 2231 3669 1497 
Q 3669 778 3244 343 
Q 2819 -91 2113 -91 
Q 1303 -91 875 529 
Q 447 1150 447 2328 
Q 447 3434 972 4092 
Q 1497 4750 2381 4750 
Q 2619 4750 2861 4703 
Q 3103 4656 3366 4563 
z
" transform="scale(0.015625)"/>
      </defs>
      <use xlink:href="#DejaVuSans-31"/>
      <use xlink:href="#DejaVuSans-65" x="63.623047"/>
      <use xlink:href="#DejaVuSans-36" x="125.146484"/>
     </g>
    </g>
   </g>
   <g id="matplotlib.axis_2">
    <g id="ytick_1">
     <g id="line2d_5">
      <defs>
       <path id="mac2ed7607e" d="M 0 0 
L -3.5 0 
" style="stroke: #000000; stroke-width: 3"/>
      </defs>
      <g>
       <use xlink:href="#mac2ed7607e" x="104.87" y="601.123885" style="stroke: #000000; stroke-width: 3"/>
      </g>
     </g>
     <g id="text_7">
      <!-- 3 -->
      <g transform="translate(75.60125 614.421151) scale(0.35 -0.35)">
       <use xlink:href="#DejaVuSans-33"/>
      </g>
     </g>
    </g>
    <g id="ytick_2">
     <g id="line2d_6">
      <g>
       <use xlink:href="#mac2ed7607e" x="104.87" y="515.978616" style="stroke: #000000; stroke-width: 3"/>
      </g>
     </g>
     <g id="text_8">
      <!-- 4 -->
      <g transform="translate(75.60125 529.275881) scale(0.35 -0.35)">
       <defs>
        <path id="DejaVuSans-34" d="M 2419 4116 
L 825 1625 
L 2419 1625 
L 2419 4116 
z
M 2253 4666 
L 3047 4666 
L 3047 1625 
L 3713 1625 
L 3713 1100 
L 3047 1100 
L 3047 0 
L 2419 0 
L 2419 1100 
L 313 1100 
L 313 1709 
L 2253 4666 
z
" transform="scale(0.015625)"/>
       </defs>
       <use xlink:href="#DejaVuSans-34"/>
      </g>
     </g>
    </g>
    <g id="ytick_3">
     <g id="line2d_7">
      <g>
       <use xlink:href="#mac2ed7607e" x="104.87" y="430.833346" style="stroke: #000000; stroke-width: 3"/>
      </g>
     </g>
     <g id="text_9">
      <!-- 5 -->
      <g transform="translate(75.60125 444.130611) scale(0.35 -0.35)">
       <use xlink:href="#DejaVuSans-35"/>
      </g>
     </g>
    </g>
    <g id="ytick_4">
     <g id="line2d_8">
      <g>
       <use xlink:href="#mac2ed7607e" x="104.87" y="345.688076" style="stroke: #000000; stroke-width: 3"/>
      </g>
     </g>
     <g id="text_10">
      <!-- 6 -->
      <g transform="translate(75.60125 358.985342) scale(0.35 -0.35)">
       <use xlink:href="#DejaVuSans-36"/>
      </g>
     </g>
    </g>
    <g id="ytick_5">
     <g id="line2d_9">
      <g>
       <use xlink:href="#mac2ed7607e" x="104.87" y="260.542806" style="stroke: #000000; stroke-width: 3"/>
      </g>
     </g>
     <g id="text_11">
      <!-- 7 -->
      <g transform="translate(75.60125 273.840072) scale(0.35 -0.35)">
       <defs>
        <path id="DejaVuSans-37" d="M 525 4666 
L 3525 4666 
L 3525 4397 
L 1831 0 
L 1172 0 
L 2766 4134 
L 525 4134 
L 525 4666 
z
" transform="scale(0.015625)"/>
       </defs>
       <use xlink:href="#DejaVuSans-37"/>
      </g>
     </g>
    </g>
    <g id="ytick_6">
     <g id="line2d_10">
      <g>
       <use xlink:href="#mac2ed7607e" x="104.87" y="175.397536" style="stroke: #000000; stroke-width: 3"/>
      </g>
     </g>
     <g id="text_12">
      <!-- 8 -->
      <g transform="translate(75.60125 188.694802) scale(0.35 -0.35)">
       <defs>
        <path id="DejaVuSans-38" d="M 2034 2216 
Q 1584 2216 1326 1975 
Q 1069 1734 1069 1313 
Q 1069 891 1326 650 
Q 1584 409 2034 409 
Q 2484 409 2743 651 
Q 3003 894 3003 1313 
Q 3003 1734 2745 1975 
Q 2488 2216 2034 2216 
z
M 1403 2484 
Q 997 2584 770 2862 
Q 544 3141 544 3541 
Q 544 4100 942 4425 
Q 1341 4750 2034 4750 
Q 2731 4750 3128 4425 
Q 3525 4100 3525 3541 
Q 3525 3141 3298 2862 
Q 3072 2584 2669 2484 
Q 3125 2378 3379 2068 
Q 3634 1759 3634 1313 
Q 3634 634 3220 271 
Q 2806 -91 2034 -91 
Q 1263 -91 848 271 
Q 434 634 434 1313 
Q 434 1759 690 2068 
Q 947 2378 1403 2484 
z
M 1172 3481 
Q 1172 3119 1398 2916 
Q 1625 2713 2034 2713 
Q 2441 2713 2670 2916 
Q 2900 3119 2900 3481 
Q 2900 3844 2670 4047 
Q 2441 4250 2034 4250 
Q 1625 4250 1398 4047 
Q 1172 3844 1172 3481 
z
" transform="scale(0.015625)"/>
       </defs>
       <use xlink:href="#DejaVuSans-38"/>
      </g>
     </g>
    </g>
    <g id="ytick_7">
     <g id="line2d_11">
      <g>
       <use xlink:href="#mac2ed7607e" x="104.87" y="90.252267" style="stroke: #000000; stroke-width: 3"/>
      </g>
     </g>
     <g id="text_13">
      <!-- 9 -->
      <g transform="translate(75.60125 103.549532) scale(0.35 -0.35)">
       <defs>
        <path id="DejaVuSans-39" d="M 703 97 
L 703 672 
Q 941 559 1184 500 
Q 1428 441 1663 441 
Q 2288 441 2617 861 
Q 2947 1281 2994 2138 
Q 2813 1869 2534 1725 
Q 2256 1581 1919 1581 
Q 1219 1581 811 2004 
Q 403 2428 403 3163 
Q 403 3881 828 4315 
Q 1253 4750 1959 4750 
Q 2769 4750 3195 4129 
Q 3622 3509 3622 2328 
Q 3622 1225 3098 567 
Q 2575 -91 1691 -91 
Q 1453 -91 1209 -44 
Q 966 3 703 97 
z
M 1959 2075 
Q 2384 2075 2632 2365 
Q 2881 2656 2881 3163 
Q 2881 3666 2632 3958 
Q 2384 4250 1959 4250 
Q 1534 4250 1286 3958 
Q 1038 3666 1038 3163 
Q 1038 2656 1286 2365 
Q 1534 2075 1959 2075 
z
" transform="scale(0.015625)"/>
       </defs>
       <use xlink:href="#DejaVuSans-39"/>
      </g>
     </g>
    </g>
    <g id="text_14">
     <!-- Cumulative solute (cts) -->
     <g transform="translate(64.322344 539.144453) rotate(-90) scale(0.35 -0.35)">
      <use xlink:href="#DejaVuSans-43"/>
      <use xlink:href="#DejaVuSans-75" x="69.824219"/>
      <use xlink:href="#DejaVuSans-6d" x="133.203125"/>
      <use xlink:href="#DejaVuSans-75" x="230.615234"/>
      <use xlink:href="#DejaVuSans-6c" x="293.994141"/>
      <use xlink:href="#DejaVuSans-61" x="321.777344"/>
      <use xlink:href="#DejaVuSans-74" x="383.056641"/>
      <use xlink:href="#DejaVuSans-69" x="422.265625"/>
      <use xlink:href="#DejaVuSans-76" x="450.048828"/>
      <use xlink:href="#DejaVuSans-65" x="509.228516"/>
      <use xlink:href="#DejaVuSans-20" x="570.751953"/>
      <use xlink:href="#DejaVuSans-73" x="602.539062"/>
      <use xlink:href="#DejaVuSans-6f" x="654.638672"/>
      <use xlink:href="#DejaVuSans-6c" x="715.820312"/>
      <use xlink:href="#DejaVuSans-75" x="743.603516"/>
      <use xlink:href="#DejaVuSans-74" x="806.982422"/>
      <use xlink:href="#DejaVuSans-65" x="846.191406"/>
      <use xlink:href="#DejaVuSans-20" x="907.714844"/>
      <use xlink:href="#DejaVuSans-28" x="939.501953"/>
      <use xlink:href="#DejaVuSans-63" x="978.515625"/>
      <use xlink:href="#DejaVuSans-74" x="1033.496094"/>
      <use xlink:href="#DejaVuSans-73" x="1072.705078"/>
      <use xlink:href="#DejaVuSans-29" x="1124.804688"/>
     </g>
    </g>
    <g id="text_15">
     <!-- 1e5 -->
     <g transform="translate(104.87 64.44) scale(0.35 -0.35)">
      <use xlink:href="#DejaVuSans-31"/>
      <use xlink:href="#DejaVuSans-65" x="63.623047"/>
      <use xlink:href="#DejaVuSans-35" x="125.146484"/>
     </g>
    </g>
   </g>
   <g id="line2d_12">
    <path d="M -1 654.719024 
L 16.444784 646.235073 
L 20.533025 644.190137 
L 28.982924 640.190407 
L 35.277104 637.230215 
L 50.040242 630.197962 
L 75.376804 617.881029 
L 106.91653 602.49884 
L 138.55695 586.895921 
L 146.88298 582.841207 
L 153.172099 579.829113 
L 159.361567 576.840515 
L 165.644821 573.779376 
L 180.407958 566.685756 
L 189.011752 562.551773 
L 210.018982 552.351246 
L 252.043598 531.928136 
L 258.430964 528.796762 
L 271.030918 522.606881 
L 279.690478 518.381989 
L 286.162996 515.275801 
L 292.632868 512.107175 
L 299.061042 508.998251 
L 305.468394 505.932539 
L 328.460799 494.896108 
L 360.586803 480.408532 
L 365.574436 478.363393 
L 389.975777 468.429532 
L 396.029522 465.883763 
L 405.727807 461.899019 
L 416.242589 457.324426 
L 436.580348 447.96158 
L 448.243792 442.41427 
L 485.59243 424.646617 
L 489.361816 422.765521 
L 512.717124 411.625727 
L 541.29263 397.740175 
L 548.789341 394.173015 
L 565.6174 385.974361 
L 599.041116 369.828949 
L 609.957857 364.537625 
L 617.226116 361.00682 
L 656.868707 341.782965 
L 662.264004 339.25253 
L 702.992628 319.261468 
L 708.203788 316.745383 
L 721 310.487859 
L 721 310.487859 
" clip-path="url(#p521f99be34)" style="fill: none; stroke: #ff00ff; stroke-width: 4; stroke-linecap: square"/>
   </g>
   <g id="line2d_13">
    <path d="M -1 654.839935 
L 387.02251 466.261548 
L 387.02251 466.261548 
" clip-path="url(#p521f99be34)" style="fill: none; stroke-dasharray: 7.4,3.2; stroke-dashoffset: 0; stroke: #000000; stroke-width: 2"/>
   </g>
   <g id="line2d_14">
    <path d="M 388.508605 471.664603 
L 721 310.787235 
L 721 310.787235 
" clip-path="url(#p521f99be34)" style="fill: none; stroke-dasharray: 7.4,3.2; stroke-dashoffset: 0; stroke: #000000; stroke-width: 2"/>
   </g>
   <g id="LineCollection_1">
    <path d="M 387.765558 466.261548 
L 387.765558 471.664603 
" clip-path="url(#p521f99be34)" style="fill: none; stroke: #000000; stroke-width: 2"/>
   </g>
   <g id="LineCollection_2">
    <path d="M 387.765558 466.437822 
L 387.765558 466.085274 
" clip-path="url(#p521f99be34)" style="fill: none; stroke: #000000; stroke-width: 1.5"/>
   </g>
   <g id="line2d_15">
    <defs>
     <path id="md66b5bb49e" d="M 25 0 
L -25 -0 
" style="stroke: #000000"/>
    </defs>
    <g clip-path="url(#p521f99be34)">
     <use xlink:href="#md66b5bb49e" x="387.765558" y="466.437822" style="stroke: #000000"/>
    </g>
   </g>
   <g id="line2d_16">
    <g clip-path="url(#p521f99be34)">
     <use xlink:href="#md66b5bb49e" x="387.765558" y="466.085274" style="stroke: #000000"/>
    </g>
   </g>
   <g id="LineCollection_3">
    <path d="M 387.765558 471.782337 
L 387.765558 471.54687 
" clip-path="url(#p521f99be34)" style="fill: none; stroke: #000000; stroke-width: 1.5"/>
   </g>
   <g id="line2d_17">
    <g clip-path="url(#p521f99be34)">
     <use xlink:href="#md66b5bb49e" x="387.765558" y="471.782337" style="stroke: #000000"/>
    </g>
   </g>
   <g id="line2d_18">
    <g clip-path="url(#p521f99be34)">
     <use xlink:href="#md66b5bb49e" x="387.765558" y="471.54687" style="stroke: #000000"/>
    </g>
   </g>
   <g id="line2d_19">
    <path d="M 387.765558 466.261548 
" clip-path="url(#p521f99be34)" style="fill: none; stroke: #000000; stroke-width: 1.5; stroke-linecap: square"/>
   </g>
   <g id="line2d_20">
    <path d="M 387.765558 471.664603 
" clip-path="url(#p521f99be34)" style="fill: none; stroke: #000000; stroke-width: 1.5; stroke-linecap: square"/>
   </g>
   <g id="patch_3">
    <path d="M 104.87 603.52 
L 104.87 67.44 
" style="fill: none; stroke: #000000; stroke-width: 3; stroke-linejoin: miter; stroke-linecap: square"/>
   </g>
   <g id="patch_4">
    <path d="M 680.062185 603.52 
L 680.062185 67.44 
" style="fill: none; stroke: #000000; stroke-width: 3; stroke-linejoin: miter; stroke-linecap: square"/>
   </g>
   <g id="patch_5">
    <path d="M 104.87 603.52 
L 680.062185 603.52 
" style="fill: none; stroke: #000000; stroke-width: 3; stroke-linejoin: miter; stroke-linecap: square"/>
   </g>
   <g id="patch_6">
    <path d="M 104.87 67.44 
L 680.062185 67.44 
" style="fill: none; stroke: #000000; stroke-width: 3; stroke-linejoin: miter; stroke-linecap: square"/>
   </g>
   <g id="legend_1">
    <g id="line2d_21">
     <path d="M 423.70281 132.932188 
L 473.70281 132.932188 
L 523.70281 132.932188 
" style="fill: none; stroke: #ff00ff; stroke-width: 4; stroke-linecap: square"/>
    </g>
    <g id="text_16">
     <!-- Cr  -->
     <g transform="translate(563.70281 150.432188) scale(0.5 -0.5)">
      <defs>
       <path id="DejaVuSans-72" d="M 2631 2963 
Q 2534 3019 2420 3045 
Q 2306 3072 2169 3072 
Q 1681 3072 1420 2755 
Q 1159 2438 1159 1844 
L 1159 0 
L 581 0 
L 581 3500 
L 1159 3500 
L 1159 2956 
Q 1341 3275 1631 3429 
Q 1922 3584 2338 3584 
Q 2397 3584 2469 3576 
Q 2541 3569 2628 3553 
L 2631 2963 
z
" transform="scale(0.015625)"/>
      </defs>
      <use xlink:href="#DejaVuSans-43"/>
      <use xlink:href="#DejaVuSans-72" x="69.824219"/>
      <use xlink:href="#DejaVuSans-20" x="110.9375"/>
     </g>
    </g>
   </g>
  </g>
 </g>
 <defs>
  <clipPath id="p521f99be34">
   <rect x="104.87" y="67.44" width="575.192185" height="536.08"/>
  </clipPath>
 </defs>
</svg>
