<?xml version="1.0" encoding="utf-8" standalone="no"?>
<!DOCTYPE svg PUBLIC "-//W3C//DTD SVG 1.1//EN"
  "http://www.w3.org/Graphics/SVG/1.1/DTD/svg11.dtd">
<svg xmlns:xlink="http://www.w3.org/1999/xlink" width="720pt" height="720pt" viewBox="0 0 720 720" xmlns="http://www.w3.org/2000/svg" version="1.1">
 <metadata>
  <rdf:RDF xmlns:dc="http://purl.org/dc/elements/1.1/" xmlns:cc="http://creativecommons.org/ns#" xmlns:rdf="http://www.w3.org/1999/02/22-rdf-syntax-ns#">
   <cc:Work>
    <dc:type rdf:resource="http://purl.org/dc/dcmitype/StillImage"/>
    <dc:date>2023-11-23T21:09:14.739937</dc:date>
    <dc:format>image/svg+xml</dc:format>
    <dc:creator>
     <cc:Agent>
      <dc:title>Matplotlib v3.7.2, https://matplotlib.org/</dc:title>
     </cc:Agent>
    </dc:creator>
   </cc:Work>
  </rdf:RDF>
 </metadata>
 <defs>
  <style type="text/css">*{stroke-linejoin: round; stroke-linecap: butt}</style>
 </defs>
 <g id="figure_1">
  <g id="patch_1">
   <path d="M 0 720 
L 720 720 
L 720 0 
L 0 0 
z
" style="fill: #ffffff"/>
  </g>
  <g id="axes_1">
   <g id="patch_2">
    <path d="M 160.49 603.52 
L 680.062185 603.52 
L 680.062185 67.44 
L 160.49 67.44 
z
" style="fill: #ffffff"/>
   </g>
   <g id="PolyCollection_1">
    <path d="M -309.703386 843.109869 
L -309.703386 848.549337 
L -307.862797 847.622175 
L -306.053804 846.667013 
L -304.25998 845.845187 
L -302.444485 844.771862 
L -300.576417 843.89565 
L -298.762553 842.939686 
L -296.934652 841.932233 
L -295.052985 840.952812 
L -293.270034 840.096172 
L -291.457854 839.14292 
L -289.592667 838.218825 
L -287.776301 837.375114 
L -285.930076 836.289565 
L -284.050371 835.288888 
L -282.17106 834.303482 
L -280.442012 833.59785 
L -278.590178 832.670884 
L -276.730161 831.562487 
L -274.902144 830.686118 
L -273.059004 829.803433 
L -271.229543 828.887314 
L -269.359704 828.028097 
L -267.529445 826.959283 
L -265.746755 825.941537 
L -263.9031 825.00136 
L -262.046635 824.048423 
L -260.219311 823.113929 
L -258.308128 822.366408 
L -256.433203 821.141552 
L -254.55844 820.171886 
L -252.67855 819.254909 
L -250.75559 818.16751 
L -248.887542 817.423138 
L -246.992685 816.300267 
L -245.101107 815.354967 
L -243.248129 814.233158 
L -241.408529 813.333855 
L -239.551761 812.174493 
L -237.655855 811.492999 
L -235.76108 810.316225 
L -233.918502 809.44663 
L -232.071534 808.527214 
L -230.145054 807.472923 
L -228.234747 806.474096 
L -226.345651 805.644442 
L -224.470875 804.512596 
L -222.575357 803.54382 
L -220.728757 802.465057 
L -218.885093 801.536646 
L -217.035771 800.763934 
L -215.181728 799.680088 
L -213.315365 798.736404 
L -211.433699 797.589075 
L -209.500419 796.776961 
L -207.612521 795.905891 
L -205.751505 794.940405 
L -203.893064 793.918259 
L -201.991631 793.049427 
L -200.133041 792.042757 
L -198.276237 791.07955 
L -196.412552 790.172583 
L -194.54166 789.264546 
L -192.670448 788.236887 
L -190.799939 787.347304 
L -188.870013 786.241954 
L -187.046313 785.241166 
L -185.158587 784.458009 
L -183.246444 783.724465 
L -181.368167 782.658409 
L -179.505837 781.700922 
L -177.567018 780.660791 
L -175.726693 779.637954 
L -173.836879 778.578894 
L -171.918754 777.80694 
L -170.102652 776.790138 
L -168.21555 775.553795 
L -166.327328 774.66232 
L -164.46064 773.72411 
L -162.595488 772.812005 
L -160.731329 771.749689 
L -158.896071 770.84518 
L -157.055853 770.03228 
L -155.175791 769.045017 
L -153.251983 768.068672 
L -151.342667 766.986456 
L -149.498699 766.06842 
L -147.617438 765.227261 
L -145.718719 764.196076 
L -143.798052 763.189245 
L -141.984113 762.175561 
L -140.126564 761.221127 
L -138.252718 760.253794 
L -136.329658 759.183197 
L -134.437832 758.248657 
L -132.587897 757.668812 
L -130.727854 756.425434 
L -128.856733 755.512169 
L -126.970642 754.429519 
L -125.085535 753.556498 
L -123.230351 752.479196 
L -121.346291 751.544919 
L -119.476553 750.453599 
L -117.632833 749.631577 
L -115.753744 748.505753 
L -113.900856 747.452663 
L -112.023833 746.875926 
L -110.156073 745.6353 
L -108.252256 744.719688 
L -106.390744 743.811587 
L -104.485057 742.705874 
L -102.583568 741.970481 
L -100.727141 741.019916 
L -98.85822 739.97001 
L -96.991951 738.832309 
L -95.086853 738.104398 
L -93.22557 737.130979 
L -91.276902 736.222326 
L -89.373111 735.402784 
L -87.501897 734.428111 
L -85.632306 733.37975 
L -83.785631 732.47572 
L -81.913864 731.491126 
L -80.031479 730.480283 
L -78.178919 729.496332 
L -76.311949 728.407383 
L -74.462053 727.647608 
L -72.575361 726.738897 
L -70.718529 725.56377 
L -68.824907 724.748952 
L -66.911198 723.55723 
L -65.061021 722.571841 
L -63.225156 721.784978 
L -61.374598 720.903383 
L -59.481888 719.538505 
L -57.623449 718.649841 
L -55.724092 717.816809 
L -53.83339 716.88354 
L -51.935687 715.902705 
L -50.079275 714.86095 
L -48.210391 713.992034 
L -46.316999 712.950251 
L -44.364856 712.003127 
L -42.478238 711.037118 
L -40.594494 709.922874 
L -38.723943 709.16834 
L -36.833361 708.071145 
L -34.955098 707.158336 
L -33.098432 706.199758 
L -31.252988 705.181672 
L -29.342249 704.109273 
L -27.491045 703.093087 
L -25.554085 701.956714 
L -23.698699 700.929521 
L -21.817061 699.9272 
L -19.913798 699.003365 
L -18.012278 697.76954 
L -16.087913 696.946769 
L -14.18476 695.904996 
L -12.259982 694.926861 
L -10.381439 693.979161 
L -8.47531 692.965321 
L -6.613573 691.974256 
L -4.73387 691.048334 
L -2.864819 690.04187 
L -0.982832 688.912536 
L 0.937826 688.013668 
L 2.857247 687.014029 
L 4.752614 686.147705 
L 6.660433 685.167415 
L 8.540038 684.461232 
L 10.467331 683.314937 
L 12.36029 682.395709 
L 14.278329 681.490609 
L 16.184103 680.492266 
L 18.089343 679.629379 
L 19.928054 678.761943 
L 21.789807 677.65509 
L 23.683067 676.823725 
L 25.568991 675.67648 
L 27.480792 674.686221 
L 29.415679 673.60657 
L 31.336738 672.707785 
L 33.20368 671.75898 
L 35.018626 670.814095 
L 36.845843 670.036464 
L 38.745199 668.907862 
L 40.646865 667.941848 
L 42.546759 667.017307 
L 44.479861 666.064621 
L 46.332323 665.094931 
L 48.277973 663.928222 
L 50.235484 663.087293 
L 52.108123 662.26829 
L 54.044163 661.185528 
L 55.93191 660.258594 
L 57.838425 659.324037 
L 59.754582 658.173414 
L 61.674028 657.188648 
L 63.591989 656.172027 
L 65.53332 655.361197 
L 67.397747 654.210284 
L 69.298447 653.252957 
L 71.200794 652.446641 
L 73.074849 651.582374 
L 74.966726 650.6189 
L 76.87121 649.451698 
L 78.735935 648.380732 
L 80.615336 647.353267 
L 82.480277 646.549342 
L 84.308252 645.515145 
L 86.212939 644.507354 
L 88.157789 643.462706 
L 90.051852 642.40643 
L 91.941062 641.41894 
L 93.824581 640.596641 
L 95.728092 639.440767 
L 97.626605 638.552298 
L 99.526435 637.47868 
L 101.44759 636.710433 
L 103.361438 635.701145 
L 105.2283 634.844331 
L 107.147267 633.791214 
L 109.026507 632.794665 
L 110.962176 631.765046 
L 112.883922 630.8786 
L 114.829635 629.744504 
L 116.730888 628.800064 
L 118.684154 627.849716 
L 120.601283 626.853667 
L 122.480371 625.87216 
L 124.400947 624.871837 
L 126.306714 624.228426 
L 128.142512 623.060719 
L 130.010015 622.028274 
L 131.924828 620.886818 
L 133.848741 619.976751 
L 135.74455 618.992776 
L 137.674743 617.804488 
L 139.53816 616.904353 
L 141.427886 615.849074 
L 143.297523 614.999921 
L 145.222555 614.020341 
L 147.185889 612.92785 
L 149.105462 612.169672 
L 150.95418 611.152834 
L 152.861499 610.154018 
L 154.799911 609.152827 
L 156.709667 608.160352 
L 158.605695 607.403219 
L 160.49 606.331337 
L 162.338634 605.43389 
L 164.288918 604.359667 
L 166.244089 603.518829 
L 168.140258 602.53906 
L 170.040869 601.436625 
L 171.913542 600.549119 
L 173.826558 599.409549 
L 175.743386 598.309799 
L 177.615896 597.345612 
L 179.561396 596.378067 
L 181.480003 595.285855 
L 183.363491 594.48952 
L 185.234305 593.552593 
L 187.147709 592.722995 
L 189.025421 591.790157 
L 190.919485 590.48391 
L 192.791489 589.574249 
L 194.657015 588.635721 
L 196.562315 587.68002 
L 198.440404 586.55212 
L 200.373931 585.639949 
L 202.258094 584.637913 
L 204.121377 583.563136 
L 205.948291 582.605779 
L 207.821723 581.516667 
L 209.712335 580.866772 
L 211.642136 579.737595 
L 213.485819 578.880226 
L 215.38801 577.998876 
L 217.286154 577.083203 
L 219.220722 575.965376 
L 221.103426 575.080781 
L 223.005274 574.073091 
L 224.905612 573.093463 
L 226.819416 572.107735 
L 228.72358 571.186769 
L 230.671275 570.057872 
L 232.590476 568.948676 
L 234.524317 567.920568 
L 236.495403 567.08098 
L 238.451515 566.048603 
L 240.346289 565.053072 
L 242.266365 564.062522 
L 244.103577 563.038464 
L 246.01103 562.074479 
L 247.918034 560.954957 
L 249.794518 559.867651 
L 251.677647 558.860815 
L 253.607941 557.848168 
L 255.471274 557.241397 
L 257.41821 556.019806 
L 259.28116 555.121828 
L 261.197335 553.996085 
L 263.066169 553.20039 
L 264.987617 552.254684 
L 266.85952 551.415095 
L 268.732456 550.328504 
L 270.642913 549.455972 
L 272.536364 548.381245 
L 274.412547 547.559087 
L 276.285409 546.419126 
L 278.194285 545.600119 
L 280.083624 544.390064 
L 282.017739 543.55704 
L 283.907551 542.599517 
L 285.822627 541.670513 
L 287.70828 540.654656 
L 289.603407 539.619976 
L 291.529787 538.623491 
L 293.432189 537.644542 
L 295.351362 536.954481 
L 297.268674 535.637832 
L 299.201908 534.884507 
L 301.136203 533.625831 
L 303.006355 532.590534 
L 304.919124 531.64746 
L 306.779853 530.825214 
L 308.661909 529.70428 
L 310.58347 528.75007 
L 312.475279 527.545498 
L 314.435155 526.504738 
L 316.381223 525.518775 
L 318.405667 524.346499 
L 320.36702 523.376799 
L 322.313229 522.384176 
L 324.252305 521.403829 
L 326.191835 520.486096 
L 328.117437 519.305924 
L 330.096553 518.280072 
L 332.064201 517.013066 
L 333.961564 516.162058 
L 335.903135 514.865842 
L 337.852569 513.866722 
L 339.750122 512.835839 
L 341.690908 512.097535 
L 343.570963 510.931023 
L 345.49132 509.774931 
L 347.36686 508.803538 
L 349.269615 507.703256 
L 351.153986 507.053075 
L 353.018749 505.940251 
L 354.940068 504.869525 
L 356.831204 503.792046 
L 358.729931 502.79907 
L 360.594213 501.615789 
L 362.45999 500.478599 
L 364.356714 499.759532 
L 366.208875 498.758244 
L 368.048559 497.673781 
L 369.843229 496.437568 
L 371.62936 495.358486 
L 373.404771 494.531087 
L 375.204014 493.434987 
L 376.903564 492.401229 
L 378.630601 491.451101 
L 380.326003 490.494692 
L 381.959081 489.631161 
L 383.612603 488.588964 
L 385.229509 487.694681 
L 386.826222 486.888187 
L 388.361976 486.006797 
L 389.97188 484.982625 
L 391.47947 484.089164 
L 392.991353 483.020357 
L 394.503968 482.132622 
L 395.984808 481.190176 
L 397.46757 480.409057 
L 398.918078 479.603826 
L 400.270497 478.88161 
L 401.687627 477.859155 
L 403.031892 477.090133 
L 404.437421 476.22186 
L 405.802364 475.483753 
L 407.166008 474.667991 
L 408.508253 474.096969 
L 409.817939 472.992359 
L 411.1803 472.151911 
L 412.582449 471.36632 
L 413.975306 470.555528 
L 415.358894 469.788479 
L 416.701287 468.8265 
L 418.026586 468.152376 
L 419.354971 467.425189 
L 420.709918 466.777164 
L 422.080964 466.009644 
L 423.494945 465.082019 
L 424.908897 464.159867 
L 426.330112 463.313195 
L 427.797852 462.462759 
L 429.244763 461.812491 
L 430.73847 460.773958 
L 432.255425 460.097089 
L 433.771469 459.226757 
L 435.331309 458.382436 
L 436.907707 457.474987 
L 438.516421 456.546091 
L 440.110186 455.646796 
L 441.753446 454.541399 
L 443.406243 453.571146 
L 445.03298 452.814725 
L 446.664888 451.937157 
L 448.383134 450.941212 
L 450.019002 449.998837 
L 451.695064 448.948603 
L 453.354448 448.255969 
L 455.043854 447.404661 
L 456.74168 446.273646 
L 458.43816 445.539782 
L 460.124583 444.85365 
L 461.884191 443.744676 
L 463.587734 443.064523 
L 465.348006 441.988005 
L 467.152672 441.158723 
L 468.910582 440.505543 
L 470.660194 439.379943 
L 472.409408 438.337524 
L 474.173812 437.634717 
L 475.890128 436.628593 
L 477.646195 435.65722 
L 479.4363 434.593061 
L 481.248946 433.745151 
L 482.996359 432.853289 
L 484.779894 431.796514 
L 486.561491 430.799509 
L 488.325877 430.027626 
L 490.114818 428.999153 
L 491.939425 428.159257 
L 493.76146 427.151217 
L 495.58805 426.366251 
L 497.372895 425.46702 
L 499.130594 424.538817 
L 500.912094 423.579589 
L 502.641949 422.713539 
L 504.397289 421.756333 
L 506.115619 420.646075 
L 507.802183 419.705824 
L 509.56537 418.912919 
L 511.336964 417.953028 
L 513.081772 416.99339 
L 514.883731 416.213069 
L 516.651351 415.207937 
L 518.394766 414.307515 
L 520.136142 413.385736 
L 521.874114 412.580977 
L 523.641634 411.607905 
L 525.397344 410.787231 
L 527.202336 409.657518 
L 528.899076 408.873252 
L 530.643211 408.093114 
L 532.351456 407.102851 
L 534.050181 406.242607 
L 535.797181 405.205994 
L 537.48384 404.471724 
L 539.143731 403.339207 
L 540.912217 402.475771 
L 542.66963 401.566106 
L 544.429486 400.765779 
L 546.193091 399.873134 
L 547.866816 399.140525 
L 549.557227 398.590402 
L 551.299672 397.506116 
L 553.01577 396.621648 
L 554.711385 395.758264 
L 556.422624 394.823176 
L 558.150538 393.955453 
L 559.789345 393.122618 
L 561.483177 392.280243 
L 563.173117 391.425678 
L 564.845713 390.495982 
L 566.593223 389.579304 
L 568.273886 388.694916 
L 569.933861 388.081568 
L 571.670788 387.008769 
L 573.378258 386.129806 
L 575.002774 385.442959 
L 576.683995 384.111784 
L 578.364965 383.267057 
L 580.004046 382.733237 
L 581.715853 381.699098 
L 583.398385 380.93705 
L 585.062688 379.877532 
L 586.774176 378.871612 
L 588.493512 378.268555 
L 590.17217 376.970503 
L 591.815898 376.173566 
L 593.497233 375.138724 
L 595.134054 374.274364 
L 596.753079 373.505968 
L 598.449074 372.566682 
L 600.111202 371.881453 
L 601.818521 370.709083 
L 603.508811 370.183863 
L 605.230402 369.123603 
L 606.875701 368.236337 
L 608.50268 367.396523 
L 610.173069 366.527534 
L 611.778476 365.608349 
L 613.408648 364.902603 
L 615.081791 363.967666 
L 616.736813 363.024854 
L 618.344644 362.276188 
L 620.049257 361.245155 
L 621.676859 360.478618 
L 623.302246 359.715734 
L 624.904541 358.809314 
L 626.538215 358.074981 
L 628.19639 357.044327 
L 629.838086 356.136983 
L 631.464333 355.421434 
L 633.10797 354.495059 
L 634.736693 353.568415 
L 636.388103 352.829534 
L 637.985584 351.966963 
L 639.614996 351.123591 
L 641.269119 350.186065 
L 642.912854 349.370901 
L 644.536753 348.562219 
L 646.183501 347.761033 
L 647.837299 346.84933 
L 649.506922 346.02967 
L 651.083649 345.087031 
L 652.71034 344.319207 
L 654.303797 343.581971 
L 655.916431 342.700196 
L 657.525164 341.981925 
L 659.111472 340.983908 
L 660.759917 340.16601 
L 662.339512 339.322412 
L 663.985054 338.340494 
L 665.638595 337.575354 
L 667.24763 336.979439 
L 668.804348 335.976773 
L 670.398655 335.012628 
L 671.999995 334.256502 
L 673.601325 333.476637 
L 675.189837 332.447741 
L 676.790785 331.481139 
L 678.424614 330.648077 
L 680.062185 329.83302 
L 681.702646 328.956752 
L 683.273532 328.190036 
L 684.827257 327.380198 
L 686.437461 326.414518 
L 688.024916 325.591028 
L 689.664355 324.706112 
L 691.247795 323.968093 
L 692.890667 323.185029 
L 694.480857 322.260785 
L 696.020692 321.610044 
L 697.606363 320.781642 
L 699.207007 320.009281 
L 700.775297 319.059682 
L 702.278775 318.516263 
L 703.847111 317.72723 
L 705.482548 316.779967 
L 707.07184 316.074347 
L 708.669996 315.137562 
L 710.233827 314.358572 
L 711.783731 313.483169 
L 713.362532 312.640879 
L 714.901896 311.761385 
L 716.444003 311.137706 
L 718.02886 310.10526 
L 719.568344 309.413023 
L 721.113367 308.306193 
L 722.624558 307.487351 
L 724.197091 306.716171 
L 725.755931 305.89516 
L 727.286622 305.135237 
L 728.846546 304.176522 
L 730.364055 303.393525 
L 731.896535 302.559508 
L 733.455784 301.564717 
L 734.981066 300.673684 
L 736.557246 300.020954 
L 738.139219 298.92371 
L 739.622205 298.305996 
L 741.210895 297.417809 
L 742.675289 296.911758 
L 744.252524 295.758361 
L 745.752625 294.959462 
L 747.298906 294.291608 
L 748.850542 293.424646 
L 750.323064 292.724077 
L 751.834117 291.712508 
L 753.340321 290.984493 
L 754.823486 290.15132 
L 756.319913 289.355936 
L 757.832401 288.531385 
L 757.832401 283.444158 
L 757.832401 283.444158 
L 756.319913 284.219739 
L 754.823486 285.047639 
L 753.340321 285.804135 
L 751.834117 286.783672 
L 750.323064 287.279617 
L 748.850542 288.154446 
L 747.298906 288.868513 
L 745.752625 289.892857 
L 744.252524 290.656379 
L 742.675289 291.154077 
L 741.210895 292.351937 
L 739.622205 293.05689 
L 738.139219 293.99348 
L 736.557246 294.418896 
L 734.981066 295.475642 
L 733.455784 296.294753 
L 731.896535 296.966627 
L 730.364055 298.124567 
L 728.846546 298.993995 
L 727.286622 299.751959 
L 725.755931 300.726089 
L 724.197091 301.616327 
L 722.624558 302.485486 
L 721.113367 303.200123 
L 719.568344 303.758539 
L 718.02886 304.857683 
L 716.444003 305.469395 
L 714.901896 306.607013 
L 713.362532 307.208291 
L 711.783731 308.145589 
L 710.233827 308.999565 
L 708.669996 310.002605 
L 707.07184 310.604411 
L 705.482548 311.760079 
L 703.847111 312.357444 
L 702.278775 313.222756 
L 700.775297 314.25655 
L 699.207007 314.729839 
L 697.606363 315.725779 
L 696.020692 316.50504 
L 694.480857 317.31114 
L 692.890667 317.881697 
L 691.247795 318.890017 
L 689.664355 319.754765 
L 688.024916 320.422283 
L 686.437461 321.231723 
L 684.827257 321.960939 
L 683.273532 322.892829 
L 681.702646 323.689308 
L 680.062185 324.549406 
L 678.424614 325.503462 
L 676.790785 326.2719 
L 675.189837 326.962388 
L 673.601325 327.701927 
L 671.999995 328.852015 
L 670.398655 329.709927 
L 668.804348 330.53783 
L 667.24763 331.177229 
L 665.638595 332.254776 
L 663.985054 333.141646 
L 662.339512 333.895223 
L 660.759917 334.882786 
L 659.111472 335.859324 
L 657.525164 336.241349 
L 655.916431 337.325371 
L 654.303797 338.092687 
L 652.71034 339.031943 
L 651.083649 340.014235 
L 649.506922 340.709655 
L 647.837299 341.428189 
L 646.183501 342.298745 
L 644.536753 343.173671 
L 642.912854 344.224486 
L 641.269119 345.050524 
L 639.614996 345.738827 
L 637.985584 346.564813 
L 636.388103 347.474889 
L 634.736693 348.419372 
L 633.10797 349.188076 
L 631.464333 350.024791 
L 629.838086 350.973997 
L 628.19639 351.724637 
L 626.538215 352.364193 
L 624.904541 353.468826 
L 623.302246 354.390798 
L 621.676859 355.286567 
L 620.049257 356.141991 
L 618.344644 356.7597 
L 616.736813 357.925341 
L 615.081791 358.589942 
L 613.408648 359.487418 
L 611.778476 360.439124 
L 610.173069 361.182238 
L 608.50268 362.132977 
L 606.875701 362.957125 
L 605.230402 363.823107 
L 603.508811 364.522793 
L 601.818521 365.731083 
L 600.111202 366.098156 
L 598.449074 367.426024 
L 596.753079 368.175207 
L 595.134054 369.105196 
L 593.497233 369.827672 
L 591.815898 370.562606 
L 590.17217 371.576667 
L 588.493512 372.115587 
L 586.774176 373.398372 
L 585.062688 374.286432 
L 583.398385 375.238197 
L 581.715853 376.348729 
L 580.004046 376.990805 
L 578.364965 378.274186 
L 576.683995 378.994034 
L 575.002774 379.338055 
L 573.378258 380.59784 
L 571.670788 381.547368 
L 569.933861 382.343523 
L 568.273886 383.408247 
L 566.593223 384.271295 
L 564.845713 385.00672 
L 563.173117 385.939581 
L 561.483177 386.841512 
L 559.789345 387.841178 
L 558.150538 388.616947 
L 556.422624 389.480907 
L 554.711385 390.331656 
L 553.01577 391.167396 
L 551.299672 392.194922 
L 549.557227 392.814823 
L 547.866816 393.973237 
L 546.193091 394.765245 
L 544.429486 395.520535 
L 542.66963 396.452995 
L 540.912217 397.176627 
L 539.143731 398.103394 
L 537.48384 398.681079 
L 535.797181 399.820899 
L 534.050181 400.490425 
L 532.351456 401.682213 
L 530.643211 402.49996 
L 528.899076 403.533322 
L 527.202336 404.465069 
L 525.397344 404.991434 
L 523.641634 406.165868 
L 521.874114 407.0471 
L 520.136142 408.020182 
L 518.394766 408.852114 
L 516.651351 409.766212 
L 514.883731 410.62215 
L 513.081772 411.837389 
L 511.336964 412.541678 
L 509.56537 413.423309 
L 507.802183 414.528411 
L 506.115619 415.291805 
L 504.397289 415.970504 
L 502.641949 416.989844 
L 500.912094 417.860752 
L 499.130594 418.755224 
L 497.372895 419.855479 
L 495.58805 420.741793 
L 493.76146 421.756681 
L 491.939425 422.607203 
L 490.114818 423.639269 
L 488.325877 424.429025 
L 486.561491 425.406648 
L 484.779894 426.172297 
L 482.996359 427.086416 
L 481.248946 428.301201 
L 479.4363 429.34505 
L 477.646195 430.026789 
L 475.890128 431.068397 
L 474.173812 431.879543 
L 472.409408 433.086962 
L 470.660194 433.749916 
L 468.910582 434.653792 
L 467.152672 435.745812 
L 465.348006 436.756728 
L 463.587734 437.426318 
L 461.884191 438.486309 
L 460.124583 438.984959 
L 458.43816 440.067092 
L 456.74168 441.020102 
L 455.043854 441.621913 
L 453.354448 442.69449 
L 451.695064 443.768835 
L 450.019002 444.377482 
L 448.383134 445.24747 
L 446.664888 446.156608 
L 445.03298 447.201877 
L 443.406243 448.235273 
L 441.753446 449.098406 
L 440.110186 449.729558 
L 438.516421 450.793209 
L 436.907707 451.704592 
L 435.331309 452.631841 
L 433.771469 453.622552 
L 432.255425 454.501687 
L 430.73847 455.583847 
L 429.244763 456.170785 
L 427.797852 457.347698 
L 426.330112 458.155116 
L 424.908897 458.996137 
L 423.494945 459.795193 
L 422.080964 460.511823 
L 420.709918 461.395497 
L 419.354971 462.408878 
L 418.026586 463.254434 
L 416.701287 464.098365 
L 415.358894 464.525389 
L 413.975306 465.38126 
L 412.582449 466.257064 
L 411.1803 467.138027 
L 409.817939 467.856963 
L 408.508253 468.387665 
L 407.166008 469.538009 
L 405.802364 470.381976 
L 404.437421 471.15831 
L 403.031892 471.863777 
L 401.687627 472.661222 
L 400.270497 473.307247 
L 398.918078 474.153084 
L 397.46757 475.134991 
L 395.984808 476.046576 
L 394.503968 476.768022 
L 392.991353 477.737449 
L 391.47947 478.45485 
L 389.97188 479.457177 
L 388.361976 480.353886 
L 386.826222 481.145253 
L 385.229509 482.317958 
L 383.612603 483.197906 
L 381.959081 484.017814 
L 380.326003 484.975002 
L 378.630601 485.908024 
L 376.903564 486.861965 
L 375.204014 487.727867 
L 373.404771 488.723206 
L 371.62936 489.888052 
L 369.843229 490.620758 
L 368.048559 491.529708 
L 366.208875 492.670829 
L 364.356714 493.6845 
L 362.45999 495.159358 
L 360.594213 495.754442 
L 358.729931 496.763105 
L 356.831204 497.983263 
L 354.940068 499.064459 
L 353.018749 499.879429 
L 351.153986 500.792406 
L 349.269615 502.151822 
L 347.36686 502.980457 
L 345.49132 504.007938 
L 343.570963 504.893398 
L 341.690908 505.90442 
L 339.750122 507.341705 
L 337.852569 508.22766 
L 335.903135 509.206879 
L 333.961564 509.930247 
L 332.064201 511.308181 
L 330.096553 512.115318 
L 328.117437 513.34482 
L 326.191835 514.417955 
L 324.252305 515.80084 
L 322.313229 516.69925 
L 320.36702 517.685787 
L 318.405667 518.69647 
L 316.381223 519.564272 
L 314.435155 520.848798 
L 312.475279 521.671945 
L 310.58347 522.680878 
L 308.661909 523.913198 
L 306.779853 524.794546 
L 304.919124 525.961946 
L 303.006355 526.897586 
L 301.136203 527.755283 
L 299.201908 528.623718 
L 297.268674 530.024443 
L 295.351362 530.691249 
L 293.432189 532.091632 
L 291.529787 533.060886 
L 289.603407 534.048178 
L 287.70828 534.976729 
L 285.822627 536.004172 
L 283.907551 536.92788 
L 282.017739 537.988815 
L 280.083624 538.96408 
L 278.194285 539.594158 
L 276.285409 540.951175 
L 274.412547 541.665887 
L 272.536364 542.767069 
L 270.642913 543.485852 
L 268.732456 544.517055 
L 266.85952 545.421178 
L 264.987617 546.569367 
L 263.066169 547.500267 
L 261.197335 548.388473 
L 259.28116 549.278364 
L 257.41821 550.301877 
L 255.471274 551.131881 
L 253.607941 552.418075 
L 251.677647 553.27068 
L 249.794518 554.223934 
L 247.918034 554.95638 
L 246.01103 556.130068 
L 244.103577 557.202386 
L 242.266365 558.163125 
L 240.346289 559.293732 
L 238.451515 560.311244 
L 236.495403 561.313209 
L 234.524317 562.576298 
L 232.590476 563.311716 
L 230.671275 564.223326 
L 228.72358 565.275807 
L 226.819416 566.430282 
L 224.905612 567.499761 
L 223.005274 568.506488 
L 221.103426 569.442116 
L 219.220722 570.431029 
L 217.286154 571.249906 
L 215.38801 572.283725 
L 213.485819 573.321525 
L 211.642136 574.2055 
L 209.712335 575.029899 
L 207.821723 576.249033 
L 205.948291 576.914516 
L 204.121377 577.895081 
L 202.258094 578.717617 
L 200.373931 579.811207 
L 198.440404 581.007801 
L 196.562315 581.842031 
L 194.657015 583.021321 
L 192.791489 583.957921 
L 190.919485 585.004537 
L 189.025421 585.558085 
L 187.147709 586.819101 
L 185.234305 587.951491 
L 183.363491 588.96802 
L 181.480003 589.998015 
L 179.561396 590.639987 
L 177.615896 591.738242 
L 175.743386 592.550817 
L 173.826558 593.584425 
L 171.913542 594.426135 
L 170.040869 595.67518 
L 168.140258 596.575511 
L 166.244089 597.601922 
L 164.288918 598.810059 
L 162.338634 599.66382 
L 160.49 600.708663 
L 158.605695 601.547017 
L 156.709667 602.786655 
L 154.799911 603.551105 
L 152.861499 604.519174 
L 150.95418 605.390198 
L 149.105462 606.223188 
L 147.185889 607.391467 
L 145.222555 608.166066 
L 143.297523 609.327224 
L 141.427886 610.255711 
L 139.53816 611.144047 
L 137.674743 612.321982 
L 135.74455 612.995723 
L 133.848741 614.059797 
L 131.924828 615.151433 
L 130.010015 616.123649 
L 128.142512 617.120329 
L 126.306714 617.957861 
L 124.400947 619.52288 
L 122.480371 620.322661 
L 120.601283 621.284166 
L 118.684154 622.226193 
L 116.730888 623.282263 
L 114.829635 624.179412 
L 112.883922 625.002074 
L 110.962176 626.151069 
L 109.026507 627.103189 
L 107.147267 628.138778 
L 105.2283 629.045025 
L 103.361438 630.093982 
L 101.44759 631.064468 
L 99.526435 632.15625 
L 97.626605 632.863971 
L 95.728092 633.826387 
L 93.824581 634.680877 
L 91.941062 635.889093 
L 90.051852 636.736687 
L 88.157789 637.547808 
L 86.212939 638.685335 
L 84.308252 639.63691 
L 82.480277 640.601071 
L 80.615336 641.817696 
L 78.735935 642.713902 
L 76.87121 643.705795 
L 74.966726 644.646951 
L 73.074849 645.745997 
L 71.200794 646.887134 
L 69.298447 647.948615 
L 67.397747 648.758218 
L 65.53332 649.469597 
L 63.591989 650.858809 
L 61.674028 651.602193 
L 59.754582 652.462459 
L 57.838425 653.397549 
L 55.93191 654.617626 
L 54.044163 655.550446 
L 52.108123 656.416832 
L 50.235484 657.620516 
L 48.277973 658.657851 
L 46.332323 659.217849 
L 44.479861 660.274648 
L 42.546759 661.405903 
L 40.646865 662.504995 
L 38.745199 663.419964 
L 36.845843 663.997653 
L 35.018626 665.236584 
L 33.20368 666.061768 
L 31.336738 667.100857 
L 29.415679 668.165961 
L 27.480792 668.977684 
L 25.568991 670.061837 
L 23.683067 670.89873 
L 21.789807 671.964746 
L 19.928054 672.92044 
L 18.089343 674.025691 
L 16.184103 675.08798 
L 14.278329 675.928434 
L 12.36029 676.994416 
L 10.467331 677.929312 
L 8.540038 678.574697 
L 6.660433 679.865743 
L 4.752614 680.649246 
L 2.857247 681.558963 
L 0.937826 682.416077 
L -0.982832 683.489772 
L -2.864819 684.174759 
L -4.73387 685.201869 
L -6.613573 686.457644 
L -8.47531 687.348229 
L -10.381439 688.28328 
L -12.259982 689.412754 
L -14.18476 690.344771 
L -16.087913 691.236712 
L -18.012278 692.470684 
L -19.913798 693.01051 
L -21.817061 694.090632 
L -23.698699 695.193361 
L -25.554085 696.248681 
L -27.491045 697.208 
L -29.342249 698.153106 
L -31.252988 699.371317 
L -33.098432 700.483409 
L -34.955098 701.387024 
L -36.833361 702.407234 
L -38.723943 703.177635 
L -40.594494 704.364304 
L -42.478238 705.224406 
L -44.364856 706.407354 
L -46.316999 707.419297 
L -48.210391 708.279555 
L -50.079275 709.381414 
L -51.935687 710.153919 
L -53.83339 711.059141 
L -55.724092 712.073772 
L -57.623449 713.081832 
L -59.481888 714.107269 
L -61.374598 714.615305 
L -63.225156 715.74729 
L -65.061021 716.963878 
L -66.911198 717.791516 
L -68.824907 718.701257 
L -70.718529 719.893342 
L -72.575361 720.597989 
L -74.462053 721.798486 
L -76.311949 723.063928 
L -78.178919 723.789375 
L -80.031479 724.738611 
L -81.913864 725.684172 
L -83.785631 726.649997 
L -85.632306 727.691508 
L -87.501897 728.698238 
L -89.373111 729.535009 
L -91.276902 730.578467 
L -93.22557 731.546777 
L -95.086853 732.382639 
L -96.991951 733.540322 
L -98.85822 734.159197 
L -100.727141 735.045272 
L -102.583568 736.07308 
L -104.485057 737.380679 
L -106.390744 738.014135 
L -108.252256 739.054504 
L -110.156073 740.201086 
L -112.023833 740.851903 
L -113.900856 742.380296 
L -115.753744 742.949223 
L -117.632833 743.769403 
L -119.476553 745.010848 
L -121.346291 745.632859 
L -123.230351 746.738704 
L -125.085535 747.551607 
L -126.970642 748.765538 
L -128.856733 749.696783 
L -130.727854 750.773962 
L -132.587897 751.437773 
L -134.437832 752.787825 
L -136.329658 753.753855 
L -138.252718 754.569382 
L -140.126564 755.548863 
L -141.984113 756.577967 
L -143.798052 757.538578 
L -145.718719 758.536624 
L -147.617438 759.477174 
L -149.498699 760.607448 
L -151.342667 761.572224 
L -153.251983 762.337708 
L -155.175791 763.282933 
L -157.055853 764.220295 
L -158.896071 765.197072 
L -160.731329 766.094491 
L -162.595488 767.074341 
L -164.46064 768.096562 
L -166.327328 769.181977 
L -168.21555 770.149312 
L -170.102652 770.761848 
L -171.918754 771.822843 
L -173.836879 773.114273 
L -175.726693 773.953184 
L -177.567018 774.991154 
L -179.505837 775.984302 
L -181.368167 777.071899 
L -183.246444 777.843309 
L -185.158587 779.091552 
L -187.046313 780.13739 
L -188.870013 780.751416 
L -190.799939 781.513463 
L -192.670448 782.461325 
L -194.54166 783.330191 
L -196.412552 784.426177 
L -198.276237 785.46001 
L -200.133041 786.308459 
L -201.991631 787.310968 
L -203.893064 788.443533 
L -205.751505 789.3224 
L -207.612521 790.387086 
L -209.500419 791.420904 
L -211.433699 792.390608 
L -213.315365 792.964903 
L -215.181728 793.953622 
L -217.035771 794.867675 
L -218.885093 796.118415 
L -220.728757 796.847987 
L -222.575357 797.612307 
L -224.470875 798.701541 
L -226.345651 799.725724 
L -228.234747 800.978871 
L -230.145054 801.845253 
L -232.071534 802.764461 
L -233.918502 803.683311 
L -235.76108 804.697264 
L -237.655855 805.51449 
L -239.551761 806.895658 
L -241.408529 807.452824 
L -243.248129 808.582272 
L -245.101107 809.490135 
L -246.992685 810.574808 
L -248.887542 811.339371 
L -250.75559 812.665848 
L -252.67855 813.447717 
L -254.55844 814.544628 
L -256.433203 815.576055 
L -258.308128 816.198591 
L -260.219311 817.61831 
L -262.046635 818.387169 
L -263.9031 819.463127 
L -265.746755 820.484432 
L -267.529445 821.169186 
L -269.359704 822.186367 
L -271.229543 823.228619 
L -273.059004 824.104807 
L -274.902144 825.11386 
L -276.730161 826.122192 
L -278.590178 826.893142 
L -280.442012 827.825924 
L -282.17106 828.850993 
L -284.050371 829.720275 
L -285.930076 830.697398 
L -287.776301 831.570491 
L -289.592667 832.612461 
L -291.457854 833.48815 
L -293.270034 834.498769 
L -295.052985 835.416062 
L -296.934652 836.401353 
L -298.762553 837.330719 
L -300.576417 838.30104 
L -302.444485 839.394765 
L -304.25998 840.07264 
L -306.053804 841.203384 
L -307.862797 842.114121 
L -309.703386 843.109869 
z
" clip-path="url(#p43e653d81c)" style="fill: #808080; fill-opacity: 0.25; stroke: #808080; stroke-opacity: 0.25"/>
   </g>
   <g id="PathCollection_1">
    <defs>
     <path id="m578f71d1d7" d="M 0 3 
C 0.795609 3 1.55874 2.683901 2.12132 2.12132 
C 2.683901 1.55874 3 0.795609 3 0 
C 3 -0.795609 2.683901 -1.55874 2.12132 -2.12132 
C 1.55874 -2.683901 0.795609 -3 0 -3 
C -0.795609 -3 -1.55874 -2.683901 -2.12132 -2.12132 
C -2.683901 -1.55874 -3 -0.795609 -3 0 
C -3 0.795609 -2.683901 1.55874 -2.12132 2.12132 
C -1.55874 2.683901 -0.795609 3 0 3 
z
" style="stroke: #000000"/>
    </defs>
    <g clip-path="url(#p43e653d81c)">
     <use xlink:href="#m578f71d1d7" x="409.163096" y="475.109873" style="stroke: #000000"/>
    </g>
   </g>
   <g id="PathCollection_2">
    <g clip-path="url(#p43e653d81c)">
     <use xlink:href="#m578f71d1d7" x="409.163096" y="468.368554" style="stroke: #000000"/>
    </g>
   </g>
   <g id="matplotlib.axis_1">
    <g id="xtick_1">
     <g id="line2d_1">
      <defs>
       <path id="mbc006e9403" d="M 0 0 
L 0 3.5 
" style="stroke: #000000; stroke-width: 3"/>
      </defs>
      <g>
       <use xlink:href="#mbc006e9403" x="172.331923" y="603.52" style="stroke: #000000; stroke-width: 3"/>
      </g>
     </g>
     <g id="text_1">
      <!-- 1.5 -->
      <g transform="translate(144.501454 637.114531) scale(0.35 -0.35)">
       <defs>
        <path id="DejaVuSans-31" d="M 794 531 
L 1825 531 
L 1825 4091 
L 703 3866 
L 703 4441 
L 1819 4666 
L 2450 4666 
L 2450 531 
L 3481 531 
L 3481 0 
L 794 0 
L 794 531 
z
" transform="scale(0.015625)"/>
        <path id="DejaVuSans-2e" d="M 684 794 
L 1344 794 
L 1344 0 
L 684 0 
L 684 794 
z
" transform="scale(0.015625)"/>
        <path id="DejaVuSans-35" d="M 691 4666 
L 3169 4666 
L 3169 4134 
L 1269 4134 
L 1269 2991 
Q 1406 3038 1543 3061 
Q 1681 3084 1819 3084 
Q 2600 3084 3056 2656 
Q 3513 2228 3513 1497 
Q 3513 744 3044 326 
Q 2575 -91 1722 -91 
Q 1428 -91 1123 -41 
Q 819 9 494 109 
L 494 744 
Q 775 591 1075 516 
Q 1375 441 1709 441 
Q 2250 441 2565 725 
Q 2881 1009 2881 1497 
Q 2881 1984 2565 2268 
Q 2250 2553 1709 2553 
Q 1456 2553 1204 2497 
Q 953 2441 691 2322 
L 691 4666 
z
" transform="scale(0.015625)"/>
       </defs>
       <use xlink:href="#DejaVuSans-31"/>
       <use xlink:href="#DejaVuSans-2e" x="63.623047"/>
       <use xlink:href="#DejaVuSans-35" x="95.410156"/>
      </g>
     </g>
    </g>
    <g id="xtick_2">
     <g id="line2d_2">
      <g>
       <use xlink:href="#mbc006e9403" x="333.607271" y="603.52" style="stroke: #000000; stroke-width: 3"/>
      </g>
     </g>
     <g id="text_2">
      <!-- 2.0 -->
      <g transform="translate(305.776802 637.114531) scale(0.35 -0.35)">
       <defs>
        <path id="DejaVuSans-32" d="M 1228 531 
L 3431 531 
L 3431 0 
L 469 0 
L 469 531 
Q 828 903 1448 1529 
Q 2069 2156 2228 2338 
Q 2531 2678 2651 2914 
Q 2772 3150 2772 3378 
Q 2772 3750 2511 3984 
Q 2250 4219 1831 4219 
Q 1534 4219 1204 4116 
Q 875 4013 500 3803 
L 500 4441 
Q 881 4594 1212 4672 
Q 1544 4750 1819 4750 
Q 2544 4750 2975 4387 
Q 3406 4025 3406 3419 
Q 3406 3131 3298 2873 
Q 3191 2616 2906 2266 
Q 2828 2175 2409 1742 
Q 1991 1309 1228 531 
z
" transform="scale(0.015625)"/>
        <path id="DejaVuSans-30" d="M 2034 4250 
Q 1547 4250 1301 3770 
Q 1056 3291 1056 2328 
Q 1056 1369 1301 889 
Q 1547 409 2034 409 
Q 2525 409 2770 889 
Q 3016 1369 3016 2328 
Q 3016 3291 2770 3770 
Q 2525 4250 2034 4250 
z
M 2034 4750 
Q 2819 4750 3233 4129 
Q 3647 3509 3647 2328 
Q 3647 1150 3233 529 
Q 2819 -91 2034 -91 
Q 1250 -91 836 529 
Q 422 1150 422 2328 
Q 422 3509 836 4129 
Q 1250 4750 2034 4750 
z
" transform="scale(0.015625)"/>
       </defs>
       <use xlink:href="#DejaVuSans-32"/>
       <use xlink:href="#DejaVuSans-2e" x="63.623047"/>
       <use xlink:href="#DejaVuSans-30" x="95.410156"/>
      </g>
     </g>
    </g>
    <g id="xtick_3">
     <g id="line2d_3">
      <g>
       <use xlink:href="#mbc006e9403" x="494.882619" y="603.52" style="stroke: #000000; stroke-width: 3"/>
      </g>
     </g>
     <g id="text_3">
      <!-- 2.5 -->
      <g transform="translate(467.052151 637.114531) scale(0.35 -0.35)">
       <use xlink:href="#DejaVuSans-32"/>
       <use xlink:href="#DejaVuSans-2e" x="63.623047"/>
       <use xlink:href="#DejaVuSans-35" x="95.410156"/>
      </g>
     </g>
    </g>
    <g id="xtick_4">
     <g id="line2d_4">
      <g>
       <use xlink:href="#mbc006e9403" x="656.157968" y="603.52" style="stroke: #000000; stroke-width: 3"/>
      </g>
     </g>
     <g id="text_4">
      <!-- 3.0 -->
      <g transform="translate(628.327499 637.114531) scale(0.35 -0.35)">
       <defs>
        <path id="DejaVuSans-33" d="M 2597 2516 
Q 3050 2419 3304 2112 
Q 3559 1806 3559 1356 
Q 3559 666 3084 287 
Q 2609 -91 1734 -91 
Q 1441 -91 1130 -33 
Q 819 25 488 141 
L 488 750 
Q 750 597 1062 519 
Q 1375 441 1716 441 
Q 2309 441 2620 675 
Q 2931 909 2931 1356 
Q 2931 1769 2642 2001 
Q 2353 2234 1838 2234 
L 1294 2234 
L 1294 2753 
L 1863 2753 
Q 2328 2753 2575 2939 
Q 2822 3125 2822 3475 
Q 2822 3834 2567 4026 
Q 2313 4219 1838 4219 
Q 1578 4219 1281 4162 
Q 984 4106 628 3988 
L 628 4550 
Q 988 4650 1302 4700 
Q 1616 4750 1894 4750 
Q 2613 4750 3031 4423 
Q 3450 4097 3450 3541 
Q 3450 3153 3228 2886 
Q 3006 2619 2597 2516 
z
" transform="scale(0.015625)"/>
       </defs>
       <use xlink:href="#DejaVuSans-33"/>
       <use xlink:href="#DejaVuSans-2e" x="63.623047"/>
       <use xlink:href="#DejaVuSans-30" x="95.410156"/>
      </g>
     </g>
    </g>
    <g id="text_5">
     <!-- Cumulative total (cts) -->
     <g transform="translate(230.001874 674.987969) scale(0.35 -0.35)">
      <defs>
       <path id="DejaVuSans-43" d="M 4122 4306 
L 4122 3641 
Q 3803 3938 3442 4084 
Q 3081 4231 2675 4231 
Q 1875 4231 1450 3742 
Q 1025 3253 1025 2328 
Q 1025 1406 1450 917 
Q 1875 428 2675 428 
Q 3081 428 3442 575 
Q 3803 722 4122 1019 
L 4122 359 
Q 3791 134 3420 21 
Q 3050 -91 2638 -91 
Q 1578 -91 968 557 
Q 359 1206 359 2328 
Q 359 3453 968 4101 
Q 1578 4750 2638 4750 
Q 3056 4750 3426 4639 
Q 3797 4528 4122 4306 
z
" transform="scale(0.015625)"/>
       <path id="DejaVuSans-75" d="M 544 1381 
L 544 3500 
L 1119 3500 
L 1119 1403 
Q 1119 906 1312 657 
Q 1506 409 1894 409 
Q 2359 409 2629 706 
Q 2900 1003 2900 1516 
L 2900 3500 
L 3475 3500 
L 3475 0 
L 2900 0 
L 2900 538 
Q 2691 219 2414 64 
Q 2138 -91 1772 -91 
Q 1169 -91 856 284 
Q 544 659 544 1381 
z
M 1991 3584 
L 1991 3584 
z
" transform="scale(0.015625)"/>
       <path id="DejaVuSans-6d" d="M 3328 2828 
Q 3544 3216 3844 3400 
Q 4144 3584 4550 3584 
Q 5097 3584 5394 3201 
Q 5691 2819 5691 2113 
L 5691 0 
L 5113 0 
L 5113 2094 
Q 5113 2597 4934 2840 
Q 4756 3084 4391 3084 
Q 3944 3084 3684 2787 
Q 3425 2491 3425 1978 
L 3425 0 
L 2847 0 
L 2847 2094 
Q 2847 2600 2669 2842 
Q 2491 3084 2119 3084 
Q 1678 3084 1418 2786 
Q 1159 2488 1159 1978 
L 1159 0 
L 581 0 
L 581 3500 
L 1159 3500 
L 1159 2956 
Q 1356 3278 1631 3431 
Q 1906 3584 2284 3584 
Q 2666 3584 2933 3390 
Q 3200 3197 3328 2828 
z
" transform="scale(0.015625)"/>
       <path id="DejaVuSans-6c" d="M 603 4863 
L 1178 4863 
L 1178 0 
L 603 0 
L 603 4863 
z
" transform="scale(0.015625)"/>
       <path id="DejaVuSans-61" d="M 2194 1759 
Q 1497 1759 1228 1600 
Q 959 1441 959 1056 
Q 959 750 1161 570 
Q 1363 391 1709 391 
Q 2188 391 2477 730 
Q 2766 1069 2766 1631 
L 2766 1759 
L 2194 1759 
z
M 3341 1997 
L 3341 0 
L 2766 0 
L 2766 531 
Q 2569 213 2275 61 
Q 1981 -91 1556 -91 
Q 1019 -91 701 211 
Q 384 513 384 1019 
Q 384 1609 779 1909 
Q 1175 2209 1959 2209 
L 2766 2209 
L 2766 2266 
Q 2766 2663 2505 2880 
Q 2244 3097 1772 3097 
Q 1472 3097 1187 3025 
Q 903 2953 641 2809 
L 641 3341 
Q 956 3463 1253 3523 
Q 1550 3584 1831 3584 
Q 2591 3584 2966 3190 
Q 3341 2797 3341 1997 
z
" transform="scale(0.015625)"/>
       <path id="DejaVuSans-74" d="M 1172 4494 
L 1172 3500 
L 2356 3500 
L 2356 3053 
L 1172 3053 
L 1172 1153 
Q 1172 725 1289 603 
Q 1406 481 1766 481 
L 2356 481 
L 2356 0 
L 1766 0 
Q 1100 0 847 248 
Q 594 497 594 1153 
L 594 3053 
L 172 3053 
L 172 3500 
L 594 3500 
L 594 4494 
L 1172 4494 
z
" transform="scale(0.015625)"/>
       <path id="DejaVuSans-69" d="M 603 3500 
L 1178 3500 
L 1178 0 
L 603 0 
L 603 3500 
z
M 603 4863 
L 1178 4863 
L 1178 4134 
L 603 4134 
L 603 4863 
z
" transform="scale(0.015625)"/>
       <path id="DejaVuSans-76" d="M 191 3500 
L 800 3500 
L 1894 563 
L 2988 3500 
L 3597 3500 
L 2284 0 
L 1503 0 
L 191 3500 
z
" transform="scale(0.015625)"/>
       <path id="DejaVuSans-65" d="M 3597 1894 
L 3597 1613 
L 953 1613 
Q 991 1019 1311 708 
Q 1631 397 2203 397 
Q 2534 397 2845 478 
Q 3156 559 3463 722 
L 3463 178 
Q 3153 47 2828 -22 
Q 2503 -91 2169 -91 
Q 1331 -91 842 396 
Q 353 884 353 1716 
Q 353 2575 817 3079 
Q 1281 3584 2069 3584 
Q 2775 3584 3186 3129 
Q 3597 2675 3597 1894 
z
M 3022 2063 
Q 3016 2534 2758 2815 
Q 2500 3097 2075 3097 
Q 1594 3097 1305 2825 
Q 1016 2553 972 2059 
L 3022 2063 
z
" transform="scale(0.015625)"/>
       <path id="DejaVuSans-20" transform="scale(0.015625)"/>
       <path id="DejaVuSans-6f" d="M 1959 3097 
Q 1497 3097 1228 2736 
Q 959 2375 959 1747 
Q 959 1119 1226 758 
Q 1494 397 1959 397 
Q 2419 397 2687 759 
Q 2956 1122 2956 1747 
Q 2956 2369 2687 2733 
Q 2419 3097 1959 3097 
z
M 1959 3584 
Q 2709 3584 3137 3096 
Q 3566 2609 3566 1747 
Q 3566 888 3137 398 
Q 2709 -91 1959 -91 
Q 1206 -91 779 398 
Q 353 888 353 1747 
Q 353 2609 779 3096 
Q 1206 3584 1959 3584 
z
" transform="scale(0.015625)"/>
       <path id="DejaVuSans-28" d="M 1984 4856 
Q 1566 4138 1362 3434 
Q 1159 2731 1159 2009 
Q 1159 1288 1364 580 
Q 1569 -128 1984 -844 
L 1484 -844 
Q 1016 -109 783 600 
Q 550 1309 550 2009 
Q 550 2706 781 3412 
Q 1013 4119 1484 4856 
L 1984 4856 
z
" transform="scale(0.015625)"/>
       <path id="DejaVuSans-63" d="M 3122 3366 
L 3122 2828 
Q 2878 2963 2633 3030 
Q 2388 3097 2138 3097 
Q 1578 3097 1268 2742 
Q 959 2388 959 1747 
Q 959 1106 1268 751 
Q 1578 397 2138 397 
Q 2388 397 2633 464 
Q 2878 531 3122 666 
L 3122 134 
Q 2881 22 2623 -34 
Q 2366 -91 2075 -91 
Q 1284 -91 818 406 
Q 353 903 353 1747 
Q 353 2603 823 3093 
Q 1294 3584 2113 3584 
Q 2378 3584 2631 3529 
Q 2884 3475 3122 3366 
z
" transform="scale(0.015625)"/>
       <path id="DejaVuSans-73" d="M 2834 3397 
L 2834 2853 
Q 2591 2978 2328 3040 
Q 2066 3103 1784 3103 
Q 1356 3103 1142 2972 
Q 928 2841 928 2578 
Q 928 2378 1081 2264 
Q 1234 2150 1697 2047 
L 1894 2003 
Q 2506 1872 2764 1633 
Q 3022 1394 3022 966 
Q 3022 478 2636 193 
Q 2250 -91 1575 -91 
Q 1294 -91 989 -36 
Q 684 19 347 128 
L 347 722 
Q 666 556 975 473 
Q 1284 391 1588 391 
Q 1994 391 2212 530 
Q 2431 669 2431 922 
Q 2431 1156 2273 1281 
Q 2116 1406 1581 1522 
L 1381 1569 
Q 847 1681 609 1914 
Q 372 2147 372 2553 
Q 372 3047 722 3315 
Q 1072 3584 1716 3584 
Q 2034 3584 2315 3537 
Q 2597 3491 2834 3397 
z
" transform="scale(0.015625)"/>
       <path id="DejaVuSans-29" d="M 513 4856 
L 1013 4856 
Q 1481 4119 1714 3412 
Q 1947 2706 1947 2009 
Q 1947 1309 1714 600 
Q 1481 -109 1013 -844 
L 513 -844 
Q 928 -128 1133 580 
Q 1338 1288 1338 2009 
Q 1338 2731 1133 3434 
Q 928 4138 513 4856 
z
" transform="scale(0.015625)"/>
      </defs>
      <use xlink:href="#DejaVuSans-43"/>
      <use xlink:href="#DejaVuSans-75" x="69.824219"/>
      <use xlink:href="#DejaVuSans-6d" x="133.203125"/>
      <use xlink:href="#DejaVuSans-75" x="230.615234"/>
      <use xlink:href="#DejaVuSans-6c" x="293.994141"/>
      <use xlink:href="#DejaVuSans-61" x="321.777344"/>
      <use xlink:href="#DejaVuSans-74" x="383.056641"/>
      <use xlink:href="#DejaVuSans-69" x="422.265625"/>
      <use xlink:href="#DejaVuSans-76" x="450.048828"/>
      <use xlink:href="#DejaVuSans-65" x="509.228516"/>
      <use xlink:href="#DejaVuSans-20" x="570.751953"/>
      <use xlink:href="#DejaVuSans-74" x="602.539062"/>
      <use xlink:href="#DejaVuSans-6f" x="641.748047"/>
      <use xlink:href="#DejaVuSans-74" x="702.929688"/>
      <use xlink:href="#DejaVuSans-61" x="742.138672"/>
      <use xlink:href="#DejaVuSans-6c" x="803.417969"/>
      <use xlink:href="#DejaVuSans-20" x="831.201172"/>
      <use xlink:href="#DejaVuSans-28" x="862.988281"/>
      <use xlink:href="#DejaVuSans-63" x="902.001953"/>
      <use xlink:href="#DejaVuSans-74" x="956.982422"/>
      <use xlink:href="#DejaVuSans-73" x="996.191406"/>
      <use xlink:href="#DejaVuSans-29" x="1048.291016"/>
     </g>
    </g>
    <g id="text_6">
     <!-- 1e6 -->
     <g transform="translate(613.988747 673.987969) scale(0.35 -0.35)">
      <defs>
       <path id="DejaVuSans-36" d="M 2113 2584 
Q 1688 2584 1439 2293 
Q 1191 2003 1191 1497 
Q 1191 994 1439 701 
Q 1688 409 2113 409 
Q 2538 409 2786 701 
Q 3034 994 3034 1497 
Q 3034 2003 2786 2293 
Q 2538 2584 2113 2584 
z
M 3366 4563 
L 3366 3988 
Q 3128 4100 2886 4159 
Q 2644 4219 2406 4219 
Q 1781 4219 1451 3797 
Q 1122 3375 1075 2522 
Q 1259 2794 1537 2939 
Q 1816 3084 2150 3084 
Q 2853 3084 3261 2657 
Q 3669 2231 3669 1497 
Q 3669 778 3244 343 
Q 2819 -91 2113 -91 
Q 1303 -91 875 529 
Q 447 1150 447 2328 
Q 447 3434 972 4092 
Q 1497 4750 2381 4750 
Q 2619 4750 2861 4703 
Q 3103 4656 3366 4563 
z
" transform="scale(0.015625)"/>
      </defs>
      <use xlink:href="#DejaVuSans-31"/>
      <use xlink:href="#DejaVuSans-65" x="63.623047"/>
      <use xlink:href="#DejaVuSans-36" x="125.146484"/>
     </g>
    </g>
   </g>
   <g id="matplotlib.axis_2">
    <g id="ytick_1">
     <g id="line2d_5">
      <defs>
       <path id="m693a3b4f3f" d="M 0 0 
L -3.5 0 
" style="stroke: #000000; stroke-width: 3"/>
      </defs>
      <g>
       <use xlink:href="#m693a3b4f3f" x="160.49" y="601.104692" style="stroke: #000000; stroke-width: 3"/>
      </g>
     </g>
     <g id="text_7">
      <!-- 0.75 -->
      <g transform="translate(75.560313 614.401957) scale(0.35 -0.35)">
       <defs>
        <path id="DejaVuSans-37" d="M 525 4666 
L 3525 4666 
L 3525 4397 
L 1831 0 
L 1172 0 
L 2766 4134 
L 525 4134 
L 525 4666 
z
" transform="scale(0.015625)"/>
       </defs>
       <use xlink:href="#DejaVuSans-30"/>
       <use xlink:href="#DejaVuSans-2e" x="63.623047"/>
       <use xlink:href="#DejaVuSans-37" x="95.410156"/>
       <use xlink:href="#DejaVuSans-35" x="159.033203"/>
      </g>
     </g>
    </g>
    <g id="ytick_2">
     <g id="line2d_6">
      <g>
       <use xlink:href="#m693a3b4f3f" x="160.49" y="519.241709" style="stroke: #000000; stroke-width: 3"/>
      </g>
     </g>
     <g id="text_8">
      <!-- 1.00 -->
      <g transform="translate(75.560313 532.538975) scale(0.35 -0.35)">
       <use xlink:href="#DejaVuSans-31"/>
       <use xlink:href="#DejaVuSans-2e" x="63.623047"/>
       <use xlink:href="#DejaVuSans-30" x="95.410156"/>
       <use xlink:href="#DejaVuSans-30" x="159.033203"/>
      </g>
     </g>
    </g>
    <g id="ytick_3">
     <g id="line2d_7">
      <g>
       <use xlink:href="#m693a3b4f3f" x="160.49" y="437.378727" style="stroke: #000000; stroke-width: 3"/>
      </g>
     </g>
     <g id="text_9">
      <!-- 1.25 -->
      <g transform="translate(75.560313 450.675992) scale(0.35 -0.35)">
       <use xlink:href="#DejaVuSans-31"/>
       <use xlink:href="#DejaVuSans-2e" x="63.623047"/>
       <use xlink:href="#DejaVuSans-32" x="95.410156"/>
       <use xlink:href="#DejaVuSans-35" x="159.033203"/>
      </g>
     </g>
    </g>
    <g id="ytick_4">
     <g id="line2d_8">
      <g>
       <use xlink:href="#m693a3b4f3f" x="160.49" y="355.515744" style="stroke: #000000; stroke-width: 3"/>
      </g>
     </g>
     <g id="text_10">
      <!-- 1.50 -->
      <g transform="translate(75.560313 368.81301) scale(0.35 -0.35)">
       <use xlink:href="#DejaVuSans-31"/>
       <use xlink:href="#DejaVuSans-2e" x="63.623047"/>
       <use xlink:href="#DejaVuSans-35" x="95.410156"/>
       <use xlink:href="#DejaVuSans-30" x="159.033203"/>
      </g>
     </g>
    </g>
    <g id="ytick_5">
     <g id="line2d_9">
      <g>
       <use xlink:href="#m693a3b4f3f" x="160.49" y="273.652762" style="stroke: #000000; stroke-width: 3"/>
      </g>
     </g>
     <g id="text_11">
      <!-- 1.75 -->
      <g transform="translate(75.560313 286.950027) scale(0.35 -0.35)">
       <use xlink:href="#DejaVuSans-31"/>
       <use xlink:href="#DejaVuSans-2e" x="63.623047"/>
       <use xlink:href="#DejaVuSans-37" x="95.410156"/>
       <use xlink:href="#DejaVuSans-35" x="159.033203"/>
      </g>
     </g>
    </g>
    <g id="ytick_6">
     <g id="line2d_10">
      <g>
       <use xlink:href="#m693a3b4f3f" x="160.49" y="191.789779" style="stroke: #000000; stroke-width: 3"/>
      </g>
     </g>
     <g id="text_12">
      <!-- 2.00 -->
      <g transform="translate(75.560313 205.087045) scale(0.35 -0.35)">
       <use xlink:href="#DejaVuSans-32"/>
       <use xlink:href="#DejaVuSans-2e" x="63.623047"/>
       <use xlink:href="#DejaVuSans-30" x="95.410156"/>
       <use xlink:href="#DejaVuSans-30" x="159.033203"/>
      </g>
     </g>
    </g>
    <g id="ytick_7">
     <g id="line2d_11">
      <g>
       <use xlink:href="#m693a3b4f3f" x="160.49" y="109.926797" style="stroke: #000000; stroke-width: 3"/>
      </g>
     </g>
     <g id="text_13">
      <!-- 2.25 -->
      <g transform="translate(75.560313 123.224063) scale(0.35 -0.35)">
       <use xlink:href="#DejaVuSans-32"/>
       <use xlink:href="#DejaVuSans-2e" x="63.623047"/>
       <use xlink:href="#DejaVuSans-32" x="95.410156"/>
       <use xlink:href="#DejaVuSans-35" x="159.033203"/>
      </g>
     </g>
    </g>
    <g id="text_14">
     <!-- Cumulative solute (cts) -->
     <g transform="translate(64.281406 539.144453) rotate(-90) scale(0.35 -0.35)">
      <use xlink:href="#DejaVuSans-43"/>
      <use xlink:href="#DejaVuSans-75" x="69.824219"/>
      <use xlink:href="#DejaVuSans-6d" x="133.203125"/>
      <use xlink:href="#DejaVuSans-75" x="230.615234"/>
      <use xlink:href="#DejaVuSans-6c" x="293.994141"/>
      <use xlink:href="#DejaVuSans-61" x="321.777344"/>
      <use xlink:href="#DejaVuSans-74" x="383.056641"/>
      <use xlink:href="#DejaVuSans-69" x="422.265625"/>
      <use xlink:href="#DejaVuSans-76" x="450.048828"/>
      <use xlink:href="#DejaVuSans-65" x="509.228516"/>
      <use xlink:href="#DejaVuSans-20" x="570.751953"/>
      <use xlink:href="#DejaVuSans-73" x="602.539062"/>
      <use xlink:href="#DejaVuSans-6f" x="654.638672"/>
      <use xlink:href="#DejaVuSans-6c" x="715.820312"/>
      <use xlink:href="#DejaVuSans-75" x="743.603516"/>
      <use xlink:href="#DejaVuSans-74" x="806.982422"/>
      <use xlink:href="#DejaVuSans-65" x="846.191406"/>
      <use xlink:href="#DejaVuSans-20" x="907.714844"/>
      <use xlink:href="#DejaVuSans-28" x="939.501953"/>
      <use xlink:href="#DejaVuSans-63" x="978.515625"/>
      <use xlink:href="#DejaVuSans-74" x="1033.496094"/>
      <use xlink:href="#DejaVuSans-73" x="1072.705078"/>
      <use xlink:href="#DejaVuSans-29" x="1124.804688"/>
     </g>
    </g>
    <g id="text_15">
     <!-- 1e5 -->
     <g transform="translate(160.49 64.44) scale(0.35 -0.35)">
      <use xlink:href="#DejaVuSans-31"/>
      <use xlink:href="#DejaVuSans-65" x="63.623047"/>
      <use xlink:href="#DejaVuSans-35" x="125.146484"/>
     </g>
    </g>
   </g>
   <g id="line2d_12">
    <path d="M -1 686.209429 
L 12.36029 679.695063 
L 54.044163 658.367987 
L 55.93191 657.43811 
L 59.754582 655.317936 
L 63.591989 653.515418 
L 67.397747 651.484251 
L 71.200794 649.666888 
L 95.728092 636.633577 
L 107.147267 630.964996 
L 112.883922 627.940337 
L 126.306714 621.093143 
L 135.74455 615.994249 
L 137.674743 615.063235 
L 141.427886 613.052393 
L 143.297523 612.163573 
L 145.222555 611.093204 
L 150.95418 608.271516 
L 160.49 603.52 
L 179.561396 593.509027 
L 183.363491 591.72877 
L 200.373931 582.725578 
L 204.121377 580.729108 
L 207.821723 578.88285 
L 223.005274 571.289789 
L 228.72358 568.231288 
L 232.590476 566.130196 
L 234.524317 565.248433 
L 246.01103 559.102274 
L 247.918034 557.955668 
L 255.471274 554.186639 
L 261.197335 551.192279 
L 264.987617 549.412026 
L 270.642913 546.470912 
L 276.285409 543.685151 
L 278.194285 542.597139 
L 285.822627 538.837343 
L 291.529787 535.842188 
L 297.268674 532.831137 
L 303.006355 529.74406 
L 306.779853 527.80988 
L 310.58347 525.715474 
L 312.475279 524.608722 
L 314.435155 523.676768 
L 316.381223 522.541523 
L 324.252305 518.602334 
L 330.096553 515.197695 
L 341.690908 509.000978 
L 345.49132 506.891434 
L 358.729931 499.781088 
L 360.594213 498.685115 
L 362.45999 497.818979 
L 371.62936 492.623269 
L 389.97188 482.219901 
L 394.503968 479.450322 
L 400.270497 476.094428 
L 440.110186 452.688177 
L 445.03298 450.008301 
L 450.019002 447.188159 
L 453.354448 445.47523 
L 456.74168 443.646874 
L 468.910582 437.579668 
L 470.660194 436.56493 
L 474.173812 434.75713 
L 482.996359 429.969853 
L 486.561491 428.103078 
L 497.372895 422.66125 
L 500.912094 420.72017 
L 504.397289 418.863418 
L 544.429486 398.143157 
L 551.299672 394.850519 
L 554.711385 393.04496 
L 583.398385 378.087623 
L 586.774176 376.134992 
L 593.497233 372.483198 
L 598.449074 369.996353 
L 600.111202 368.989805 
L 603.508811 367.353328 
L 613.408648 362.195011 
L 618.344644 359.517944 
L 623.302246 357.053266 
L 628.19639 354.384482 
L 636.388103 350.152212 
L 639.614996 348.431209 
L 642.912854 346.797694 
L 646.183501 345.029889 
L 647.837299 344.138759 
L 651.083649 342.550633 
L 657.525164 339.111637 
L 659.111472 338.421616 
L 670.398655 332.361277 
L 671.999995 331.554259 
L 675.189837 329.705064 
L 694.480857 319.785962 
L 697.606363 318.253711 
L 699.207007 317.36956 
L 702.278775 315.869509 
L 718.02886 307.481471 
L 721 305.814252 
L 721 305.814252 
" clip-path="url(#p43e653d81c)" style="fill: none; stroke: #808080; stroke-width: 4; stroke-linecap: square"/>
   </g>
   <g id="line2d_13">
    <path d="M -1 687.053258 
L 408.508253 475.109873 
L 408.508253 475.109873 
" clip-path="url(#p43e653d81c)" style="fill: none; stroke-dasharray: 7.4,3.2; stroke-dashoffset: 0; stroke: #000000; stroke-width: 2"/>
   </g>
   <g id="line2d_14">
    <path d="M 409.817939 468.368554 
L 721 306.055934 
L 721 306.055934 
" clip-path="url(#p43e653d81c)" style="fill: none; stroke-dasharray: 7.4,3.2; stroke-dashoffset: 0; stroke: #000000; stroke-width: 2"/>
   </g>
   <g id="LineCollection_1">
    <path d="M 409.163096 475.109873 
L 409.163096 468.368554 
" clip-path="url(#p43e653d81c)" style="fill: none; stroke: #000000; stroke-width: 2"/>
   </g>
   <g id="LineCollection_2">
    <path d="M 409.163096 475.467889 
L 409.163096 474.751856 
" clip-path="url(#p43e653d81c)" style="fill: none; stroke: #000000; stroke-width: 1.5"/>
   </g>
   <g id="line2d_15">
    <defs>
     <path id="m6a4672708f" d="M 25 0 
L -25 -0 
" style="stroke: #000000"/>
    </defs>
    <g clip-path="url(#p43e653d81c)">
     <use xlink:href="#m6a4672708f" x="409.163096" y="475.467889" style="stroke: #000000"/>
    </g>
   </g>
   <g id="line2d_16">
    <g clip-path="url(#p43e653d81c)">
     <use xlink:href="#m6a4672708f" x="409.163096" y="474.751856" style="stroke: #000000"/>
    </g>
   </g>
   <g id="LineCollection_3">
    <path d="M 409.163096 468.799354 
L 409.163096 467.937754 
" clip-path="url(#p43e653d81c)" style="fill: none; stroke: #000000; stroke-width: 1.5"/>
   </g>
   <g id="line2d_17">
    <g clip-path="url(#p43e653d81c)">
     <use xlink:href="#m6a4672708f" x="409.163096" y="468.799354" style="stroke: #000000"/>
    </g>
   </g>
   <g id="line2d_18">
    <g clip-path="url(#p43e653d81c)">
     <use xlink:href="#m6a4672708f" x="409.163096" y="467.937754" style="stroke: #000000"/>
    </g>
   </g>
   <g id="line2d_19">
    <path d="M 409.163096 475.109873 
" clip-path="url(#p43e653d81c)" style="fill: none; stroke: #000000; stroke-width: 1.5; stroke-linecap: square"/>
   </g>
   <g id="line2d_20">
    <path d="M 409.163096 468.368554 
" clip-path="url(#p43e653d81c)" style="fill: none; stroke: #000000; stroke-width: 1.5; stroke-linecap: square"/>
   </g>
   <g id="patch_3">
    <path d="M 160.49 603.52 
L 160.49 67.44 
" style="fill: none; stroke: #000000; stroke-width: 3; stroke-linejoin: miter; stroke-linecap: square"/>
   </g>
   <g id="patch_4">
    <path d="M 680.062185 603.52 
L 680.062185 67.44 
" style="fill: none; stroke: #000000; stroke-width: 3; stroke-linejoin: miter; stroke-linecap: square"/>
   </g>
   <g id="patch_5">
    <path d="M 160.49 603.52 
L 680.062185 603.52 
" style="fill: none; stroke: #000000; stroke-width: 3; stroke-linejoin: miter; stroke-linecap: square"/>
   </g>
   <g id="patch_6">
    <path d="M 160.49 67.44 
L 680.062185 67.44 
" style="fill: none; stroke: #000000; stroke-width: 3; stroke-linejoin: miter; stroke-linecap: square"/>
   </g>
   <g id="legend_1">
    <g id="line2d_21">
     <path d="M 436.304372 132.932188 
L 486.304372 132.932188 
L 536.304372 132.932188 
" style="fill: none; stroke: #808080; stroke-width: 4; stroke-linecap: square"/>
    </g>
    <g id="text_16">
     <!-- Ti  -->
     <g transform="translate(576.304372 150.432188) scale(0.5 -0.5)">
      <defs>
       <path id="DejaVuSans-54" d="M -19 4666 
L 3928 4666 
L 3928 4134 
L 2272 4134 
L 2272 0 
L 1638 0 
L 1638 4134 
L -19 4134 
L -19 4666 
z
" transform="scale(0.015625)"/>
      </defs>
      <use xlink:href="#DejaVuSans-54"/>
      <use xlink:href="#DejaVuSans-69" x="57.958984"/>
      <use xlink:href="#DejaVuSans-20" x="85.742188"/>
     </g>
    </g>
   </g>
  </g>
 </g>
 <defs>
  <clipPath id="p43e653d81c">
   <rect x="160.49" y="67.44" width="519.572185" height="536.08"/>
  </clipPath>
 </defs>
</svg>
