<?xml version="1.0" encoding="utf-8" standalone="no"?>
<!DOCTYPE svg PUBLIC "-//W3C//DTD SVG 1.1//EN"
  "http://www.w3.org/Graphics/SVG/1.1/DTD/svg11.dtd">
<svg xmlns:xlink="http://www.w3.org/1999/xlink" width="720pt" height="720pt" viewBox="0 0 720 720" xmlns="http://www.w3.org/2000/svg" version="1.1">
 <metadata>
  <rdf:RDF xmlns:dc="http://purl.org/dc/elements/1.1/" xmlns:cc="http://creativecommons.org/ns#" xmlns:rdf="http://www.w3.org/1999/02/22-rdf-syntax-ns#">
   <cc:Work>
    <dc:type rdf:resource="http://purl.org/dc/dcmitype/StillImage"/>
    <dc:date>2023-11-22T23:30:25.295828</dc:date>
    <dc:format>image/svg+xml</dc:format>
    <dc:creator>
     <cc:Agent>
      <dc:title>Matplotlib v3.7.2, https://matplotlib.org/</dc:title>
     </cc:Agent>
    </dc:creator>
   </cc:Work>
  </rdf:RDF>
 </metadata>
 <defs>
  <style type="text/css">*{stroke-linejoin: round; stroke-linecap: butt}</style>
 </defs>
 <g id="figure_1">
  <g id="patch_1">
   <path d="M 0 720 
L 720 720 
L 720 0 
L 0 0 
z
" style="fill: #ffffff"/>
  </g>
  <g id="axes_1">
   <g id="patch_2">
    <path d="M 37.8 645.56126 
L 616.12252 645.56126 
L 616.12252 67.23874 
L 37.8 67.23874 
z
" style="fill: #ffffff"/>
   </g>
   <g id="patch_3">
    <path d="M 326.96126 115.432283 
C 263.077158 115.432283 201.744235 140.837212 156.571354 186.010093 
C 111.398472 231.182975 85.993543 292.515898 85.993543 356.4 
L 326.96126 356.4 
z
" clip-path="url(#p7044c32a9c)" style="fill: #ffffff"/>
   </g>
   <g id="patch_4">
    <path d="M 85.993543 356.4 
C 85.993543 420.284102 111.398472 481.617025 156.571354 526.789907 
C 201.744235 571.962788 263.077158 597.367717 326.96126 597.367717 
L 326.96126 356.4 
z
" clip-path="url(#p7044c32a9c)" style="fill: #008080"/>
   </g>
   <g id="patch_5">
    <path d="M 326.96126 597.367717 
C 390.845362 597.367717 452.178285 571.962788 497.351167 526.789907 
C 542.524048 481.617025 567.928977 420.284102 567.928977 356.4 
L 326.96126 356.4 
z
" clip-path="url(#p7044c32a9c)" style="fill: #dc143c"/>
   </g>
   <g id="patch_6">
    <path d="M 567.928977 356.4 
C 567.928977 292.515898 542.524048 231.182975 497.351167 186.010093 
C 452.178285 140.837212 390.845362 115.432283 326.96126 115.432283 
L 326.96126 356.4 
z
" clip-path="url(#p7044c32a9c)" style="fill: #ff00ff"/>
   </g>
   <g id="patch_7">
    <path d="M 326.96126 597.367717 
C 390.866646 597.367717 452.163235 571.977838 497.351167 526.789907 
C 542.539098 481.601975 567.928977 420.305385 567.928977 356.4 
C 567.928977 292.494615 542.539098 231.198025 497.351167 186.010093 
C 452.163235 140.822162 390.866646 115.432283 326.96126 115.432283 
C 263.055875 115.432283 201.759285 140.822162 156.571354 186.010093 
C 111.383422 231.198025 85.993543 292.494615 85.993543 356.4 
C 85.993543 420.305385 111.383422 481.601975 156.571354 526.789907 
C 201.759285 571.977838 263.055875 597.367717 326.96126 597.367717 
L 326.96126 597.367717 
z
" clip-path="url(#p7044c32a9c)" style="fill: none; stroke: #000000; stroke-width: 25; stroke-linejoin: miter"/>
   </g>
   <g id="matplotlib.axis_1"/>
   <g id="matplotlib.axis_2"/>
   <g id="line2d_1">
    <path d="M 326.96126 356.4 
L 326.96126 127.480669 
" clip-path="url(#p7044c32a9c)" style="fill: none; stroke: #000000; stroke-width: -0.56; stroke-linecap: square"/>
   </g>
   <g id="line2d_2">
    <path d="M 326.96126 356.4 
L 98.041929 356.4 
" clip-path="url(#p7044c32a9c)" style="fill: none; stroke: #000000; stroke-width: -0.99; stroke-linecap: square"/>
   </g>
   <g id="line2d_3">
    <path d="M 326.96126 356.4 
L 326.96126 585.319331 
" clip-path="url(#p7044c32a9c)" style="fill: none; stroke: #000000; stroke-width: -0.56; stroke-linecap: square"/>
   </g>
   <g id="line2d_4">
    <path d="M 326.96126 356.4 
L 555.880591 356.4 
" clip-path="url(#p7044c32a9c)" style="fill: none; stroke: #000000; stroke-width: -7.4; stroke-linecap: square"/>
   </g>
   <g id="patch_8">
    <path d="M 37.8 645.56126 
L 37.8 67.23874 
" style="fill: none"/>
   </g>
   <g id="patch_9">
    <path d="M 616.12252 645.56126 
L 616.12252 67.23874 
" style="fill: none"/>
   </g>
   <g id="patch_10">
    <path d="M 37.8 645.56126 
L 616.12252 645.56126 
" style="fill: none"/>
   </g>
   <g id="patch_11">
    <path d="M 37.8 67.23874 
L 616.12252 67.23874 
" style="fill: none"/>
   </g>
   <g id="patch_12">
    <path d="M 590.026999 573.270945 
Q 555.882991 573.270945 521.738983 573.270945 
" style="fill: none; stroke: #ff00ff; stroke-linecap: round"/>
   </g>
   <g id="text_1">
    <!-- Γ = 1.0 $\mathregular{nm^{-2}}$ -->
    <g transform="translate(447.445119 645.56126) scale(0.35 -0.35)">
     <defs>
      <path id="DejaVuSans-393" d="M 628 0 
L 628 4666 
L 3531 4666 
L 3531 4134 
L 1259 4134 
L 1259 0 
L 628 0 
z
" transform="scale(0.015625)"/>
      <path id="DejaVuSans-20" transform="scale(0.015625)"/>
      <path id="DejaVuSans-3d" d="M 678 2906 
L 4684 2906 
L 4684 2381 
L 678 2381 
L 678 2906 
z
M 678 1631 
L 4684 1631 
L 4684 1100 
L 678 1100 
L 678 1631 
z
" transform="scale(0.015625)"/>
      <path id="DejaVuSans-31" d="M 794 531 
L 1825 531 
L 1825 4091 
L 703 3866 
L 703 4441 
L 1819 4666 
L 2450 4666 
L 2450 531 
L 3481 531 
L 3481 0 
L 794 0 
L 794 531 
z
" transform="scale(0.015625)"/>
      <path id="DejaVuSans-2e" d="M 684 794 
L 1344 794 
L 1344 0 
L 684 0 
L 684 794 
z
" transform="scale(0.015625)"/>
      <path id="DejaVuSans-30" d="M 2034 4250 
Q 1547 4250 1301 3770 
Q 1056 3291 1056 2328 
Q 1056 1369 1301 889 
Q 1547 409 2034 409 
Q 2525 409 2770 889 
Q 3016 1369 3016 2328 
Q 3016 3291 2770 3770 
Q 2525 4250 2034 4250 
z
M 2034 4750 
Q 2819 4750 3233 4129 
Q 3647 3509 3647 2328 
Q 3647 1150 3233 529 
Q 2819 -91 2034 -91 
Q 1250 -91 836 529 
Q 422 1150 422 2328 
Q 422 3509 836 4129 
Q 1250 4750 2034 4750 
z
" transform="scale(0.015625)"/>
      <path id="DejaVuSans-6e" d="M 3513 2113 
L 3513 0 
L 2938 0 
L 2938 2094 
Q 2938 2591 2744 2837 
Q 2550 3084 2163 3084 
Q 1697 3084 1428 2787 
Q 1159 2491 1159 1978 
L 1159 0 
L 581 0 
L 581 3500 
L 1159 3500 
L 1159 2956 
Q 1366 3272 1645 3428 
Q 1925 3584 2291 3584 
Q 2894 3584 3203 3211 
Q 3513 2838 3513 2113 
z
" transform="scale(0.015625)"/>
      <path id="DejaVuSans-6d" d="M 3328 2828 
Q 3544 3216 3844 3400 
Q 4144 3584 4550 3584 
Q 5097 3584 5394 3201 
Q 5691 2819 5691 2113 
L 5691 0 
L 5113 0 
L 5113 2094 
Q 5113 2597 4934 2840 
Q 4756 3084 4391 3084 
Q 3944 3084 3684 2787 
Q 3425 2491 3425 1978 
L 3425 0 
L 2847 0 
L 2847 2094 
Q 2847 2600 2669 2842 
Q 2491 3084 2119 3084 
Q 1678 3084 1418 2786 
Q 1159 2488 1159 1978 
L 1159 0 
L 581 0 
L 581 3500 
L 1159 3500 
L 1159 2956 
Q 1356 3278 1631 3431 
Q 1906 3584 2284 3584 
Q 2666 3584 2933 3390 
Q 3200 3197 3328 2828 
z
" transform="scale(0.015625)"/>
      <path id="DejaVuSans-2212" d="M 678 2272 
L 4684 2272 
L 4684 1741 
L 678 1741 
L 678 2272 
z
" transform="scale(0.015625)"/>
      <path id="DejaVuSans-32" d="M 1228 531 
L 3431 531 
L 3431 0 
L 469 0 
L 469 531 
Q 828 903 1448 1529 
Q 2069 2156 2228 2338 
Q 2531 2678 2651 2914 
Q 2772 3150 2772 3378 
Q 2772 3750 2511 3984 
Q 2250 4219 1831 4219 
Q 1534 4219 1204 4116 
Q 875 4013 500 3803 
L 500 4441 
Q 881 4594 1212 4672 
Q 1544 4750 1819 4750 
Q 2544 4750 2975 4387 
Q 3406 4025 3406 3419 
Q 3406 3131 3298 2873 
Q 3191 2616 2906 2266 
Q 2828 2175 2409 1742 
Q 1991 1309 1228 531 
z
" transform="scale(0.015625)"/>
     </defs>
     <use xlink:href="#DejaVuSans-393" transform="translate(0 0.765625)"/>
     <use xlink:href="#DejaVuSans-20" transform="translate(55.712891 0.765625)"/>
     <use xlink:href="#DejaVuSans-3d" transform="translate(87.5 0.765625)"/>
     <use xlink:href="#DejaVuSans-20" transform="translate(171.289062 0.765625)"/>
     <use xlink:href="#DejaVuSans-31" transform="translate(203.076172 0.765625)"/>
     <use xlink:href="#DejaVuSans-2e" transform="translate(266.699219 0.765625)"/>
     <use xlink:href="#DejaVuSans-30" transform="translate(298.486328 0.765625)"/>
     <use xlink:href="#DejaVuSans-20" transform="translate(362.109375 0.765625)"/>
     <use xlink:href="#DejaVuSans-6e" transform="translate(393.896484 0.765625)"/>
     <use xlink:href="#DejaVuSans-6d" transform="translate(457.275391 0.765625)"/>
     <use xlink:href="#DejaVuSans-2212" transform="translate(555.644531 39.046875) scale(0.7)"/>
     <use xlink:href="#DejaVuSans-32" transform="translate(614.296875 39.046875) scale(0.7)"/>
    </g>
   </g>
   <g id="patch_13">
    <path d="M 616.12252 553.40752 
Q 616.12252 573.270038 616.12252 593.132555 
" style="fill: none; stroke: #000000; stroke-width: 2; stroke-linecap: round"/>
    <path d="M 609.12252 567.40752 
L 616.12252 553.40752 
L 623.12252 567.40752 
z
" style="stroke: #000000; stroke-width: 2; stroke-linecap: round"/>
    <path d="M 623.12252 579.132555 
L 616.12252 593.132555 
L 609.12252 579.132555 
z
" style="stroke: #000000; stroke-width: 2; stroke-linecap: round"/>
   </g>
   <g id="text_2">
    <!-- Cr -->
    <g style="fill: #ff00ff" transform="translate(519.735434 163.625827) scale(0.7 -0.7)">
     <defs>
      <path id="DejaVuSans-43" d="M 4122 4306 
L 4122 3641 
Q 3803 3938 3442 4084 
Q 3081 4231 2675 4231 
Q 1875 4231 1450 3742 
Q 1025 3253 1025 2328 
Q 1025 1406 1450 917 
Q 1875 428 2675 428 
Q 3081 428 3442 575 
Q 3803 722 4122 1019 
L 4122 359 
Q 3791 134 3420 21 
Q 3050 -91 2638 -91 
Q 1578 -91 968 557 
Q 359 1206 359 2328 
Q 359 3453 968 4101 
Q 1578 4750 2638 4750 
Q 3056 4750 3426 4639 
Q 3797 4528 4122 4306 
z
" transform="scale(0.015625)"/>
      <path id="DejaVuSans-72" d="M 2631 2963 
Q 2534 3019 2420 3045 
Q 2306 3072 2169 3072 
Q 1681 3072 1420 2755 
Q 1159 2438 1159 1844 
L 1159 0 
L 581 0 
L 581 3500 
L 1159 3500 
L 1159 2956 
Q 1341 3275 1631 3429 
Q 1922 3584 2338 3584 
Q 2397 3584 2469 3576 
Q 2541 3569 2628 3553 
L 2631 2963 
z
" transform="scale(0.015625)"/>
     </defs>
     <use xlink:href="#DejaVuSans-43"/>
     <use xlink:href="#DejaVuSans-72" x="69.824219"/>
    </g>
   </g>
  </g>
 </g>
 <defs>
  <clipPath id="p7044c32a9c">
   <rect x="37.8" y="67.23874" width="578.32252" height="578.32252"/>
  </clipPath>
 </defs>
</svg>
